<?xml version="1.0" encoding="utf-8"?>
<!-- Generator: Adobe Illustrator 17.0.0, SVG Export Plug-In . SVG Version: 6.00 Build 0)  -->
<!DOCTYPE svg PUBLIC "-//W3C//DTD SVG 1.1//EN" "http://www.w3.org/Graphics/SVG/1.1/DTD/svg11.dtd">
<svg version="1.1" id="Слой_1" xmlns="http://www.w3.org/2000/svg" xmlns:xlink="http://www.w3.org/1999/xlink" x="0px" y="0px"
	 width="183px" height="170px" viewBox="0 0 183 170" enable-background="new 0 0 183 170" xml:space="preserve">
<g id="_1945567727344">
	<path fill="#E1F2FD" d="M93.819,16.784c-11.508,0-22.885,2.946-33.205,8.724c-15.886,8.887-27.361,23.439-32.309,40.969
		s-2.783,35.939,6.12,51.825c8.887,15.902,23.455,27.378,40.969,32.326c17.53,4.948,35.939,2.767,51.842-6.12
		c15.886-8.903,27.378-23.455,32.326-40.985c4.932-17.53,2.767-35.939-6.136-51.825c-8.887-15.886-23.455-27.361-40.985-32.309
		C106.304,17.647,100.037,16.784,93.819,16.784L93.819,16.784z M93.933,169.949c-7.764,0-15.496-1.074-23.08-3.207
		c-11.036-3.125-21.127-8.301-29.998-15.414c-8.578-6.869-15.658-15.219-21.046-24.838s-8.806-20.037-10.173-30.926
		c-1.416-11.28-0.57-22.592,2.555-33.628C15.3,50.9,20.476,40.808,27.589,31.938c6.869-8.578,15.235-15.658,24.855-21.046
		c9.62-5.388,20.02-8.806,30.91-10.173c11.296-1.416,22.608-0.57,33.644,2.555c11.036,3.109,21.127,8.301,29.998,15.398
		c8.578,6.869,15.658,15.219,21.046,24.855c5.388,9.62,8.806,20.02,10.173,30.91c1.432,11.296,0.57,22.608-2.555,33.628
		c-3.109,11.036-8.285,21.127-15.398,30.014c-6.869,8.562-15.235,15.642-24.855,21.03c-9.62,5.388-20.02,8.806-30.926,10.189
		C100.965,169.737,97.449,169.949,93.933,169.949L93.933,169.949z"/>
	<path fill="#E1F2FD" d="M83.484,35.795C56.318,41.557,38.95,68.251,44.712,95.433s32.472,44.533,59.638,38.771
		c27.182-5.762,44.55-32.456,38.788-59.638C137.376,47.401,110.666,30.033,83.484,35.795z"/>
</g>
<path fill="#DC1D3E" d="M71.406,85.195c3.337,0,5.876-0.814,7.65-2.425c1.774-1.611,2.653-3.841,2.653-6.673
	c0-3.027-1.042-5.241-3.109-6.657c-2.067-1.416-5.03-2.116-8.855-2.116l-5.99,0.228V39.832h26.059v9.229H72.236v10.238l3.109-0.309
	c2.474,0.098,4.704,0.553,6.706,1.367c1.986,0.798,3.695,1.921,5.111,3.369c1.416,1.432,2.49,3.174,3.255,5.225
	c0.749,2.035,1.139,4.33,1.139,6.853c0,2.979-0.505,5.599-1.514,7.878c-1.009,2.262-2.409,4.167-4.216,5.681
	c-1.79,1.514-3.89,2.637-6.315,3.402c-2.425,0.765-5.078,1.139-7.959,1.139c-2.262,0-4.427-0.195-6.478-0.57
	c-2.035-0.374-3.76-0.895-5.176-1.546l2.653-8.187c1.156,0.505,2.425,0.895,3.825,1.172C67.76,85.049,69.437,85.195,71.406,85.195z"
	/>
<polygon fill="#302662" points="13.168,114.868 4.72,114.868 4.72,134.774 0,134.774 0,110.669 17.888,110.669 17.888,134.774 
	13.168,134.774 "/>
<path id="_x31__1_" fill="#302662" d="M34.637,114.868h-5.143c-0.098,2.181-0.195,4.167-0.309,5.957
	c-0.114,1.79-0.277,3.402-0.456,4.834c-0.212,1.449-0.456,2.718-0.781,3.809c-0.326,1.107-0.732,2.067-1.237,2.865
	c-0.326,0.537-0.684,0.96-1.091,1.302c-0.407,0.358-0.814,0.635-1.253,0.83c-0.439,0.212-0.879,0.358-1.302,0.439
	c-0.423,0.081-0.814,0.114-1.188,0.114c-0.521,0-0.96-0.033-1.318-0.114s-0.716-0.212-1.058-0.358l0.521-4.069
	c0.13,0.049,0.277,0.081,0.407,0.098c0.146,0.033,0.277,0.033,0.423,0.033c0.358,0,0.732-0.081,1.074-0.277
	c0.358-0.179,0.667-0.488,0.928-0.928c0.342-0.505,0.635-1.237,0.895-2.214c0.244-0.977,0.472-2.23,0.667-3.744
	c0.195-1.514,0.342-3.32,0.456-5.42c0.13-2.116,0.195-4.558,0.244-7.357h14.242v24.106h-4.72L34.637,114.868L34.637,114.868z"/>
<path id="_x32_" fill="#302662" d="M42.727,122.73c0-4.02,0.879-7.129,2.653-9.294s4.297-3.255,7.585-3.255
	c1.725,0,3.223,0.293,4.509,0.895c1.286,0.602,2.36,1.449,3.207,2.555c0.846,1.091,1.481,2.425,1.888,3.955
	c0.423,1.546,0.619,3.255,0.619,5.143c0,4.004-0.879,7.113-2.669,9.278c-1.774,2.165-4.297,3.255-7.552,3.255
	c-1.758,0-3.272-0.293-4.558-0.895c-1.286-0.602-2.344-1.449-3.19-2.555c-0.83-1.091-1.465-2.425-1.872-3.955
	C42.938,126.311,42.727,124.601,42.727,122.73L42.727,122.73z M47.691,122.73c0,1.204,0.098,2.328,0.309,3.353
	c0.212,1.025,0.521,1.904,0.944,2.637c0.423,0.732,0.977,1.302,1.644,1.725c0.667,0.407,1.449,0.618,2.376,0.618
	c1.677,0,2.962-0.651,3.89-1.969c0.912-1.302,1.384-3.434,1.384-6.364c0-1.172-0.098-2.262-0.293-3.288
	c-0.195-1.009-0.505-1.888-0.912-2.653c-0.423-0.749-0.96-1.335-1.628-1.774c-0.667-0.423-1.481-0.635-2.442-0.635
	c-1.677,0-2.979,0.684-3.906,2.018C48.147,117.749,47.691,119.849,47.691,122.73z"/>
<polygon id="_x33_" fill="#302662" points="66.572,134.774 66.572,110.669 71.292,110.669 71.292,130.575 76.973,130.575 
	76.973,110.669 81.693,110.669 81.693,130.575 87.374,130.575 87.374,110.669 92.094,110.669 92.094,130.575 95.268,130.575 
	95.268,139.088 91.964,139.088 91.443,134.774 "/>
<path id="_x34_" fill="#302662" d="M109.852,129.436h-7.406l-1.839,5.339h-4.72l8.692-24.285h3.483l8.676,24.285h-4.964
	L109.852,129.436z M103.651,125.643h5.16l-1.79-5.371l-0.716-3.792h-0.179l-0.716,3.825L103.651,125.643L103.651,125.643z"/>
<path id="_x35_" fill="#302662" d="M139.069,139.088h-3.353l-0.505-4.313H119.7l-0.521,4.313h-3.337v-8.513h2.555
	c0.163-0.244,0.423-0.814,0.781-1.693c0.374-0.863,0.732-2.1,1.107-3.695c0.374-1.595,0.684-3.597,0.928-5.99
	c0.26-2.409,0.374-5.257,0.342-8.529h14.438v19.907h3.076L139.069,139.088L139.069,139.088z M131.272,130.575v-15.707h-5.339
	c-0.13,4.085-0.456,7.438-0.977,10.043c-0.521,2.604-1.042,4.492-1.563,5.664H131.272L131.272,130.575z"/>
<path id="_x36_" fill="#302662" d="M140.241,122.73c0-4.02,0.879-7.129,2.653-9.294c1.758-2.165,4.297-3.255,7.585-3.255
	c1.709,0,3.223,0.293,4.509,0.895c1.286,0.602,2.344,1.449,3.207,2.555c0.846,1.091,1.481,2.425,1.888,3.955
	c0.407,1.546,0.619,3.255,0.619,5.143c0,4.004-0.895,7.113-2.669,9.278c-1.774,2.165-4.297,3.255-7.552,3.255
	c-1.758,0-3.272-0.293-4.558-0.895c-1.286-0.602-2.344-1.449-3.19-2.555c-0.83-1.091-1.465-2.425-1.872-3.955
	C140.436,126.311,140.241,124.601,140.241,122.73L140.241,122.73z M145.205,122.73c0,1.204,0.098,2.328,0.309,3.353
	c0.195,1.025,0.521,1.904,0.944,2.637c0.423,0.732,0.96,1.302,1.628,1.725c0.667,0.407,1.465,0.618,2.393,0.618
	c1.676,0,2.962-0.651,3.89-1.969c0.911-1.302,1.367-3.434,1.367-6.364c0-1.172-0.098-2.262-0.293-3.288
	c-0.195-1.009-0.488-1.888-0.911-2.653c-0.407-0.749-0.944-1.335-1.611-1.774c-0.667-0.423-1.481-0.635-2.442-0.635
	c-1.677,0-2.979,0.684-3.906,2.018C145.661,117.749,145.205,119.849,145.205,122.73L145.205,122.73z"/>
<polygon id="_x37_" fill="#302662" points="170.044,124.471 168.807,124.471 168.807,134.774 164.086,134.774 164.086,110.669 
	168.807,110.669 168.807,121.346 169.897,120.858 176.554,110.669 181.926,110.669 174.894,120.793 173.039,122.095 
	174.976,123.446 183,134.774 177.173,134.774 "/>
<path fill="#DC1D3E" d="M114.406,85.195c3.337,0,5.876-0.814,7.65-2.425c1.774-1.611,2.653-3.841,2.653-6.673
	c0-3.027-1.042-5.241-3.109-6.657c-2.067-1.416-5.03-2.116-8.855-2.116l-5.99,0.228V39.832h26.059v9.229h-17.579v10.238l3.109-0.309
	c2.474,0.098,4.704,0.553,6.706,1.367c1.986,0.798,3.695,1.921,5.111,3.369c1.416,1.432,2.49,3.174,3.255,5.225
	c0.749,2.035,1.139,4.33,1.139,6.853c0,2.979-0.505,5.599-1.514,7.878c-1.009,2.262-2.409,4.167-4.216,5.681
	c-1.79,1.514-3.89,2.637-6.315,3.402c-2.425,0.765-5.078,1.139-7.959,1.139c-2.262,0-4.427-0.195-6.478-0.57
	c-2.035-0.374-3.76-0.895-5.176-1.546l2.653-8.187c1.156,0.505,2.425,0.895,3.825,1.172
	C110.76,85.049,112.437,85.195,114.406,85.195z"/>
</svg>
