<?xml version="1.0" encoding="UTF-8"?>
<!DOCTYPE svg PUBLIC "-//W3C//DTD SVG 1.1//EN" "http://www.w3.org/Graphics/SVG/1.1/DTD/svg11.dtd">
<!-- Creator: CorelDRAW 2017 -->
<svg xmlns="http://www.w3.org/2000/svg" xml:space="preserve" width="183px" height="170px" version="1.1" style="shape-rendering:geometricPrecision; text-rendering:geometricPrecision; image-rendering:optimizeQuality; fill-rule:evenodd; clip-rule:evenodd"
viewBox="0 0 112.43 104.38"
 xmlns:xlink="http://www.w3.org/1999/xlink">
 <defs>
  <style type="text/css">
   <![CDATA[
    .fil0 {fill:#E1F2FD;fill-rule:nonzero}
    .fil2 {fill:#302662;fill-rule:nonzero}
    .fil1 {fill:#DC1D3E;fill-rule:nonzero}
   ]]>
  </style>
 </defs>
 <g id="Layer_x0020_1">
  <metadata id="CorelCorpID_0Corel-Layer"/>
  <g id="_1945567727344">
   <path class="fil0" d="M57.64 10.28c-7.07,0 -14.06,1.81 -20.4,5.36 -9.76,5.46 -16.81,14.4 -19.85,25.17 -3.04,10.77 -1.71,22.08 3.76,31.84 5.46,9.77 14.41,16.82 25.17,19.86 10.77,3.04 22.08,1.7 31.85,-3.76 9.76,-5.47 16.82,-14.41 19.86,-25.18 3.03,-10.77 1.7,-22.08 -3.77,-31.84 -5.46,-9.76 -14.41,-16.81 -25.18,-19.85 -3.77,-1.07 -7.62,-1.6 -11.44,-1.6zm0.07 94.1c-4.77,0 -9.52,-0.66 -14.18,-1.97 -6.78,-1.92 -12.98,-5.1 -18.43,-9.47 -5.27,-4.22 -9.62,-9.35 -12.93,-15.26 -3.31,-5.91 -5.41,-12.31 -6.25,-19 -0.87,-6.93 -0.35,-13.88 1.57,-20.66 1.91,-6.78 5.09,-12.98 9.46,-18.43 4.22,-5.27 9.36,-9.62 15.27,-12.93 5.91,-3.31 12.3,-5.41 18.99,-6.25 6.94,-0.87 13.89,-0.35 20.67,1.57 6.78,1.91 12.98,5.1 18.43,9.46 5.27,4.22 9.62,9.35 12.93,15.27 3.31,5.91 5.41,12.3 6.25,18.99 0.88,6.94 0.35,13.89 -1.57,20.66 -1.91,6.78 -5.09,12.98 -9.46,18.44 -4.22,5.26 -9.36,9.61 -15.27,12.92 -5.91,3.31 -12.3,5.41 -19,6.26 -2.16,0.27 -4.32,0.4 -6.48,0.4z"/>
   <path class="fil0" d="M51.29 21.96c-16.69,3.54 -27.36,19.94 -23.82,36.64 3.54,16.7 19.95,27.36 36.64,23.82 16.7,-3.54 27.37,-19.94 23.83,-36.64 -3.54,-16.69 -19.95,-27.36 -36.65,-23.82z"/>
  </g>
  <path class="fil1" d="M43.87 52.31c2.05,0 3.61,-0.5 4.7,-1.49 1.09,-0.99 1.63,-2.36 1.63,-4.1 0,-1.86 -0.64,-3.22 -1.91,-4.09 -1.27,-0.87 -3.09,-1.3 -5.44,-1.3l-3.68 0.14 0 -17.03 16.01 0 0 5.67 -10.8 0 0 6.29 1.91 -0.19c1.52,0.06 2.89,0.34 4.12,0.84 1.22,0.49 2.27,1.18 3.14,2.07 0.87,0.88 1.53,1.95 2,3.21 0.46,1.25 0.7,2.66 0.7,4.21 0,1.83 -0.31,3.44 -0.93,4.84 -0.62,1.39 -1.48,2.56 -2.59,3.49 -1.1,0.93 -2.39,1.62 -3.88,2.09 -1.49,0.47 -3.12,0.7 -4.89,0.7 -1.39,0 -2.72,-0.12 -3.98,-0.35 -1.25,-0.23 -2.31,-0.55 -3.18,-0.95l1.63 -5.03c0.71,0.31 1.49,0.55 2.35,0.72 0.85,0.17 1.88,0.26 3.09,0.26z"/>
  <path id="1" class="fil1" d="M61.88 40.68c0,-5.71 0.97,-9.95 2.93,-12.73 1.95,-2.78 4.76,-4.16 8.42,-4.16 3.91,0 6.78,1.37 8.61,4.11 1.83,2.75 2.74,7.01 2.74,12.78 0,5.73 -0.98,10 -2.95,12.79 -1.97,2.79 -4.79,4.19 -8.45,4.19 -3.87,0 -6.73,-1.47 -8.56,-4.4 -1.83,-2.93 -2.74,-7.12 -2.74,-12.58zm6.05 0c0,3.78 0.41,6.7 1.23,8.77 0.82,2.06 2.18,3.09 4.07,3.09 1.83,0 3.17,-0.95 4.03,-2.84 0.85,-1.89 1.27,-4.9 1.27,-9.02 0,-3.76 -0.4,-6.66 -1.2,-8.7 -0.81,-2.05 -2.19,-3.08 -4.15,-3.08 -1.86,0 -3.2,0.97 -4.02,2.89 -0.82,1.92 -1.23,4.88 -1.23,8.89z"/>
  <polygon class="fil2" points="8.09,70.54 2.9,70.54 2.9,82.77 0,82.77 0,67.96 10.99,67.96 10.99,82.77 8.09,82.77 "/>
  <path id="1" class="fil2" d="M21.28 70.54l-3.16 0c-0.06,1.34 -0.12,2.56 -0.19,3.66 -0.07,1.1 -0.17,2.09 -0.28,2.97 -0.13,0.89 -0.28,1.67 -0.48,2.34 -0.2,0.68 -0.45,1.27 -0.76,1.76 -0.2,0.33 -0.42,0.59 -0.67,0.8 -0.25,0.22 -0.5,0.39 -0.77,0.51 -0.27,0.13 -0.54,0.22 -0.8,0.27 -0.26,0.05 -0.5,0.07 -0.73,0.07 -0.32,0 -0.59,-0.02 -0.81,-0.07 -0.22,-0.05 -0.44,-0.13 -0.65,-0.22l0.32 -2.5c0.08,0.03 0.17,0.05 0.25,0.06 0.09,0.02 0.17,0.02 0.26,0.02 0.22,0 0.45,-0.05 0.66,-0.17 0.22,-0.11 0.41,-0.3 0.57,-0.57 0.21,-0.31 0.39,-0.76 0.55,-1.36 0.15,-0.6 0.29,-1.37 0.41,-2.3 0.12,-0.93 0.21,-2.04 0.28,-3.33 0.08,-1.3 0.12,-2.8 0.15,-4.52l8.75 0 0 14.81 -2.9 0 0 -12.23z"/>
  <path id="2" class="fil2" d="M26.25 75.37c0,-2.47 0.54,-4.38 1.63,-5.71 1.09,-1.33 2.64,-2 4.66,-2 1.06,0 1.98,0.18 2.77,0.55 0.79,0.37 1.45,0.89 1.97,1.57 0.52,0.67 0.91,1.49 1.16,2.43 0.26,0.95 0.38,2 0.38,3.16 0,2.46 -0.54,4.37 -1.64,5.7 -1.09,1.33 -2.64,2 -4.64,2 -1.08,0 -2.01,-0.18 -2.8,-0.55 -0.79,-0.37 -1.44,-0.89 -1.96,-1.57 -0.51,-0.67 -0.9,-1.49 -1.15,-2.43 -0.25,-0.95 -0.38,-2 -0.38,-3.15zm3.05 0c0,0.74 0.06,1.43 0.19,2.06 0.13,0.63 0.32,1.17 0.58,1.62 0.26,0.45 0.6,0.8 1.01,1.06 0.41,0.25 0.89,0.38 1.46,0.38 1.03,0 1.82,-0.4 2.39,-1.21 0.56,-0.8 0.85,-2.11 0.85,-3.91 0,-0.72 -0.06,-1.39 -0.18,-2.02 -0.12,-0.62 -0.31,-1.16 -0.56,-1.63 -0.26,-0.46 -0.59,-0.82 -1,-1.09 -0.41,-0.26 -0.91,-0.39 -1.5,-0.39 -1.03,0 -1.83,0.42 -2.4,1.24 -0.56,0.83 -0.84,2.12 -0.84,3.89z"/>
  <polygon id="3" class="fil2" points="40.9,82.77 40.9,67.96 43.8,67.96 43.8,80.19 47.29,80.19 47.29,67.96 50.19,67.96 50.19,80.19 53.68,80.19 53.68,67.96 56.58,67.96 56.58,80.19 58.53,80.19 58.53,85.42 56.5,85.42 56.18,82.77 "/>
  <path id="4" class="fil2" d="M67.49 79.49l-4.55 0 -1.13 3.28 -2.9 0 5.34 -14.92 2.14 0 5.33 14.92 -3.05 0 -1.18 -3.28zm-3.81 -2.33l3.17 0 -1.1 -3.3 -0.44 -2.33 -0.11 0 -0.44 2.35 -1.08 3.28z"/>
  <path id="5" class="fil2" d="M85.44 85.42l-2.06 0 -0.31 -2.65 -9.53 0 -0.32 2.65 -2.05 0 0 -5.23 1.57 0c0.1,-0.15 0.26,-0.5 0.48,-1.04 0.23,-0.53 0.45,-1.29 0.68,-2.27 0.23,-0.98 0.42,-2.21 0.57,-3.68 0.16,-1.48 0.23,-3.23 0.21,-5.24l8.87 0 0 12.23 1.89 0 0 5.23zm-4.79 -5.23l0 -9.65 -3.28 0c-0.08,2.51 -0.28,4.57 -0.6,6.17 -0.32,1.6 -0.64,2.76 -0.96,3.48l4.84 0z"/>
  <path id="6" class="fil2" d="M86.16 75.37c0,-2.47 0.54,-4.38 1.63,-5.71 1.08,-1.33 2.64,-2 4.66,-2 1.05,0 1.98,0.18 2.77,0.55 0.79,0.37 1.44,0.89 1.97,1.57 0.52,0.67 0.91,1.49 1.16,2.43 0.25,0.95 0.38,2 0.38,3.16 0,2.46 -0.55,4.37 -1.64,5.7 -1.09,1.33 -2.64,2 -4.64,2 -1.08,0 -2.01,-0.18 -2.8,-0.55 -0.79,-0.37 -1.44,-0.89 -1.96,-1.57 -0.51,-0.67 -0.9,-1.49 -1.15,-2.43 -0.26,-0.95 -0.38,-2 -0.38,-3.15zm3.05 0c0,0.74 0.06,1.43 0.19,2.06 0.12,0.63 0.32,1.17 0.58,1.62 0.26,0.45 0.59,0.8 1,1.06 0.41,0.25 0.9,0.38 1.47,0.38 1.03,0 1.82,-0.4 2.39,-1.21 0.56,-0.8 0.84,-2.11 0.84,-3.91 0,-0.72 -0.06,-1.39 -0.18,-2.02 -0.12,-0.62 -0.3,-1.16 -0.56,-1.63 -0.25,-0.46 -0.58,-0.82 -0.99,-1.09 -0.41,-0.26 -0.91,-0.39 -1.5,-0.39 -1.03,0 -1.83,0.42 -2.4,1.24 -0.56,0.83 -0.84,2.12 -0.84,3.89z"/>
  <polygon id="7" class="fil2" points="104.47,76.44 103.71,76.44 103.71,82.77 100.81,82.77 100.81,67.96 103.71,67.96 103.71,74.52 104.38,74.22 108.47,67.96 111.77,67.96 107.45,74.18 106.31,74.98 107.5,75.81 112.43,82.77 108.85,82.77 "/>
 </g>
</svg>
