<?xml version="1.0" encoding="UTF-8"?>
<!DOCTYPE svg PUBLIC "-//W3C//DTD SVG 1.1//EN" "http://www.w3.org/Graphics/SVG/1.1/DTD/svg11.dtd">
<!-- Creator: CorelDRAW 2017 -->
<svg xmlns="http://www.w3.org/2000/svg" xml:space="preserve" width="181px" height="170px" version="1.1" style="shape-rendering:geometricPrecision; text-rendering:geometricPrecision; image-rendering:optimizeQuality; fill-rule:evenodd; clip-rule:evenodd"
viewBox="0 0 155.76 146.27"
 xmlns:xlink="http://www.w3.org/1999/xlink">
 <defs>
  <style type="text/css">
   <![CDATA[
    .fil0 {fill:#E1F2FD;fill-rule:nonzero}
    .fil2 {fill:#302662;fill-rule:nonzero}
    .fil1 {fill:#DC1D3E;fill-rule:nonzero}
   ]]>
  </style>
 </defs>
 <g id="Layer_x0020_1">
  <metadata id="CorelCorpID_0Corel-Layer"/>
  <g id="_1945546057456">
   <path class="fil0" d="M79.17 14.41c-9.91,0 -19.7,2.53 -28.59,7.5 -13.68,7.66 -23.56,20.19 -27.82,35.28 -4.26,15.09 -2.39,30.93 5.27,44.61 7.66,13.69 20.19,23.57 35.28,27.82 15.09,4.26 30.94,2.39 44.62,-5.27 13.68,-7.66 23.57,-20.18 27.83,-35.27 4.26,-15.09 2.38,-30.94 -5.28,-44.62 -7.65,-13.68 -20.18,-23.56 -35.28,-27.82 -5.29,-1.49 -10.67,-2.23 -16.03,-2.23zm0.09 131.86c-6.67,0 -13.33,-0.93 -19.86,-2.77 -9.5,-2.68 -18.19,-7.14 -25.83,-13.27 -7.38,-5.9 -13.48,-13.1 -18.11,-21.39 -4.64,-8.28 -7.59,-17.23 -8.77,-26.61 -1.22,-9.72 -0.48,-19.46 2.2,-28.95 2.68,-9.5 7.14,-18.19 13.26,-25.83 5.91,-7.38 13.11,-13.48 21.39,-18.11 8.29,-4.64 17.25,-7.59 26.62,-8.77 9.72,-1.22 19.46,-0.48 28.96,2.2 9.5,2.68 18.19,7.14 25.83,13.26 7.38,5.92 13.48,13.11 18.11,21.39 4.64,8.28 7.59,17.24 8.77,26.62 1.22,9.72 0.48,19.46 -2.2,28.95 -2.68,9.5 -7.15,18.19 -13.27,25.83 -5.91,7.38 -13.1,13.48 -21.39,18.11 -8.28,4.64 -17.24,7.59 -26.62,8.77 -3.03,0.38 -6.06,0.57 -9.09,0.57z"/>
   <path class="fil0" d="M70.28 30.77c-23.4,4.96 -38.35,27.95 -33.39,51.35 4.96,23.39 27.95,38.34 51.35,33.38 23.4,-4.96 38.35,-27.95 33.38,-51.35 -4.96,-23.39 -27.95,-38.34 -51.34,-33.38z"/>
  </g>
  <polygon class="fil1" points="25.95,72.71 35.02,72.71 35.02,46.96 36,42.52 32.87,46.37 27.06,50.35 23.48,45.46 38.34,33.46 43.1,33.46 43.1,72.71 51.97,72.71 51.97,79.88 25.95,79.88 "/>
  <path id="1" class="fil1" d="M70.68 73.3c2.87,0 5.07,-0.7 6.59,-2.09 1.52,-1.39 2.28,-3.3 2.28,-5.74 0,-2.61 -0.89,-4.52 -2.67,-5.73 -1.79,-1.22 -4.33,-1.83 -7.63,-1.83l-5.15 0.2 0 -23.87 22.43 0 0 7.96 -15.13 0 0 8.8 2.67 -0.26c2.13,0.09 4.06,0.48 5.77,1.17 1.72,0.7 3.19,1.66 4.4,2.9 1.22,1.24 2.16,2.74 2.81,4.5 0.65,1.76 0.98,3.73 0.98,5.9 0,2.57 -0.44,4.83 -1.31,6.78 -0.87,1.96 -2.07,3.59 -3.62,4.89 -1.54,1.31 -3.35,2.28 -5.44,2.94 -2.09,0.65 -4.37,0.97 -6.85,0.97 -1.95,0 -3.81,-0.16 -5.57,-0.49 -1.76,-0.32 -3.25,-0.77 -4.47,-1.33l2.28 -7.04c1,0.43 2.1,0.77 3.3,1.01 1.19,0.24 2.64,0.36 4.33,0.36z"/>
  <path id="2" class="fil1" d="M95.92 57c0,-8 1.36,-13.94 4.1,-17.83 2.74,-3.89 6.68,-5.84 11.81,-5.84 5.47,0 9.49,1.92 12.06,5.77 2.56,3.85 3.84,9.81 3.84,17.9 0,8.04 -1.38,14.01 -4.14,17.93 -2.76,3.91 -6.7,5.86 -11.83,5.86 -5.43,0 -9.43,-2.05 -12,-6.16 -2.56,-4.11 -3.84,-9.98 -3.84,-17.63zm8.47 0c0,5.3 0.58,9.4 1.73,12.29 1.15,2.89 3.05,4.33 5.71,4.33 2.56,0 4.44,-1.32 5.63,-3.97 1.2,-2.66 1.8,-6.87 1.8,-12.65 0,-5.26 -0.57,-9.33 -1.7,-12.19 -1.13,-2.87 -3.06,-4.31 -5.8,-4.31 -2.61,0 -4.49,1.35 -5.64,4.04 -1.15,2.7 -1.73,6.85 -1.73,12.46z"/>
  <path class="fil2" d="M3.26 103.83l7.98 0c-0.06,-0.79 -0.22,-1.52 -0.49,-2.18 -0.26,-0.67 -0.63,-1.24 -1.08,-1.71 -0.45,-0.47 -1.02,-0.85 -1.69,-1.11 -0.67,-0.27 -1.43,-0.4 -2.28,-0.4 -1.07,0 -2,0.11 -2.79,0.34 -0.79,0.23 -1.44,0.48 -1.93,0.76l-0.86 -3.45c0.69,-0.35 1.56,-0.65 2.61,-0.9 1.05,-0.25 2.09,-0.37 3.11,-0.37 1.37,0 2.63,0.19 3.79,0.56 1.15,0.38 2.15,1 2.99,1.86 0.84,0.86 1.5,1.97 1.97,3.35 0.48,1.37 0.72,3.05 0.72,5.03 0,2.05 -0.28,3.77 -0.83,5.16 -0.56,1.38 -1.3,2.49 -2.23,3.32 -0.93,0.83 -2,1.42 -3.2,1.78 -1.21,0.35 -2.46,0.53 -3.77,0.53 -1.13,0 -2.15,-0.1 -3.07,-0.29 -0.92,-0.2 -1.66,-0.43 -2.21,-0.69l1.07 -3.53c0.45,0.22 1.07,0.42 1.84,0.61 0.77,0.19 1.66,0.28 2.67,0.28 0.77,0 1.48,-0.11 2.13,-0.32 0.65,-0.22 1.23,-0.56 1.74,-1.03 0.5,-0.46 0.91,-1.05 1.23,-1.76 0.31,-0.71 0.51,-1.57 0.59,-2.58l-8.01 0 0 -3.26z"/>
  <polygon id="1" class="fil2" points="23.34,107.12 22.28,107.12 22.28,115.99 18.21,115.99 18.21,95.22 22.28,95.22 22.28,104.42 23.23,104 28.95,95.22 33.58,95.22 27.53,103.94 25.93,105.07 27.59,106.23 34.5,115.99 29.48,115.99 "/>
  <path id="2" class="fil2" d="M49.89 115.14c-0.63,0.45 -1.44,0.77 -2.42,0.97 -0.97,0.19 -1.98,0.29 -3.01,0.29 -1.24,0 -2.42,-0.19 -3.54,-0.58 -1.12,-0.38 -2.1,-1.01 -2.95,-1.87 -0.85,-0.86 -1.53,-1.97 -2.03,-3.35 -0.51,-1.37 -0.76,-3.04 -0.76,-4.99 0,-2.04 0.28,-3.75 0.85,-5.12 0.56,-1.38 1.29,-2.48 2.19,-3.32 0.9,-0.84 1.9,-1.45 3.01,-1.81 1.11,-0.37 2.22,-0.55 3.32,-0.55 1.19,0 2.19,0.08 3.01,0.24 0.82,0.15 1.5,0.34 2.04,0.56l-0.8 3.44c-0.46,-0.22 -1,-0.37 -1.62,-0.47 -0.62,-0.1 -1.38,-0.15 -2.27,-0.15 -1.64,0 -2.96,0.58 -3.96,1.75 -1,1.17 -1.5,2.98 -1.5,5.44 0,1.07 0.12,2.05 0.36,2.93 0.24,0.88 0.6,1.63 1.08,2.26 0.48,0.62 1.09,1.11 1.81,1.45 0.72,0.35 1.56,0.52 2.51,0.52 0.89,0 1.64,-0.09 2.25,-0.26 0.61,-0.18 1.15,-0.41 1.6,-0.69l0.83 3.31z"/>
  <polygon id="3" class="fil2" points="57.55,107.12 56.48,107.12 56.48,115.99 52.41,115.99 52.41,95.22 56.48,95.22 56.48,104.42 57.43,104 63.15,95.22 67.78,95.22 61.73,103.94 60.13,105.07 61.79,106.23 68.7,115.99 63.69,115.99 "/>
  <path id="4" class="fil2" d="M76.71 104.39l0.59 2.7 0.18 0 0.47 -2.79 3.12 -9.08 4.18 0 -5.52 14.36c-0.43,1.13 -0.85,2.11 -1.26,2.94 -0.4,0.83 -0.84,1.51 -1.3,2.06 -0.47,0.54 -0.99,0.95 -1.56,1.21 -0.57,0.27 -1.25,0.4 -2.02,0.4 -0.65,0 -1.18,-0.04 -1.58,-0.13 -0.41,-0.09 -0.85,-0.28 -1.32,-0.58l1.03 -3.29c0.34,0.18 0.65,0.29 0.93,0.33 0.27,0.04 0.57,0.06 0.88,0.06 0.93,0 1.59,-0.74 1.96,-2.2l-7.77 -15.16 4.78 0 4.21 9.17z"/>
  <path id="5" class="fil2" d="M86.62 95.43c0.83,-0.16 1.74,-0.28 2.74,-0.37 1,-0.09 1.99,-0.13 2.98,-0.13 1.03,0 2.06,0.08 3.1,0.25 1.04,0.17 1.97,0.5 2.8,1.01 0.83,0.5 1.51,1.2 2.04,2.1 0.52,0.9 0.78,2.08 0.78,3.52 0,1.3 -0.23,2.41 -0.68,3.31 -0.46,0.9 -1.06,1.63 -1.81,2.21 -0.75,0.57 -1.61,0.98 -2.57,1.24 -0.95,0.26 -1.95,0.39 -2.98,0.39 -0.1,0 -0.26,0 -0.47,0 -0.22,0 -0.45,-0.01 -0.68,-0.02 -0.24,-0.01 -0.47,-0.02 -0.7,-0.04 -0.23,-0.02 -0.39,-0.04 -0.49,-0.06l0 7.15 -4.06 0 0 -20.56zm6.05 3c-0.4,0 -0.77,0.01 -1.13,0.04 -0.36,0.03 -0.64,0.07 -0.86,0.11l0 6.73c0.08,0.02 0.2,0.04 0.36,0.06 0.15,0.02 0.32,0.03 0.5,0.04 0.18,0.01 0.35,0.02 0.52,0.02 0.17,0 0.29,0 0.37,0 0.53,0 1.06,-0.05 1.59,-0.15 0.52,-0.1 0.99,-0.28 1.41,-0.55 0.41,-0.27 0.74,-0.64 0.99,-1.11 0.25,-0.48 0.37,-1.1 0.37,-1.87 0,-0.65 -0.12,-1.19 -0.36,-1.62 -0.23,-0.42 -0.54,-0.76 -0.93,-1.02 -0.39,-0.26 -0.83,-0.43 -1.32,-0.53 -0.49,-0.1 -1,-0.15 -1.51,-0.15z"/>
  <path id="6" class="fil2" d="M117.32 115.14c-0.64,0.45 -1.44,0.77 -2.42,0.97 -0.98,0.19 -1.98,0.29 -3.01,0.29 -1.25,0 -2.43,-0.19 -3.55,-0.58 -1.11,-0.38 -2.1,-1.01 -2.95,-1.87 -0.85,-0.86 -1.53,-1.97 -2.03,-3.35 -0.5,-1.37 -0.76,-3.04 -0.76,-4.99 0,-2.04 0.29,-3.75 0.85,-5.12 0.56,-1.38 1.29,-2.48 2.2,-3.32 0.89,-0.84 1.9,-1.45 3.01,-1.81 1.1,-0.37 2.21,-0.55 3.32,-0.55 1.18,0 2.19,0.08 3.01,0.24 0.82,0.15 1.5,0.34 2.03,0.56l-0.8 3.44c-0.46,-0.22 -0.99,-0.37 -1.62,-0.47 -0.62,-0.1 -1.38,-0.15 -2.27,-0.15 -1.64,0 -2.96,0.58 -3.96,1.75 -1,1.17 -1.49,2.98 -1.49,5.44 0,1.07 0.11,2.05 0.35,2.93 0.24,0.88 0.6,1.63 1.08,2.26 0.49,0.62 1.09,1.11 1.81,1.45 0.72,0.35 1.56,0.52 2.51,0.52 0.89,0 1.64,-0.09 2.25,-0.26 0.62,-0.18 1.15,-0.41 1.61,-0.69l0.83 3.31z"/>
  <polygon id="7" class="fil2" points="131.94,104.48 132.18,101.78 132.03,101.78 130.64,104.57 122.89,115.99 119.84,115.99 119.84,95.22 123.9,95.22 123.9,106.52 123.61,109.31 123.78,109.31 125.24,106.44 132.98,95.22 136,95.22 136,115.99 131.94,115.99 "/>
  <path id="8" class="fil2" d="M151.7 104.48l0.23 -2.7 -0.14 0 -1.4 2.79 -7.74 11.42 -3.06 0 0 -20.77 4.07 0 0 11.3 -0.3 2.79 0.18 0 1.45 -2.87 7.74 -11.22 3.03 0 0 20.77 -4.06 0 0 -11.51zm-5.79 -14.42c0.08,0.64 0.31,1.09 0.7,1.37 0.38,0.28 0.88,0.41 1.5,0.41 1.32,0 2.05,-0.58 2.19,-1.75l3.29 0.51c-0.21,1.24 -0.78,2.15 -1.7,2.73 -0.92,0.57 -2.19,0.86 -3.81,0.86 -0.81,0 -1.55,-0.06 -2.23,-0.18 -0.67,-0.12 -1.26,-0.31 -1.76,-0.58 -0.51,-0.27 -0.92,-0.63 -1.25,-1.08 -0.32,-0.46 -0.53,-1.02 -0.61,-1.69l3.68 -0.6z"/>
 </g>
</svg>
