<?xml version="1.0" encoding="UTF-8"?>
<!DOCTYPE svg PUBLIC "-//W3C//DTD SVG 1.1//EN" "http://www.w3.org/Graphics/SVG/1.1/DTD/svg11.dtd">
<!-- Creator: CorelDRAW 2017 -->
<svg xmlns="http://www.w3.org/2000/svg" xml:space="preserve" width="170px" height="170px" version="1.1" style="shape-rendering:geometricPrecision; text-rendering:geometricPrecision; image-rendering:optimizeQuality; fill-rule:evenodd; clip-rule:evenodd"
viewBox="0 0 40.59 40.59"
 xmlns:xlink="http://www.w3.org/1999/xlink">
 <defs>
  <style type="text/css">
   <![CDATA[
    .fil0 {fill:#E1F2FD;fill-rule:nonzero}
    .fil2 {fill:#302662;fill-rule:nonzero}
    .fil1 {fill:#DC1D3E;fill-rule:nonzero}
   ]]>
  </style>
 </defs>
 <g id="Layer_x0020_1">
  <metadata id="CorelCorpID_0Corel-Layer"/>
  <g id="_1910054599072">
   <path class="fil0" d="M20.27 4c-2.75,0 -5.47,0.7 -7.93,2.08 -3.8,2.13 -6.54,5.6 -7.72,9.79 -1.18,4.19 -0.66,8.58 1.46,12.38 2.13,3.8 5.6,6.54 9.79,7.72 4.19,1.18 8.59,0.66 12.38,-1.46 3.8,-2.13 6.54,-5.6 7.72,-9.79 1.19,-4.19 0.67,-8.59 -1.46,-12.38 -2.12,-3.8 -5.6,-6.54 -9.79,-7.72 -1.47,-0.42 -2.96,-0.62 -4.45,-0.62zm0.03 36.59c-1.86,0 -3.7,-0.26 -5.52,-0.77 -2.63,-0.74 -5.04,-1.98 -7.16,-3.68 -2.05,-1.64 -3.74,-3.64 -5.03,-5.94 -1.29,-2.29 -2.1,-4.78 -2.43,-7.38 -0.34,-2.7 -0.14,-5.4 0.61,-8.04 0.74,-2.63 1.98,-5.04 3.68,-7.16 1.64,-2.05 3.64,-3.74 5.93,-5.03 2.3,-1.29 4.79,-2.1 7.39,-2.43 2.7,-0.34 5.4,-0.14 8.04,0.61 2.63,0.74 5.04,1.98 7.17,3.68 2.04,1.64 3.73,3.64 5.02,5.93 1.29,2.3 2.11,4.79 2.43,7.39 0.34,2.7 0.14,5.4 -0.61,8.03 -0.74,2.64 -1.98,5.05 -3.68,7.17 -1.64,2.05 -3.64,3.74 -5.93,5.03 -2.3,1.28 -4.79,2.1 -7.39,2.43 -0.84,0.11 -1.68,0.16 -2.52,0.16z"/>
   <path class="fil0" d="M17.8 8.54c-6.49,1.38 -10.64,7.75 -9.26,14.25 1.38,6.49 7.76,10.64 14.25,9.26 6.49,-1.38 10.64,-7.76 9.26,-14.25 -1.37,-6.49 -7.75,-10.64 -14.25,-9.26z"/>
  </g>
  <path class="fil1" d="M23.27 12.6c0,0.61 -0.11,1.23 -0.34,1.86 -0.22,0.63 -0.5,1.24 -0.85,1.84 -0.34,0.61 -0.72,1.19 -1.14,1.75 -0.41,0.56 -0.82,1.08 -1.22,1.55l-0.96 0.74 0 0.09 1.31 -0.25 3.47 0 0 1.99 -7.62 0 0 -1.22c0.29,-0.3 0.62,-0.65 0.98,-1.05 0.36,-0.41 0.73,-0.84 1.09,-1.29 0.37,-0.45 0.73,-0.92 1.08,-1.4 0.35,-0.48 0.66,-0.97 0.94,-1.46 0.28,-0.49 0.5,-0.96 0.66,-1.42 0.17,-0.46 0.25,-0.89 0.25,-1.3 0,-0.49 -0.15,-0.9 -0.43,-1.22 -0.28,-0.32 -0.73,-0.48 -1.35,-0.48 -0.38,0 -0.78,0.08 -1.18,0.24 -0.41,0.17 -0.75,0.37 -1.02,0.63l-0.95 -1.67c0.48,-0.38 1.01,-0.69 1.61,-0.93 0.59,-0.23 1.3,-0.35 2.1,-0.35 0.52,0 1,0.07 1.43,0.22 0.44,0.14 0.81,0.35 1.13,0.63 0.31,0.28 0.56,0.62 0.74,1.04 0.18,0.42 0.27,0.9 0.27,1.46z"/>
  <path class="fil2" d="M18.19 33.21l-0.8 0 -0.12 -1.02 -3.71 0 -0.12 1.02 -0.8 0 0 -2.03 0.61 0c0.04,-0.06 0.1,-0.19 0.19,-0.4 0.09,-0.21 0.17,-0.51 0.26,-0.89 0.09,-0.38 0.16,-0.86 0.22,-1.43 0.06,-0.57 0.09,-1.25 0.09,-2.04l3.45 0 0 4.76 0.73 0 0 2.03zm-1.86 -2.03l0 -3.75 -1.28 0c-0.03,0.97 -0.11,1.77 -0.23,2.4 -0.13,0.62 -0.25,1.07 -0.38,1.35l1.89 0z"/>
  <polygon id="1" class="fil2" points="22.06,29.77 19.95,29.77 19.95,32.19 18.82,32.19 18.82,26.42 19.95,26.42 19.95,28.77 22.06,28.77 22.06,26.42 23.18,26.42 23.18,32.19 22.06,32.19 "/>
  <path id="2" class="fil2" d="M27.96 32.19l-1.13 0 0 -2.28 -0.59 0.15 -1.2 2.13 -1.31 0 1.18 -1.92 0.5 -0.36c-0.18,-0.04 -0.34,-0.11 -0.5,-0.2 -0.15,-0.09 -0.28,-0.2 -0.4,-0.35 -0.12,-0.14 -0.21,-0.31 -0.27,-0.5 -0.07,-0.2 -0.1,-0.42 -0.1,-0.67 0,-0.34 0.06,-0.63 0.18,-0.87 0.12,-0.23 0.29,-0.43 0.5,-0.57 0.22,-0.15 0.47,-0.25 0.77,-0.31 0.29,-0.07 0.62,-0.1 0.96,-0.1 0.09,0 0.2,0 0.32,0.01 0.12,0.01 0.25,0.01 0.38,0.02 0.13,0.02 0.25,0.03 0.38,0.05 0.12,0.01 0.23,0.03 0.33,0.06l0 5.71zm-1.55 -4.84c-0.15,0 -0.29,0.01 -0.42,0.04 -0.13,0.02 -0.25,0.07 -0.34,0.14 -0.1,0.06 -0.18,0.15 -0.24,0.27 -0.06,0.11 -0.09,0.26 -0.09,0.44 0,0.17 0.03,0.32 0.09,0.44 0.05,0.11 0.13,0.21 0.23,0.28 0.1,0.08 0.21,0.13 0.34,0.16 0.13,0.04 0.28,0.05 0.43,0.05l0.42 0 0 -1.78c-0.06,-0.01 -0.12,-0.02 -0.18,-0.03 -0.07,-0.01 -0.15,-0.01 -0.24,-0.01z"/>
 </g>
</svg>
