<?xml version="1.0" encoding="utf-8"?><svg xmlns="http://www.w3.org/2000/svg" width="82" height="103" fill="none" viewBox="0 0 82 103"><path fill="#fff" fill-rule="evenodd" d="M11.056 90.22c-.133-.484-.521-1.567-.628-2.367-.234-1.77.58-2.94 1.332-3.207.84-.267 1.169.214 1.492 1.327.422 1.697.47 3.921.328 7.105-.184 4.348-2.1 9.601-6.863 9.491-4.112-.102-5.932-3.125-6.12-7.739-.091-2.175.047-4.348.84-7.423.421-1.648.797-2.23 2.101-2.547 1.027-.214.935 1.004.702 2.44-.512 3.182-.75 4.718-.56 8.325.184 3.819 1.728 5.304 3.409 5.304 2.523.055 3.642-2.332 4.111-5.783.372-2.754.092-4.08-.146-4.927h.002zm53.776 3.764c.98 0 1.265 1.32 1.03 2.12-.235.79-1.074 1.696-2.38 1.961-.282-.797-.424-4.08 1.35-4.08zm-18.256 1.8c0-.9-.424-1.644-.933-1.644-.426 0-1.4.53-1.4 2.227 0 1.329.414 1.961.604 2.23 1.35-.478 1.729-1.754 1.729-2.814zm-14.527-10.82c-.067-.85-.653-1.429-1.449-1.429-.887 0-1.721 1.055-1.632 2.383.057.876.512 1.594 1.403 1.594 1.023 0 1.77-1.325 1.676-2.547h.002zm7.595 3.115c-.083-1.483-.396-2.152-1.1-2.096-.929.062-1.359 3.386-1.169 6.879.121 2.277.418 2.63.697 2.607.516-.034 1.75-4.106 1.572-7.39zm30.98 5.585c-.578 2.726-2.334 6.737-4.951 6.737-.605 0-1.682-.267-1.682-.958 0-.743 4.114-.845 4.114-4.401 0-1.325-1.073-3.184-2.664-3.184-2.102 0-4.151 2.603-4.151 6.207 0 3.233 1.768 4.295 3.542 4.295 3.085 0 4.953-2.865 5.932-5.252.47 1.592.747 5.252 1.918 5.252.465 0 .793-.265 1.356-1.696 1.397-3.556 2.753-7.64 4.621-7.64.7 0 .282 1.437 1.962 1.437.793 0 1.35-.744 1.35-1.595 0-1.222-.98-2.173-2.47-2.173-4.392 0-5.323 7.48-6.026 7.48-1.17 0-.793-5.997-1.637-5.997-.747 0-1.114 1.014-1.214 1.488zm-34.507 4.383c-.543-1.367-.929-4.128-.983-5.134-.278-5.14 1.465-9.977 3.375-10.11 1.398-.097 2.519 1.409 2.648 3.847.345 6.405-1.534 9.08-2.475 11.388.158.892 1.494 2.416 2.755 2.416.465 0 1.029-.267 1.169-.48a5.918 5.918 0 01-.188-1.54c0-3.71 2.104-6.841 3.924-6.841 1.448 0 2.29 2.175 2.29 3.61 0 1.693-1.263 3.076-3.131 4.4.33.37.933.638 1.45.638 2.663 0 4.058-3.66 5.089-7.003.187-.639.515-1.538 1.168-1.538 1.121 0 1.59 8.38 3.453 8.38.797 0 1.45-1.859 1.45-3.286 0-1.062-.328-1.169-.328-2.707 0-1.697.794-3.126 1.873-3.126.65 0 .887.739.887 1.638 0 3.396-2.15 9.708-5.323 9.708-2.385 0-2.2-4.667-3.038-4.667-.94 0-2.246 4.72-6.867 4.72-.752 0-1.543-.423-2.196-1.276-1.119.853-2.056 1.223-3.13 1.223-1.725 0-2.474-2.015-3.173-2.015-.843 0-1.774 2.068-4.58 2.068-2.24 0-2.614-3.393-3.408-3.393-.7 0-1.774 3.393-2.942 3.393-1.962 0-2.38-5.884-4.112-5.884-1.353 0-5.631 5.977-6.794 5.84-.467-.056-.664-.451-.613-.983.064-.732.621-2.696.847-3.626.376-1.612.724-3.381.918-3.943.192-.57.71-.977 1.127-.93.21.02.272.465.336.832.236 1.31.566 2.65.94 2.65.655 0 2.821-4.723 4.08-4.723 1.544 0 1.73 7.425 3.83 7.425.701 0 1.217-.953 1.682-2.122.048-1.966.514-4.769 1.916-4.769.981 0 1.449 2.49.745 4.667 0 2.596 1.495 3.231 2.478 3.231.699 0 1.903-.256 2.85-1.978zm29.68-81.189c-.347 0-.844 0-1.118-.618-.223-.507-.148-1.325-.57-1.69.422.14.867.14 1.215.14 1.117 0 2.184-.872 3.004-.872.538 0 .712.395.712.788 0 1.241-2.202 2.254-3.244 2.254v-.002zm.542 3.182c-.965 0-1.635-.337-1.635-1.127 0-.337.249-.983 1.067-.983 2.258 0 4.335-1.718 4.335-3.266 0-.45-.073-.648-.248-.902 1.016.14 1.415.93 1.415 1.888 0 2.054-2.359 4.39-4.932 4.39h-.002zm-.196 1.18c.968.114 3.963-.42 5.105-3.04.718.282.645 1.493.645 3.04 0 2.7-.249 6.129-.894 6.192-.966.086-4.533-3.519-4.856-6.192zM10.36 38.923c.841 0 .668-5.857 2.031-5.857.324 0 .422.367.422.818 0 1.322-.57 3.265-.57 4.334 0 .535.125.705.346.705.597 0 1.637-6.447 2.651-6.447.324 0 .472.367.472.732 0 1.352-1.511 5.234-1.511 6.333 0 .167.05.309.173.309.62 0 1.857-3.04 2.254-4.558.223-.79.522-1.213.793-1.213.25 0 .474.312.474.96 0 1.518-1.242 5.092-2.331 7.484-.842 1.859-2.157 4.532-2.157 6.021 0 .76.124 1.548 1.092 2.506-1.586-.112-2.231-.28-2.826-1.688-2.65 5.994 4.884 5.404 2.304 10.719-.471-.953-4.186-1.938-4.186-7.511 0-4.811 3.715-7.626 3.715-9.624a1.42 1.42 0 00-.113-.58 1.28 1.28 0 00-.332-.461c-.818-.79-.843-1.434-1.486-1.434-.472 0-1.044 1.236-.447 2.333.199.367.372.593.372.93 0 .787-1.092 2.895-1.858 2.895-.77 0-1.363-2.161-1.363-5.654 0-3.096.618-6.22 1.388-6.22.222 0 .297.17.297.396 0 .365-.098 1.097-.098 2.335 0 1.323.271 1.437.494 1.437zm6.318 8.243c-.668 0-1.336-.59-1.336-1.631 0-.14.073-.646.222-.646.198 0 .346.587.918.587 1.09 0 1.165-1.208 1.165-3.627 0-2.787 1.014-5.969 4.287-8.358-.522 1.011-.645 2.334-.645 3.152 0 4.783 5.08 9.259 5.08 12.21 0 1.209-.768 2.564-2.18 2.564a1.705 1.705 0 01-.721-.144c-.23-.1-.44-.25-.617-.441a2.103 2.103 0 01-.417-.671 2.288 2.288 0 01-.154-.799c0-.734.447-1.297.595-1.297.073 0 .098.056.098.254 0 .395.273.902.843.902a.758.758 0 00.336-.063.83.83 0 00.285-.206.944.944 0 00.188-.316c.043-.118.063-.245.06-.373 0-2.336-4.19-6.414-4.19-12.015-.223.62-.496 1.406-.496 2.589 0 2.7 1.734 5.517 1.734 8.048 0 1.041-.716 1.968-1.609 1.968-1.042 0-1.413-.927-1.413-1.517 0-.395.15-.76.248-.76.126 0 .075.59.647.59.591 0 .814-.479.814-1.35 0-2.336-1.19-3.998-1.19-6.417 0-.365 0-.758.076-1.125-.645.874-.72 2.11-.72 3.207v2.873c0 1.938-.866 2.812-1.908 2.812zM54.223 15.48c.313-.24 1.711.14 3.517-.874.196-.125.418-.193.645-.195.868 0 .645 1.125 1.44 1.125.618 0 1.413-.59 1.884-.59.737 0 1.804 2.644 1.804 3.883 0 1.434-1.904 2.308-4.16 2.308-3.294 0-5.28-3.266-5.28-5.376 0-.17.077-.225.15-.279v-.002zM17.197 57.778c-.864 4.106 1.066 8.16 5.034 8.16 1.983 0 2.947-1.155 2.947-3.152 0-2.224-1.315-4.446-3.519-4.446-1.115 0-1.885.732-1.885 1.743 0 1.69 1.217 2.759 2.48 2.759.843 0 1.388-.395 1.388-1.041a.757.757 0 00-.073-.34c-.173.082-.36.122-.547.117-1.016 0-1.833-.679-1.833-1.353 0-.537.322-.872.766-.872 1.489 0 2.505 1.744 2.505 3.013 0 1.29-.818 2.417-2.206 2.417-2.95 0-4.187-2.785-4.187-4.646 0-1.994 1.461-3.347 3.097-3.347 3 0 5.302 2.984 5.302 7.232 0 1.916-.891 4.758-4.509 4.758-4.289 0-6.89-4.253-6.89-7.007 0-2.31 1.316-3.772 2.13-3.998v.003zm28.289 16.484c1.19 0 1.127-.111 1.5-.111.372 0 .397.255.397.423 0 .62-1.217 1.38-3.37 1.38-1.265 0-2.033-.76-2.257-1.603-1.237.9-3.122 1.715-4.982 1.715-5.078 0-6.366-2.506-7.952-3.321-1.217-.619-3.074.592-5.677-2.7.347.085.82.11 1.19.11 2.279 0 3.494-1.264 3.494-3.29 0-.256-.025-.535-.05-.786.695.31 2.28 1.66 2.652 4.051.05.279 1.065.535 1.712.535.891 0 2.03-.423 2.204-2.083 2.974-.279 4.982-2.277 5.403-4.813 1.065.395 2.28 1.492 2.576 2.055.422-.168.918-.254 1.486-.254.793 0 1.686.172 2.751.535.05-.363.1-.814.597-.814.743 0 .543.93.793 1.46.123.283.743.45.743 1.013 0 .537-.397.735-.645.735a.977.977 0 01-.298-.056c-.495.197-.52 4.246-2.6 4.246-1.537 0-2.95-1.434-3.57-3.233-.175-.534-.545-.874-.893-.874-.397 0-.618.086-1.088.677a8.63 8.63 0 01-2.866 2.289 7.804 7.804 0 01-3.454.804c-.843 0-1.513-.086-1.686-.086-.098 0-.098.03-.098.058 0 .198.841.958 2.676.958 4.362 0 5.426-2.79 6.121-2.79.1 0 .397 0 .568.454 1.016 2.698 3.235 3.316 4.623 3.316zM60.518 56.34c-.522 0-3.398 4.362-5.254 4.362-.446 0-.818-.957-.818-1.685 0-.395.223-.676 1.019-.873 4.257-1.1 3.318-4.73 6.956-4.73 2.008 0 4.241 1.55 4.241 5.039 0 3.714-4.654 8.33-5.351 8.33-.57 0-1.19-.93-1.19-1.549 0-.197.073-.45.57-.674 2.375-1.073 3.738-3.546 3.738-4.815 0-.281-.125-.558-.447-.558-.417 0-2.222 4.667-4.232 4.667-1.39 0-2.803-1.432-2.803-2.108 0-1.127 4.017-3.207 4.017-4.788 0-.592-.248-.618-.446-.618zM11.474 19.45s-.718.616-1.61.616c-1.064 0-1.91-.9-1.91-2.163 0-.874.397-1.774 1.316-2.225-.025.17-.025.31-.025.48 0 1.603.793 2.811 2.229 3.292zm5.301 5.404c1.242.418 2.755 1.743 2.755 3.628 0 1.208-.572 2.391-1.786 2.391-1.263 0-2.081-1.267-2.081-2.784 0-1.267.57-2.505 1.114-3.235h-.002zm-8.223 1.125c.344-.649.029-3.228 2.179-4.786 1.087-.787 2.056-.901 2.874-.901.198 0 .396.011.545.028.446.058.801.067.918.197.2.23.08.665.396 1.155.316.493.693.42.693.958 0 .423-.693 2.926-2.477 3.939-.843.476-1.513.674-2.081.674-.968 0-1.636-.476-2.233-.476-.096 0-.222.055-.418.055-.223 0-.471-.279-.471-.534 0-.112.027-.223.073-.31h.002zm5.648-7.15c-1.712 0-3.67-.899-3.67-3.123 0-1.04.698-1.915 1.662-1.915 1.686 0 2.23 2.057 2.23 3.405 0 .62-.1 1.183-.222 1.634zM7.782 30.085c.745 1.295 1.438 1.69 2.329 1.69.668 0 1.413-.17 2.38-.423-1.263 1.239-2.33 1.887-3.123 1.887-1.017 0-1.586-1.016-1.586-3.154zm.868-2.505c.595.93 1.586 1.208 2.502 1.208.297 0 .62-.025.892-.083-.643.93-1.363 1.352-1.983 1.352-.816 0-1.436-.732-1.436-2.054 0-.14 0-.279.025-.423zm6.071-.393a4.23 4.23 0 00-.175 1.295c0 .843.25 1.69.941 2.447-.198.17-.52.283-.966.283-.866 0-1.56-.65-1.56-1.661 0-1.406 1.19-2.194 1.76-2.364zm.892-7.711c0-.618.444-1.125.991-1.125.543 0 .991.507.991 1.125.003.296-.1.58-.286.791a.957.957 0 01-.705.336.957.957 0 01-.705-.336 1.188 1.188 0 01-.286-.791zm1.287 2.533c0-.618.447-1.125.994-1.125.543 0 .99.507.99 1.125.001.296-.101.58-.287.79a.958.958 0 01-.703.337.96.96 0 01-.706-.335 1.19 1.19 0 01-.288-.792zm38.663 13.817c0-.282.1-.552.279-.75.178-.2.42-.311.674-.311s.495.112.673.31c.179.2.28.47.28.75.005.145-.016.289-.063.424s-.117.257-.208.36a.947.947 0 01-.32.239.874.874 0 01-.747-.012.965.965 0 01-.308-.242 1.088 1.088 0 01-.2-.355 1.172 1.172 0 01-.062-.413h.002zm-8.702-8.669c0-.616.447-1.123.992-1.123.547 0 .993.507.993 1.125.001.296-.102.58-.288.79a.96.96 0 01-.705.335.96.96 0 01-.704-.335 1.19 1.19 0 01-.288-.79v-.002zm-.84 3.97c0-.42.147-.823.41-1.123.264-.3.623-.473 1-.481.768 0 1.415.732 1.415 1.604 0 .873-.647 1.603-1.415 1.603a1.374 1.374 0 01-1-.481 1.702 1.702 0 01-.41-1.123zm3.122-1.802c0-.955.67-1.715 1.507-1.715.843 0 1.515.76 1.515 1.715a1.86 1.86 0 01-.108.655c-.075.208-.186.397-.327.557s-.309.287-.495.374a1.385 1.385 0 01-.585.132 1.384 1.384 0 01-.584-.134 1.52 1.52 0 01-.492-.374c-.14-.16-.25-.35-.325-.557a1.857 1.857 0 01-.106-.653zm.125-3.658c0-.59.421-1.069.937-1.069.522 0 .943.479.943 1.07.002.139-.022.277-.068.406-.047.13-.116.247-.204.347a.955.955 0 01-.307.233.87.87 0 01-.364.085.909.909 0 01-.667-.32c-.176-.201-.273-.472-.27-.752zm4.483-2.7c0-.59.422-1.07.943-1.07s.944.48.944 1.07c0 .59-.424 1.069-.944 1.069a.867.867 0 01-.363-.084.952.952 0 01-.308-.233 1.074 1.074 0 01-.203-.346 1.166 1.166 0 01-.069-.406zm-1.86 3.463c0-.988.718-1.802 1.587-1.802.87 0 1.588.814 1.588 1.802 0 .472-.166.925-.463 1.262a1.54 1.54 0 01-1.125.536 1.54 1.54 0 01-1.124-.537 1.907 1.907 0 01-.463-1.261zm-2.55 6.584c-.003-.296.1-.58.284-.791a.956.956 0 01.703-.337c.545 0 .994.507.994 1.128.001.295-.102.58-.288.79a.957.957 0 01-.706.334.956.956 0 01-.702-.335 1.185 1.185 0 01-.285-.79zm3.245-2.255c0-.616.445-1.122.992-1.122.545 0 .991.506.991 1.125.002.295-.101.579-.287.79a.957.957 0 01-.704.334.957.957 0 01-.704-.334 1.188 1.188 0 01-.288-.79v-.003zm-.918 3.97c-.003-.51.175-1.001.496-1.365.32-.364.758-.572 1.216-.578.458.006.895.214 1.215.578.321.364.5.855.496 1.365.003.51-.175 1-.496 1.365-.32.364-.757.572-1.215.578a1.652 1.652 0 01-1.216-.578 2.049 2.049 0 01-.496-1.365zm3.571-2.394c0-.73.522-1.32 1.163-1.32.643 0 1.164.59 1.164 1.32 0 .734-.521 1.325-1.164 1.325-.155-.002-.307-.038-.45-.105s-.27-.166-.378-.29a1.333 1.333 0 01-.25-.428 1.441 1.441 0 01-.085-.502zm-.075-3.544c0-.646.474-1.18 1.037-1.18.572 0 1.044.534 1.044 1.18 0 .648-.472 1.183-1.044 1.183a1.01 1.01 0 01-.737-.356 1.251 1.251 0 01-.3-.83v.003zm2.526 36.922c.571 0 1.365.62 1.365 2.138 0 2.673-3.467 5.964-8.107 5.964-1.432 0-2.2-1.125-2.2-2.25 0-1.604.768-3.065 1.357-3.853.271-.367.545-.65.793-.65.2 0 .795.48 2.133.48 2.505 0 4.014-1.264 4.659-1.829zm-1.288-.309c-.64.62-1.607.93-2.674.93-1.34 0-2.431-.535-2.431-1.072v-1.294c0-.395.966-1.323 2.776-1.323 1.49 0 2.575.477 2.575 1.295v.646c0 .311-.046.623-.246.818zM46.738 33.8c.272 2.392 3.1 1.181 3.1 4.08 0 .422-.098 1.043-.098 1.575 0 .62.048 1.155.465 1.155.42 0 .522-.337.522-.79 0-.449-.102-1.011-.102-1.32 0-.986.622-1.209.995-1.209.94 0 1.66 1.095 3.074 1.095-.323 1.801-3.596 1.325-3.596 3.293 0 .985.869 1.208 1.438 1.208.522 0 .695-.083.695-.587 0-.284-.05-.593-.05-.79 0-.112.076-.226.199-.226.547 0 3.218 2.308 3.218 3.014 0 .646-2.822 1.292-3.64 1.292-.248 0-.296-.197-.296-.309 0-.197.42-.79.42-1.125 0-.255-.372-.423-1.364-.423-.471 0-.82.056-.82.48 0 .757 1.094 1.689 1.094 2.39 0 .563-.299.9-1.094.9-.668 0-1.68-.59-1.68-1.576 0-.787.714-1.573.714-2.052a.364.364 0 00-.39-.367c-.919 0-1.17 2.756-4.415 3.068.522-.535.966-1.127.966-2.334 0-.592-.123-1.07-.123-1.72 0-.843.347-1.266.841-1.266.919 0 1.363 1.464 1.962 1.464.322 0 .668-.337.668-.843 0-2.139-3.619-1.83-3.619-4.841 0-.816.246-1.83.916-3.236zm11.82 8.246c0 .702.2 1.518.82 1.518.52 0 .966-.9.966-1.883 0-1.127-.175-1.998-.175-2.452 0-.195.075-.278.175-.278.372.027.718 1.18 1.117 1.18.447 0 1.11-.93 1.384-.93.073 0 .098.114.098.14 0 .425-.57 1.355-.57 1.72 0 .309 1.44.365 1.44.646 0 .423-1.509.423-2.229.79-.693.337-1.116.758-1.116 1.322 0 .563.496.674 1.19.674 1.656 0 2.821-1.013 3.193-1.013.075 0 .125.056.125.14 0 .283-.843 1.21-.843 1.633 0 .48 1.538 1.04 1.513 1.323-.025.083-.125.111-.299.111-.273 0-.695-.083-1.016-.083-.198 0-.372.025-.447.14-.173.225.05 1.717-.296 1.717-.324 0-1.167-3.321-3.068-3.321-.276 0-.474.255-.474.673 0 1.128.968 2.422 1.887 3.04.415.312 1.11.62 1.11.79 0 .338-1.582.028-1.582.59 0 .508.198 1.27.198 1.718 0 .14-.025.307-.173.307-.298 0-1.018-1.545-1.365-1.545-.298 0-.941.93-1.217.93-.073 0-.123-.087-.123-.17 0-.649.919-2.11.919-3.547 0-.674-.076-2.138-.794-2.138-.596 0-1.266 1.069-1.565 2.138-.171.618-.048 3.012-.444 3.012-.372 0-.272-1.604-.77-1.604-.366 0-1.159.758-1.432.758-.05 0-.1-.028-.1-.083 0-.337.72-1.437.72-1.66 0-.423-1.637-.479-1.637-.816 0-.197.645-.339 1.24-.45 1.26-.256 3.118-1.295 3.118-2.76 0-1.63-1.388-2.335-2.3-3.011-.472-.337-.991-.616-.991-.841 0-.228.595-.228.843-.228.371 0 .739-.028.739-.365 0-.256-.05-.76-.05-1.153 0-.283.023-.506.125-.506.371 0 .891 1.378 1.14 1.378.396 0 .94-1.125 1.314-1.125.124 0 .174.084.174.337 0 1.041-.472 2.222-.472 3.237zM47.456 49.84c1.142.17 1.415.618 1.415.985 0 .62-.496.816-.968.816-.346 0-.743-.084-1.165-.084-.546 0-1.091.14-1.536.73.322.058.793.311.793.876 0 1.632-3.99.28-3.99 4.474 0 2.222 2.033 4.643 5.103 4.643 1.588 0 2.607-.59 2.607-1.266 0-.535-.844-.172-.844-.62 0-.196.297-.565.297-.875 0-.137-.098-.392-.297-.392-.448 0-1.29.813-3.001.813-1.338 0-2.65-.867-2.65-2.052 0-.251.098-.395.246-.395.15 0 .346.116.521.116.149 0 .174-.116.174-.423 0-.311 0-1.185.47-1.185.471 0 1.364 1.973 4.785 1.973 1.136 0 3.344-.253 4.162-1.1-.025 3.096-2.158 7.177-6.616 7.177-4.634 0-7.113-4.222-7.113-8.106 0-4.304 3.095-8.215 7.336-8.215 1.09 0 2.008.423 2.008.957 0 .732-1.611.281-1.737 1.153zm7.61 1.494c1.855.14 3.047 1.406 3.047 2.896 0 1.1-.697 2.026-1.711 2.026-.94 0-1.56-.76-1.56-1.687 0-.816.472-1.548.472-2.338a1.835 1.835 0 00-.248-.897zm-8.203 1.799c1.434 0 2.405 1.041 2.405 2.113 0 .727-.472 1.347-1.169 1.347-.643 0-1.09-.59-1.09-1.264 0-.479.176-.93.176-1.352a1.26 1.26 0 00-.083-.46 1.154 1.154 0 00-.24-.384h.002zm3.292-4.783a5.01 5.01 0 014.018 4.869c0 1.434-.793 2.754-2.181 2.754-1.267 0-2.18-.983-2.18-2.559 0-1.183.815-2.42.815-3.63a2.36 2.36 0 00-.472-1.434zM31.423 17.704c1.636 0 2.38 1.604 2.38 3.405 0 .788-.2 1.943-.523 1.943-.321 0-.271-.651-.321-1.241-.048-.76-.173-.928-.397-.928-.421 0-.693 1.125-.693 2.169 0 .646.098 1.378.543 1.378a.86.86 0 00.622-.31c-.1 1.293-.943 2.42-2.133 2.42-2.179 0-2.997-2.898-3.244-4.588-1.314 1.576-2.527 2.731-4.71 2.731-2.031 0-2.95-1.69-2.95-3.293 0-.479.151-1.717.67-1.717.62 0 .076 2.307 1.288 2.307.299 0 .844-.28 1.142-1.208a5.867 5.867 0 00.271-1.662c0-.76-.146-1.239-.642-1.239-.422 0-.944.365-1.117.563.597-2.027 2.033-3.068 3.617-3.068 1.96 0 3 1.97 3 4.167a6.4 6.4 0 01-.074.955c.841-1.575 2.008-2.784 3.27-2.784zm-4.634 7.567c.595 0 1.712 1.213 2.008 2.45a1.748 1.748 0 00-.371-.056c-.796 0-1.24.902-1.885 2.42 1.438-1.1 2.776-2 4.287-2 1.288 0 2.304.9 2.304 2.28 0 .59-.248 1.24-.57 1.802-.198-1.267-1.114-1.83-2.7-1.83-.917 0-2.008.198-2.874.563 2.8.45 3.22 1.604 3.22 2.647 0 1.771-1.561 2.645-2.603 3.235.1-.506.174-1.04.174-1.603 0-1.07-.345-2.28-1.76-3.463-.221 1.155-1.014 1.859-1.014 2.758 0 .337.198.451.346.451 0 .507-.198 1.943-.198 2.308 0 .76.148.9.472.986.198.646.204 1.73.34 2.314a.53.53 0 00.169.306.435.435 0 00.307.11c.198.56.446 1.406.918 1.8.098.085.221.28.221.45 0 .507-.668 1.069-1.09 1.069-.124 0-.337-.086-.527-.604-.157-.428-1.355-1.279-1.43-1.787.075-.086.125-.256.125-.451 0-.788-1.09-1.688-1.09-2.929.124-.055.247-.279.247-.534 0-.702-.645-2.083-.645-3.01.274 0 .424-.028.447-.479.05-.93.223-2.307.991-3.095a4.15 4.15 0 00-.693-.056c-1.488 0-3.792.983-4.658 3.18a6.478 6.478 0 01-.075-.93c0-1.827.966-3.038 1.684-3.403.371-.197.818-.255 1.315-.255.793 0 1.732.197 2.698.395-.84-1.267-2.128-2.197-3.195-2.197-.495 0-.891.2-1.016.674a5.977 5.977 0 01-.073-.952c0-1.38.396-2.169 1.436-2.169 1.538 0 2.848 2.083 3.644 4.025 0-2.951.048-4.42 1.114-4.42zm41.754 20.29c1.24 0 2.233 1.83 2.233 3.969 0 2.277-.945 4.757-2.626 6.442-.025-3.797-4.118-2.587-4.118-5.345 0-1.181.746-1.969 1.639-1.969.793 0 1.413.254 1.857.76a2.557 2.557 0 01-.496-.826 2.773 2.773 0 01-.171-.975c0-1.07.594-2.054 1.682-2.054v-.003zM46.415 18.83c.647.704 1.215 1.014 1.91 1.014.27 0 .596-.084.77-.084.223 0 .371.111.371.307 0 .311-.25.818-.545 1.099.297.14.62.197.967.197 1.409 0 3.02-1.013 3.02-3.546.298.449.472 1.378.472 1.801 0 3.068-1.983 4.248-3.814 4.248-1.191 0-1.788-.45-1.937-.45-.47 0-.444 1.071-.768 1.043-.57-.114-1.089-1.548-1.089-3.068 0-.901.198-1.859.643-2.56zm3.74-2.054c-.198-.367-.94-.563-1.284-.563-1.093 0-1.836.872-1.985 1.66a2.95 2.95 0 01-.173-.955c0-1.24.743-2.76 2.555-2.76 1.582 0 2.202.958 2.425.958.249 0 .497-.283.695-.283.272 0 .272.479.272.818 0 1.125-.447 3.068-1.562 3.77a2.707 2.707 0 00-1.235-1.348.414.414 0 01-.183-.169.484.484 0 01-.066-.254c0-.312.249-.707.543-.874h-.002zM29.192 10.64c0-.083.05-.17.125-.17.693 0 3.84 2.815 4.287 3.52.098.169.148.394.148.617 0 .846-.371 1.832-.868 1.832-.595 0-3.692-4.813-3.692-5.799zm-18.215-2.9c0 .565-1.883 2.45-2.55 2.45-.249 0-.322-.338-.322-.65 0-.56.221-1.347.495-1.603.321-.339 1.064-.504 1.636-.504.344 0 .741.081.741.307zm22.627 1.634c0 .364-.272.646-.72.646-1.336 0-4.162-1.52-5.13-1.52-.272 0-.345.086-.345.367 0 1.069 1.833 4.444 1.833 5.936 0 .395-.126.704-.47.704-1.115 0-3.594-3.377-4.46-3.377-.793 0-.447 2.842-1.19 2.842-.595 0-1.117-1.631-1.761-1.631-.643 0-1.065 5.626-2.081 5.626-1.19 0-.718-5.206-1.511-5.206-.62 0-1.461 1.774-2.38 1.774-.494 0-.643-.451-.643-1.097 0-.816.222-1.94.222-2.673 0-.395-.025-.844-.347-.844-.918 0-4.262 2.785-5.552 2.785-.271 0-.47-.14-.47-.451 0-1.378 4.238-5.515 4.238-6.47 0-.874-4.857-.086-4.857-.93 0-.958 3.444-2.617 3.444-3.237 0-.647-3.319-.872-3.319-1.604 0-.479.793-.674 2.254-.674 1.215 0 4.362.365 4.362 1.18 0 .93-2.655 1.86-2.655 2.76 0 1.068 3.72.45 3.72 1.38 0 .955-2.701 3.095-2.701 3.77 0 .11.125.167.223.167.643 0 2.33-1.406 3.098-1.406.296 0 .396.225.396.62 0 .786-.421 2.11-.421 2.924 0 .197.05.423.248.423.543 0 1.413-2.673 2.181-2.673.693 0 .073 4.023.793 4.023.618 0 .743-3.656 1.388-3.656.618 0 .916 2.053 1.561 2.053.272 0 .297-.396.297-1.042v-.953c0-.62.025-1.04.296-1.04.745 0 2.85 2.811 3.298 2.811.098 0 .123-.111.123-.197 0-.758-1.413-3.319-1.413-4.67 0-.45.148-.76.547-.76.866 0 2.7 1.154 3.542 1.154.271 0 .446-.112.446-.421 0-1.155-3.024-3.49-3.024-4.448 0-.93 3.37-1.883 5.677-1.883.294 0 .891 0 .891.363 0 .702-2.86 1.304-3.548 2.129a.523.523 0 00-.146.348c.046 1.325 4.066 4.39 4.066 6.08v-.002zm-2.578-5.576c0-.337 1.042-.59 1.858-.59.647 0 .966.028.966.871 0 .674-.123 1.325-.543 1.325-.72 0-2.28-1.1-2.28-1.603v-.003zM25.203.931c0 .395-1.213.395-1.213 1.267 0 .874 2.202 1.604 2.202 2.277 0 .198-.146.256-.296.256-.42 0-1.19-.395-1.757-.395-.397 0-.695.225-.695.704 0 .788.745 1.999.745 2.59 0 .197-.125.336-.274.336-.595 0-1.24-2.168-2.108-2.168-1.064 0-.743 3.126-1.486 3.126-.718 0 .148-3.18-1.164-3.18-.793 0-1.637 1.437-2.133 1.437-.124 0-.247-.058-.247-.228 0-.562 1.338-1.83 1.338-2.533 0-.365-.321-.449-.668-.449-.622 0-1.488.28-2.033.28-.248 0-.446-.085-.446-.28 0-.59 2.504-.874 2.504-1.857 0-.93-1.164-.79-1.164-1.127 0-.253.914-.45 1.905-.45 1.636 0 1.315 1.577 2.605 1.577 1.238 0 1.014-1.522 2.626-1.522 1.016 0 1.76.17 1.76.34zm39.748 7.4c0-1.999-4.21-2.503-4.21-2.951 0-.368 2.35-.988 3.565-1.016-1.858-2.7-4.508-2.417-4.508-2.898 0-.281 1.982-.846 3.815-.846 1.536 0 2.974.395 2.974 1.72 0 .732-.522 1.492-.522 2.614 0 .62.272 1.155.994 1.155.77 0 .941-.93.941-1.915 0-.813-.123-1.434-.123-1.829 0-1.18.714-1.968 1.732-1.968.841 0 1.042.42 2.282.42-.67.454-.919 1.27-.919 1.662 0 1.183.67 1.999.67 4.418 0 4.446-3.665 6.02-8.154 6.02-1.232 0-2.549-.112-3.84-.335-.197-.028-.247-.084-.247-.226 0-.365 1.762-.564 1.762-2.363 0-.704-.199-1.378-.199-1.632 0-.14.098-.225.199-.225.371 0 1.116 1.631 2.5 1.631.37 0 1.288-.14 1.288-1.436zm2.48 33.432c.396-1.406.895-2.394 1.707-3.912-.814-.476-2.972-1.492-2.972-3.151 0-1.943 2.13-3.463 2.573-3.463.2 0 .25.2.25.565 0 1.013-.421 2.645-.421 3.516 0 .79.444 1.55.841 1.55.422 0 1.586-1.69 1.586-3.351 0-2.982-2.304-3.881-3.018-3.881-.67 0-1.887 1.236-4.738 1.236-5.326 0-6.54-5.991-6.54-8.61 0-.112.024-.14.05-.14.125 0 .644.732 2.33.732.869 0 1.662-.256 2.927-.256 2.968 0 4.285 2.338 6.12 5.32 1.11.786 3.765 2.055 3.765 5.63 0 3.15-2.952 4.894-3.665 8.273 1.133-.14 1.805-2.45 2.97-2.45.594 0 .868.535.868 1.38 0 1.237-.62 3.096-1.81 4.25.023-.112.023-.256.023-.424 0-.788-.271-1.913-1.064-1.913-1.236 0-1.634 1.52-2.327 2.785-.72-2.868-1.687-5.46-3.423-7.035-1.754-1.604-4.78-.732-4.78-3.658 0-.79.447-1.913.447-2.812a1.456 1.456 0 00-.2-.818c2.38 1.013 1.538 2.812 3.003 4.67.912 1.186 3.44 2.309 4.905 7.178.02-.14.048-.507.048-.76 0-4.165-4.855-8.246-5.277-9.936 2.82.367 3.317 1.155 4.655 5.376.273.874 1.168 3.042 1.168 4.109h-.002zM48.326 11.259c-.349 0-1.762 1.832-2.234 1.832-.096 0-.12 0-.12-.142 0-.562 1.237-2.533 1.237-3.124 0-.59-1.684-.253-1.684-.73 0-.592 1.684-1.21 1.684-1.998 0-.79-1.61-.902-1.61-1.52 0-.337 1.51-.816 1.51-1.325 0-.504-1.534-2.475-1.534-3.12 0-.705 2.304 1.236 2.9 1.236.297 0 .297-.984.297-1.295 0-.479.125-.758.249-.758.298 0 .893 1.125 1.283 1.097.647 0 1.862-.93 3.521-.93 3.494 0 6.024 2.395 6.024 6.473 0 4.22-2.826 6.614-5.823 6.614-2.108 0-3.375-1.492-3.845-1.492-.317 0-.789 1.295-1.085 1.295-.125 0-.173-.028-.224-.367-.075-.646-.15-1.743-.546-1.743v-.003zm-11.23 49.415c0-.477-.27-.846-.27-1.293 0-.478.27-.79.642-.79.472 0 .72.481.77.983.172-.193.32-.279.543-.279.497 0 .793.449.793.93a1.064 1.064 0 01-.094.423.958.958 0 01-.25.335c.296.172.47.423.47.79 0 .45-.297.79-.696.79-.371 0-.594-.509-.989-.509-.223 0-.472.112-.572.281.15.395.223.786.223 1.15 0 2.2-2.454 3.973-5.004 3.973-2.553 0-3.471-1.802-3.471-2.534 0-.17.1-.255.273-.255.422 0 .522.172 1.66.172 2.725 0 1.759-4.195 4.311-4.195.349 0 1.117.28 1.388.843.172-.228.269-.515.274-.813v-.002zM23.52 55.442c-1.586-.453-1.81-.79-1.81-1.269 0-.788.967-1.322 1.835-1.322 1.212 0 2.106.395 2.922 1.8.745 1.267.868 3.378 1.265 3.773.198.197.521.255.743.255.248 0 .471-.03.645-.03 1.782 0 2.997 2.278 2.997 3.293 0 .93-.718 1.262-1.61 1.262-1.064 0-2.28-.697-2.9-1.487-.47-.562-.719-1.692-.917-3.068-.198-1.438-1.19-2.65-3.172-3.207h.002zm4.633-15.62c0-1.801 3.767-2.759 3.767-4.983 0-.365-.125-1.01-.348-1.49 1.315.814 2.28 2.197 2.28 3.322 0 1.94-1.783 2.842-1.783 4.053 0 1.406 1.907 1.631 1.907 3.377 0 1.434-1.81 3.093-1.81 4.95 0 1.436.894 2.617 2.255 2.812-.413.12-.836.187-1.263.2-2.504 0-5.08-2.336-5.08-5.122 0-1.378.522-2.587 1.313-3.46.695.673 1.388 1.124 1.834 1.124.397 0 .57-.223.57-.562 0-1.042-3.642-2-3.642-4.22zm7.806 12.185c0-1.266-2.306-1.294-2.306-3.207 0-.481.273-1.297.818-2.17.225 1.463.743 2.223 1.86 2.705 2.204.927 2.504 2.333 2.504 3.827 0 2.533-1.563 5.683-5.577 5.683-3.222 0-5.526-3.266-5.526-6.022 0-.76.173-1.604.594-1.604.372 0 .495.337.794.674 1.114 1.27 2.329 1.604 4.088 1.604 1.586 0 2.751-.73 2.751-1.49zm-22.18 1.715c-.117-1.092.668-1.92 1.39-2.04l.246-.042a2.03 2.03 0 01-.125-.563c-.083-1.052.484-1.882 1.346-2.045.954-.179 1.653.556 1.879 1.397.233-.214.518-.346.818-.381.835-.116 1.634.637 1.732 1.65.075.983-.528 1.799-1.423 1.992-.09.018-.211.032-.211.032.081.207.131.426.148.651.1 1.039-.522 1.857-1.434 1.992-.9.132-1.565-.447-1.763-1.348-.252.159-.53.255-.819.283a1.51 1.51 0 01-1.182-.382 1.867 1.867 0 01-.602-1.196z" clip-rule="evenodd" opacity=".4"/></svg>