<?xml version="1.0" encoding="utf-8"?><svg xmlns="http://www.w3.org/2000/svg" width="179" height="31" fill="none" viewBox="0 0 179 31"><mask id="ba" width="16" height="18" x="0" y="1" maskUnits="userSpaceOnUse"><path fill="#fff" fill-rule="evenodd" d="M.756 1.17v16.89h4.397V5.138h5.648V18.06H15.2V1.17H.756z" clip-rule="evenodd"/></mask><g mask="url(#ba)"><path fill="url(#bpaint0_linear)" fill-rule="evenodd" d="M.756 1.17v16.89h4.397V5.138h5.648V18.06H15.2V1.17H.756z" clip-rule="evenodd"/></g><mask id="bb" width="14" height="18" x="20" y="1" maskUnits="userSpaceOnUse"><path fill="#fff" fill-rule="evenodd" d="M20.442 1.17v16.89h4.397v-5.246h2.224c.919 0 1.78-.14 2.58-.422a6.154 6.154 0 002.071-1.191 5.5 5.5 0 001.367-1.842c.333-.715.5-1.508.5-2.378 0-.888-.167-1.694-.5-2.42a5.233 5.233 0 00-1.367-1.829c-.58-.496-1.269-.878-2.07-1.151a7.935 7.935 0 00-2.582-.41h-6.62zm4.397 3.839h2.25c.612 0 1.102.179 1.469.539.365.358.55.835.55 1.433s-.185 1.078-.55 1.444c-.367.368-.857.55-1.47.55h-2.25V5.01z" clip-rule="evenodd"/></mask><g mask="url(#bb)"><path fill="url(#bpaint1_linear)" fill-rule="evenodd" d="M20.442 1.17v16.89h4.397v-5.246h2.224c.919 0 1.78-.14 2.58-.422a6.154 6.154 0 002.071-1.191 5.5 5.5 0 001.367-1.842c.333-.715.5-1.508.5-2.378 0-.888-.167-1.694-.5-2.42a5.233 5.233 0 00-1.367-1.829c-.58-.496-1.269-.878-2.07-1.151a7.935 7.935 0 00-2.582-.41h-6.62zm4.397 3.839h2.25c.612 0 1.102.179 1.469.539.365.358.55.835.55 1.433s-.185 1.078-.55 1.444c-.367.368-.857.55-1.47.55h-2.25V5.01z" clip-rule="evenodd"/></g><mask id="bc" width="19" height="19" x="36" y="0" maskUnits="userSpaceOnUse"><path fill="#fff" fill-rule="evenodd" d="M41.618 1.377a8.917 8.917 0 00-2.876 1.84A8.766 8.766 0 0036.8 5.994c-.478 1.067-.716 2.224-.716 3.468 0 1.245.238 2.4.716 3.468a8.735 8.735 0 001.942 2.776 8.967 8.967 0 002.876 1.844 9.388 9.388 0 003.541.664c1.26 0 2.444-.222 3.553-.664a9.098 9.098 0 002.9-1.844 8.688 8.688 0 001.957-2.776c.475-1.068.714-2.223.714-3.468 0-1.244-.239-2.401-.714-3.468a8.717 8.717 0 00-1.957-2.777 9.046 9.046 0 00-2.9-1.84A9.45 9.45 0 0045.159.71c-1.263 0-2.442.222-3.54.667zm1.7 12.461a4.222 4.222 0 01-1.457-.948 4.163 4.163 0 01-.946-1.483c-.222-.58-.333-1.23-.333-1.945 0-.699.111-1.34.333-1.92.22-.579.537-1.074.946-1.483.41-.41.895-.73 1.457-.96a4.877 4.877 0 011.865-.346c.648 0 1.253.116 1.815.346.563.23 1.049.55 1.457.96.41.409.734.904.972 1.483.238.58.358 1.221.358 1.92 0 .716-.12 1.364-.358 1.945a4.463 4.463 0 01-.972 1.483 4.2 4.2 0 01-1.456.948 4.924 4.924 0 01-1.816.332c-.68 0-1.303-.11-1.865-.332z" clip-rule="evenodd"/></mask><g mask="url(#bc)"><path fill="url(#bpaint2_linear)" fill-rule="evenodd" d="M41.618 1.377a8.917 8.917 0 00-2.876 1.84A8.766 8.766 0 0036.8 5.994c-.478 1.067-.716 2.224-.716 3.468 0 1.245.238 2.4.716 3.468a8.735 8.735 0 001.942 2.776 8.967 8.967 0 002.876 1.844 9.388 9.388 0 003.541.664c1.26 0 2.444-.222 3.553-.664a9.098 9.098 0 002.9-1.844 8.688 8.688 0 001.957-2.776c.475-1.068.714-2.223.714-3.468 0-1.244-.239-2.401-.714-3.468a8.717 8.717 0 00-1.957-2.777 9.046 9.046 0 00-2.9-1.84A9.45 9.45 0 0045.159.71c-1.263 0-2.442.222-3.54.667zm1.7 12.461a4.222 4.222 0 01-1.457-.948 4.163 4.163 0 01-.946-1.483c-.222-.58-.333-1.23-.333-1.945 0-.699.111-1.34.333-1.92.22-.579.537-1.074.946-1.483.41-.41.895-.73 1.457-.96a4.877 4.877 0 011.865-.346c.648 0 1.253.116 1.815.346.563.23 1.049.55 1.457.96.41.409.734.904.972 1.483.238.58.358 1.221.358 1.92 0 .716-.12 1.364-.358 1.945a4.463 4.463 0 01-.972 1.483 4.2 4.2 0 01-1.456.948 4.924 4.924 0 01-1.816.332c-.68 0-1.303-.11-1.865-.332z" clip-rule="evenodd"/></g><mask id="bd" width="18" height="19" x="58" y="0" maskUnits="userSpaceOnUse"><path fill="#fff" fill-rule="evenodd" d="M73.93.864l-7.182 8.778L59.566.864H58.16V18.06h4.396v-7.063l3.476 4.069h1.406l3.502-4.07v7.064h4.398V.864h-1.407z" clip-rule="evenodd"/></mask><g mask="url(#bd)"><path fill="url(#bpaint3_linear)" fill-rule="evenodd" d="M73.93.864l-7.182 8.778L59.566.864H58.16V18.06h4.396v-7.063l3.476 4.069h1.406l3.502-4.07v7.064h4.398V.864h-1.407z" clip-rule="evenodd"/></g><mask id="be" width="19" height="19" x="79" y="0" maskUnits="userSpaceOnUse"><path fill="#fff" fill-rule="evenodd" d="M84.559 1.377a8.943 8.943 0 00-2.876 1.84 8.79 8.79 0 00-1.942 2.777c-.476 1.067-.715 2.224-.715 3.468 0 1.245.239 2.4.715 3.468a8.76 8.76 0 001.942 2.776 8.993 8.993 0 002.876 1.844 9.4 9.4 0 003.54.664 9.492 9.492 0 003.554-.664 9.093 9.093 0 002.901-1.844 8.669 8.669 0 001.955-2.776c.478-1.068.716-2.223.716-3.468 0-1.244-.238-2.401-.716-3.468a8.699 8.699 0 00-1.955-2.777 9.041 9.041 0 00-2.901-1.84A9.446 9.446 0 0088.1.71c-1.261 0-2.44.222-3.541.667zm1.7 12.461a4.212 4.212 0 01-1.456-.948 4.162 4.162 0 01-.946-1.483c-.223-.58-.333-1.23-.333-1.945 0-.699.11-1.34.332-1.92.221-.579.538-1.074.947-1.483.409-.41.894-.73 1.456-.96a4.88 4.88 0 011.867-.346c.647 0 1.252.116 1.813.346.564.23 1.05.55 1.459.96.409.409.732.904.97 1.483.239.58.359 1.221.359 1.92 0 .716-.12 1.364-.358 1.945a4.488 4.488 0 01-.971 1.483c-.41.41-.895.727-1.459.948a4.909 4.909 0 01-1.813.332 5.068 5.068 0 01-1.867-.332z" clip-rule="evenodd"/></mask><g mask="url(#be)"><path fill="url(#bpaint4_linear)" fill-rule="evenodd" d="M84.559 1.377a8.943 8.943 0 00-2.876 1.84 8.79 8.79 0 00-1.942 2.777c-.476 1.067-.715 2.224-.715 3.468 0 1.245.239 2.4.715 3.468a8.76 8.76 0 001.942 2.776 8.993 8.993 0 002.876 1.844 9.4 9.4 0 003.54.664 9.492 9.492 0 003.554-.664 9.093 9.093 0 002.901-1.844 8.669 8.669 0 001.955-2.776c.478-1.068.716-2.223.716-3.468 0-1.244-.238-2.401-.716-3.468a8.699 8.699 0 00-1.955-2.777 9.041 9.041 0 00-2.901-1.84A9.446 9.446 0 0088.1.71c-1.261 0-2.44.222-3.541.667zm1.7 12.461a4.212 4.212 0 01-1.456-.948 4.162 4.162 0 01-.946-1.483c-.223-.58-.333-1.23-.333-1.945 0-.699.11-1.34.332-1.92.221-.579.538-1.074.947-1.483.409-.41.894-.73 1.456-.96a4.88 4.88 0 011.867-.346c.647 0 1.252.116 1.813.346.564.23 1.05.55 1.459.96.409.409.732.904.97 1.483.239.58.359 1.221.359 1.92 0 .716-.12 1.364-.358 1.945a4.488 4.488 0 01-.971 1.483c-.41.41-.895.727-1.459.948a4.909 4.909 0 01-1.813.332 5.068 5.068 0 01-1.867-.332z" clip-rule="evenodd"/></g><path fill="#151692" fill-rule="evenodd" d="M115.867 18.06h-4.396v-6.755h-6.161v6.755h-4.397V1.17h4.397v6.167h6.161V1.17h4.396V18.06zM127.142.864l-7.668 17.196h4.729l.614-1.408h6.058l.613 1.408h4.729L128.55.864h-1.408zm.716 8.368l1.458 3.89h-2.94l1.482-3.89zm29.653 12.437h-4.398v-3.61h-9.381v3.61h-4.396v-7.576h1.277a6.63 6.63 0 001.445-1.496c.401-.572.732-1.242.997-2.01.263-.767.46-1.65.588-2.647.128-.999.192-2.155.192-3.468V1.17h11.297v12.922h2.379v7.575zm-9.509-16.532c-.034 2.064-.261 3.817-.678 5.259-.418 1.442-1.019 2.674-1.802 3.697h5.214V5.137h-2.734zM169.097.864c1.261 0 2.445.221 3.552.665a9.051 9.051 0 012.902 1.842 8.664 8.664 0 011.955 2.776c.477 1.067.716 2.223.716 3.468 0 1.246-.239 2.402-.716 3.467a8.65 8.65 0 01-1.955 2.777 9.041 9.041 0 01-2.902 1.843 9.436 9.436 0 01-3.552.665c-1.261 0-2.441-.22-3.54-.665a8.902 8.902 0 01-2.876-1.843 8.74 8.74 0 01-1.942-2.777c-.478-1.065-.716-2.221-.716-3.467 0-1.245.238-2.4.716-3.468a8.754 8.754 0 011.942-2.776 8.911 8.911 0 012.876-1.842 9.36 9.36 0 013.54-.665zm.025 4.043c-.68 0-1.303.115-1.866.345-.562.23-1.048.55-1.456.961a4.145 4.145 0 00-.946 1.483 5.332 5.332 0 00-.332 1.919c0 .717.11 1.366.332 1.946.221.58.537 1.075.946 1.484.408.408.894.725 1.456.946a5.041 5.041 0 001.866.333c.648 0 1.253-.11 1.816-.333a4.216 4.216 0 001.456-.946c.409-.41.733-.904.972-1.484.238-.58.358-1.23.358-1.946 0-.7-.12-1.338-.358-1.92a4.463 4.463 0 00-.972-1.482 4.349 4.349 0 00-1.456-.961 4.761 4.761 0 00-1.816-.345z" clip-rule="evenodd"/><mask id="bf" width="6" height="6" x="85" y="20" maskUnits="userSpaceOnUse"><path fill="#fff" fill-rule="evenodd" d="M87.73 20.733a2.23 2.23 0 00-.648.23c-.015.006-.03.016-.046.024-.09.05-.175.103-.255.165-.013.009-.024.02-.036.028a2.309 2.309 0 00-.387.388c-.02.026-.043.05-.062.078-.037.05-.067.107-.1.16a2.06 2.06 0 00-.166.344c-.031.08-.055.165-.077.25-.01.045-.024.086-.032.132-.024.133-.041.27-.041.41a2.247 2.247 0 002.246 2.25c.14 0 .278-.017.41-.043.074-.012.145-.037.216-.057.051-.016.103-.029.153-.047.095-.036.185-.08.272-.127l.052-.028c.234-.133.44-.305.61-.51l.048-.057a2.322 2.322 0 00.444-.978c.025-.13.04-.264.04-.403a2.246 2.246 0 00-2.245-2.248c-.137 0-.268.016-.395.04z" clip-rule="evenodd"/></mask><g mask="url(#bf)"><path fill="url(#bpaint5_linear)" fill-rule="evenodd" d="M87.73 20.733a2.23 2.23 0 00-.648.23c-.015.006-.03.016-.046.024-.09.05-.175.103-.255.165-.013.009-.024.02-.036.028a2.309 2.309 0 00-.387.388c-.02.026-.043.05-.062.078-.037.05-.067.107-.1.16a2.06 2.06 0 00-.166.344c-.031.08-.055.165-.077.25-.01.045-.024.086-.032.132-.024.133-.041.27-.041.41a2.247 2.247 0 002.246 2.25c.14 0 .278-.017.41-.043.074-.012.145-.037.216-.057.051-.016.103-.029.153-.047.095-.036.185-.08.272-.127l.052-.028c.234-.133.44-.305.61-.51l.048-.057a2.322 2.322 0 00.444-.978c.025-.13.04-.264.04-.403a2.246 2.246 0 00-2.245-2.248c-.137 0-.268.016-.395.04z" clip-rule="evenodd"/></g><mask id="bg" width="6" height="6" x="42" y="20" maskUnits="userSpaceOnUse"><path fill="#fff" fill-rule="evenodd" d="M42.925 22.85c0 .141.017.277.042.41.008.045.02.088.031.132.023.086.047.17.079.251.02.051.039.1.061.15.032.068.069.133.107.197.03.053.06.105.093.154.025.033.054.063.08.095.101.13.215.244.341.347l.066.056c.076.056.155.107.237.153l.064.035a2.177 2.177 0 00.643.229c.13.025.265.04.403.04a2.248 2.248 0 002.246-2.248 2.262 2.262 0 00-.057-.493 2.206 2.206 0 00-.113-.362c-.01-.025-.022-.046-.033-.07a2.53 2.53 0 00-.148-.275c-.02-.028-.036-.058-.056-.086a2.278 2.278 0 00-.22-.267 2.593 2.593 0 00-.3-.26c-.03-.022-.057-.045-.088-.066a2.112 2.112 0 00-.314-.169c-.041-.02-.086-.035-.13-.052a2.259 2.259 0 00-.257-.079c-.043-.01-.084-.022-.127-.028a2.09 2.09 0 00-.403-.041 2.248 2.248 0 00-2.246 2.248z" clip-rule="evenodd"/></mask><g mask="url(#bg)"><path fill="url(#bpaint6_linear)" fill-rule="evenodd" d="M42.925 22.85c0 .141.017.277.042.41.008.045.02.088.031.132.023.086.047.17.079.251.02.051.039.1.061.15.032.068.069.133.107.197.03.053.06.105.093.154.025.033.054.063.08.095.101.13.215.244.341.347l.066.056c.076.056.155.107.237.153l.064.035a2.177 2.177 0 00.643.229c.13.025.265.04.403.04a2.248 2.248 0 002.246-2.248 2.262 2.262 0 00-.057-.493 2.206 2.206 0 00-.113-.362c-.01-.025-.022-.046-.033-.07a2.53 2.53 0 00-.148-.275c-.02-.028-.036-.058-.056-.086a2.278 2.278 0 00-.22-.267 2.593 2.593 0 00-.3-.26c-.03-.022-.057-.045-.088-.066a2.112 2.112 0 00-.314-.169c-.041-.02-.086-.035-.13-.052a2.259 2.259 0 00-.257-.079c-.043-.01-.084-.022-.127-.028a2.09 2.09 0 00-.403-.041 2.248 2.248 0 00-2.246 2.248z" clip-rule="evenodd"/></g><mask id="bh" width="39" height="8" x="47" y="23" maskUnits="userSpaceOnUse"><path fill="#fff" fill-rule="evenodd" d="M82.967 23.08c-.13.02-.253.059-.375.105l-.005-.013a40.997 40.997 0 01-5.188 1.772 41.324 41.324 0 01-10.65 1.391 41.33 41.33 0 01-10.651-1.39 40.512 40.512 0 01-4.813-1.623 2.309 2.309 0 00-.44-.184 2.296 2.296 0 00-.637-.101 2.247 2.247 0 00-2.247 2.248 2.24 2.24 0 001.233 1.996 1.064 1.064 0 00-.019.04 45.053 45.053 0 005.762 1.972 45.648 45.648 0 0011.811 1.545c4.086 0 8.044-.537 11.813-1.545a45.286 45.286 0 005.694-1.939l.015-.005h-.001c.11-.05.216-.11.318-.174.041-.028.08-.059.121-.09.066-.047.127-.099.187-.154.036-.033.072-.066.107-.102.07-.075.136-.156.197-.24.014-.019.03-.036.044-.056.071-.105.129-.218.18-.333.017-.037.03-.075.044-.113.035-.09.064-.181.086-.277.01-.039.02-.077.027-.117.025-.133.042-.268.042-.408a2.247 2.247 0 00-2.247-2.248c-.14 0-.276.014-.408.042z" clip-rule="evenodd"/></mask><g mask="url(#bh)"><path fill="url(#bpaint7_linear)" fill-rule="evenodd" d="M82.967 23.08c-.13.02-.253.059-.375.105l-.005-.013a40.997 40.997 0 01-5.188 1.772 41.324 41.324 0 01-10.65 1.391 41.33 41.33 0 01-10.651-1.39 40.512 40.512 0 01-4.813-1.623 2.309 2.309 0 00-.44-.184 2.296 2.296 0 00-.637-.101 2.247 2.247 0 00-2.247 2.248 2.24 2.24 0 001.233 1.996 1.064 1.064 0 00-.019.04 45.053 45.053 0 005.762 1.972 45.648 45.648 0 0011.811 1.545c4.086 0 8.044-.537 11.813-1.545a45.286 45.286 0 005.694-1.939l.015-.005h-.001c.11-.05.216-.11.318-.174.041-.028.08-.059.121-.09.066-.047.127-.099.187-.154.036-.033.072-.066.107-.102.07-.075.136-.156.197-.24.014-.019.03-.036.044-.056.071-.105.129-.218.18-.333.017-.037.03-.075.044-.113.035-.09.064-.181.086-.277.01-.039.02-.077.027-.117.025-.133.042-.268.042-.408a2.247 2.247 0 00-2.247-2.248c-.14 0-.276.014-.408.042z" clip-rule="evenodd"/></g><defs><linearGradient id="bpaint0_linear" x1="15.432" x2="15.432" y1="16.485" y2="-.951" gradientUnits="userSpaceOnUse"><stop stop-color="#3ECEE5"/><stop offset="1" stop-color="#0C0C97"/></linearGradient><linearGradient id="bpaint1_linear" x1="33.793" x2="33.793" y1="16.485" y2="-.951" gradientUnits="userSpaceOnUse"><stop stop-color="#3ECEE5"/><stop offset="1" stop-color="#0C0C97"/></linearGradient><linearGradient id="bpaint2_linear" x1="54.249" x2="54.249" y1="16.485" y2="-.951" gradientUnits="userSpaceOnUse"><stop stop-color="#3ECEE5"/><stop offset="1" stop-color="#0C0C97"/></linearGradient><linearGradient id="bpaint3_linear" x1="75.457" x2="75.457" y1="16.485" y2="-.951" gradientUnits="userSpaceOnUse"><stop stop-color="#3ECEE5"/><stop offset="1" stop-color="#0C0C97"/></linearGradient><linearGradient id="bpaint4_linear" x1="97.19" x2="97.19" y1="16.485" y2="-.951" gradientUnits="userSpaceOnUse"><stop stop-color="#3ECEE5"/><stop offset="1" stop-color="#0C0C97"/></linearGradient><linearGradient id="bpaint5_linear" x1="45.587" x2="88.22" y1="44.29" y2="44.29" gradientUnits="userSpaceOnUse"><stop stop-color="#3ECEE5"/><stop offset="1" stop-color="#0C0C97"/></linearGradient><linearGradient id="bpaint6_linear" x1="45.587" x2="88.22" y1="44.187" y2="44.187" gradientUnits="userSpaceOnUse"><stop stop-color="#3ECEE5"/><stop offset="1" stop-color="#0C0C97"/></linearGradient><linearGradient id="bpaint7_linear" x1="45.587" x2="88.22" y1="31.353" y2="31.353" gradientUnits="userSpaceOnUse"><stop stop-color="#3ECEE5"/><stop offset="1" stop-color="#0C0C97"/></linearGradient></defs></svg>