<svg width="42" height="42" viewBox="0 0 42 42" fill="none" xmlns="http://www.w3.org/2000/svg">
<g clip-path="url(#clip0_459_138)">
<path d="M35.5546 7.86059C32.8771 6.65309 30.0071 5.76059 27.0058 5.25309C26.9791 5.24796 26.9515 5.25126 26.9267 5.26255C26.9019 5.27384 26.8813 5.29255 26.8676 5.31609C26.5001 5.96184 26.0906 6.80359 25.8036 7.46859C22.6205 6.993 19.3844 6.993 16.2014 7.46859C15.8817 6.73159 15.5212 6.01298 15.1216 5.31609C15.1081 5.29226 15.0876 5.27312 15.0629 5.26124C15.0382 5.24936 15.0104 5.24529 14.9834 5.24959C11.9839 5.75709 9.11386 6.64959 6.43461 7.85884C6.41156 7.8685 6.39202 7.88499 6.37861 7.90609C0.932614 15.9123 -0.560135 23.7208 0.173114 31.4313C0.175155 31.4502 0.181017 31.4685 0.190343 31.485C0.199669 31.5016 0.212265 31.516 0.227364 31.5276C3.40605 33.8418 6.95145 35.6048 10.7151 36.7426C10.7413 36.7506 10.7694 36.7506 10.7956 36.7425C10.8219 36.7344 10.845 36.7186 10.8621 36.6971C11.6706 35.6121 12.3916 34.4658 13.0076 33.2618C13.0444 33.1918 13.0094 33.1078 12.9359 33.0798C11.8054 32.6541 10.71 32.1404 9.65986 31.5433C9.64099 31.5325 9.62509 31.5173 9.61358 31.4988C9.60208 31.4804 9.59533 31.4594 9.59394 31.4377C9.59255 31.416 9.59657 31.3943 9.60563 31.3746C9.61469 31.3549 9.62852 31.3377 9.64586 31.3246C9.86636 31.1618 10.0869 30.9921 10.2969 30.8223C10.3158 30.8071 10.3385 30.7973 10.3626 30.7942C10.3867 30.7912 10.4112 30.7948 10.4334 30.8048C17.3056 33.8918 24.7484 33.8918 31.5401 30.8048C31.5623 30.7942 31.587 30.7901 31.6115 30.7929C31.6359 30.7957 31.6591 30.8053 31.6783 30.8206C31.8883 30.9921 32.1071 31.1618 32.3293 31.3246C32.3469 31.3374 32.3609 31.3543 32.3703 31.3739C32.3796 31.3935 32.384 31.4151 32.3829 31.4368C32.3819 31.4584 32.3755 31.4795 32.3643 31.4981C32.3531 31.5167 32.3375 31.5322 32.3188 31.5433C31.2723 32.1453 30.1838 32.6546 29.0411 33.0781C29.0235 33.0844 29.0076 33.0945 28.9942 33.1075C28.9808 33.1206 28.9704 33.1363 28.9636 33.1537C28.9568 33.1711 28.9538 33.1897 28.9548 33.2084C28.9558 33.227 28.9608 33.2452 28.9693 33.2618C29.5993 34.4641 30.3203 35.6086 31.1131 36.6953C31.1296 36.7176 31.1525 36.7343 31.1788 36.7431C31.2052 36.7518 31.2335 36.7523 31.2601 36.7443C35.0302 35.6097 38.5814 33.8459 41.7636 31.5276C41.7791 31.5167 41.7921 31.5027 41.8018 31.4864C41.8115 31.4701 41.8175 31.4519 41.8196 31.4331C42.6946 22.5186 40.3531 14.7731 35.6088 7.90959C35.5972 7.88728 35.578 7.86989 35.5546 7.86059ZM14.0349 26.7361C11.9664 26.7361 10.2601 24.8653 10.2601 22.5711C10.2601 20.2751 11.9331 18.4061 14.0349 18.4061C16.1524 18.4061 17.8429 20.2908 17.8096 22.5711C17.8096 24.8671 16.1366 26.7361 14.0349 26.7361ZM27.9911 26.7361C25.9208 26.7361 24.2164 24.8653 24.2164 22.5711C24.2164 20.2751 25.8876 18.4061 27.9911 18.4061C30.1086 18.4061 31.7991 20.2908 31.7658 22.5711C31.7658 24.8671 30.1103 26.7361 27.9911 26.7361Z" fill="black"/>
</g>
<defs>
<clipPath id="clip0_459_138">
<rect width="42" height="42" fill="white"/>
</clipPath>
</defs>
</svg>
