<svg width="60" height="60" viewBox="0 0 60 60" fill="none" xmlns="http://www.w3.org/2000/svg">
<path d="M35.125 0C35.6223 0 36.0992 0.197544 36.4508 0.549175C36.8025 0.900806 37 1.37772 37 1.875C37 2.37228 37.1975 2.84919 37.5492 3.20083C37.9008 3.55246 38.3777 3.75 38.875 3.75C39.3723 3.75 39.8492 3.94754 40.2008 4.29917C40.5525 4.65081 40.75 5.12772 40.75 5.625V7.5C40.75 7.99728 40.5525 8.47419 40.2008 8.82582C39.8492 9.17746 39.3723 9.375 38.875 9.375H20.125C19.6277 9.375 19.1508 9.17746 18.7992 8.82582C18.4475 8.47419 18.25 7.99728 18.25 7.5V5.625C18.25 5.12772 18.4475 4.65081 18.7992 4.29917C19.1508 3.94754 19.6277 3.75 20.125 3.75C20.6223 3.75 21.0992 3.55246 21.4508 3.20083C21.8025 2.84919 22 2.37228 22 1.875C22 1.37772 22.1975 0.900806 22.5492 0.549175C22.9008 0.197544 23.3777 0 23.875 0L35.125 0Z" fill="black"/>
<path d="M10.75 9.375C10.75 8.87772 10.9475 8.40081 11.2992 8.04918C11.6508 7.69754 12.1277 7.5 12.625 7.5H14.5C14.9973 7.5 15.4742 7.30246 15.8258 6.95083C16.1775 6.59919 16.375 6.12228 16.375 5.625C16.375 5.12772 16.1775 4.65081 15.8258 4.29917C15.4742 3.94754 14.9973 3.75 14.5 3.75H12.625C11.1332 3.75 9.70242 4.34263 8.64752 5.39752C7.59263 6.45242 7 7.88316 7 9.375V54.375C7 55.8668 7.59263 57.2976 8.64752 58.3525C9.70242 59.4074 11.1332 60 12.625 60H46.375C47.8668 60 49.2976 59.4074 50.3525 58.3525C51.4074 57.2976 52 55.8668 52 54.375V9.375C52 7.88316 51.4074 6.45242 50.3525 5.39752C49.2976 4.34263 47.8668 3.75 46.375 3.75H44.5C44.0027 3.75 43.5258 3.94754 43.1742 4.29917C42.8225 4.65081 42.625 5.12772 42.625 5.625C42.625 6.12228 42.8225 6.59919 43.1742 6.95083C43.5258 7.30246 44.0027 7.5 44.5 7.5H46.375C46.8723 7.5 47.3492 7.69754 47.7008 8.04918C48.0525 8.40081 48.25 8.87772 48.25 9.375V54.375C48.25 54.8723 48.0525 55.3492 47.7008 55.7008C47.3492 56.0525 46.8723 56.25 46.375 56.25H12.625C12.1277 56.25 11.6508 56.0525 11.2992 55.7008C10.9475 55.3492 10.75 54.8723 10.75 54.375V9.375Z" fill="black"/>
<path d="M40.2024 29.4524C40.5545 29.1004 40.7523 28.6228 40.7523 28.1249C40.7523 27.627 40.5545 27.1495 40.2024 26.7974C39.8504 26.4454 39.3728 26.2476 38.8749 26.2476C38.377 26.2476 37.8995 26.4454 37.5474 26.7974L27.6249 36.7237L23.3274 32.4224C22.9754 32.0704 22.4978 31.8726 21.9999 31.8726C21.502 31.8726 21.0245 32.0704 20.6724 32.4224C20.3204 32.7745 20.1226 33.252 20.1226 33.7499C20.1226 34.2478 20.3204 34.7254 20.6724 35.0774L26.2974 40.7024C26.4716 40.877 26.6785 41.0156 26.9063 41.1101C27.1341 41.2046 27.3783 41.2533 27.6249 41.2533C27.8716 41.2533 28.1158 41.2046 28.3436 41.1101C28.5713 41.0156 28.7783 40.877 28.9524 40.7024L40.2024 29.4524Z" fill="#5EDB5B"/>
</svg>
