<svg width="46" height="46" viewBox="0 0 46 46" fill="none" xmlns="http://www.w3.org/2000/svg">
<path d="M43.8258 10.3865C42.335 11.0472 40.7334 11.4935 39.0498 11.6953C40.787 10.6558 42.0867 9.01973 42.7063 7.09241C41.0742 8.06188 39.2878 8.74429 37.425 9.10996C36.1723 7.77242 34.5131 6.88588 32.7049 6.58798C30.8967 6.29007 29.0408 6.59747 27.4252 7.46245C25.8096 8.32742 24.5248 9.70158 23.7702 11.3716C23.0157 13.0416 22.8336 14.914 23.2522 16.6981C19.945 16.532 16.7097 15.6724 13.7562 14.1751C10.8027 12.6777 8.1971 10.5761 6.10842 8.00656C5.39425 9.23851 4.9836 10.6669 4.9836 12.1881C4.9828 13.5575 5.32003 14.9059 5.96537 16.1137C6.61071 17.3216 7.5442 18.3514 8.68302 19.112C7.36229 19.07 6.0707 18.7131 4.91575 18.0711V18.1782C4.91562 20.0989 5.57999 21.9604 6.79614 23.447C8.01229 24.9336 9.70531 25.9536 11.5879 26.3341C10.3627 26.6657 9.07821 26.7145 7.83137 26.4769C8.36253 28.1295 9.39719 29.5747 10.7905 30.6101C12.1838 31.6454 13.866 32.2192 15.6016 32.251C12.6553 34.5639 9.0167 35.8185 5.27105 35.813C4.60755 35.8131 3.94461 35.7744 3.28564 35.6969C7.08769 38.1415 11.5135 39.4389 16.0337 39.4338C31.3349 39.4338 39.6997 26.7608 39.6997 15.7696C39.6997 15.4125 39.6907 15.0519 39.6747 14.6948C41.3017 13.5182 42.7062 12.0611 43.8222 10.3919L43.8258 10.3865Z" fill="black"/>
</svg>
