<?xml version="1.0" encoding="UTF-8"?>
<!DOCTYPE svg PUBLIC "-//W3C//DTD SVG 1.1//EN" "http://www.w3.org/Graphics/SVG/1.1/DTD/svg11.dtd">
<!-- Creator: CorelDRAW 2017 -->
<svg xmlns="http://www.w3.org/2000/svg" xml:space="preserve" width="266px" height="99px" version="1.1" style="shape-rendering:geometricPrecision; text-rendering:geometricPrecision; image-rendering:optimizeQuality; fill-rule:evenodd; clip-rule:evenodd"
viewBox="0 0 48.95 18.32"
 xmlns:xlink="http://www.w3.org/1999/xlink">
 <defs>
  <style type="text/css">
   <![CDATA[
    .fil2 {fill:#FEFEFE}
    .fil0 {fill:#2B2A29}
    .fil1 {fill:#A92037}
    .fil4 {fill:#0093D4}
    .fil3 {fill:#C7A10E}
    .fil5 {fill:#2B2A29;fill-rule:nonzero}
   ]]>
  </style>
 </defs>
 <g id="Layer_x0020_1">
  <metadata id="CorelCorpID_0Corel-Layer"/>
  <polygon class="fil0" points="0,0 15.42,0 15.42,14.43 15.41,14.58 15.41,14.72 15.39,14.86 15.37,15 15.34,15.14 15.31,15.28 15.27,15.4 15.23,15.53 15.18,15.65 15.12,15.77 15.05,15.88 14.99,16 14.91,16.11 14.83,16.21 14.74,16.3 14.65,16.39 14.55,16.48 14.45,16.57 14.34,16.65 14.22,16.72 14.1,16.79 13.98,16.85 13.85,16.91 13.7,16.96 13.56,17 13.41,17.05 13.26,17.08 13.1,17.1 12.94,17.13 12.76,17.15 12.59,17.15 12.41,17.16 10.5,17.16 10.37,17.17 10.25,17.17 10.13,17.18 10.02,17.19 9.91,17.2 9.8,17.23 9.69,17.24 9.59,17.26 9.49,17.28 9.39,17.31 9.29,17.34 9.2,17.37 9.11,17.4 9.01,17.44 8.93,17.47 8.84,17.51 8.76,17.55 8.67,17.59 8.6,17.63 8.52,17.67 8.44,17.72 8.37,17.77 8.3,17.82 8.23,17.87 8.15,17.92 8.09,17.97 8.03,18.03 7.96,18.09 7.89,18.14 7.84,18.19 7.71,18.32 7.58,18.19 7.52,18.14 7.45,18.09 7.39,18.03 7.32,17.97 7.26,17.92 7.19,17.87 7.11,17.82 7.04,17.77 6.97,17.72 6.9,17.67 6.82,17.63 6.73,17.59 6.65,17.55 6.57,17.51 6.49,17.47 6.4,17.44 6.31,17.4 6.22,17.37 6.12,17.34 6.02,17.31 5.93,17.28 5.83,17.26 5.72,17.24 5.61,17.23 5.5,17.2 5.4,17.19 5.28,17.18 5.16,17.17 5.04,17.17 4.92,17.16 3,17.16 2.82,17.15 2.65,17.15 2.48,17.13 2.31,17.1 2.15,17.08 2,17.05 1.85,17 1.7,16.96 1.57,16.91 1.44,16.85 1.31,16.79 1.19,16.72 1.08,16.65 0.97,16.57 0.86,16.48 0.77,16.39 0.67,16.3 0.58,16.21 0.51,16.11 0.43,16 0.36,15.88 0.3,15.77 0.24,15.65 0.19,15.53 0.14,15.4 0.1,15.28 0.07,15.14 0.04,15 0.02,14.86 0.01,14.72 0,14.58 "/>
  <path class="fil1" d="M0.09 0.09l15.23 0 0 14.34c0,1.55 -0.99,2.64 -2.91,2.64l-1.79 0c-1.38,0 -2.26,0.47 -2.91,1.12 -0.65,-0.65 -1.54,-1.12 -2.91,-1.12l-1.8 0c-1.92,0 -2.91,-1.09 -2.91,-2.64l0 -14.34z"/>
  <path class="fil0" d="M3.41 13.03c0.11,-0.43 0.38,-0.66 0.82,-0.73 0.43,-0.07 0.9,-0.31 1.41,-0.55 0.22,-0.16 0.25,-0.09 0.09,0.22l-0.25 0.29c-0.13,0.14 -0.16,0.29 0.02,0.44 0.25,0.12 0.35,0.24 0.31,0.34 -0.26,-0.08 -0.51,-0.04 -0.72,0.16 -0.15,-0.05 -0.33,-0.03 -0.58,0.1 -0.13,-0.08 -0.28,-0.08 -0.45,-0.03 -0.04,-0.11 -0.17,-0.14 -0.38,-0.1 -0.05,-0.07 -0.15,-0.11 -0.27,-0.14zm2.95 0c-0.26,-0.27 -0.29,-0.51 0.01,-0.71 0.17,-0.11 0.41,-0.38 0.72,-0.79 0.2,-0.01 0.38,-0.05 0.58,-0.08 0.81,-0.1 1.58,-0.28 2.19,-0.62 0.12,-0.03 0.2,-0.01 0.25,0.08l0.48 0.62 -0.14 0.05 0.36 0.28c-0.06,0.05 -0.02,0.09 0.06,0.11 -0.04,0.07 -0.01,0.14 0.05,0.13 0.03,0.08 0.1,0.21 -0.09,0.03 -0.12,-0.05 -0.13,0 -0.04,0.18l0.2 0.29c0.01,0.13 0.06,0.23 0.16,0.33l0.16 0.32c0,0.05 0.03,0.1 0.05,0.15 0.02,0.12 0.05,0.19 0.15,0.2 -0.1,0.19 -0.23,0.38 -0.45,0.49 -0.43,0.23 -0.77,0.14 -0.73,-0.42 0.02,-0.31 0.08,-0.56 0.09,-0.87 0.12,-0.49 0,-0.73 -0.42,-0.76 -0.21,0.01 -0.38,0.01 -0.5,0.09 -0.12,0.08 -0.28,0.05 -0.51,-0.08 -0.43,-0.32 -0.76,-0.49 -0.97,-0.49 0.21,0.23 0.27,0.47 0.1,0.71 0.17,0.08 0.17,0.16 -0.01,0.24 -0.42,0.01 -0.89,-0.07 -1.38,-0.21 -0.16,-0.03 -0.19,0 -0.08,0.09 0.36,0.14 0.56,0.36 0.56,0.66 -0.23,0.01 -0.43,0.02 -0.54,0.04 -0.1,0.07 -0.21,0.06 -0.31,-0.06zm4.1 2.33l0 0c0.04,0.13 0.24,0.2 0.1,0.23 -0.01,0.04 -0.06,0.03 -0.14,-0.02 -0.11,-0.07 -0.08,-0.14 0.04,-0.21zm-3.78 -0.32l0 0c0.01,0.07 0.03,0.12 0.07,0.15 0.07,0.06 0.08,0.14 0.02,0.2l-0.16 -0.14c-0.04,-0.08 -0.01,-0.15 0.07,-0.21zm-1.85 -0.75c0.12,0.05 0.12,0.16 -0.03,0.22 -0.1,-0.04 -0.1,-0.14 0.03,-0.22zm-2.11 -4.29l0 0c0.3,-1.12 0.79,-1.72 1.6,-1.5 -0.32,0.35 -0.54,0.98 -0.49,2.07 0.03,0.5 0.11,0.82 -0.18,1.12 -0.28,0.28 -0.49,0.25 -0.53,0.57 -0.03,0.21 -0.08,0.42 -0.14,0.55 -0.21,-0.12 -0.23,-0.37 -0.07,-0.75 0.43,-0.79 0.33,-1.46 -0.19,-2.06zm0.52 -8.97c-0.1,0.02 -0.13,0.08 -0.12,0.19l0.64 0.91c0.02,0.04 0.07,0.09 0.06,0.12 -0.05,0.13 -0.07,0.2 0.04,0.31l0.21 0.21c0.03,0.15 0.05,0.28 0.11,0.32 -0.06,0.1 0.01,0.2 0.1,0.29l0.06 0.09 0.04 0.31c-0.31,0.26 -0.46,0.44 -0.49,0.56 -0.01,0.07 -0.03,0.12 0.02,0.15l0.42 -0.04 0.1 0.06c0.06,0.15 -0.02,0.39 -0.25,0.41 -0.53,0.14 -0.92,0.32 -0.76,0.67 0.19,0.25 0.09,0.48 -0.24,0.68 -0.08,0.07 -0.12,0.16 -0.1,0.29 -0.1,0.08 -0.17,0.2 -0.23,0.34 -0.05,0.14 -0.05,0.21 0.05,0.19 0.73,-0.24 1.46,-0.34 1.97,0.08 0.25,0.21 0.21,0.32 0.61,0.34 -0.05,0.17 0,0.26 0.14,0.29l0.02 0.19c-0.16,0.03 -0.34,0.03 -0.5,0.08 -0.18,0.04 -0.35,0.11 -0.51,0.11 -0.14,-0.11 -0.3,-0.17 -0.43,-0.25 -0.66,-0.41 -1.22,-0.43 -1.7,0.13 -0.25,0.3 -0.48,0.7 -0.67,1.32 -0.04,0.11 -0.13,0.15 -0.3,0.05 -0.35,-0.28 -0.41,-0.53 -0.24,-0.7 0.25,-0.23 0.34,-0.09 0.21,0.03l0.01 0.03c0.19,0 0.26,0.13 0.33,0.27 0.16,-0.41 0.07,-0.7 -0.15,-0.92l-0.05 -0.01 0.02 0.36c-0.38,-0.08 -0.59,0.21 -0.62,0.49 -0.02,0.26 0.1,0.5 0.45,0.7 0.19,0.07 0.25,0.29 0.1,0.52 -0.38,0.55 -0.32,1.13 0.02,1.88l0.04 -0.02c0.08,-0.82 0.25,-1.24 0.52,-1.32 0.09,-0.03 0.17,-0.09 0.24,-0.18 0.08,-0.12 0.13,-0.11 0.18,0.02 0.15,0.35 0.14,0.68 -0.07,1.01 -0.48,0.77 -0.5,1.37 0.18,1.84l0.02 0.05 -0.18 0.24c-0.06,0.09 -0.01,0.2 0.15,0.34 0.11,0.13 0.17,0.36 0.21,0.64 -0.06,0.08 -0.07,0.19 -0.03,0.32 0.1,0.14 0.34,0.22 0.69,0.18l0.03 -0.07c0.03,-0.16 -0.08,-0.27 -0.2,-0.47 -0.33,-0.3 -0.41,-0.59 -0.3,-0.87l0.05 -0.08c0.27,0.09 0.61,0.2 0.92,0.24 -0.13,0.27 -0.12,0.6 0,0.8 0.22,0.37 0.45,0.55 0.89,0.51 0.58,-0.05 0.87,-0.53 0.65,-1.19 0.21,-0.12 0.35,-0.11 0.42,0.02 0,0.3 0.13,0.2 0.13,0.49 -0.34,0.31 -0.47,0.57 -0.1,0.73 0.2,0.2 0.09,0.27 -0.16,0.28 -0.27,-0.06 -0.47,-0.05 -0.5,0.17 -0.25,0.01 -0.32,0.16 -0.31,0.39 0.07,-0.17 0.21,-0.19 0.28,-0.14 0.13,-0.01 0.27,0.02 0.38,-0.03 0.11,-0.05 0.23,-0.05 0.37,0.01 0.07,0 0.12,0.03 0.16,0.09 0.17,0.18 0.15,-0.02 0.53,0.21 0.1,0 0.26,0 0.29,0.15l0.03 -0.14c0.03,-0.05 0.02,-0.11 -0.04,-0.16 -0.12,-0.14 0.07,-0.15 0.41,-0.08 0.18,0.07 0.35,0.11 0.48,0.09 0.15,-0.15 0.18,-0.06 0.21,0.14 0.11,-0.29 0.04,-0.45 -0.26,-0.47 0.05,-0.15 0.08,0.08 0.18,-0.11 0.1,-0.04 0.19,0 0.29,0.09 0.02,-0.14 -0.07,-0.23 -0.26,-0.27 -0.04,-0.12 -0.13,-0.13 -0.26,-0.01 -0.55,-0.14 -0.61,-0.48 -0.3,-0.54 0.17,-0.04 0.23,0.13 0.36,0.18 0.1,0.04 0.15,0.02 0.29,0.04 0.15,0 0.29,0.03 0.38,0.1l0.11 0.03c0.06,-0.04 0.12,-0.03 0.19,0.03 0.08,0.12 0.16,0.13 0.23,0.04 0.22,-0.17 0.54,-0.17 0.52,-0.07 -0.01,0.16 0.02,0.22 0.08,0.21 0.05,0 0.07,0.07 0.07,0.18 -0.21,0 -0.35,0.03 -0.35,0.18 -0.2,0.06 -0.19,0.2 -0.1,0.38 -0.02,-0.35 0.27,-0.07 0.56,-0.25l0.2 -0.02c0.02,0.1 0.12,0.14 0.3,0.13 0.06,-0.03 0.16,-0.03 0.23,-0.04 0.35,-0.09 0.64,-0.07 0.84,0.22 0.05,-0.09 0.04,-0.19 -0.02,-0.27 0.25,-0.17 0.52,-0.1 0.36,0.16 0.14,-0.07 0.29,-0.44 0.1,-0.43 0.08,-0.22 0.4,-0.04 0.31,0.12 0.14,-0.07 0.16,-0.18 -0.01,-0.31 -0.02,-0.13 -0.12,-0.16 -0.3,-0.11 -0.1,-0.18 -0.23,-0.18 -0.41,-0.03 -0.17,0.08 -0.31,0.09 -0.39,-0.03 -0.1,-0.15 -0.08,-0.22 0.05,-0.17 0.07,0.02 0.1,-0.06 0.18,-0.21 0.03,-0.07 0.08,-0.12 0.13,-0.21 0.19,-0.02 0.34,-0.19 0.53,-0.52 0.14,-0.07 0.2,-0.33 0.21,-0.75 0.06,0.03 0.13,0 0.23,-0.05 -0.07,-0.01 -0.1,-0.03 -0.1,-0.2l0.18 0c0.07,-0.03 0.1,-0.06 0.1,-0.09 0,-0.03 -0.08,-0.02 -0.13,-0.1 -0.02,-0.1 -0.08,-0.21 -0.18,-0.31l-0.18 -0.28c-0.12,-0.39 -0.27,-0.61 -0.45,-0.47l-0.05 -0.03c-0.13,-0.15 -0.23,-0.35 -0.31,-0.58 0,-0.27 -0.29,-0.28 -0.44,-0.02l-0.04 -0.22 -0.07 0.11 -0.46 -0.65c0.05,-0.01 0.14,-0.06 0.19,-0.07 0.56,-0.04 1.11,-0.21 1.68,-0.52l0.41 -0.13c0.18,-0.07 0.24,-0.01 0.33,0.08l0.41 0.43c0.08,0.08 0.08,0.17 0.04,0.25 -0.05,0.09 0.06,0.2 0.2,0.33 0.13,0.14 0.14,0.33 0.03,0.58 -0.07,0.16 -0.05,0.26 0.04,0.31l0.28 0.2c0.19,0.16 0.29,0.1 0.28,-0.16 -0.02,-0.14 -0.06,-0.27 -0.14,-0.41 -0.09,-0.16 -0.16,-0.32 -0.17,-0.49 0,-0.33 -0.05,-0.5 -0.18,-0.62 -0.16,-0.15 -0.3,-0.32 -0.41,-0.51 -0.03,-0.11 -0.06,-0.18 -0.12,-0.2 -0.01,-0.35 -0.27,-0.52 -0.43,-0.43 -0.13,0.03 -0.26,0.04 -0.41,0.02l0 -0.08c0.18,-0.1 0.49,-0.42 0.8,-0.76 0.12,-0.15 0.18,-0.09 0.29,0.02l0.45 0.47c-0.01,0.24 0.02,0.39 0.18,0.37 0.11,0.19 0.16,0.37 0.06,0.45 -0.1,0.09 -0.18,0.15 -0.18,0.27 0.02,0.18 0.23,0.37 0.46,0.45l0.07 -0.03c0.07,-0.16 0.07,-0.35 0.01,-0.54l-0.08 -0.27c-0.01,-0.1 0,-0.19 0.01,-0.27 0.02,-0.21 0.03,-0.32 -0.2,-0.48 -0.28,-0.29 -0.52,-0.59 -0.71,-0.9 0,-0.41 -0.35,-0.52 -0.57,-0.07l-0.44 0.3c-0.11,0.07 -0.18,-0.04 -0.18,-0.16 -0.04,-0.54 -0.41,-0.97 -0.81,-1.39 -0.22,-0.66 -0.52,-1.21 -0.62,-1.71 0.41,0.04 0.72,0.12 0.84,0.24 0.18,0.2 0.41,0.3 0.47,0.16 0.02,-0.04 -0.11,-0.12 -0.17,-0.19 0.07,0 0.16,0.07 0.26,0.17 0.18,0 0.24,-0.14 0.19,-0.32 0.02,-0.16 0.02,-0.27 -0.05,-0.32l-0.15 -0.09c-0.25,-0.27 -0.46,-0.55 -0.64,-0.85l-0.03 -0.1c0,-0.12 -0.03,-0.23 -0.15,-0.33l0.05 -0.03 0 -0.05 0.13 0.03 -0.13 -0.21c-0.08,-0.27 -0.32,-0.32 -0.69,-0.21 -0.05,0.02 -0.12,-0.04 -0.18,-0.11 -0.23,-0.23 -0.48,-0.35 -0.39,-0.18 0.01,0.03 0.09,0.1 0.01,0.1l-0.4 -0.07c-0.09,-0.01 -0.1,0.02 -0.08,0.06 0.07,0.08 0.14,0.15 0.17,0.24l-0.5 0.03c-0.1,0.01 -0.19,0.05 -0.28,0.04 -0.28,-0.23 -0.62,-0.06 -0.97,0.21l-0.05 -0.02 -0.01 -0.41 0.04 0 -0.03 -0.27 0.03 0c0.03,-0.4 -0.05,-0.66 -0.21,-0.84 -0.02,-0.13 0.1,-0.11 0.13,-0.15 0.11,-0.14 0.11,-0.31 0.11,-0.4 -0.03,-0.17 -0.08,-0.23 -0.17,-0.17l-0.1 0c-0.11,-0.01 -0.2,-0.05 -0.24,-0.1 -0.12,-0.08 -0.22,-0.08 -0.33,-0.01 -0.52,0.13 -0.62,0.54 -1.25,0.26 -0.07,-0.01 -0.09,0.02 -0.06,0.08 0.11,0.15 0.26,0.24 0.43,0.31 -0.06,0.05 -0.18,0.05 -0.36,0.04 0.1,0.14 0.31,0.21 0.64,0.21 0.12,0.07 0.27,0.04 0.42,-0.02 0.09,-0.05 0.1,-0.03 0.04,0.09 -0.17,0.14 -0.28,0.4 -0.3,0.89 -0.07,0.1 -0.1,0.21 -0.13,0.33 -0.23,-0.06 -0.44,-0.11 -0.53,-0.04l-0.09 0c-0.21,-0.16 -0.42,-0.15 -0.58,-0.05l-0.37 0.28c-0.14,0.1 -0.25,0.11 -0.28,-0.01l-0.15 -0.32c0.01,-0.24 -0.08,-0.34 -0.23,-0.36 -0.08,-0.06 -0.13,-0.14 -0.14,-0.23l-0.11 -0.14c0.04,-0.12 -0.01,-0.16 -0.1,-0.16 -0.1,0 -0.18,-0.02 -0.23,-0.05l-0.75 -0.93z"/>
  <path class="fil2" d="M13.66 11.73l0.07 -0.15c0.04,-0.05 0.07,-0.05 0.09,-0.01l0.17 0.16c-0.03,0.04 -0.11,0.04 -0.17,0.05l0.06 0.09 -0.06 0.03 -0.02 0.08c-0.11,-0.08 -0.18,-0.16 -0.14,-0.25zm0.15 -0.52c0.02,0 0.04,0.06 0.04,0.14 0,0.07 -0.02,0.13 -0.04,0.13 -0.03,0 -0.04,-0.06 -0.04,-0.13 0,-0.08 0.01,-0.14 0.04,-0.14zm-0.1 -0.58l0.07 0.04c0.03,0.05 0.04,0.09 0.02,0.1 -0.01,0.01 -0.05,-0.02 -0.07,-0.06 -0.03,-0.04 -0.03,-0.08 -0.02,-0.08z"/>
  <path class="fil2" d="M14.17 9.92l-0.06 0c-0.08,0.1 -0.1,0.17 -0.05,0.23l0.16 0.13c0.05,0.04 0.1,0.02 0.08,-0.02l-0.06 -0.08 0.1 0.05 0 -0.08c-0.06,-0.05 -0.07,-0.07 -0.04,-0.11l0 -0.04 -0.13 -0.08zm0 -0.68c-0.07,-0.08 -0.06,-0.13 0.04,-0.13 -0.09,-0.13 0.01,-0.16 0.09,-0.02 0.05,0.07 0.05,0.2 0.04,0.35 -0.01,0.04 -0.06,0.06 -0.07,0 -0.03,-0.09 -0.06,-0.14 -0.1,-0.2zm0.06 0.58l0.04 -0.17c0,-0.04 0.02,-0.04 0.04,0 0.06,0.07 0.11,0.14 0.12,0.27 0.02,0.05 0.01,0.08 -0.03,0.08 -0.04,0.01 -0.08,-0.01 -0.11,-0.05 -0.05,-0.06 -0.07,-0.09 -0.06,-0.13z"/>
  <path class="fil2" d="M11.67 7.97c0.01,-0.31 0.05,-0.55 0.05,-0.78 0,-0.09 0.06,-0.09 0.06,0.02 0.02,0.24 -0.01,0.48 -0.04,0.73 0,0.04 -0.07,0.11 -0.07,0.03zm0.42 1.2l0.02 0.03 -0.02 0.03 -0.02 -0.03 0.02 -0.03zm-0.71 -1.07l0.03 -0.02 0.02 0.01 0.11 0.14 0 0.02 -0.03 0.03 -0.03 -0.01 -0.11 -0.14 0.01 -0.03zm1.04 0.78l0.04 -0.29 -0.05 0.11c-0.04,0 -0.05,-0.05 -0.06,-0.13 -0.01,-0.11 0,-0.14 0.06,-0.12l0.04 0.09 0.02 -0.06c0.06,-0.03 0.06,0 0.04,0.09l-0.01 0.31c-0.03,0.04 -0.05,0.12 -0.08,0zm0.76 -0.89c-0.04,-0.06 -0.05,-0.13 0,-0.18 0.05,-0.05 0.11,-0.06 0.16,-0.02 0.04,0.02 0.06,0.05 0.06,0.07l-0.09 0.03 0.11 0.03c0.06,0.05 0.01,0.14 -0.04,0.06 -0.05,-0.04 -0.1,-0.05 -0.15,-0.02 0,0.06 -0.01,0.08 -0.05,0.03zm-1.04 0.5l0.06 0.06 0 0.08 -0.06 -0.05 0 -0.09zm-0.67 -0.05l0.07 0.05c0.02,0.04 0.02,0.08 0,0.08 -0.01,0.01 -0.04,-0.01 -0.06,-0.06l-0.01 -0.07zm0.2 -0.36c0.05,-0.01 0.11,0.05 0.13,0.13 0.02,0.09 -0.02,0.16 -0.07,0.17 -0.06,0.01 -0.12,-0.04 -0.14,-0.13 -0.01,-0.08 0.02,-0.15 0.08,-0.17zm0.09 0.48c-0.03,-0.14 0.01,-0.16 0.06,-0.03 0.08,0.19 0.13,0.43 0.12,0.71 0,0.11 -0.09,0.12 -0.09,0.02 -0.03,-0.25 -0.04,-0.49 -0.09,-0.7l0 0zm0.84 0.22c0,-0.13 0.03,-0.28 0.08,-0.42 0.03,-0.06 0.05,-0.07 0.09,-0.03 0.13,-0.21 0.1,-0.1 0.04,0.06l0.04 0.02c0.16,-0.29 0.09,-0.05 0.08,0.08 -0.12,0.14 -0.2,0.17 -0.23,0.07l-0.04 0.19c-0.03,0.08 -0.05,0.1 -0.06,0.03z"/>
  <path class="fil2" d="M2.77 13.81c-0.05,0.19 -0.26,0.09 -0.16,-0.08 0.27,-0.43 0.53,-0.87 0.58,-1.45 0.02,-0.21 0.15,-0.31 0.31,-0.4 0.36,-0.19 0.48,-0.53 0.47,-0.9 -0.08,-1.63 0.38,-2.35 1.08,-2.63l-0.02 0.06c-0.63,0.39 -0.89,1.12 -0.9,2.13 -0.01,0.22 -0.03,0.45 0,0.7l0.02 -0.05c0.03,-0.59 0.03,-1.1 0.1,-1.45 0.08,-0.38 0.2,-0.61 0.32,-0.78 0.05,-0.06 0.08,-0.13 0.13,-0.17 0.05,-0.06 0.12,-0.07 0.17,-0.12l-0.01 0.05c-0.24,0.24 -0.44,0.54 -0.53,0.94 -0.1,0.45 -0.11,0.98 -0.08,1.53 0,0.08 -0.02,0.14 -0.05,0.2l0.03 -0.02c0.05,-0.08 0.07,-0.18 0.07,-0.31 -0.05,-0.66 0,-1.33 0.24,-1.8 0.16,-0.33 0.26,-0.45 0.73,-0.71l-0.02 0.05c-0.39,0.27 -0.76,0.58 -0.83,1.63l0.02 -0.02c0.07,-0.8 0.36,-1.39 0.9,-1.61 0.19,-0.08 0.41,-0.06 0.66,-0.06l-0.05 0.03c-0.37,-0.03 -0.7,0.1 -0.98,0.39l0.04 0.02c0.27,-0.28 0.58,-0.43 0.97,-0.34l-0.03 0.06c-0.27,-0.05 -0.5,0.05 -0.72,0.22l0 0.03c0.25,-0.17 0.47,-0.25 0.69,-0.2 0.07,0 0.09,0.06 0.07,0.15l-0.05 0.4c0,0.38 -0.02,0.75 -0.12,1.09l-0.03 0.03 0.03 -0.66 -0.15 0.82c-0.01,0.09 -0.08,0.08 -0.07,-0.01 0.04,-0.17 0.1,-0.41 0.14,-0.66 -0.04,0.01 -0.07,0.03 -0.08,0.08 -0.04,0.35 -0.1,0.64 -0.18,0.74 0.05,-0.22 0.08,-0.45 0.09,-0.67l-0.04 0.04 -0.11 0.62c0.08,0.05 -0.02,0.11 -0.05,0.03l0.03 -0.34 -0.03 -0.01 -0.15 0.56 0.05 -0.39 -0.13 0.39 -0.05 0 0.07 -0.33 -0.22 0.59c-0.06,0.02 -0.07,0 -0.02,-0.1l0.14 -0.41 -0.05 0.01c-0.08,0.29 -0.15,0.5 -0.26,0.57l-0.03 0.01c0.15,-0.27 0.17,-0.4 0.18,-0.53 -0.08,0.25 -0.16,0.43 -0.31,0.58 -0.02,-0.02 0.01,-0.08 0.1,-0.24l0.08 -0.21c-0.04,-0.05 -0.06,-0.03 -0.08,0.03 -0.05,0.19 -0.1,0.31 -0.2,0.42l0.1 -0.35 -0.02 -0.04c-0.06,0.21 -0.15,0.39 -0.27,0.49l0.06 0.03c0.19,-0.13 0.46,-0.08 0.73,-0.21 0.06,-0.02 0.12,-0.04 0.15,-0.01l-0.05 0.14 -0.05 -0.08c-0.03,0.11 -0.07,0.21 -0.13,0.25l-0.02 -0.16c-0.11,0.25 -0.19,0.39 -0.2,0.27l0.02 -0.15c-0.09,0.08 -0.14,0.18 -0.17,0.31 -0.04,-0.01 -0.05,-0.1 -0.03,-0.22l-0.07 0.27c-0.07,0.01 -0.08,-0.06 -0.05,-0.22 -0.05,0.15 -0.11,0.25 -0.13,0.26 -0.03,-0.04 -0.03,-0.11 -0.01,-0.21l-0.07 0.14c0,0.1 -0.03,0.14 -0.08,0.13 0.03,-0.15 0.03,-0.21 0,-0.17l-0.09 0.23c-0.05,0.03 -0.07,-0.03 -0.06,-0.16 -0.08,0.04 -0.06,0.2 -0.11,0.27 -0.05,-0.03 -0.05,-0.11 -0.05,-0.19 -0.03,0.13 -0.07,0.2 -0.12,0.21l-0.01 -0.24c-0.03,0.11 -0.05,0.19 -0.1,0.27l-0.06 -0.18 -0.03 0.17c-0.05,0.03 -0.1,-0.02 -0.12,-0.12 -0.01,0.22 -0.03,0.41 -0.18,0.5 0.02,0.06 -0.05,0.21 -0.14,0.38l0.24 -0.34c0.05,-0.01 0.07,0.02 0.05,0.13l-0.24 0.39c-0.04,0.04 -0.08,0.03 -0.12,0 -0.06,0.19 -0.14,0.33 -0.23,0.46 0.1,-0.06 0.17,-0.2 0.25,-0.39 0.01,-0.06 0.08,0.01 0.05,0.13l-0.05 0.05 0 0.09 -0.07 0 0 0.12 -0.06 0.03c0.06,0.16 -0.02,0.26 -0.18,0.18z"/>
  <polygon class="fil2" points="4.13,8.37 4.41,8.32 4.4,8.38 "/>
  <path class="fil2" d="M1.5 10.57c0.04,-0.13 0.13,-0.21 0.23,-0.38 0.05,-0.09 0.08,-0.03 0.07,0.06 -0.12,0.18 -0.22,0.27 -0.3,0.32z"/>
  <path class="fil2" d="M4.46 8.24c-0.47,-0.41 -0.92,-0.63 -1.26,-0.56 -0.64,0.15 -0.95,0.74 -1.14,1.3 0.11,-0.18 0.2,-0.31 0.32,-0.34 -0.32,0.5 -0.5,1.02 -0.53,1.61 -0.02,0.07 -0.06,0.14 -0.12,0.19 -0.2,0.15 -0.18,0.27 -0.22,0.39 0.04,-0.03 0.09,-0.12 0.16,-0.2 0.09,-0.11 0.19,-0.22 0.23,-0.41 0.06,-0.25 0.09,-0.51 0.14,-0.69 0.08,-0.25 0.15,-0.42 0.28,-0.63 0.23,-0.39 0.53,-0.73 0.86,-0.88l0 0.03c-0.33,0.18 -0.57,0.46 -0.83,0.88 -0.07,0.11 -0.11,0.21 -0.17,0.37 -0.06,0.13 -0.11,0.29 -0.13,0.47 -0.04,0.39 -0.14,0.65 -0.24,0.8 -0.12,0.15 -0.19,0.21 -0.21,0.28 -0.02,0.04 -0.05,0.11 -0.04,0.18 0.25,-0.48 0.37,-0.43 0.48,-0.77 0.15,-0.52 0.05,-1.06 0.74,-1.82l0.05 0c-0.33,0.39 -0.55,0.75 -0.67,1.52 -0.02,0.13 -0.04,0.31 -0.1,0.42 -0.09,0.16 -0.27,0.29 -0.32,0.46l0.04 -0.01c0.08,-0.08 0.26,-0.29 0.32,-0.42 0.21,-0.41 0.14,-0.95 0.41,-1.38 0.34,-0.57 0.61,-0.87 1.04,-1.03l0.05 -0.01c-0.59,0.31 -0.69,0.53 -0.94,0.88 -0.09,0.11 -0.15,0.23 -0.23,0.45 -0.06,0.19 -0.1,0.47 -0.14,0.7 -0.04,0.29 -0.15,0.46 -0.27,0.61 -0.06,0.07 -0.11,0.11 -0.16,0.18 -0.05,0.07 -0.09,0.19 -0.11,0.28l0.03 -0.02c0.16,-0.42 0.26,-0.33 0.37,-0.47 0.07,-0.09 0.17,-0.26 0.2,-0.47 0.04,-0.42 0.13,-0.73 0.27,-1.01 0.15,-0.3 0.39,-0.63 0.66,-0.86 0.12,-0.1 0.22,-0.16 0.38,-0.21l0.04 0c-0.2,0.13 -0.33,0.17 -0.48,0.31 -0.24,0.23 -0.48,0.58 -0.6,0.88 -0.12,0.28 -0.19,0.59 -0.22,0.91 0.01,-0.05 0.03,0.02 0.04,-0.02 0.13,-0.75 0.4,-1.28 0.74,-1.62 0.19,-0.19 0.41,-0.33 0.62,-0.38l0.14 -0.01c-0.32,0.08 -0.62,0.24 -0.86,0.59l0.05 -0.01c0.28,-0.3 0.56,-0.44 0.84,-0.5l0.04 0c-0.19,0.07 -0.36,0.14 -0.47,0.24l0.01 0.05c0.21,-0.14 0.53,-0.21 0.91,-0.25z"/>
  <path class="fil2" d="M1.57 11.4c-0.04,-0.06 -0.05,-0.13 -0.05,-0.18 0,-0.09 0.07,-0.08 0.08,-0.03 0.02,0.11 -0.03,0.12 -0.03,0.21z"/>
  <path class="fil2" d="M2.41 12.17l0.07 -0.08 0.11 -0.01c-0.01,0.03 -0.09,0.07 -0.18,0.09z"/>
  <path class="fil2" d="M2.34 12.39l0.09 -0.1c0.05,-0.03 0.11,-0.04 0.16,-0.02 -0.02,0.04 -0.12,0.09 -0.25,0.12z"/>
  <path class="fil2" d="M2.35 12.51l0.11 -0.09c0.05,-0.03 0.11,-0.04 0.15,-0.01 -0.01,0.03 -0.13,0.08 -0.26,0.1z"/>
  <path class="fil2" d="M2.38 12.61l0.1 -0.09c0.05,-0.03 0.11,-0.03 0.15,0 -0.02,0.04 -0.13,0.08 -0.25,0.09z"/>
  <path class="fil2" d="M2.43 12.72l0.06 -0.07 0.11 -0.02c-0.01,0.03 -0.09,0.07 -0.17,0.09z"/>
  <path class="fil2" d="M2.8 11.56l0.05 -0.03 0.08 0c0,0.03 -0.07,0.03 -0.13,0.03z"/>
  <path class="fil2" d="M2.7 11.69l0.12 -0.06c0.06,-0.01 0.12,0 0.15,0.03 -0.03,0.04 -0.14,0.05 -0.27,0.03z"/>
  <path class="fil2" d="M2.77 11.39l0.1 -0.07c0.04,-0.02 0.09,-0.02 0.13,0 -0.02,0.03 -0.12,0.05 -0.23,0.07z"/>
  <path class="fil2" d="M2.85 11.22l0.09 -0.03c0.04,0 0.09,0.03 0.1,0.06 -0.02,0.02 -0.11,0 -0.19,-0.03z"/>
  <path class="fil2" d="M2.64 13.16l0.07 -0.04 0.08 0.01c-0.01,0.02 -0.07,0.04 -0.15,0.03l0 0z"/>
  <path class="fil2" d="M2.85 12.94l-0.16 0.02c-0.07,0.03 -0.12,0.08 -0.13,0.13 0.05,0.02 0.17,-0.05 0.29,-0.15z"/>
  <path class="fil2" d="M2.77 12.86l-0.12 0c-0.06,0.02 -0.1,0.05 -0.11,0.1 0.04,0.01 0.14,-0.03 0.23,-0.1z"/>
  <path class="fil2" d="M3.34 13.46l0.07 -0.16c0.04,-0.05 0.1,-0.08 0.16,-0.08 0,0.06 -0.1,0.16 -0.23,0.24z"/>
  <path class="fil2" d="M3.66 13.3l0.13 -0.05c0.07,0 0.12,0.03 0.15,0.06l0 0c-0.01,0.04 -0.1,0.12 -0.21,0.18l0.07 -0.12 0.05 -0.04 -0.04 0c-0.03,0.03 -0.09,0.07 -0.16,0.12l0.06 -0.1 0.02 -0.03 -0.07 -0.02z"/>
  <path class="fil2" d="M4.29 13.33c0.04,-0.03 0.2,0.01 0.17,0.06 0,0.04 -0.1,0.12 -0.2,0.2l0.06 -0.13 0.04 -0.05 -0.05 0c-0.03,0.04 -0.08,0.08 -0.14,0.13l0.04 -0.11 0.03 -0.03 -0.04 0c-0.02,0.03 -0.06,0.06 -0.1,0.08l0.02 -0.07c0.06,-0.06 0.09,-0.06 0.17,-0.08z"/>
  <path class="fil2" d="M5.22 13.3c0,-0.12 0.1,-0.19 0.28,-0.21 0.21,-0.03 0.46,0.01 0.39,0.11l-0.02 0 -0.04 0.08 -0.08 0.15 0.05 -0.16 0.02 -0.08 -0.09 -0.03 -0.07 0.06 -0.11 0.13 0.09 -0.15 0.04 -0.05 -0.05 -0.01 -0.06 0.06 -0.11 0.13 0.09 -0.14 0.03 -0.06 -0.05 0 -0.05 0.07 -0.1 0.13 0.07 -0.16 0.03 -0.03 -0.08 0.02 -0.06 0.12 0.03 -0.11c-0.07,0.03 -0.13,0.06 -0.15,0.13z"/>
  <path class="fil2" d="M4.54 13.4l0 -0.01 0.02 0 0.18 -0.11c0.12,-0.06 0.27,-0.08 0.25,0.02l-0.04 0.03c0,0.03 0,0.07 0,0.12l-0.05 -0.11 -0.02 0c0,0.06 0,0.12 0,0.17l-0.07 -0.16 -0.04 0.01c0.01,0.08 0.01,0.17 0.01,0.25l-0.1 -0.21 0 -0.01c-0.01,0.04 -0.02,0.09 -0.04,0.14l-0.02 -0.15c-0.02,0.06 -0.05,0.13 -0.07,0.21l-0.01 -0.16 0 -0.03 0 0z"/>
  <path class="fil2" d="M2.48 8.52c0.1,-0.1 0.21,-0.21 0.31,-0.31 -0.12,0.05 -0.23,0.15 -0.31,0.31z"/>
  <path class="fil2" d="M4.18 14.17c-0.03,-0.07 -0.06,-0.14 0,-0.3 0.06,-0.15 0.13,-0.2 0.18,-0.19 0.05,0.06 -0.02,0.17 0.01,0.32l-0.12 -0.1 0.04 0.19 -0.09 -0.09 -0.02 0.17z"/>
  <polygon class="fil2" points="5.21,14.36 5.16,14.32 5.18,14.38 5.23,14.42 "/>
  <path class="fil2" d="M5.21 14.49c-0.03,-0.04 -0.06,-0.07 -0.07,-0.06 -0.02,0.01 0,0.04 0.02,0.09 0.03,0.04 0.06,0.06 0.08,0.06 0,-0.01 0,-0.05 -0.03,-0.09l0 0z"/>
  <polygon class="fil2" points="5.14,14.61 5.09,14.55 5.1,14.63 5.15,14.68 "/>
  <path class="fil2" d="M5.08 14.73c-0.02,-0.05 -0.05,-0.1 -0.07,-0.09 -0.01,0.01 -0.01,0.06 0.01,0.12 0.01,0.05 0.04,0.09 0.06,0.09 0.02,-0.01 0.02,-0.06 0,-0.12z"/>
  <path class="fil2" d="M4.23 14.68c0.05,0.01 0.08,0.03 0.08,0.04l-0.08 0.01 -0.07 -0.03 0.07 -0.02z"/>
  <path class="fil2" d="M4.2 14.59c0.05,0.01 0.08,0.03 0.08,0.04 0,0.02 -0.04,0.02 -0.09,0.02 -0.05,-0.02 -0.09,-0.03 -0.09,-0.05 0,-0.01 0.05,-0.02 0.1,-0.01z"/>
  <path class="fil2" d="M4.18 14.47c0.05,0.02 0.1,0.04 0.1,0.05 -0.01,0.03 -0.06,0.03 -0.12,0.02 -0.06,-0.01 -0.11,-0.03 -0.1,-0.05 0,-0.02 0.05,-0.02 0.12,-0.02z"/>
  <path class="fil2" d="M6.05 13.25c-0.04,-0.15 0.12,-0.2 0.28,-0.13 0.13,0.05 0.29,0.08 0.5,0.03 0.1,-0.02 0.21,-0.02 0.32,0 0.11,0.05 0.1,0.1 -0.02,0.13 -0.23,0.21 -0.41,0.44 -0.43,0.65 -0.08,-0.11 0.08,-0.38 0.34,-0.72 -0.16,0.12 -0.3,0.28 -0.44,0.46 0.03,-0.11 0.12,-0.27 0.25,-0.45 -0.28,0.21 -0.47,0.52 -0.44,1.1 -0.11,-0.34 -0.04,-0.68 0.18,-1l-0.31 0.32 0.29 -0.43 -0.18 0.06 0.02 -0.07 -0.11 0.05 0 -0.07 -0.15 0.12 0.03 -0.13c-0.05,-0.02 -0.08,0.02 -0.13,0.08z"/>
  <path class="fil2" d="M6.18 14.06c-0.01,0.09 0,0.19 0.07,0.29 0.02,0.02 0.05,-0.01 0.03,-0.06 -0.05,-0.04 -0.08,-0.13 -0.1,-0.23z"/>
  <path class="fil2" d="M6.54 14.11c0.02,0 0.03,0.03 0.03,0.08 0,0.05 -0.01,0.1 -0.03,0.1 -0.01,0 -0.02,-0.05 -0.02,-0.1 0,-0.05 0.01,-0.08 0.02,-0.08z"/>
  <path class="fil2" d="M6.88 13.74l-0.01 0.08c-0.02,0.04 -0.04,0.07 -0.06,0.06l0.01 -0.08c0.02,-0.04 0.04,-0.07 0.06,-0.06z"/>
  <polygon class="fil2" points="6.96,13.56 6.93,13.64 6.88,13.69 6.9,13.61 "/>
  <path class="fil2" d="M9.66 13.85c0.13,0.04 0.14,0.21 0.08,0.42 0,-0.17 -0.02,-0.31 -0.08,-0.42z"/>
  <path class="fil2" d="M9.04 14.73l-0.05 -0.1c0.01,0.04 0.02,0.08 0.02,0.13l0.03 -0.03z"/>
  <polygon class="fil2" points="7.62,12.55 7.68,12.56 7.74,12.65 7.67,12.64 "/>
  <polygon class="fil2" points="7.51,13.18 7.55,13.26 7.53,13.31 7.49,13.24 "/>
  <path class="fil2" d="M7.61 13.17l0.04 0.06 0.01 0.07 -0.04 -0.05c-0.01,-0.05 -0.02,-0.08 -0.01,-0.08z"/>
  <path class="fil2" d="M7.74 13.15c0.02,0 0.05,0.05 0.05,0.1 0.01,0.04 0.02,0.06 -0.02,0.06 -0.03,0.01 -0.02,-0.01 -0.03,-0.06 0,-0.05 0,-0.1 0,-0.1z"/>
  <path class="fil2" d="M7.87 13.11c0,0 0.03,0.04 0.05,0.09 0.02,0.05 0.03,0.1 0.01,0.1 -0.01,0.01 -0.04,-0.02 -0.06,-0.08 -0.01,-0.06 -0.02,-0.1 0,-0.11l0 0z"/>
  <path class="fil2" d="M8 13.11c0.02,-0.01 0.04,0.04 0.05,0.1 0.02,0.07 0.01,0.12 0,0.12 -0.02,0 -0.05,-0.05 -0.05,-0.11 -0.02,-0.06 -0.02,-0.11 0,-0.11z"/>
  <path class="fil2" d="M8.14 13.13c0.01,-0.01 0.06,0.07 0.07,0.12 0.01,0.06 0.02,0.09 -0.03,0.1 -0.05,0 -0.03,-0.02 -0.05,-0.09 0,-0.06 0,-0.13 0.01,-0.13z"/>
  <path class="fil2" d="M8.23 13.1c0.03,-0.01 0.05,0.05 0.07,0.11 0.01,0.07 0.01,0.12 0,0.12 -0.01,0.01 -0.04,-0.04 -0.06,-0.11 -0.01,-0.06 -0.02,-0.12 -0.01,-0.12l0 0z"/>
  <path class="fil2" d="M8.39 13.07c0.01,0 0.03,0.06 0.03,0.14 0,0.08 -0.01,0.14 -0.03,0.14 -0.02,0 -0.04,-0.06 -0.04,-0.14 0,-0.08 0.01,-0.14 0.04,-0.14z"/>
  <path class="fil2" d="M8.51 13.11c0.01,0 0.03,0.06 0.03,0.12 0,0.07 -0.02,0.12 -0.03,0.12 -0.02,0 -0.03,-0.05 -0.03,-0.12 0,-0.06 0.01,-0.12 0.03,-0.12z"/>
  <path class="fil2" d="M8.63 13.07c0.02,0 0.03,0.07 0.03,0.15 0,0.08 -0.01,0.14 -0.03,0.14 -0.01,0 -0.03,-0.06 -0.03,-0.14 0,-0.08 0.02,-0.15 0.03,-0.15z"/>
  <path class="fil2" d="M8.76 13.04c0.02,0 0.03,0.07 0.02,0.16 -0.01,0.08 -0.03,0.15 -0.05,0.15 -0.01,0 -0.02,-0.07 -0.01,-0.15 0.01,-0.09 0.02,-0.16 0.04,-0.16z"/>
  <path class="fil2" d="M8.94 13.03c0.02,0 0.02,0.07 0,0.16 -0.01,0.09 -0.03,0.15 -0.06,0.15 -0.01,0 -0.02,-0.07 0,-0.16 0.01,-0.09 0.04,-0.15 0.06,-0.15z"/>
  <path class="fil2" d="M9.07 12.95c0.02,0 0.06,0.11 0.05,0.21 -0.03,0.11 -0.06,0.19 -0.08,0.19 -0.02,-0.01 0,-0.1 0.01,-0.2 0.01,-0.11 0.01,-0.21 0.02,-0.2z"/>
  <polygon class="fil2" points="8.34,13.77 8.37,13.82 8.39,13.89 8.35,13.84 "/>
  <path class="fil2" d="M8.44 13.73c0.01,0 0.03,0.04 0.05,0.08 0.01,0.04 0.01,0.06 -0.01,0.07 -0.03,0.02 -0.02,-0.01 -0.04,-0.06l0 -0.09z"/>
  <path class="fil2" d="M9.41 13.43l0 0.05 0.07 -0.05c0.01,-0.13 0.01,-0.25 0,-0.35 -0.02,0.13 -0.04,0.25 -0.07,0.35z"/>
  <path class="fil2" d="M9.34 13.59c-0.04,0.18 -0.04,0.24 -0.12,0.31 0.03,-0.12 0.02,-0.21 0.02,-0.23l-0.05 0.02 0 0.02c0.01,0.07 0.01,0.16 -0.08,0.28 -0.01,-0.1 0.03,-0.2 0.03,-0.3l-0.05 0.03 0 0.1c-0.01,0.04 -0.05,0.15 -0.06,0.16 0.01,0 0.03,-0.21 0.01,-0.26l-0.05 0.02 0 0.03 -0.02 0.04 -0.01 -0.04 -0.02 -0.03 -0.03 0.01 0 0.05 -0.04 -0.04 -0.04 0.01 -0.02 0.06 -0.04 -0.06 -0.07 0.02 0 0.05 -0.04 -0.05 -0.06 0 0 0.06 -0.03 -0.05 -0.01 0.01 0.01 -0.01 -0.02 -0.03c-0.02,-0.05 -0.03,-0.09 -0.02,-0.1 0.02,0 0.04,0.02 0.06,0.07l0.01 0.05 0.05 -0.01 0 -0.03c-0.02,-0.06 -0.02,-0.11 0,-0.11 0.01,-0.01 0.03,0.03 0.05,0.09l0 0.04 0.06 -0.03 -0.01 -0.07 0.01 -0.04c0.01,-0.01 0.05,0.04 0.06,0.1l0.04 -0.01 -0.01 -0.02c-0.02,-0.04 -0.02,-0.06 -0.02,-0.09l0 -0.03c0.01,-0.01 0.05,0.05 0.06,0.1l0.01 0.02 0.04 -0.01 0 -0.12 0.01 -0.04 0.02 0.03 0.02 0.11 0.05 -0.02 0 -0.06 0.01 -0.03 0.03 0.07 0.06 -0.02 0 -0.08 0.01 -0.05 0.02 0.03 0.01 0.08 0.04 -0.03c0,-0.04 0.01,-0.08 0.01,-0.11l0.02 -0.05 0.02 0.03c0,0.03 0,0.07 0,0.11l0.05 -0.01c0.05,-0.2 0.11,-0.48 0.11,-0.72l-0.04 -0.08c-0.01,0.27 -0.04,0.5 -0.12,0.65 0.04,-0.22 0.05,-0.46 -0.01,-0.73l-0.02 0c0.01,0.29 0.01,0.54 -0.07,0.7 0.03,-0.23 0.02,-0.49 -0.08,-0.77l-0.04 -0.01c0.07,0.05 0.05,0.29 0.02,0.32 -0.04,-0.14 -0.01,-0.18 -0.13,-0.27l-0.03 0c0.06,0.07 0.07,0.18 0.05,0.27 -0.03,-0.08 -0.09,-0.18 -0.15,-0.24l-0.06 0c0.09,0.11 0.09,0.13 0.08,0.22 -0.04,-0.09 -0.18,-0.16 -0.24,-0.2l-0.07 0.01c0.08,0.03 0.18,0.16 0.14,0.21 -0.05,-0.06 -0.16,-0.12 -0.2,-0.2l-0.05 0.01c0.02,0.05 0,0.08 0.01,0.13 -0.06,-0.02 -0.1,-0.02 -0.18,-0.11l-0.04 0 0.04 0.09 -0.18 -0.12c-0.01,-0.01 0.03,-0.01 -0.06,-0.01l0.07 0.15 -0.14 -0.15 -0.1 -0.01 -0.06 -0.11c0.32,0.02 0.68,0.01 1.11,-0.07l0.41 -0.08c0.14,-0.05 0.23,0.03 0.26,0.24l0.02 0.23c0.09,0.12 0.12,0.27 0.04,0.48 0.03,0.15 0.12,0.28 0.25,0.39 0.12,0.11 0.13,0.26 -0.01,0.48 -0.12,0.32 -0.29,0.51 -0.45,0.72l-0.01 0.02 -0.02 0.03 0.02 -0.04 -0.02 -0.1 0.03 0.08 0.07 -0.11c-0.01,-0.04 -0.01,-0.07 -0.02,-0.12l0.04 0.08 0.05 -0.08c-0.01,-0.04 -0.02,-0.08 -0.03,-0.13l0.05 0.09 0.05 -0.11 -0.02 -0.11 0.04 0.07c0.02,-0.06 0.03,-0.11 0.04,-0.15l-0.74 0.46c0.06,-0.06 0.13,-0.11 0.2,-0.17l-0.01 0.01c0,-0.04 -0.01,-0.09 -0.02,-0.14l0.05 0.12 0.05 -0.05c0,-0.05 -0.01,-0.11 -0.02,-0.17 0.03,0.05 0.04,0.1 0.06,0.15l0.06 -0.06c0,-0.07 -0.01,-0.15 -0.03,-0.23 0.04,0.07 0.06,0.13 0.08,0.2l0.05 -0.05c0,-0.1 -0.02,-0.22 -0.03,-0.33 0.05,0.1 0.09,0.2 0.09,0.28l0.04 -0.04c-0.01,-0.11 -0.02,-0.24 -0.04,-0.35 0.05,0.11 0.09,0.21 0.1,0.3l0.02 -0.02c0,-0.12 -0.02,-0.28 -0.05,-0.42 0.08,0.14 0.11,0.27 0.1,0.36l0.04 -0.04c-0.01,-0.21 -0.08,-0.4 -0.14,-0.59 -0.03,0.1 -0.03,0.13 -0.06,0.13 0.01,-0.12 0.01,-0.17 -0.01,-0.18 -0.02,0.15 -0.06,0.25 -0.11,0.31l0.03 -0.26 -0.04 0z"/>
  <path class="fil2" d="M8.69 14.04l0 0c0,0.04 0,0.08 -0.03,0.08l-0.01 -0.08 0.04 0z"/>
  <path class="fil2" d="M8.77 13.96c0.01,0.01 0.02,0.02 0.02,0.07 0,0.05 0,0.09 -0.04,0.09 -0.04,-0.01 -0.03,-0.05 -0.02,-0.09 0.02,-0.05 0.02,-0.07 0.04,-0.07z"/>
  <path class="fil2" d="M8.87 13.98l0 0c0,0.08 0,0.13 -0.03,0.13 -0.03,-0.01 -0.03,-0.07 -0.01,-0.13l0.04 0z"/>
  <polygon class="fil2" points="8.86,13.87 8.87,13.91 8.83,13.91 "/>
  <path class="fil2" d="M8.96 13.86c0.01,0 0.02,0.03 0.02,0.09 0,0.07 0,0.13 -0.05,0.12 -0.05,-0.01 -0.04,-0.07 -0.02,-0.13 0.02,-0.06 0.03,-0.08 0.05,-0.08z"/>
  <path class="fil2" d="M8.46 11.79c0.18,0.04 0.37,0.19 0.55,0.35 0.03,0.05 0.02,0.07 -0.02,0.04 -0.13,-0.04 -0.32,-0.26 -0.53,-0.39z"/>
  <polygon class="fil2" points="9.15,12.26 9.2,12.31 9.12,12.29 9.08,12.23 "/>
  <path class="fil2" d="M7.33 12.52c0.07,0.01 0.13,0.02 0.2,0.03l0.04 0.07 -0.01 -0.01c-0.02,0 0.07,0.23 -0.05,-0.01l-0.09 -0.04c-0.04,-0.01 -0.02,-0.02 -0.09,-0.04z"/>
  <path class="fil2" d="M6.43 15.64l0.07 0.03 -0.06 0.02c-0.04,0 -0.07,0 -0.07,-0.02l0.06 -0.03z"/>
  <path class="fil2" d="M6.52 15.82c0.06,-0.01 0.13,-0.02 0.13,0 0.02,0.01 -0.03,0.03 -0.08,0.05 -0.06,0.02 -0.12,0.02 -0.13,0 -0.01,-0.01 0.02,-0.03 0.08,-0.05l0 0z"/>
  <path class="fil2" d="M6.58 15.88c0.07,-0.01 0.13,-0.02 0.14,-0.01 0.01,0.02 -0.03,0.05 -0.1,0.06 -0.07,0.02 -0.13,0.02 -0.14,0.01 -0.02,-0.01 0.03,-0.04 0.1,-0.06z"/>
  <path class="fil2" d="M6.67 15.95c0.04,-0.02 0.08,-0.02 0.09,0 0.01,0 -0.02,0.03 -0.06,0.04 -0.05,0.01 -0.1,0.01 -0.11,-0.01 0,0 0.03,-0.03 0.08,-0.03z"/>
  <path class="fil2" d="M6.72 16.01c0.05,0 0.08,0.01 0.08,0.02l-0.06 0.03 -0.07 -0.03 0.05 -0.02z"/>
  <path class="fil2" d="M7.5 15.72c0.06,-0.03 0.11,-0.03 0.12,0 0.01,0.02 -0.03,0.07 -0.09,0.09 -0.05,0.02 -0.11,0.02 -0.12,-0.01 -0.01,-0.02 0.03,-0.06 0.09,-0.08z"/>
  <path class="fil2" d="M7.4 15.65c0.04,-0.02 0.08,-0.02 0.09,0 0.01,0.02 -0.02,0.05 -0.06,0.07 -0.05,0.02 -0.09,0.01 -0.1,0 -0.01,-0.03 0.02,-0.05 0.07,-0.07z"/>
  <polygon class="fil2" points="7.3,15.52 7.37,15.52 7.32,15.57 7.25,15.57 "/>
  <path class="fil2" d="M6.26 14.92l-0.06 -0.01c-0.01,0.05 0,0.12 0.06,0.15 0.05,0.03 0.07,-0.03 0.04,-0.05l-0.04 -0.09z"/>
  <path class="fil2" d="M6.15 14.87c0.01,-0.04 -0.02,-0.06 -0.05,-0.03 -0.04,0.05 -0.05,0.13 -0.01,0.18 0.05,0.07 0.09,0.01 0.08,-0.03 -0.02,-0.05 -0.03,-0.08 -0.02,-0.12z"/>
  <path class="fil2" d="M11.2 11.63c-0.05,0.06 -0.06,0.31 0.16,0.6 0.07,0.11 -0.02,0.18 0.1,0.19 0.04,0 0.07,-0.04 0.08,-0.11l-0.08 -0.03 0.1 0 -0.1 -0.07 0.11 -0.03c-0.01,-0.04 -0.11,-0.05 -0.16,-0.07l0.13 -0.03c0,-0.03 -0.07,-0.06 -0.18,-0.1l0.11 -0.03 -0.13 -0.08 0.1 -0.03 -0.16 -0.07 0.09 -0.05 -0.09 -0.03 0.08 -0.04c-0.07,-0.03 -0.1,-0.09 -0.16,-0.02z"/>
  <path class="fil2" d="M11.02 11.82c-0.04,-0.1 -0.05,-0.18 -0.03,-0.25 0.05,-0.13 0.1,-0.17 0.15,-0.17 0.09,0.1 -0.06,0.16 -0.09,0.23 -0.02,0.01 -0.03,0.06 -0.03,0.19z"/>
  <path class="fil2" d="M10.99 11.37l0.09 -0.05c0.01,0.02 -0.01,0.05 -0.04,0.1l-0.1 0.05c-0.01,-0.02 0.01,-0.06 0.05,-0.1z"/>
  <polygon class="fil2" points="10.95,11.83 10.99,11.88 10.95,11.92 10.9,11.88 "/>
  <polygon class="fil2" points="11.04,11.97 11.06,12.05 10.99,12.1 10.98,12.02 "/>
  <path class="fil2" d="M11.15 12.13c0.03,0.01 0.04,0.05 0.01,0.09l-0.11 0.05 -0.02 -0.09c0.02,-0.04 0.07,-0.07 0.12,-0.05z"/>
  <polygon class="fil2" points="11.25,12.29 11.23,12.36 11.13,12.34 11.16,12.28 "/>
  <path class="fil2" d="M11.77 12.38l-0.02 -0.07 -0.08 -0.04c-0.03,-0.09 0.02,-0.13 0.09,-0.15 0.06,0 0.08,0.02 0.06,0.06l-0.03 0.03c0.06,0.02 0.11,0.04 0.13,0.08l-0.07 0.03c0.13,-0.02 0.12,0.17 0.01,0.14 -0.07,-0.02 -0.11,0.01 -0.07,0.13 0.03,0.14 0.13,0.18 0.12,0.03 -0.01,-0.07 0.23,-0.09 0.26,0.07l-0.09 -0.04c0.02,0.12 0.11,0.07 0.13,0.17l-0.08 0.01c0.09,0.06 0.16,0.14 0.2,0.24 -0.1,-0.02 -0.11,-0.13 -0.2,-0.13 0.12,0.17 0.26,0.13 0.34,0.3 -0.1,-0.01 -0.23,-0.09 -0.36,-0.22 0.12,0.18 0.2,0.32 0.17,0.39 -0.18,-0.08 -0.22,-0.34 -0.29,-0.42 0,0.13 0.1,0.21 0.07,0.36 -0.08,-0.08 -0.11,-0.22 -0.11,-0.44 0.07,0.02 0.1,-0.03 0.1,-0.16 -0.02,-0.13 -0.08,-0.12 -0.07,0 0,0.1 -0.06,0.13 -0.26,0.01 -0.03,0.03 0.02,0.07 0.13,0.13l-0.01 0.11 0.06 -0.09 0.02 0.3c-0.01,0.08 -0.03,0.07 -0.05,-0.01l-0.02 -0.16c0,0.11 -0.02,0.16 -0.05,0.16l-0.03 -0.29 -0.08 0.11 -0.02 -0.16 -0.08 0.05 0 -0.19c-0.05,0.03 -0.11,0.01 -0.16,-0.08 0.08,0.02 0.13,0.01 0.19,-0.03 -0.03,-0.14 0.03,-0.22 0.15,-0.23z"/>
  <path class="fil2" d="M10.05 13.26c0.01,-0.06 0.03,-0.09 -0.04,-0.17l-0.04 0c0.01,0.06 0.07,0.11 0.08,0.17z"/>
  <path class="fil2" d="M9.94 12.82c0.09,0.05 0.14,0.06 0.19,0.2 0.01,0.05 0,0.08 -0.03,0.04 -0.06,-0.07 -0.09,-0.17 -0.16,-0.24z"/>
  <path class="fil2" d="M9.95 12.54c0.13,0.08 0.18,0.1 0.23,0.3 0.02,0.08 0,0.12 -0.05,0.06 -0.07,-0.1 -0.09,-0.25 -0.18,-0.36l0 0z"/>
  <path class="fil2" d="M10.01 12.34c0.14,0.04 0.24,0.21 0.24,0.35 0,0.08 -0.04,0.13 -0.06,0.06 -0.03,-0.1 -0.08,-0.31 -0.18,-0.41l0 0z"/>
  <path class="fil2" d="M10.07 12.23c0.12,0.05 0.2,0.13 0.24,0.26 0.01,0.08 0,0.11 -0.05,0.06 -0.02,-0.11 -0.1,-0.22 -0.19,-0.32z"/>
  <path class="fil2" d="M10.92 15.8c0.03,-0.07 0.14,-0.14 0.27,-0.08 0.06,0.01 0.05,0.08 0.05,0.13 -0.04,-0.03 -0.07,-0.08 -0.11,-0.03 -0.1,-0.08 -0.14,-0.04 -0.21,-0.02z"/>
  <polygon class="fil2" points="10.53,15.83 10.58,15.87 10.53,15.91 10.49,15.87 "/>
  <path class="fil2" d="M10.28 15.83l0.05 0.06 -0.01 0.07c-0.01,0.01 -0.03,-0.01 -0.05,-0.06l0.01 -0.07z"/>
  <polygon class="fil2" points="10.36,15.82 10.39,15.86 10.39,15.91 10.36,15.87 "/>
  <path class="fil2" d="M10.39 14.89l-0.02 0.02 -0.06 0.03 0.01 -0.07 0.03 -0.03 -0.01 -0.02 -0.02 0.02 -0.08 0.05 0.02 -0.09 0.03 -0.03 -0.01 -0.01 -0.08 0.04 0.02 -0.09 0.02 -0.01 -0.03 -0.03 -0.05 0.01 0.02 -0.06 0 -0.07c0.05,-0.04 0.07,0.01 0.11,0.1l0.02 0.08 0.08 0.07c0.05,0.08 0.04,0.14 0.03,0.15 -0.01,0.01 0,-0.01 -0.03,-0.06z"/>
  <path class="fil2" d="M10.39 14.96c0.02,0.01 0,0.06 -0.03,0.1 -0.04,0.04 -0.07,0.06 -0.09,0.05 -0.02,-0.02 -0.01,-0.06 0.02,-0.1 0.04,-0.05 0.08,-0.07 0.1,-0.05z"/>
  <path class="fil2" d="M11.28 14.53c0,0 0,0.05 -0.02,0.09 -0.01,0.04 -0.04,0.07 -0.06,0.06 0,0 0,-0.04 0.02,-0.08 0.02,-0.05 0.04,-0.08 0.06,-0.07z"/>
  <path class="fil2" d="M11.17 14.49c0.01,0.01 0,0.06 -0.02,0.13 -0.04,0.06 -0.08,0.11 -0.1,0.1 -0.02,-0.01 -0.01,-0.07 0.02,-0.13 0.03,-0.07 0.08,-0.11 0.1,-0.1l0 0z"/>
  <path class="fil2" d="M10.91 14.39c0.02,0 0.01,0.05 -0.01,0.11 -0.02,0.05 -0.05,0.08 -0.07,0.08 -0.01,-0.01 0,-0.06 0.02,-0.11 0.02,-0.05 0.05,-0.09 0.06,-0.08z"/>
  <path class="fil2" d="M3.91 2.18c0.02,-0.1 0.08,-0.15 0.16,-0.16l0.16 0.03c0.05,0.04 0.05,0.06 -0.02,0.07 -0.13,-0.03 -0.2,0 -0.24,0.09 -0.05,0.07 -0.07,0.08 -0.06,-0.03l0 0z"/>
  <polygon class="fil2" points="4.41,2.48 4.45,2.53 4.41,2.57 4.38,2.53 "/>
  <path class="fil2" d="M3.89 2.34c-0.05,0.06 -0.04,0.14 0.05,0.22l0.11 0.15c0.1,0.07 0.15,0.06 0.14,-0.05 -0.01,-0.07 0.01,-0.1 0.07,-0.1 0.05,-0.01 0.07,-0.03 0.1,-0.07 0.01,-0.06 0,-0.09 -0.05,-0.1 -0.09,0.06 -0.17,0.09 -0.24,0.11 0.09,-0.06 0.16,-0.1 0.18,-0.14 0.02,-0.02 0.05,-0.03 0.09,-0.01 0,-0.04 -0.01,-0.08 -0.06,-0.09 -0.1,0 -0.21,0.07 -0.3,0.17 0.06,-0.12 0.14,-0.19 0.27,-0.19l-0.03 -0.1c-0.08,0 -0.16,0.02 -0.23,0.07l-0.1 0.13z"/>
  <path class="fil2" d="M4.47 3.23c0.24,0.24 0.44,0.51 0.6,0.82l0 0.27 -0.09 -0.31c0.01,0.21 0,0.35 -0.02,0.31l-0.07 -0.43 -0.05 0.18 -0.04 -0.26c-0.04,-0.03 -0.05,0.13 -0.04,0.36 -0.06,-0.06 -0.06,-0.25 -0.05,-0.46l-0.07 0.2c-0.05,-0.1 -0.02,-0.25 0,-0.39 -0.05,-0.03 -0.07,0.04 -0.09,0.26 -0.05,-0.15 -0.04,-0.26 -0.01,-0.4l-0.05 0.11 -0.02 -0.26z"/>
  <path class="fil2" d="M6.24 1.2c0.08,0.06 0.19,0.07 0.3,0.07l0 0.06c0.18,0 0.36,-0.08 0.54,-0.2l-0.08 0c-0.13,0.06 -0.12,0.02 0.13,-0.1 0.04,-0.03 0.06,0 0.12,-0.02l0.16 -0.04c-0.13,0.12 -0.26,0.24 -0.4,0.34 -0.21,0.12 -0.39,0.15 -0.55,0.09 -0.1,-0.04 -0.19,-0.1 -0.28,-0.17 -0.02,-0.03 -0.04,-0.05 0.06,-0.03z"/>
  <polygon class="fil2" points="7.24,1.23 7.27,1.26 7.24,1.29 7.21,1.26 "/>
  <polygon class="fil2" points="7.45,1.67 7.5,1.65 7.5,1.7 7.45,1.72 "/>
  <polygon class="fil2" points="7.97,1.47 8.02,1.48 7.99,1.53 7.94,1.52 "/>
  <polygon class="fil2" points="7.85,1.39 7.9,1.39 7.89,1.44 7.84,1.44 "/>
  <polygon class="fil2" points="7.06,1.55 7.11,1.56 7.08,1.6 7.03,1.58 "/>
  <polygon class="fil2" points="7.35,2.08 7.42,2.08 7.37,2.13 7.3,2.12 "/>
  <path class="fil2" d="M6.42 1.59c0.08,-0.01 0.19,-0.04 0.33,-0.1l0.17 -0.08c0.08,-0.04 0.09,-0.03 0.03,0.03 -0.07,0.08 -0.17,0.11 -0.23,0.16 -0.07,0.05 -0.16,0.1 -0.32,0.06 -0.08,-0.02 -0.05,-0.06 0.02,-0.07z"/>
  <path class="fil2" d="M6.93 1.52c0.09,-0.09 0.15,-0.11 0.28,-0.17 0.12,-0.05 0.24,-0.06 0.37,-0.06 0.08,-0.08 0.16,0.02 0.07,0.11l-0.1 0.07c-0.1,0.07 -0.2,0.1 -0.3,0.13 -0.13,0.03 -0.14,0.02 -0.03,-0.05l0.1 -0.08c0.08,-0.05 0.16,-0.06 0.24,-0.07 -0.12,-0.08 -0.36,0.04 -0.6,0.16 -0.07,0.04 -0.09,0.01 -0.03,-0.04z"/>
  <path class="fil2" d="M7.58 1.14c0.05,-0.01 0.09,-0.01 0.15,-0.01 0.09,0.03 0.14,0.08 0.14,0.15 -0.02,0.06 -0.05,0.1 -0.09,0.11 -0.02,-0.11 -0.07,-0.18 -0.13,-0.2l-0.07 -0.01 0 -0.04z"/>
  <path class="fil2" d="M7.47 1.17l0.06 -0.03 0 0.04 -0.05 0.02c-0.03,0.01 -0.06,-0.02 -0.01,-0.03l0 0z"/>
  <path class="fil2" d="M7.34 1.1c0.06,-0.06 0.14,-0.11 0.22,-0.12 0.09,-0.01 0.18,-0.01 0.28,0.01 0.18,0.06 0.11,0.12 -0.01,0.08 -0.07,-0.04 -0.16,-0.04 -0.26,0 -0.01,0.07 -0.13,0.01 -0.2,0.06 -0.05,0.03 -0.06,0.01 -0.03,-0.03z"/>
  <path class="fil2" d="M7.87 1.12c0.05,0 0.1,0.01 0.1,0.06 0.01,0.06 0,0.11 -0.05,0.14 0.03,-0.14 -0.04,-0.12 -0.05,-0.2l0 0z"/>
  <path class="fil2" d="M8.03 1.08c0.01,0.02 0.02,0.08 0,0.18l-0.06 0.1c-0.02,0.06 0,0.07 0.03,0.06 0.06,-0.04 0.09,-0.09 0.09,-0.16 0,-0.11 0.01,-0.16 0.04,-0.2 -0.06,-0.11 -0.13,-0.09 -0.1,0.02z"/>
  <path class="fil2" d="M7.56 1.72c0,0.07 0.17,0.09 0.19,0.01 0.04,-0.09 -0.03,-0.16 -0.01,-0.24 -0.11,0.03 -0.18,0.11 -0.18,0.23z"/>
  <path class="fil2" d="M7.52 1.91c0.04,-0.07 0.09,-0.09 0.18,-0.08 0.07,0 0.1,0.01 0.1,0.08 0,0.06 0.01,0.13 -0.01,0.19 -0.02,0.06 -0.02,0.05 -0.1,0.06 -0.08,0 -0.11,-0.04 -0.19,0.01 0.05,-0.12 -0.01,-0.17 0.02,-0.26z"/>
  <path class="fil2" d="M7.83 1.62c-0.04,-0.05 0.01,-0.07 0.04,-0.03 0.05,0.03 0.08,0.09 0.08,0.14 0,0.05 -0.06,0.09 -0.09,0.05 -0.04,-0.05 0.01,-0.09 -0.03,-0.16z"/>
  <path class="fil2" d="M7.87 1.9c-0.03,-0.07 0,-0.08 0.09,-0.04 0.06,0.05 0.07,0.08 0.04,0.11 0.05,0.06 0.05,0.14 0,0.23 -0.03,-0.03 -0.08,-0.01 -0.11,-0.06 0,-0.02 -0.02,-0.01 -0.01,-0.12 0.01,-0.04 0.01,-0.08 -0.01,-0.12l0 0z"/>
  <polygon class="fil2" points="7.97,2.49 8.03,2.53 7.97,2.56 7.91,2.52 "/>
  <polygon class="fil2" points="7.52,2.43 7.58,2.47 7.51,2.51 7.45,2.46 "/>
  <path class="fil2" d="M8.07 2.35c-0.04,-0.08 -0.15,-0.13 -0.31,-0.15 -0.1,-0.01 -0.24,0.02 -0.39,0.05 -0.07,0.09 -0.1,0.22 -0.09,0.39l0.07 0.02 -0.06 0.04 0.08 0 -0.05 0.07 0.04 0.02 -0.04 0.09 0.05 0.03 -0.02 0.06 0.05 0.01 -0.01 0.05 0.04 0.01 -0.01 0.06 0.04 0.01c0.03,0.05 0.08,0.08 0.14,0.12 0.04,0.02 0.09,0.02 0.14,0.01 0.08,-0.06 0.1,-0.12 0.18,-0.2 0.02,-0.01 0.03,-0.05 0.03,-0.12 0.04,-0.02 0.05,-0.05 0.05,-0.1l0.04 -0.05 0 -0.18c-0.04,0.02 -0.07,0.02 -0.11,0.02l-0.1 -0.05 -0.03 0.23c0,0.04 -0.02,0.11 -0.07,0.08l-0.12 -0.05 0.01 -0.08 0.04 0 0 -0.2c-0.07,0.02 -0.15,0.03 -0.22,-0.02l-0.09 -0.01c0.02,-0.05 0.05,-0.08 0.08,-0.11l-0.04 -0.06 0.06 0.01c0.11,-0.01 0.16,-0.02 0.18,0l0.08 0.07 0.01 -0.05c0.02,-0.06 0.07,-0.07 0.13,-0.05l-0.01 0.14 0.23 -0.07 0 -0.04zm-0.54 0.59l0 0c0.05,0.06 0.03,0.08 0.01,0.11 0.07,0.03 0.15,0.03 0.21,0.03 0.11,-0.07 0.1,-0.11 -0.01,-0.14 -0.07,-0.02 -0.14,-0.02 -0.21,0zm0.09 0.05c0.03,-0.02 0.07,-0.02 0.12,0l-0.01 0.05 -0.08 0 -0.03 -0.05 0 0z"/>
  <polygon class="fil2" points="7.64,2.77 7.66,2.79 7.64,2.8 7.62,2.79 "/>
  <polygon class="fil2" points="7.76,2.43 7.77,2.38 7.82,2.36 7.81,2.43 "/>
  <path class="fil2" d="M7.71 2.79c0.01,-0.1 0.03,-0.18 0.04,-0.29l0.05 0c-0.01,0.08 -0.01,0.16 -0.04,0.3l-0.05 -0.01 0 0z"/>
  <path class="fil2" d="M7.16 2.29c-0.01,-0.06 0.05,-0.05 0.06,0 0.01,0.1 0,0.18 -0.05,0.23 -0.04,0.02 -0.09,0 -0.06,-0.04 0.05,-0.08 0.06,-0.13 0.05,-0.19z"/>
  <path class="fil2" d="M7.11 2.7c-0.01,-0.06 0.03,-0.09 0.05,-0.01 0.05,0.19 0.14,0.38 0.33,0.56 0.08,0.07 -0.01,0.12 -0.08,0.06 -0.19,-0.17 -0.25,-0.4 -0.3,-0.61z"/>
  <path class="fil2" d="M7.84 3.29c-0.01,-0.06 0.01,-0.11 0.08,-0.16 0.04,-0.03 0.05,0.02 0.03,0.05 -0.04,0.05 -0.08,0.05 -0.11,0.11l0 0z"/>
  <path class="fil2" d="M5.95 4.09c0.01,-0.05 0.02,-0.08 0.05,-0.12l-0.06 -0.03c-0.03,0.07 -0.08,0.14 -0.15,0.23 0.05,-0.15 0.1,-0.26 0.21,-0.38 -0.02,0.05 -0.03,0.1 -0.05,0.13l0.05 0.04 0.04 -0.04 -0.01 0.07 0.01 0 -0.01 0.02 -0.01 -0.01 -0.07 0.09z"/>
  <path class="fil2" d="M5.87 4.22c0,-0.04 0.02,-0.07 0.05,-0.1 -0.01,0.05 -0.02,0.07 -0.05,0.1z"/>
  <path class="fil2" d="M6.25 4.28l0.02 -0.08 0.01 -0.01 0.02 -0.03 0.04 -0.05c-0.01,0.09 -0.03,0.11 -0.09,0.17z"/>
  <path class="fil2" d="M6.23 4.49c-0.02,-0.07 0,-0.12 0.09,-0.16 0,0.1 -0.01,0.13 -0.09,0.16z"/>
  <path class="fil2" d="M6.41 4.43c0.07,-0.18 0.08,-0.26 0.05,-0.47 0.08,0.2 0.07,0.26 -0.05,0.47z"/>
  <path class="fil2" d="M7.58 5.08c0.04,-0.15 0.05,-0.29 0.05,-0.44l-0.04 0.01c-0.01,0.08 -0.03,0.17 -0.07,0.29 0.02,-0.09 0.04,-0.19 0.03,-0.28l-0.04 0.01c-0.01,0.07 -0.03,0.14 -0.06,0.23 0.01,-0.08 0.02,-0.15 0.02,-0.22l-0.07 0.01c0,0.09 -0.02,0.19 -0.04,0.32 0,-0.11 -0.01,-0.22 -0.01,-0.32l-0.07 0c0,0.11 -0.01,0.22 -0.04,0.37 0,-0.13 0,-0.25 -0.01,-0.37l-0.07 -0.02c0,0.12 -0.02,0.23 -0.04,0.39 -0.01,-0.14 -0.01,-0.27 -0.01,-0.39l-0.07 -0.03c0,0.11 -0.03,0.22 -0.06,0.37 0,-0.14 0,-0.25 0.01,-0.38l-0.06 -0.02c-0.01,0.14 -0.02,0.27 -0.03,0.42 -0.02,-0.18 -0.04,-0.31 -0.02,-0.44l-0.06 -0.03c-0.04,0.17 -0.05,0.32 -0.04,0.5 -0.05,-0.23 -0.06,-0.36 0,-0.52l-0.05 -0.03c-0.02,0.06 -0.06,0.13 -0.1,0.2 0.04,-0.07 0.05,-0.15 0.07,-0.21l-0.07 -0.04c-0.01,0.09 -0.06,0.18 -0.13,0.31 0.09,-0.23 0.1,-0.44 0.11,-0.72 0.02,0.11 0.04,0.2 0.04,0.28l0.07 0.03c0.02,-0.12 0.03,-0.24 0.03,-0.37 0.03,0.16 0.05,0.27 0.03,0.38l0.06 0.02 0.04 -0.06 -0.03 0.07 0.06 0.01c0.01,-0.05 0.02,-0.1 0.04,-0.16 0,0.06 -0.01,0.11 -0.01,0.17l0.06 0.01c0,-0.04 0.01,-0.08 0.01,-0.13 0.01,0.05 0.01,0.09 0.02,0.13l0.07 0.01c0,-0.05 0,-0.11 0,-0.16 0.01,0.06 0.03,0.11 0.04,0.16l0.08 0.01c0,-0.06 0,-0.11 0.01,-0.17 0.01,0.06 0.02,0.12 0.04,0.17l0.07 0c0,-0.09 0,-0.17 0,-0.26 0.03,0.1 0.04,0.18 0.05,0.25l0.06 -0.01c0,-0.05 -0.01,-0.12 -0.02,-0.18 0.03,0.06 0.05,0.12 0.06,0.18l0.04 -0.01c0,-0.07 -0.02,-0.13 -0.02,-0.2 0.02,0.07 0.05,0.13 0.06,0.19l0.04 -0.01c-0.01,-0.1 -0.02,-0.21 -0.04,-0.33 0.17,0.41 0.17,0.6 0.01,1.01z"/>
  <path class="fil2" d="M7.79 4.61l0.03 0.06 0.1 -0.09c0.03,-0.04 0.05,-0.03 0.08,0.02l0 -0.11 0.1 0.02c0.02,-0.02 0.02,-0.06 0,-0.1l0.02 -0.15c-0.06,-0.09 -0.1,-0.15 -0.17,-0.17 0.04,0.08 0.04,0.14 0.02,0.2 -0.01,-0.09 -0.05,-0.16 -0.13,-0.2 0.03,0.06 0.05,0.12 0.03,0.18l-0.07 -0.07 0.02 0.09 -0.05 0.03 0.02 0.29z"/>
  <polygon class="fil2" points="8.45,4.09 8.44,4.13 8.39,4.09 "/>
  <polygon class="fil2" points="8.41,3.97 8.41,3.97 8.44,4.06 8.36,4.06 8.31,3.99 8.31,3.97 "/>
  <path class="fil2" d="M8.28 3.83c0.02,0 0.07,0.05 0.11,0.11l-0.1 0c-0.03,-0.05 -0.03,-0.11 -0.01,-0.11z"/>
  <path class="fil2" d="M8.23 4.09c0.01,-0.01 0.04,0.02 0.07,0.06 0.02,0.05 0.03,0.08 0.02,0.09 -0.01,0.01 -0.03,-0.02 -0.06,-0.07 -0.03,-0.04 -0.03,-0.08 -0.03,-0.08l0 0z"/>
  <path class="fil2" d="M8.1 4.06c0,-0.01 0.04,0.03 0.08,0.08 0.03,0.06 0.04,0.1 0.03,0.11 -0.01,0 -0.05,-0.03 -0.08,-0.08 -0.03,-0.06 -0.05,-0.1 -0.03,-0.11z"/>
  <path class="fil2" d="M5.76 3.78l0.05 0.03 0.04 -0.03c-0.01,0.05 -0.02,0.06 -0.06,0.1l0.02 -0.06 -0.05 -0.04z"/>
  <polygon class="fil2" points="5.12,11.02 5.09,11.12 5.06,11.1 5.08,11.02 "/>
  <path class="fil2" d="M2.88 14.21c0.1,-0.04 0.12,0 0.15,0.11 0.08,0.07 0.13,0.13 0.13,0.19 0.16,0.14 0.13,0.2 -0.09,0.17 -0.07,-0.02 -0.12,-0.07 -0.12,-0.17l-0.07 -0.3z"/>
  <path class="fil2" d="M2.92 14.76c-0.06,0.09 -0.05,0.2 0.03,0.28 0.04,0.05 0.09,0.07 0.14,0.07l-0.03 -0.08 0.09 0.06c0,-0.05 -0.04,-0.1 -0.12,-0.15l0.11 0.02c0,-0.05 -0.05,-0.1 -0.14,-0.15l0.08 0c-0.04,-0.1 -0.1,-0.13 -0.16,-0.05z"/>
  <path class="fil2" d="M3.2 14.81c0.03,0 0.05,0.03 0.06,0.08 0,0.04 -0.01,0.07 -0.04,0.08 -0.02,0.01 -0.05,-0.03 -0.06,-0.07 0,-0.04 0.02,-0.09 0.04,-0.09z"/>
  <path class="fil2" d="M4.67 9.87c0,-0.24 0.1,-0.46 0.23,-0.68 -0.1,0.23 -0.18,0.45 -0.23,0.68z"/>
  <path class="fil2" d="M5.19 8.52c-0.09,0.04 -0.1,-0.03 -0.03,-0.08 0.13,-0.12 0.29,-0.16 0.46,-0.16l0.3 0c0.12,0 0.1,0.11 0,0.1l-0.22 0c-0.2,0 -0.36,0.06 -0.51,0.14z"/>
  <path class="fil2" d="M5.84 8.41c0.08,0 0.15,0.02 0.15,0.03 0,0.02 -0.07,0.03 -0.15,0.03 -0.08,0 -0.14,-0.01 -0.14,-0.03 0,-0.01 0.06,-0.03 0.14,-0.03z"/>
  <path class="fil2" d="M6.44 6.88c-0.02,-0.01 -0.06,0.04 -0.11,0.1 -0.04,0.06 -0.07,0.12 -0.06,0.12 0.01,0.01 0.05,-0.04 0.09,-0.1 0.05,-0.06 0.08,-0.12 0.08,-0.12z"/>
  <path class="fil2" d="M5.93 7.38c-0.04,0.07 -0.02,0.1 0.05,0.13 0.29,0.09 0.57,-0.01 0.85,-0.16l0.36 -0.17c0.06,-0.08 0.05,-0.1 -0.04,-0.07l-0.17 0.08 0.04 -0.14c-0.09,0.07 -0.15,0.14 -0.19,0.22l-0.03 -0.07c-0.05,0.04 -0.08,0.09 -0.1,0.15l-0.03 -0.08c-0.04,0.02 -0.07,0.05 -0.09,0.1l0.01 -0.1c-0.02,-0.03 -0.07,0.02 -0.13,0.14l0.03 -0.11c-0.02,-0.02 -0.05,0.02 -0.11,0.13l0.12 -0.34c-0.06,0 -0.14,0.13 -0.22,0.36l-0.05 -0.03 0.13 -0.26c-0.06,0 -0.13,0.09 -0.22,0.26l0.1 -0.29 -0.19 0.24 0 -0.09c-0.04,0.01 -0.08,0.05 -0.12,0.1z"/>
  <polygon class="fil2" points="5.97,12.08 6,12.04 6.09,12.12 6.04,12.16 "/>
  <polygon class="fil2" points="6.03,12.03 6.07,11.99 6.14,12.06 6.1,12.1 "/>
  <polygon class="fil2" points="6.07,11.96 6.12,11.92 6.2,12 6.15,12.04 "/>
  <polygon class="fil2" points="6.11,11.85 6.18,11.79 6.31,11.92 6.24,11.98 "/>
  <path class="fil2" d="M6.25 11.74c-0.05,-0.05 0.01,-0.1 0.05,-0.07l0.16 0.14c0.04,0.03 -0.02,0.1 -0.06,0.07l-0.15 -0.14z"/>
  <polygon class="fil2" points="6.34,11.66 6.38,11.61 6.52,11.72 6.47,11.79 "/>
  <polygon class="fil2" points="6.46,11.62 6.5,11.57 6.62,11.67 6.57,11.73 "/>
  <polygon class="fil2" points="5.89,10.8 5.82,10.81 5.81,10.94 5.87,10.93 "/>
  <path class="fil2" d="M5.7 10.99c-0.01,-0.06 -0.07,-0.03 -0.07,0l0.02 0.1c0,0.05 0.07,0.03 0.06,0l-0.01 -0.1z"/>
  <path class="fil2" d="M5.48 11.12c0,-0.05 -0.04,-0.03 -0.04,0l-0.01 0.1c-0.01,0.05 0.05,0.03 0.05,0l0 -0.1z"/>
  <polygon class="fil2" points="5.76,10.94 5.79,10.98 5.76,11.01 5.74,10.98 "/>
  <polygon class="fil2" points="5.55,11.07 5.59,11.12 5.55,11.16 5.52,11.12 "/>
  <path class="fil2" d="M5.37 11.2c0,-0.04 -0.05,-0.04 -0.05,-0.01l0 0.09c0,0.04 0.06,0.04 0.06,0.01l-0.01 -0.09z"/>
  <polygon class="fil2" points="6.94,5.74 6.98,5.79 6.94,5.85 6.91,5.79 "/>
  <path class="fil2" d="M7.03 5.88c-0.02,0 -0.02,-0.04 -0.02,-0.08 0,-0.05 0,-0.09 0.02,-0.09 0.01,0 0.03,0.04 0.03,0.09 0,0.04 -0.02,0.08 -0.03,0.08z"/>
  <polygon class="fil2" points="7.17,5.84 7.23,5.87 7.17,5.89 7.11,5.87 "/>
  <polygon class="fil2" points="7.24,5.97 7.27,5.99 7.24,6.03 7.22,5.99 7.24,5.97 "/>
  <path class="fil2" d="M7.35 5.96l0.27 0c0.09,0 0.1,0.04 0.04,0.12 0.03,0.15 -0.15,0.24 -0.14,0.01 -0.01,-0.05 -0.07,-0.07 -0.17,-0.07 -0.04,-0.01 -0.04,-0.05 0,-0.06z"/>
  <polygon class="fil2" points="6.93,7.66 6.97,7.69 6.93,7.74 6.91,7.69 "/>
  <polygon class="fil2" points="6.82,7.69 6.86,7.74 6.82,7.79 6.78,7.74 "/>
  <path class="fil2" d="M6.96 7.77c0.1,-0.06 0.19,-0.11 0.21,-0.09 0.01,0.03 -0.06,0.1 -0.16,0.17 -0.1,0.07 -0.18,0.1 -0.21,0.08 0,-0.02 0.06,-0.09 0.16,-0.16z"/>
  <path class="fil2" d="M7.31 7.55c0.06,-0.05 0.12,-0.08 0.12,-0.08 0.02,0.02 -0.03,0.07 -0.08,0.12 -0.06,0.04 -0.12,0.08 -0.13,0.07 -0.01,-0.02 0.03,-0.07 0.09,-0.11z"/>
  <path class="fil2" d="M7.09 8.1c0.02,-0.05 0.04,-0.1 0.07,-0.15l-0.02 -0.01c0.02,-0.08 0.08,-0.15 0.17,-0.19l0.01 0.01c0.03,-0.03 0.07,-0.05 0.11,-0.08l-0.06 0.11 0.03 0.01c0.05,-0.05 0.11,-0.09 0.18,-0.12 -0.04,0.06 -0.08,0.11 -0.13,0.15l0.04 0.03c0.07,-0.06 0.14,-0.1 0.21,-0.13 -0.05,0.05 -0.1,0.11 -0.16,0.16l0.05 0.03c0.07,-0.05 0.15,-0.09 0.22,-0.11l-0.1 0.09c0.05,-0.01 0.11,-0.01 0.18,-0.02 -0.1,0.04 -0.15,0.06 -0.23,0.09l0.06 0.03c0.07,-0.04 0.15,-0.06 0.22,-0.06 -0.05,0.03 -0.11,0.06 -0.17,0.09l0.05 0.03c0.07,-0.04 0.15,-0.05 0.21,-0.04 -0.06,0.02 -0.11,0.04 -0.16,0.07l0.03 0.02c0.07,-0.03 0.13,-0.04 0.2,-0.04 -0.06,0.02 -0.1,0.05 -0.15,0.07l0.04 0.02c0.06,-0.02 0.11,-0.02 0.16,-0.01 -0.04,0.01 -0.08,0.02 -0.12,0.04l0.15 0.09 -0.03 0.02 -0.23 -0.08 -0.03 0.01 0.01 -0.02 -0.06 -0.01 -0.1 0.05 0.06 -0.07 -0.06 -0.02 -0.1 0.05 0.06 -0.07 -0.06 -0.02c-0.04,0.03 -0.08,0.06 -0.12,0.08l0.07 -0.1 -0.08 -0.03 -0.11 0.1 0.06 -0.11 -0.07 -0.03c-0.04,0.04 -0.08,0.07 -0.12,0.11 0.02,-0.04 0.04,-0.09 0.07,-0.12l-0.12 -0.05c-0.03,0.05 -0.08,0.09 -0.13,0.13z"/>
  <path class="fil2" d="M6.28 8.32c-0.1,0.19 -0.19,0.48 -0.26,1.06 -0.03,0.26 -0.05,0.52 0,0.79 0.03,0.14 0.09,0.19 0.16,0.19l1.07 -0.18c0.08,-0.01 0.16,-0.08 0.12,-0.15l-0.04 -0.08 -0.03 0.12 -0.06 -0.1 -0.05 0.11 -0.06 -0.14 -0.05 0.17 -0.07 -0.14 -0.03 0.15 -0.04 -0.12 -0.04 0.15 -0.05 -0.14 -0.05 0.17 -0.05 -0.16 -0.05 0.11 -0.05 -0.09 -0.03 0.09 -0.05 -0.08c-0.05,-0.02 -0.11,-0.02 -0.16,0l-0.02 0.04 -0.03 -0.04c-0.08,-0.02 -0.16,-0.03 -0.24,-0.05l0.1 -0.05c0,-0.03 -0.04,-0.05 -0.1,-0.04l0.11 -0.08 -0.12 -0.02 0.11 -0.07c0,-0.03 -0.03,-0.06 -0.12,-0.09l0.12 -0.04 0 -0.03 -0.12 -0.01 0.13 -0.06c0.01,-0.03 -0.03,-0.05 -0.1,-0.08l0.1 -0.03c-0.01,-0.03 -0.02,-0.06 -0.09,-0.09l0.09 -0.03 -0.09 -0.06 0.11 -0.05c0,-0.03 -0.02,-0.05 -0.08,-0.08l0.11 -0.05c0,-0.02 -0.03,-0.06 -0.1,-0.08l0.1 -0.03 -0.08 -0.06 0.1 -0.04 -0.08 -0.03 0.09 -0.06c0.02,-0.02 -0.01,-0.04 -0.09,-0.05l0.11 -0.04 0 -0.05 -0.1 0.02 0.05 -0.05 -0.06 -0.05 0.15 -0.03 0.01 -0.03 -0.1 -0.03 0.08 -0.05c-0.01,-0.05 -0.04,-0.06 -0.08,-0.06l0 0zm0.16 0.15l0 0c-0.12,0.43 -0.18,0.9 -0.16,1.41 0,0.09 0.03,0.13 0.09,0.12 0.33,-0.02 0.67,-0.08 1.02,-0.16 0.06,-0.02 0.05,-0.04 -0.01,-0.06l-0.05 0c-0.04,-0.48 -0.01,-0.77 0.04,-1.19 0.04,-0.09 0,-0.13 -0.03,-0.1 -0.07,0.34 -0.1,0.69 -0.06,1.29l-0.04 -0.01c-0.05,-0.41 -0.04,-0.79 0,-1.16 0.05,-0.08 0.05,-0.15 -0.01,-0.13 -0.06,0.25 -0.09,0.68 -0.06,1.3l-0.03 0.01c-0.03,-0.46 -0.03,-0.87 0,-1.33l-0.03 -0.02c-0.06,0.35 -0.07,0.78 -0.02,1.34l-0.03 0c-0.07,-0.48 -0.07,-0.9 -0.02,-1.29l-0.03 0.05c-0.07,0.3 -0.04,0.71 -0.03,1.23l-0.02 0.02c-0.05,-0.4 -0.06,-0.82 0,-1.3l-0.03 -0.03c-0.08,0.32 -0.11,0.75 -0.05,1.35l-0.03 0.01c-0.07,-0.36 -0.07,-0.79 0.01,-1.34l-0.04 -0.01c-0.09,0.36 -0.1,0.76 -0.04,1.33l-0.03 0.03c-0.07,-0.4 -0.07,-0.83 0.03,-1.39l-0.05 0c-0.08,0.42 -0.12,0.85 -0.06,1.4l-0.02 0.02c-0.1,-0.35 -0.09,-0.77 0.01,-1.3l0 -0.07c-0.13,0.23 -0.19,0.66 -0.12,1.41 -0.1,-0.44 -0.09,-0.93 0.06,-1.48l-0.02 -0.05c-0.13,0.12 -0.22,0.85 -0.18,1.54 -0.07,-0.44 -0.03,-0.93 0.06,-1.45l-0.02 0.01zm1.19 0.3l0.05 -0.22c0.05,-0.03 0.07,-0.01 0.06,0.04l-0.09 0.19 -0.02 -0.01zm-0.07 -0.23c-0.05,0.36 -0.05,0.57 -0.09,0.95l0.03 0.07c0.01,-0.42 0.06,-0.69 0.12,-1.01 0.02,-0.06 -0.04,-0.07 -0.06,-0.01zm-0.11 -0.02l0.05 0.02c-0.06,0.31 -0.1,0.68 -0.1,1.09l-0.03 0c-0.02,-0.4 0,-0.76 0.08,-1.11zm-1.51 2.36c0,-0.11 0.01,-0.23 0.06,-0.36 0.01,-0.05 0.06,-0.08 0.15,-0.08l0.96 -0.15c0.06,-0.01 0.06,0.02 0.06,0.09 -0.02,0.09 -0.03,0.18 -0.08,0.25 -0.03,0.03 -0.04,-0.09 -0.03,-0.28 -0.08,0.17 -0.05,0.35 -0.16,0.38 -0.05,-0.08 0.03,-0.23 0.04,-0.34 -0.11,0.1 -0.07,0.22 -0.16,0.35 -0.04,0.01 -0.03,-0.11 -0.01,-0.31 -0.05,0.14 -0.1,0.26 -0.15,0.31 -0.03,-0.04 -0.03,-0.15 -0.02,-0.27 -0.04,0.19 -0.09,0.32 -0.14,0.34 -0.01,-0.11 0,-0.21 0.01,-0.31l-0.02 -0.02c-0.03,0.18 -0.06,0.29 -0.1,0.34 -0.04,-0.1 -0.04,-0.22 0.01,-0.33l-0.04 0c-0.03,0.09 -0.04,0.17 -0.09,0.2 -0.05,-0.01 -0.08,-0.07 -0.08,-0.18 -0.05,0.2 -0.13,0.31 -0.21,0.37z"/>
  <path class="fil2" d="M7.77 8.84c-0.06,0.04 -0.08,0.09 0.04,0.09 -0.08,0.07 -0.09,0.12 -0.02,0.14 -0.15,0.18 -0.15,0.23 -0.01,0.15 -0.16,0.21 -0.14,0.23 -0.03,0.2 -0.14,0.16 -0.12,0.19 -0.07,0.19 -0.1,0.13 -0.1,0.2 -0.01,0.19 -0.07,0.03 -0.12,0.09 -0.14,0.2 -0.02,0.12 -0.34,0.25 -0.08,0.36 0.08,0.04 0.15,0.15 0.2,0.34 0.02,0.1 0.06,0.1 0.15,0.07 0.07,-0.02 0.15,-0.03 0.22,-0.04 0.13,0.02 0.14,-0.13 -0.01,-0.16 0.02,-0.05 -0.04,-0.08 -0.12,-0.05 0.07,-0.1 -0.01,-0.08 -0.04,-0.09 0.04,-0.02 0.04,-0.07 -0.08,-0.01l-0.01 -0.03c0.06,-0.03 0.08,-0.06 0.09,-0.11l-0.19 0.07c0.05,-0.05 0.08,-0.09 0.08,-0.12l-0.14 0.03c0.14,-0.11 0.2,-0.18 0.19,-0.21l-0.15 0.04c0.11,-0.09 0.18,-0.16 0.18,-0.2l-0.13 0.05c0,-0.05 0.05,-0.09 0.16,-0.12 0.09,-0.04 0.13,-0.1 0.12,-0.18l-0.2 0.1c0.16,-0.15 0.29,-0.28 0.33,-0.37 -0.02,-0.05 -0.18,0.06 -0.39,0.24l0 -0.04c0.21,-0.14 0.36,-0.3 0.47,-0.48l-0.38 0.3 0.35 -0.41c-0.02,-0.05 -0.12,0 -0.32,0.21l0.01 -0.05 0.19 -0.19c0.13,-0.08 0.22,-0.18 0.28,-0.3 0.03,-0.1 -0.09,0.02 -0.28,0.19 -0.04,0.04 -0.09,0.06 -0.14,0.12l0.44 -0.47 0.01 -0.05c-0.05,-0.05 -0.33,0.28 -0.57,0.4zm-0.52 1.79l0.23 0.14c0.05,0.03 0.12,-0.05 0.05,-0.1l-0.21 -0.16c-0.06,-0.05 -0.15,0.06 -0.07,0.12zm0.09 -0.14c-0.08,-0.05 0.01,-0.15 0.06,-0.11l0.12 0.11c0.06,0.06 0.02,0.11 -0.04,0.08l-0.14 -0.08zm0.46 0.43c-0.06,-0.03 -0.09,0.01 -0.05,0.04 0.09,0.08 0.2,0.15 0.3,0.2 0.11,0.06 0.23,0.06 0.34,0.06 0.08,0 0.11,-0.05 0.01,-0.07 -0.19,-0.05 -0.37,-0.11 -0.6,-0.23zm0.06 -0.01c-0.04,-0.04 -0.03,-0.08 0.02,-0.11l0.26 -0.02c0.05,0 0.09,0.03 0.14,0.09l0.12 0.14c0.05,0.06 0.01,0.11 -0.04,0.1 -0.18,-0.05 -0.34,-0.12 -0.5,-0.2z"/>
  <path class="fil2" d="M8.12 10.23c0.04,-0.08 0.11,-0.14 0.2,-0.18 0.25,-0.03 0.49,-0.08 0.72,-0.17 0.08,-0.05 0.1,-0.04 0.1,0.04 -0.02,0.23 -0.05,0.42 -0.12,0.47l0 -0.39 -0.03 0.01c-0.02,0.2 -0.05,0.34 -0.1,0.4l0.02 -0.36 -0.04 0 -0.08 0.35 0.02 -0.31c0,-0.04 -0.01,-0.05 -0.03,-0.03 -0.05,0.36 -0.12,0.51 -0.19,0.57 0.07,-0.24 0.07,-0.4 0.06,-0.53l-0.03 -0.02c-0.02,0.19 -0.05,0.37 -0.11,0.51 -0.07,-0.11 0.06,-0.3 0.04,-0.48l-0.02 0 -0.13 0.45c-0.04,0 -0.03,-0.06 0.01,-0.17l0.02 -0.26 -0.02 0.02c-0.04,0.13 -0.07,0.24 -0.12,0.32l0.02 -0.33 -0.1 0.24 0.01 -0.2 -0.1 0.05zm1.07 -0.28c0.01,-0.08 0.09,-0.06 0.06,0.02l-0.05 0.11 -0.02 0 0.01 -0.13zm-0.02 0.3l0.01 0.05 -0.01 0.05 -0.02 -0.05 0.02 -0.05zm0.03 -0.11l0.02 0.03 -0.02 0.03 -0.03 -0.03 0.03 -0.03zm0 -0.44l0.04 0.06 -0.02 0.08 -0.03 -0.06 0.01 -0.08zm-0.11 -0.21l0 0 -0.05 0.02c0.05,0.09 0.04,0.16 0.05,0.23 0,0.05 0.05,0 0.06,-0.08 0.01,-0.05 0,-0.1 -0.06,-0.17zm-0.53 -0.13l-0.01 0.11c0.02,0.04 0.03,0.06 0.05,0.04l0.02 -0.12c0,-0.04 -0.05,-0.1 -0.06,-0.03zm-0.25 0.38l0.35 -0.08c0.06,-0.02 0.08,-0.05 0.07,-0.1l-0.03 -0.48c-0.03,-0.1 0.04,-0.06 0.06,-0.01 0.05,0 0.06,0.04 0.02,0.09 0.12,0.01 0.16,0.05 0.09,0.1l-0.1 0.02 0.13 0.02c0.06,0.02 0.04,0.06 0.01,0.07l-0.13 0.02 0.16 0.02c0.07,0 0.07,0.02 -0.02,0.07l-0.06 0.04 0.1 0.01c0.05,0 0.07,0.02 0.05,0.08 0.03,0.17 0,0.28 -0.15,0.28l-0.48 0.11 -0.03 -0.03 -0.01 -0.02 0.03 -0.03 0.02 0.03 0.08 -0.02 0 -0.14 -0.07 0.01 0 0.02 -0.03 0.05 -0.03 -0.05 0 0 -0.03 0c-0.06,-0.02 -0.06,-0.05 0,-0.08zm0.27 -0.19l0.04 0.03 -0.04 0.04 -0.03 -0.04 0.03 -0.03zm0.29 0.15l0.01 0.01 -0.01 0.03 -0.01 -0.03 0.01 -0.01zm-0.03 -0.09l0.06 0.01 -0.04 0.04 -0.06 -0.02 0.04 -0.03zm-0.33 0.31l0.01 0 0 -0.15 -0.03 0.02 0.02 0.13zm0.08 -0.03l0.03 0 0 -0.14 -0.06 0.01 0.03 0.13zm0.08 -0.02l0.03 -0.02 0 -0.11 -0.03 0 0 0.13zm0.07 -0.03l0.02 -0.01c0.05,-0.06 0.05,-0.09 -0.01,-0.1l-0.01 0 0 0.11z"/>
  <path class="fil2" d="M9.86 3.01c-0.6,-0.05 -0.89,0.15 -1.05,0.35 -0.14,0.17 -0.21,0.37 -0.22,0.58 0.01,0.04 0.08,-0.04 0.17,-0.16l-0.06 -0.02c0.02,-0.05 0.04,-0.08 0.07,-0.13l0.05 -0.08c0.04,-0.02 0.07,-0.06 0.07,-0.08l-0.05 0c0.17,-0.2 0.4,-0.25 0.66,-0.24 0.07,0 0.14,0.01 0.2,0.02l0.09 -0.02 0 -0.04c-0.23,-0.03 -0.46,-0.02 -0.69,0.03 0.17,-0.11 0.41,-0.11 0.74,-0.1 0.14,0.01 0.15,-0.09 0.02,-0.11zm-1.05 3.86l0 0c-0.03,-0.01 -0.06,0.03 -0.08,0.08 -0.01,0.04 0,0.09 0.02,0.1 0.03,0.01 0.06,-0.03 0.08,-0.07 0.01,-0.05 0,-0.1 -0.02,-0.11zm-0.52 0.21l0 0 -0.02 0.07c0,0.04 0.01,0.07 0.02,0.07 0.01,0 0.02,-0.03 0.02,-0.07l-0.02 -0.07zm0.05 0.25c0.02,-0.14 0.08,-0.26 0.2,-0.34 0.1,-0.07 0.12,-0.05 0.04,0.05 -0.07,0.1 -0.11,0.21 -0.17,0.31 -0.02,0.05 -0.09,0.1 -0.07,-0.02zm0.3 -0.55l0 0c0.09,-0.02 0.06,0.03 0.03,0.05 -0.07,0.06 -0.15,0.1 -0.22,0.18 -0.06,0.06 -0.08,0.05 -0.04,-0.03 0.05,-0.1 0.13,-0.16 0.23,-0.2zm-0.62 0.49c-0.05,0.06 -0.05,0.08 0.04,0.05 0.14,-0.21 0.23,-0.35 0.31,-0.39l0.25 -0.22c0.19,-0.04 0.29,-0.25 0.33,-0.59l-0.01 -0.04c-0.1,0.24 -0.21,0.41 -0.35,0.51 -0.13,0.09 -0.24,0.21 -0.34,0.34 -0.04,0.05 -0.04,0.1 -0.08,0.16 -0.04,0.05 -0.12,0.11 -0.15,0.18zm-0.06 -0.16l0 0c0.14,-0.28 0.35,-0.46 0.55,-0.62 0.17,-0.13 0.28,-0.37 0.37,-0.63 0.05,-0.1 0.11,-0.05 0.06,0.12 -0.1,0.3 -0.33,0.52 -0.49,0.64 -0.17,0.15 -0.29,0.31 -0.45,0.54 -0.05,0.06 -0.08,0.03 -0.04,-0.05zm-0.02 -0.23c-0.04,0.06 -0.05,0.11 -0.02,0.15 0.14,-0.05 0.1,-0.27 0.44,-0.44 0.04,-0.06 0.03,-0.08 -0.05,-0.06l-0.31 0.23c0.1,-0.17 0.21,-0.31 0.37,-0.35 0.1,-0.01 0.2,-0.05 0.28,-0.15 0.04,-0.08 0.02,-0.1 -0.03,-0.06 -0.2,0.13 -0.36,0.18 -0.52,0.29 -0.13,0.12 -0.23,0.26 -0.26,0.43l0.1 -0.04zm-0.02 -0.42c0.05,-0.13 0.21,-0.21 0.44,-0.28 0.15,-0.05 0.27,-0.16 0.38,-0.29 0.12,-0.07 0.09,0 0.06,0.08 -0.05,0.07 -0.07,0.09 -0.15,0.13 -0.08,0.07 -0.21,0.14 -0.31,0.18 -0.13,0.05 -0.24,0.12 -0.35,0.25 -0.07,0.05 -0.1,0.03 -0.07,-0.07zm0.34 -0.42c0.1,-0.06 0.2,-0.13 0.27,-0.23 0.1,-0.15 0.14,-0.15 0.12,0 -0.03,0.12 -0.12,0.25 -0.3,0.31 -0.15,0.06 -0.2,-0.01 -0.09,-0.08l0 0zm0.45 -0.33l0 0c-0.03,0.15 0,0.16 0.09,0.05 0.06,-0.05 0.08,-0.21 0.09,-0.4 0.05,-0.02 0.05,-0.07 0.06,-0.12 0.03,-0.05 0.05,-0.09 0.01,-0.11l0.05 -0.14c0,-0.11 -0.04,-0.12 -0.06,-0.03l-0.08 0.22c-0.06,0.08 -0.1,0.17 -0.11,0.27l-0.05 0.26zm-0.35 -0.03l0 0c-0.02,0.05 -0.01,0.1 0.04,0.03l0.17 -0.24 -0.13 0.28c-0.03,0.04 0.02,0.04 0.05,0.01 0.13,-0.16 0.19,-0.29 0.21,-0.44l0.12 -0.19c0.02,-0.04 0,-0.1 -0.04,-0.05l-0.16 0.15c-0.06,0.01 -0.11,0.06 -0.14,0.16l-0.12 0.29zm-0.2 0.11c-0.06,0.17 0.12,0.2 0.12,0.05 0,-0.18 0.05,-0.28 0.08,-0.35 0.05,-0.09 0.03,-0.1 -0.05,-0.02 -0.06,0.06 -0.08,0.15 -0.15,0.32zm-0.01 -0.23c0,0.06 0.01,0.04 0.04,0l0.07 -0.18c0.07,-0.06 0.17,-0.14 0.26,-0.25 0.05,0.06 0.13,0.01 0.25,-0.16 0.15,-0.07 0.22,-0.19 0.27,-0.33 0.03,-0.13 0.01,-0.15 -0.07,-0.07 -0.11,0.15 -0.2,0.21 -0.24,0.32 -0.14,0.04 -0.25,0.19 -0.41,0.27 -0.04,0.03 -0.06,0.07 -0.06,0.13 -0.06,0.04 -0.11,0.11 -0.11,0.27zm0.01 -0.35l0 0 -0.01 0.06 0.06 -0.02 0.01 -0.06 -0.06 0.02zm0.8 -1.24c0.1,-0.12 0.23,-0.21 0.34,-0.26 0.14,-0.06 0.13,0.05 0.04,0.05 -0.07,0 -0.17,0.07 -0.34,0.28 -0.04,0.05 -0.09,0 -0.04,-0.07zm-0.95 1.48c-0.02,-0.26 0.04,-0.42 0.16,-0.5 0.33,-0.2 0.45,-0.5 0.56,-0.49 0.1,-0.19 0.27,-0.39 0.47,-0.57 0.14,-0.1 0.17,-0.08 0.09,0.08 -0.21,0.3 -0.42,0.65 -0.61,0.75 -0.08,0.01 -0.15,0.06 -0.2,0.14l0.13 -0.07c0.06,0 0.07,0.02 0.03,0.06 -0.11,0.06 -0.29,0.34 -0.33,0.16 -0.08,0.14 -0.2,0.12 -0.21,0.25l-0.01 0.19c-0.03,0.05 -0.05,0.05 -0.08,0zm1.29 -1.9c0.06,0.01 0.09,0.03 0.04,0.09 -0.16,0.06 -0.31,0.19 -0.46,0.36 0.02,0.07 -0.01,0.12 -0.08,0.17 0,0.11 -0.07,0.16 -0.18,0.17l-0.15 0.2c0.03,0.05 -0.03,0.13 -0.14,0.25 -0.07,0.08 -0.1,0.06 -0.09,-0.07 0.09,-0.24 0.25,-0.59 0.33,-0.59 0.05,0 0.05,-0.01 0.06,-0.09 0.01,-0.06 0.07,-0.05 0.05,0 -0.01,0.05 0.01,0.06 0.05,0.02 0.18,-0.3 0.37,-0.45 0.57,-0.51zm-0.49 0.08l0 0c-0.02,0.05 -0.01,0.07 0.01,0.05 0.18,-0.16 0.3,-0.21 0.4,-0.18l0 0.01c-0.18,0.01 -0.36,0.15 -0.5,0.41 -0.02,0.05 -0.02,0.07 0.03,0.04 0.11,-0.18 0.24,-0.31 0.39,-0.39 0.07,-0.04 0.16,-0.05 0.24,-0.07 0.06,-0.01 0.13,-0.04 0.2,-0.03 0.08,0 0.09,-0.08 0.01,-0.09 -0.42,-0.01 -0.65,0.09 -0.78,0.25zm0.16 -0.23c0.16,-0.1 0.34,-0.16 0.55,-0.13 0.13,0.02 0.13,0.1 0.06,0.09 -0.2,-0.03 -0.4,-0.02 -0.59,0.07 -0.08,0.04 -0.06,0 -0.02,-0.03z"/>
  <path class="fil2" d="M9.98 2.81c-0.06,-0.07 -0.02,-0.1 0.07,-0.1 0.22,0.05 0.42,0.08 0.54,0.18 0.07,0.05 0.01,0.1 -0.04,0.06l-0.15 -0.08c0.01,0.07 -0.05,0.04 -0.14,-0.03 -0.05,0.06 -0.13,0.03 -0.21,-0.06l0.06 0.14 -0.04 0.01 -0.09 -0.12zm0.31 0.11l0.02 0.1c0.03,0.03 0.07,0.01 0.05,-0.03 0,-0.04 -0.05,-0.09 -0.07,-0.07z"/>
  <path class="fil2" d="M10.75 3.11c-0.02,-0.02 -0.07,-0.04 -0.01,-0.06 -0.07,-0.04 -0.04,-0.1 0.01,-0.1 0.19,-0.01 0.34,-0.12 0.57,0l0.1 0.12c0.06,0.15 0.01,0.22 -0.08,0.11 -0.04,-0.06 -0.01,-0.12 -0.11,-0.17 0.05,0.11 0.1,0.22 0.1,0.34 0.16,0.16 0.01,0.2 -0.03,0.09l-0.07 -0.29c0.02,0.14 0.02,0.25 0,0.25 -0.05,0 -0.02,-0.1 -0.04,-0.22 -0.02,-0.05 -0.03,-0.15 -0.06,-0.15 -0.12,-0.05 -0.24,-0.01 -0.33,0 0.16,-0.01 0.27,0 0.3,0.04 0.05,0.07 0.06,0.15 0.04,0.22 -0.04,0.06 -0.06,0.05 -0.06,-0.03l-0.02 -0.09c-0.01,-0.05 -0.07,-0.06 -0.15,-0.05 -0.05,0.01 -0.1,0.02 -0.16,-0.01z"/>
  <path class="fil2" d="M8.74 8.5c0.23,0.38 0.5,0.75 0.8,1.1 0.04,0.04 0.01,-0.09 0.04,-0.04 0.06,0.14 0.16,0.27 0.21,0.31 0.04,-0.03 -0.1,-0.16 -0.12,-0.3l0.41 0.48c0.04,-0.07 -0.2,-0.35 -0.39,-0.6l0.03 -0.02 0.46 0.61 0.03 -0.01c-0.08,-0.2 -0.29,-0.45 -0.44,-0.67l0.02 -0.05c0.08,0.11 0.2,0.27 0.29,0.41 0.14,0.2 0.26,0.37 0.3,0.38 0.17,0.05 -0.41,-0.57 -0.68,-1.08l0.01 -0.03c0.32,0.49 0.6,0.93 0.91,1.13 0.03,0.02 0.06,-0.02 0.03,-0.07 -0.29,-0.33 -0.62,-0.69 -0.82,-1.01l0.01 -0.03c0.31,0.36 0.47,0.77 1.05,1.12l0.09 0.02c0.13,-0.1 -0.5,-0.25 -0.98,-1.06l0 -0.06c0.18,0.24 0.21,0.32 0.38,0.49 0.23,0.25 0.59,0.55 0.65,0.5 0.06,-0.05 -0.52,-0.44 -0.83,-0.93l0.01 -0.01c0.25,0.34 0.6,0.75 1.1,1.01 0.07,0.04 0.05,0.03 0.13,0.03 0.23,0.01 -0.5,-0.36 -0.87,-0.77l0 -0.03c0.11,0.09 0.25,0.21 0.4,0.34 0.18,0.13 0.37,0.24 0.52,0.33 0.14,0.07 0.25,0.11 0.3,0.09 0.13,-0.06 -0.5,-0.29 -0.66,-0.45 0.1,0.05 0.19,0.08 0.27,0.12 0.27,0.14 0.47,0.23 0.51,0.18 0.03,-0.04 -0.11,-0.11 -0.37,-0.21 -0.03,-0.03 0,-0.04 0.07,-0.02 0.29,0.12 0.45,0.19 0.49,0.17 0.09,-0.03 -0.06,-0.09 -0.23,-0.2 0.21,0.09 0.4,0.18 0.5,0.15 0.04,0 -0.12,-0.09 -0.26,-0.21 0.2,0.12 0.66,0.28 0.22,-0.03l0.03 -0.01c0.17,0.12 0.37,0.17 0.12,-0.03l0.04 0c0.14,0.12 0.22,0.2 0.11,-0.03 0.15,0.2 0.29,0.28 0.1,-0.02l0.22 0.17c-0.08,0.04 -0.07,0.06 0,0.1 0.19,0.13 0.2,0.11 0.17,0 0.02,-0.19 -0.05,-0.32 -0.18,-0.4 -0.15,-0.09 -0.14,0.01 0.03,0.27 -0.07,-0.05 -0.12,-0.1 -0.16,-0.16 -0.03,-0.06 -0.09,-0.1 -0.16,-0.1 -0.34,0.01 -0.67,0.08 -0.99,0.12 -0.25,0.04 -0.43,0 -0.52,-0.06 -0.09,-0.07 -0.12,-0.1 -0.07,-0.18 0.02,-0.06 0,-0.11 -0.05,-0.14l-0.23 -0.46c0.03,0.05 0.07,0.07 0.1,0.12 0.09,0.15 0.15,0.27 0.18,0.27 -0.04,-0.11 -0.16,-0.33 -0.26,-0.58 0.18,0.32 0.34,0.59 0.39,0.55 -0.03,-0.12 -0.17,-0.36 -0.31,-0.6 0.04,0.04 0.05,0.05 0.08,0.09 0.06,0.07 0.11,0.14 0.14,0.12 -0.12,-0.24 -0.24,-0.39 -0.37,-0.43 -0.2,-0.07 -0.32,-0.1 -0.3,0.03l-0.1 -0.12 -0.1 -0.01c-0.04,0.01 0.01,0.07 0.08,0.19l-0.02 0.02 -0.12 -0.2c-0.04,-0.02 -0.09,-0.04 -0.1,0l0.07 0.13 -0.14 -0.15c-0.06,-0.03 -0.14,-0.05 -0.14,-0.02l0.21 0.33c-0.04,-0.05 -0.1,-0.1 -0.15,-0.17 -0.08,-0.11 -0.14,-0.19 -0.24,-0.2 -0.09,-0.01 0.1,0.14 0.23,0.45l-0.31 -0.45c-0.03,-0.02 -0.15,-0.04 -0.16,0l0.36 0.52c-0.17,-0.18 -0.33,-0.34 -0.43,-0.52l-0.06 -0.02 -0.05 0.01 0.45 0.57c-0.09,-0.08 -0.18,-0.17 -0.24,-0.25 -0.1,-0.13 -0.18,-0.21 -0.26,-0.33l-0.09 0c-0.04,0.05 0.33,0.42 0.49,0.65 -0.22,-0.21 -0.4,-0.42 -0.56,-0.65 -0.07,-0.04 -0.12,-0.04 -0.14,0 -0.02,0.04 0.45,0.49 0.63,0.77 -0.25,-0.26 -0.49,-0.51 -0.68,-0.77l-0.12 0c0,0.07 0.41,0.44 0.73,0.88 -0.23,-0.26 -0.52,-0.6 -0.65,-0.68 -0.05,0 0.15,0.25 0.61,0.78 -0.23,-0.21 -0.44,-0.44 -0.63,-0.67 -0.06,0.05 0.19,0.36 0.56,0.77l-0.58 -0.61c-0.08,-0.05 -0.09,-0.04 -0.05,0.03zm2.46 -0.14l0 0c0.12,0.18 0.23,0.35 0.33,0.56 0.03,0.08 0.08,0.06 0.05,-0.03 -0.08,-0.19 -0.19,-0.35 -0.3,-0.55 -0.06,-0.09 -0.13,-0.05 -0.08,0.02zm-0.23 -0.07c-0.03,-0.06 0.06,-0.09 0.13,0.01 0.17,0.23 0.31,0.46 0.43,0.7 0.06,0.14 0,0.18 -0.07,0.05 -0.13,-0.28 -0.31,-0.53 -0.49,-0.76z"/>
  <path class="fil2" d="M9.94 3.41c-0.01,0.13 0.06,0.29 0.2,0.4 0,-0.02 -0.06,-0.12 -0.11,-0.21 -0.04,-0.1 -0.06,-0.18 -0.09,-0.19zm0.45 4.51c-0.02,-0.21 -0.13,-0.37 -0.36,-0.54 0,0.05 0.15,0.17 0.23,0.33 0.09,0.14 0.09,0.18 0.13,0.21zm-0.01 -0.22l0 0c-0.02,-0.17 -0.14,-0.36 -0.33,-0.5 0.01,0.04 0.13,0.16 0.21,0.28 0.07,0.12 0.09,0.2 0.12,0.22zm-0.03 -0.28l0 0c-0.01,-0.13 -0.1,-0.28 -0.25,-0.38 0.01,0.03 0.1,0.12 0.16,0.22 0.05,0.09 0.07,0.14 0.09,0.16zm-0.03 -0.28c0,-0.09 -0.07,-0.19 -0.17,-0.25 0.01,0.02 0.06,0.08 0.11,0.14 0.03,0.06 0.05,0.1 0.06,0.11zm-0.11 -3.96c-0.03,0.13 0,0.3 0.12,0.45 0.01,-0.03 -0.04,-0.14 -0.07,-0.24 -0.02,-0.1 -0.02,-0.19 -0.05,-0.21l0 0zm-1.27 4.66c-0.11,0 -0.13,-0.02 -0.14,-0.13 0.05,0.05 0.09,0.08 0.14,0.13zm-0.15 -0.19c0.07,0.07 0.15,0.11 0.22,0.19l0.11 -0.01c-0.12,-0.12 -0.23,-0.2 -0.35,-0.32 0.01,0.04 0.01,0.1 0.02,0.14zm-0.03 -0.2c0.15,0.15 0.27,0.24 0.41,0.39 0.04,0.02 0.07,0.02 0.09,0 -0.17,-0.21 -0.32,-0.37 -0.48,-0.58 -0.02,0.06 -0.02,0.13 -0.02,0.19zm0.03 -0.23c0.19,0.21 0.37,0.4 0.56,0.64 0.06,0.03 0.11,0.03 0.13,0.01 -0.19,-0.25 -0.43,-0.52 -0.65,-0.78l-0.03 0.09 -0.01 0.04zm0.05 -0.19c0.25,0.29 0.47,0.54 0.73,0.85l0.1 0.01 -0.23 -0.28c-0.21,-0.26 -0.33,-0.39 -0.57,-0.68l-0.03 0.1zm0.04 -0.15c0.26,0.29 0.36,0.42 0.64,0.75 0.03,0.05 0.18,0.2 0.21,0.24 0.04,0.07 0.16,0.07 0.1,0.02 -0.05,-0.06 0,-0.02 -0.07,-0.11 -0.23,-0.28 -0.62,-0.75 -0.85,-1.03 0,0.05 -0.02,0.09 -0.03,0.13zm0.04 -0.17l0 0c0.27,0.3 0.6,0.71 0.9,1.06 0.07,0.09 0.06,0.08 0.13,0.15 0.05,0.02 0.08,0.03 0.08,0 -0.08,-0.08 -0.07,-0.08 -0.2,-0.24 -0.24,-0.3 -0.67,-0.81 -0.89,-1.09 0,0.04 -0.01,0.08 -0.02,0.12zm0.02 -0.15c0.02,-0.05 0.02,-0.11 0.02,-0.16 0.24,0.36 0.57,0.74 0.94,1.08 -0.03,-0.14 -0.5,-0.54 -0.78,-0.92 -0.06,-0.1 -0.11,-0.19 -0.14,-0.27 0.01,-0.04 0.01,-0.08 0.01,-0.13 0.2,0.4 0.51,0.77 0.94,1.14 -0.05,-0.13 -0.5,-0.49 -0.73,-0.87 -0.09,-0.15 -0.16,-0.28 -0.19,-0.38l0 -0.06c0.19,0.39 0.53,0.79 0.94,1.14 -0.05,-0.13 -0.51,-0.51 -0.73,-0.88 -0.1,-0.15 -0.16,-0.28 -0.2,-0.38l0 -0.07c0.19,0.37 0.61,0.88 0.99,1.21 -0.04,-0.12 -0.56,-0.58 -0.78,-0.93 -0.09,-0.17 -0.16,-0.3 -0.19,-0.4l0 -0.1c0.16,0.38 0.56,0.88 0.96,1.2 -0.05,-0.12 -0.54,-0.53 -0.75,-0.87 -0.11,-0.18 -0.16,-0.32 -0.2,-0.42l0.01 -0.11c0.14,0.38 0.52,0.85 0.92,1.16 -0.04,-0.11 -0.5,-0.49 -0.69,-0.81 -0.12,-0.2 -0.18,-0.34 -0.23,-0.44 0,-0.05 0,-0.08 0.01,-0.13 0.12,0.38 0.48,0.83 0.88,1.15 -0.03,-0.11 -0.46,-0.45 -0.65,-0.75 -0.13,-0.23 -0.18,-0.38 -0.22,-0.48l0 -0.02c0.01,-0.05 0.01,-0.1 0.01,-0.14 0.08,0.37 0.43,0.86 0.84,1.19 -0.03,-0.09 -0.42,-0.43 -0.59,-0.71 -0.16,-0.27 -0.2,-0.43 -0.25,-0.52 0.13,-1.04 0.57,-1.65 1.21,-1.76l0.01 0.01c-0.02,0.12 0,0.27 0.08,0.42 0.01,-0.03 -0.03,-0.18 -0.03,-0.3 0,-0.04 0,-0.08 0,-0.11l0.06 0.02c0,0.14 0.05,0.28 0.12,0.29 -0.05,-0.08 -0.06,-0.18 -0.06,-0.27l0.08 0.03c0,0.15 0.05,0.31 0.12,0.32 -0.06,-0.09 -0.06,-0.2 -0.05,-0.3l0.01 0.01c0.01,0.06 0.04,0.12 0.06,0.15 0.03,-0.04 0.02,-0.11 0,-0.19 0.08,-0.04 0.17,-0.04 0.27,0.03 0.04,0.04 0.02,0.06 -0.03,0.06l-0.05 0 0.12 0.05c0.01,0.02 0.03,0.03 -0.04,0.04l-0.04 0.04 0.15 0.01c0.05,0.02 0.04,0.04 0.03,0.06l-0.04 0.04c0.13,0 0.27,0.03 0.44,0.12 -0.01,0.05 -0.08,0.05 -0.2,-0.02 0.03,0.07 0.15,0.08 0.14,0.13 -0.02,0.07 -0.19,0 -0.27,0.1l0.2 0.01c0.04,0.03 0.03,0.05 -0.04,0.05 0.1,0.12 0.18,0.16 0.21,0.07 0.03,-0.06 0.06,-0.06 0.09,0 0.12,0.08 0.14,0.08 0.07,0.1l-0.12 0.02 0.14 0.02 0.02 0.07c-0.1,0.01 -0.11,0.02 0.07,0.03 0.07,0.04 0.1,0.07 0.07,0.1 -0.15,0.01 -0.14,0.03 0.04,0.05 0.04,0.02 0.05,0.05 0.05,0.07 -0.1,0.02 -0.08,0.04 0.03,0.04l0.01 0.06c-0.11,0.03 -0.09,0.04 0.04,0.04 0.01,0.05 0.09,0.05 0.12,0.11 0.11,-0.02 0.16,0.06 0.06,0.06l0 0.02c0.16,0.01 0.23,0.05 0.21,0.15 -0.01,0.05 -0.24,-0.08 -0.14,0.26l0.03 0.04c0.07,0.01 0,-0.16 0.11,-0.15 0.01,0.01 0.02,0.06 0,0.15 -0.02,0.08 -0.07,0.11 -0.15,0.06 -0.07,-0.05 -0.11,-0.1 -0.11,-0.15l0.01 -0.11c-0.08,0 -0.09,-0.05 -0.1,-0.13l-0.02 -0.03c-0.13,-0.02 -0.19,0.03 -0.23,0.12l-0.05 -0.03 -0.07 -0.01 -0.04 -0.04 -0.04 0.02c-0.02,-0.01 -0.01,-0.06 -0.06,-0.01 -0.03,0.03 -0.03,0.03 -0.04,-0.02 0.01,-0.03 0.04,-0.11 -0.04,0l-0.05 -0.03c-0.05,-0.12 -0.08,-0.12 -0.09,-0.02 -0.02,0.05 -0.04,0.05 -0.04,-0.01 -0.05,-0.19 -0.05,-0.19 -0.04,-0.01 -0.01,0.08 -0.03,0.07 -0.07,-0.02 -0.05,-0.15 -0.07,0.01 -0.11,-0.06 -0.05,-0.08 -0.02,-0.21 -0.1,-0.24l0.05 0.25c0,0.03 -0.06,0.04 -0.07,-0.01 -0.03,-0.17 -0.13,-0.46 -0.11,-0.37l0.06 0.35c0.01,0.03 -0.07,0.02 -0.08,-0.03l-0.09 -0.43c-0.02,-0.12 -0.02,0.23 0.03,0.38l-0.05 -0.01 -0.09 -0.42c-0.05,0.05 0.09,0.46 -0.02,0.39l-0.07 -0.42 -0.01 0.39c-0.12,-0.15 0.01,-0.54 -0.07,-0.56l-0.07 0.47c0.05,0.36 0.35,0.38 0.33,0.49l-0.21 -0.11c0.06,0.11 0.14,0.22 0.2,0.34 -0.06,0.03 0.01,0.11 0.05,0.16 -0.06,-0.01 -0.05,0.03 0.07,0.15l0.03 0.06c-0.15,-0.03 -0.16,-0.03 0.08,0.16 -0.15,-0.02 -0.16,-0.01 0.02,0.11 0.03,0.02 0.06,0.06 0.07,0.11l-0.04 0.01 -0.08 -0.05c-0.05,-0.01 -0.02,0.05 0.18,0.2 0.05,0.05 0.08,0.08 0.04,0.1 -0.25,-0.15 -0.23,-0.12 0.04,0.11 0.06,0.1 0.07,0.15 0.05,0.16 -0.22,-0.18 -0.36,-0.29 0.01,0.08 0.07,0.07 0.08,0.11 0.03,0.12 -0.38,-0.28 -0.17,-0.1 0.08,0.16l-0.01 0.03c-0.37,-0.26 -0.38,-0.2 0,0.2l0.02 0.09 -0.05 -0.01c-0.26,-0.24 -0.24,-0.19 0.06,0.21 0.04,0.07 0.07,0.13 -0.01,0.09 -0.32,-0.37 -0.42,-0.45 0,0.12 0.04,0.07 0.05,0.1 -0.01,0.08 -0.3,-0.4 -0.3,-0.35 -0.01,0.08 0.02,0.05 0.02,0.06 0,0.05 -0.27,-0.32 -0.35,-0.4 -0.02,0.08 0.04,0.08 0.04,0.1 -0.01,0.05 -0.32,-0.4 -0.33,-0.35 -0.01,0.07 0.03,0.05 0.04,0.08 -0.01,0.06 -0.37,-0.43 -0.37,-0.42 -0.01,0.05 0,0.11 0,0.1 -0.07,0.05 -0.03,-0.05 -0.03,-0.08 -0.07,-0.12 -0.23,-0.28 -0.26,-0.26 0.01,0.1 -0.02,0.03 -0.06,0.03 -0.1,0 -0.24,-0.32 -0.26,-0.32 -0.08,-0.02l-0.13 -0.02c-0.02,-0.04 -0.04,-0.07 -0.07,-0.09 -0.22,-0.22 -0.3,-0.24 -0.08,0.04l-0.01 0.02 -0.25 -0.04 -0.09 -0.05c-0.11,-0.19 -0.18,-0.26 -0.36,-0.44 0.02,0.07 0.16,0.18 0.26,0.36 0.03,0.12 -0.1,0.07 -0.14,0.05 -0.08,-0.11 -0.11,-0.13 -0.22,-0.26 -0.33,-0.39 -0.68,-0.82 -0.96,-1.12zm0.88 -3.04l0 0c-0.01,0.16 0.08,0.34 0.26,0.48 -0.01,-0.04 -0.1,-0.14 -0.16,-0.26 -0.05,-0.11 -0.08,-0.2 -0.1,-0.22zm-0.11 0.12c0,0.18 0.11,0.4 0.3,0.56 0,-0.05 -0.11,-0.18 -0.19,-0.31 -0.06,-0.13 -0.08,-0.22 -0.11,-0.25zm-0.1 0.13l0 0c0,0.2 0.13,0.45 0.36,0.62 -0.01,-0.04 -0.15,-0.19 -0.23,-0.34 -0.08,-0.14 -0.1,-0.25 -0.13,-0.28zm-0.09 0.13c0.01,0.22 0.17,0.5 0.41,0.69 -0.01,-0.05 -0.17,-0.21 -0.26,-0.38 -0.09,-0.16 -0.11,-0.27 -0.15,-0.31zm-0.08 0.14l0 0c0.04,0.03 0.07,0.16 0.17,0.34 0.1,0.18 0.29,0.37 0.3,0.42 -0.28,-0.22 -0.45,-0.52 -0.47,-0.76zm-0.07 0.13l0 0c0.04,0.05 0.06,0.18 0.18,0.37 0.11,0.21 0.32,0.4 0.34,0.47 -0.3,-0.24 -0.5,-0.57 -0.52,-0.84zm-0.07 0.14l0 0c0.05,0.05 0.08,0.19 0.19,0.4 0.13,0.21 0.37,0.43 0.38,0.5 -0.32,-0.26 -0.54,-0.6 -0.57,-0.9zm-0.06 0.14l0 0c0.05,0.06 0.08,0.2 0.21,0.43 0.14,0.23 0.39,0.46 0.42,0.54 -0.36,-0.28 -0.6,-0.65 -0.63,-0.97zm-0.05 0.14l0 0c0.05,0.06 0.07,0.21 0.21,0.46 0.16,0.25 0.44,0.5 0.47,0.59 -0.39,-0.3 -0.65,-0.71 -0.68,-1.05zm-0.06 0.14c0.05,0.36 0.35,0.82 0.76,1.15 -0.03,-0.1 -0.36,-0.39 -0.52,-0.66 -0.15,-0.27 -0.18,-0.42 -0.24,-0.49zm0.95 -1.42c0.03,0.01 0.05,0.08 0.08,0.16 0.03,0.08 0.08,0.16 0.08,0.18 -0.12,-0.1 -0.17,-0.23 -0.16,-0.34zm1.89 1.9c-0.08,-0.07 -0.13,0.02 -0.02,0.12 0.09,0.09 0.19,0.06 0.16,0.03l-0.14 -0.15zm-0.59 -0.89l0 0 0.03 0.05c0.01,0.06 0.04,0.14 0.07,0.22l-0.04 -0.03c-0.03,-0.04 -0.04,-0.07 -0.04,-0.11 -0.01,-0.04 -0.03,-0.13 -0.02,-0.13zm-0.1 -0.11c-0.01,0 0.01,0.1 0.01,0.15 0,0.05 0.01,0.09 0.04,0.13l0.04 0.04c-0.03,-0.1 -0.06,-0.18 -0.06,-0.26l-0.03 -0.06zm-0.11 -0.11l0 0c0.03,0.01 0.03,0.02 0.03,0.07 0,0.09 0.04,0.18 0.06,0.29 0.01,0.03 -0.01,0.01 -0.03,-0.03 -0.04,-0.05 -0.05,-0.1 -0.05,-0.16 0,-0.06 -0.02,-0.18 -0.01,-0.17zm-0.1 -0.11c-0.01,-0.01 0,0.13 0,0.19 0,0.07 0.01,0.12 0.04,0.18 0.04,0.05 0.05,0.07 0.04,0.05 -0.02,-0.13 -0.05,-0.24 -0.05,-0.34 0,-0.06 -0.01,-0.07 -0.03,-0.08zm-0.1 -0.11c-0.01,-0.01 0,0.14 -0.01,0.21 0,0.08 0.01,0.13 0.04,0.2 0.03,0.06 0.05,0.08 0.04,0.06 -0.02,-0.15 -0.05,-0.27 -0.04,-0.39 0,-0.05 -0.01,-0.07 -0.03,-0.08zm-0.11 -0.11c-0.01,-0.01 0,0.15 0,0.24 -0.01,0.07 0,0.14 0.03,0.21 0.03,0.08 0.05,0.09 0.05,0.07 -0.03,-0.16 -0.05,-0.3 -0.05,-0.43 0.01,-0.05 0,-0.08 -0.03,-0.09zm-0.09 0.01c-0.01,-0.02 -0.01,0.12 -0.01,0.18 -0.01,0.07 0,0.13 0.02,0.19 0.03,0.05 0.04,0.07 0.04,0.05 -0.01,-0.13 -0.04,-0.24 -0.03,-0.34 0.01,-0.05 -0.01,-0.07 -0.02,-0.08zm-0.08 0c-0.01,-0.01 -0.01,0.1 -0.02,0.15 -0.01,0.04 -0.01,0.08 0.01,0.14 0.02,0.05 0.03,0.05 0.03,0.04 -0.01,-0.1 -0.02,-0.19 -0.01,-0.27l-0.01 -0.06z"/>
  <path class="fil3" d="M3.24 1.18c0.22,0.26 0.42,0.52 0.65,0.82 0,0.05 -0.02,0.08 -0.08,0.08 -0.23,-0.34 -0.42,-0.61 -0.6,-0.87 -0.03,-0.05 0.01,-0.06 0.03,-0.03zm1.09 1.85c0.03,0.06 -0.02,0.09 -0.06,0.03 -0.09,-0.11 -0.07,-0.24 0.03,-0.37 0.11,-0.13 0.24,-0.13 0.37,-0.03 0.07,0.05 0.05,0.06 -0.04,0.06 -0.25,0 -0.34,0.13 -0.3,0.31zm0.26 -0.11c-0.1,-0.04 -0.13,0 -0.11,0.11 1.44,2.04 3.63,5.02 6.21,8.53l-0.01 0.05 0.21 0.12 -0.07 -0.29 -0.04 0.03c-1.99,-2.77 -4.29,-6.04 -6.19,-8.55z"/>
  <path class="fil4" d="M8.09 3.45c0,-0.05 0.19,-0.18 0.43,-0.34 0.11,-0.09 0.21,-0.12 0.31,-0.12 0.03,0.01 0.07,0.01 0.13,0.01 0.05,0.03 0.03,0.06 -0.03,0.08l-0.09 -0.02c-0.06,0.02 -0.07,0.06 -0.11,0.07l-0.03 -0.04c-0.09,0.06 -0.15,0.22 -0.21,0.3l-0.02 -0.08c-0.04,0.01 -0.07,0.1 -0.13,0.15 0,-0.06 -0.01,-0.09 -0.03,-0.09 -0.11,0.07 -0.19,0.11 -0.22,0.08zm-2.87 3.79c0.07,0 0.12,0.02 0.12,0.04 0,0.03 -0.05,0.05 -0.12,0.05 -0.07,0 -0.13,-0.02 -0.13,-0.05 0,-0.02 0.06,-0.04 0.13,-0.04zm0.49 -0.1c0.05,-0.07 0.1,-0.1 0.11,-0.08 0.02,0.02 -0.01,0.08 -0.04,0.14 -0.04,0.07 -0.1,0.1 -0.11,0.08 -0.01,-0.01 0.01,-0.08 0.04,-0.14l0 0zm-0.16 0.08c0.03,-0.05 0.07,-0.08 0.08,-0.06 0.02,0.01 0,0.06 -0.03,0.11 -0.03,0.05 -0.07,0.08 -0.08,0.07 -0.02,-0.02 0,-0.07 0.03,-0.12zm-0.14 0.03c0.03,-0.04 0.06,-0.06 0.07,-0.06 0.01,0.02 0,0.06 -0.03,0.1l-0.07 0.06 0.03 -0.1zm-2.41 -0.51l-0.02 0.08 0.1 -0.07 -0.03 0.13c0.04,0.01 0.14,-0.1 0.21,-0.15l-0.05 0.13c0.07,0 0.11,-0.09 0.16,-0.14l-0.03 0.13c0.08,0 0.13,-0.1 0.2,-0.16l-0.02 0.13c0.06,-0.01 0.11,-0.09 0.16,-0.14l0.03 0.09c0.05,0.01 0.08,-0.06 0.13,-0.09l0.02 0.09 0.11 -0.11 0.02 0.09 0.12 -0.04 0.04 0.05 0.1 -0.05 -0.01 0.11 0.14 -0.06 0.01 0.07 0.1 -0.06 0 0.1 0.12 -0.03 0.01 0.09 0.17 -0.08 -0.06 0.13 0.15 -0.09 -0.02 0.1 0.17 -0.07 -0.1 0.15c0.11,0.01 0.15,-0.07 0.22,-0.11l-0.05 0.14c0.11,-0.02 0.2,-0.11 0.3,-0.22 0.02,0.03 0,0.09 -0.08,0.21 0.12,-0.05 0.18,-0.13 0.22,-0.21l-0.04 0.15c0.08,-0.01 0.15,-0.07 0.21,-0.17l0 0.15c0.05,-0.05 0.1,-0.11 0.13,-0.18 0.07,0.03 0.15,-0.01 0.18,-0.13 0.04,-0.11 0.01,-0.14 -0.08,-0.11 -0.31,0.22 -0.72,0.28 -1.33,0.1 -0.39,-0.11 -0.8,-0.13 -1.2,-0.14 -0.18,-0.01 -0.33,0.02 -0.41,0.19zm0.92 -1.55c0.03,-0.05 0.09,-0.1 0.16,-0.14l0.02 0.06 0.17 -0.05 0.01 0.05 0.19 -0.1c-0.11,0.14 -0.13,0.2 -0.09,0.2 0.03,0 0.16,-0.16 0.21,-0.12 -0.1,0.15 -0.01,0.1 0.15,-0.03 0.04,0.02 -0.06,0.12 -0.04,0.13 0.01,0.02 0.07,-0.03 0.18,-0.11l0.11 -0.05c0.01,0.04 -0.04,0.06 -0.06,0.09 -0.11,0.14 -0.08,0.12 0.12,-0.01l0.1 -0.04c-0.14,0.18 -0.08,0.14 0.12,0.02l0.1 -0.03c-0.25,0.23 -0.21,0.26 0.12,0.1 -0.15,0.17 -0.12,0.18 0.12,0.03l0.08 -0.02c-0.11,0.11 -0.12,0.19 -0.07,0.16 0.08,-0.04 0.18,-0.08 0.23,-0.07 -0.1,0.11 -0.09,0.15 0.04,0.13 0.04,0.01 0,0.06 -0.13,0.15 -0.02,0.04 -0.05,0 -0.07,-0.09 -0.01,0.05 -0.03,0.05 -0.06,0.02l-0.03 0.19 -0.04 0 0 -0.11 -0.06 0 -0.04 0.14 -0.06 -0.03c-0.03,0.05 -0.06,0.1 -0.11,0.13 -0.04,-0.06 -0.07,-0.04 -0.08,0.01l-0.07 -0.01c-0.03,0.07 -0.05,0.08 -0.08,0.04 -0.06,0.03 -0.11,0.07 -0.17,0.13l-0.03 -0.07c-0.05,0.07 -0.09,0.11 -0.12,0.1l-0.05 -0.05 -0.08 0.13 -0.13 0.03c0,0.04 0.05,0.04 0.14,0.02 0.11,-0.01 0.33,-0.06 0.48,-0.1 0.14,-0.05 0.3,-0.07 0.48,-0.14 0.13,-0.07 0.29,-0.18 0.45,-0.26 0.04,0.03 0.01,0.1 -0.29,0.34l-0.15 -0.05 0.08 0.11 -0.1 0.05 -0.13 -0.07 0.04 0.14c-0.09,0 -0.14,-0.12 -0.22,-0.07l0.03 0.11 -0.19 -0.06 0.04 0.13 -0.17 -0.07 -0.04 0.07c-0.05,0 -0.08,0.02 -0.08,0.04 0.38,0.07 0.8,-0.07 1.23,-0.28l0.03 0.04c-0.04,0.18 -0.16,0.33 -0.35,0.46l0.05 -0.23c-0.13,0.06 -0.27,0.34 -0.38,0.38l0.12 -0.3 -0.34 0.28c-0.03,-0.04 0.01,-0.12 0.08,-0.22 -0.1,0 -0.27,0.24 -0.3,0.22 -0.07,-0.03 0.06,-0.1 0.09,-0.15 -0.1,-0.01 -0.16,0.07 -0.24,0.12 -0.01,-0.05 0.04,-0.1 0.13,-0.18l-0.28 0.13c0,-0.05 0.11,-0.09 0.13,-0.16 -0.13,0.09 -0.25,0.14 -0.28,0.14l0.09 -0.14 -0.25 0.13 0.16 -0.16 -0.26 0.12 0.07 -0.13 -0.19 0.12 0.08 -0.15c-0.09,0.08 -0.18,0.13 -0.23,0.13 0.05,-0.07 0.09,-0.12 0.08,-0.15 -0.09,0.07 -0.18,0.12 -0.21,0.12l0.03 -0.12c-0.07,0.07 -0.15,0.12 -0.23,0.15l0.08 -0.15 -0.02 -0.03 -0.19 0.16c0.04,-0.08 0.06,-0.13 0.03,-0.15l-0.13 0.07 0.01 -0.08 -0.16 0.18c-0.02,-0.01 0.01,-0.05 0.03,-0.13l-0.17 0.1c0.09,-0.17 0.23,-0.28 0.43,-0.34 0.23,-0.07 0.41,-0.08 0.56,-0.1 0.25,-0.04 0.41,-0.06 0.61,-0.15 0.09,-0.04 0.2,-0.08 0.32,-0.18 0.06,-0.04 0.03,-0.06 -0.03,-0.05l-0.26 0.02 0 -0.12 -0.1 0.14 -0.02 -0.14 -0.09 0.24 -0.04 -0.28 -0.06 0.3 -0.04 -0.29 -0.11 0.33 -0.02 -0.34 -0.07 0.35 -0.06 -0.36 -0.05 0.36 -0.07 -0.34 -0.03 0.33 -0.09 -0.34 -0.01 0.35 -0.11 -0.33 -0.02 0.29 -0.07 -0.28 -0.03 0.26 -0.06 -0.24 -0.04 0.26c-0.1,-0.2 -0.15,-0.37 -0.08,-0.46 0.11,-0.13 0.26,-0.16 0.4,-0.13zm0.83 -0.79c0.02,0 0.04,0.03 0.05,0.08 0.02,0.05 0.02,0.09 0.01,0.09 -0.02,0.01 -0.04,-0.03 -0.06,-0.08 -0.01,-0.04 -0.01,-0.08 0,-0.09zm-0.74 -0.09c0.11,-0.16 0.19,-0.22 0.25,-0.09 0.07,-0.23 0.15,-0.25 0.25,-0.05 0.14,0 0.17,0.21 0.15,0.52l-0.13 -0.34 0 0.22c-0.09,-0.38 -0.64,-0.16 -0.52,-0.26zm2.4 -1.26c0.16,0.02 0.31,0.08 0.47,0.16l-0.02 0.02c-0.06,-0.04 -0.11,-0.06 -0.15,-0.06 0.01,0.06 0.01,0.09 -0.02,0.09 -0.06,-0.1 -0.11,-0.12 -0.15,-0.1l-0.04 0.01c-0.04,-0.09 -0.06,-0.09 -0.09,-0.06 -0.04,-0.03 -0.04,-0.06 0,-0.06zm-0.82 0.05l0 0c0.14,-0.11 0.29,-0.15 0.46,-0.07 0.19,0.12 0.26,0.08 0.43,0.21 0.14,0.11 0.35,0.2 0.59,0.29 0.04,0.02 0.04,0.04 -0.03,0.07 -0.12,-0.08 -0.21,-0.13 -0.13,0l-0.05 -0.02c-0.13,-0.11 -0.23,-0.17 -0.3,-0.16 -0.1,-0.12 -0.14,-0.13 -0.12,-0.03l-0.05 -0.02c-0.11,-0.16 -0.16,-0.18 -0.15,-0.06l-0.04 -0.02c-0.1,-0.17 -0.12,-0.18 -0.07,-0.01l-0.06 -0.02c-0.07,-0.15 -0.08,-0.14 -0.08,-0.05 -0.12,-0.17 -0.15,-0.14 -0.12,-0.03 -0.08,-0.11 -0.12,-0.12 -0.12,-0.02 -0.07,-0.07 -0.12,-0.06 -0.17,-0.02l0.01 -0.04zm-0.35 0.23c-0.09,0.03 -0.09,0.06 -0.01,0.08l0.09 0c0.05,-0.01 0.08,0 0.1,0.04 0.03,0.07 0.08,0.1 0.11,0.08 0.02,-0.02 -0.13,-0.14 -0.05,-0.14l0.04 0c0.12,0.12 0.24,0.18 0.23,0.16l-0.05 -0.13c-0.02,-0.04 0.05,-0.02 0.08,0.01l0.16 0.14c0.03,0.03 0,-0.02 -0.02,-0.11l0.05 0c0.1,0.1 0.23,0.27 0.23,0.21l0 -0.07 0.06 0c0.05,0.08 0.13,0.14 0.12,0.11l-0.01 -0.06c-0.01,-0.03 0.02,-0.03 0.07,0l0.17 0.15 0.05 -0.01 -0.03 -0.04c-0.02,-0.04 -0.01,-0.05 0.04,-0.02l0.15 0.11c0.03,0.02 0.03,-0.01 -0.02,-0.07l0.09 0c0.02,0.05 0.05,0.06 0.14,0.1 0.02,0.02 0.03,-0.01 0.07,-0.03l0.21 -0.06c0.06,-0.02 0.06,-0.07 0,-0.05 -0.3,0.08 -0.62,-0.08 -0.96,-0.26 -0.45,-0.24 -0.81,-0.24 -1.11,-0.14zm2.97 0.17l-0.02 0.06 -0.06 0.02 0.02 -0.06 0.06 -0.02 0 0zm0.23 0.05c-0.05,-0.03 -0.07,0.05 0.02,0.02l0.12 -0.1c0.06,-0.1 0.02,0.03 0.06,0.02 0.04,-0.02 0.11,-0.15 0.09,-0.2l0.1 -0.05c0.06,-0.05 0.05,-0.07 -0.03,-0.06 -0.1,0.07 -0.19,0.15 -0.27,0.26l-0.09 0.11z"/>
  <g id="_1945567689264">
   <path class="fil5" d="M20.88 1.44l-1.09 0 0 0.16c0,0.27 -0.02,0.63 -0.07,1.09 -0.05,0.46 -0.14,0.84 -0.28,1.14l1.44 0 0 -2.39zm-1.49 -0.36l1.9 0 0 2.75 0.28 0 0 1.09 -0.37 0 0 -0.72 -2.06 0 0 0.72 -0.37 0 0 -1.09 0.25 0c0.25,-0.38 0.37,-1.15 0.37,-2.3l0 -0.45z"/>
   <path class="fil5" d="M22.3 2.85l1.26 0c-0.01,-0.19 -0.06,-0.33 -0.14,-0.43 -0.12,-0.15 -0.28,-0.22 -0.48,-0.22 -0.17,0 -0.32,0.06 -0.44,0.18 -0.12,0.11 -0.19,0.27 -0.2,0.47zm1.26 0.62l0.39 0.05c-0.06,0.23 -0.17,0.41 -0.34,0.54 -0.17,0.12 -0.39,0.19 -0.65,0.19 -0.33,0 -0.59,-0.1 -0.78,-0.31 -0.2,-0.2 -0.3,-0.49 -0.3,-0.85 0,-0.38 0.1,-0.68 0.3,-0.89 0.19,-0.21 0.45,-0.32 0.76,-0.32 0.3,0 0.55,0.11 0.74,0.31 0.19,0.21 0.29,0.5 0.29,0.87 0,0.03 0,0.06 0,0.1l-1.69 0c0.01,0.25 0.08,0.44 0.21,0.57 0.13,0.14 0.28,0.2 0.47,0.2 0.14,0 0.26,-0.03 0.36,-0.11 0.1,-0.07 0.18,-0.19 0.24,-0.35z"/>
   <polygon class="fil5" points="24.44,1.94 26.22,1.94 26.22,4.2 25.84,4.2 25.84,2.25 24.82,2.25 24.82,4.2 24.44,4.2 "/>
   <path class="fil5" d="M28.24 3.06c-0.14,0.06 -0.35,0.11 -0.63,0.15 -0.15,0.02 -0.27,0.05 -0.33,0.07 -0.07,0.03 -0.12,0.07 -0.15,0.13 -0.04,0.05 -0.06,0.11 -0.06,0.18 0,0.1 0.04,0.19 0.12,0.26 0.08,0.06 0.19,0.1 0.34,0.1 0.15,0 0.28,-0.03 0.39,-0.1 0.12,-0.06 0.2,-0.15 0.26,-0.26 0.04,-0.09 0.06,-0.22 0.06,-0.39l0 -0.14zm0.03 0.86c-0.14,0.12 -0.28,0.2 -0.41,0.25 -0.13,0.05 -0.27,0.08 -0.42,0.08 -0.25,0 -0.44,-0.06 -0.57,-0.18 -0.14,-0.13 -0.2,-0.28 -0.2,-0.47 0,-0.11 0.02,-0.21 0.07,-0.3 0.05,-0.09 0.12,-0.17 0.2,-0.22 0.08,-0.06 0.17,-0.1 0.28,-0.13 0.07,-0.02 0.18,-0.04 0.34,-0.06 0.31,-0.03 0.53,-0.08 0.68,-0.13 0,-0.05 0,-0.08 0,-0.1 0,-0.15 -0.03,-0.26 -0.11,-0.33 -0.09,-0.08 -0.24,-0.13 -0.43,-0.13 -0.18,0 -0.32,0.03 -0.4,0.1 -0.09,0.06 -0.15,0.17 -0.19,0.33l-0.38 -0.05c0.04,-0.16 0.09,-0.29 0.17,-0.39 0.08,-0.1 0.19,-0.17 0.34,-0.23 0.15,-0.05 0.32,-0.08 0.51,-0.08 0.2,0 0.35,0.03 0.47,0.07 0.12,0.05 0.21,0.11 0.27,0.17 0.06,0.07 0.09,0.16 0.12,0.27 0.01,0.06 0.02,0.18 0.02,0.35l0 0.51c0,0.36 0,0.58 0.02,0.67 0.02,0.1 0.05,0.19 0.1,0.28l-0.4 0c-0.04,-0.08 -0.07,-0.18 -0.08,-0.28z"/>
   <path class="fil5" d="M29.57 3.08c0,0.29 0.06,0.5 0.17,0.64 0.12,0.14 0.27,0.21 0.43,0.21 0.17,0 0.32,-0.07 0.44,-0.21 0.12,-0.15 0.18,-0.37 0.18,-0.67 0,-0.29 -0.06,-0.51 -0.18,-0.65 -0.11,-0.14 -0.26,-0.21 -0.42,-0.21 -0.16,0 -0.31,0.07 -0.43,0.22 -0.13,0.16 -0.19,0.38 -0.19,0.67zm-0.35 1.98l0 -3.12 0.35 0 0 0.29c0.08,-0.11 0.18,-0.2 0.28,-0.26 0.1,-0.06 0.23,-0.09 0.38,-0.09 0.19,0 0.36,0.06 0.51,0.15 0.14,0.1 0.26,0.24 0.33,0.42 0.08,0.19 0.11,0.38 0.11,0.6 0,0.23 -0.04,0.44 -0.12,0.62 -0.08,0.19 -0.2,0.33 -0.36,0.43 -0.16,0.1 -0.33,0.15 -0.5,0.15 -0.13,0 -0.24,-0.03 -0.35,-0.08 -0.1,-0.06 -0.18,-0.13 -0.25,-0.21l0 1.1 -0.38 0z"/>
   <polygon class="fil5" points="31.34,1.94 33.18,1.94 33.18,2.25 32.45,2.25 32.45,4.2 32.07,4.2 32.07,2.25 31.34,2.25 "/>
   <path class="fil5" d="M34.94 3.06c-0.14,0.06 -0.35,0.11 -0.63,0.15 -0.15,0.02 -0.26,0.05 -0.33,0.07 -0.06,0.03 -0.12,0.07 -0.15,0.13 -0.04,0.05 -0.05,0.11 -0.05,0.18 0,0.1 0.03,0.19 0.11,0.26 0.08,0.06 0.19,0.1 0.34,0.1 0.15,0 0.28,-0.03 0.39,-0.1 0.12,-0.06 0.2,-0.15 0.26,-0.26 0.04,-0.09 0.06,-0.22 0.06,-0.39l0 -0.14zm0.03 0.86c-0.14,0.12 -0.28,0.2 -0.41,0.25 -0.13,0.05 -0.27,0.08 -0.42,0.08 -0.25,0 -0.44,-0.06 -0.57,-0.18 -0.14,-0.13 -0.2,-0.28 -0.2,-0.47 0,-0.11 0.02,-0.21 0.07,-0.3 0.05,-0.09 0.12,-0.17 0.2,-0.22 0.08,-0.06 0.17,-0.1 0.28,-0.13 0.07,-0.02 0.18,-0.04 0.34,-0.06 0.31,-0.03 0.53,-0.08 0.68,-0.13 0,-0.05 0,-0.08 0,-0.1 0,-0.15 -0.03,-0.26 -0.11,-0.33 -0.09,-0.08 -0.24,-0.13 -0.43,-0.13 -0.18,0 -0.32,0.03 -0.4,0.1 -0.09,0.06 -0.15,0.17 -0.19,0.33l-0.38 -0.05c0.04,-0.16 0.09,-0.29 0.17,-0.39 0.08,-0.1 0.19,-0.17 0.34,-0.23 0.15,-0.05 0.32,-0.08 0.51,-0.08 0.2,0 0.35,0.03 0.47,0.07 0.12,0.05 0.21,0.11 0.27,0.17 0.06,0.07 0.1,0.16 0.12,0.27 0.01,0.06 0.02,0.18 0.02,0.35l0 0.51c0,0.36 0.01,0.58 0.02,0.67 0.02,0.1 0.05,0.19 0.1,0.28l-0.4 0c-0.04,-0.08 -0.07,-0.18 -0.08,-0.28z"/>
   <polygon class="fil5" points="35.93,1.94 36.53,1.94 37.12,3.75 37.78,1.94 38.33,1.94 38.33,4.2 37.95,4.2 37.95,2.38 37.28,4.2 36.94,4.2 36.31,2.29 36.31,4.2 35.93,4.2 "/>
   <path class="fil5" d="M39.21 2.85l1.26 0c-0.02,-0.19 -0.07,-0.33 -0.15,-0.43 -0.12,-0.15 -0.28,-0.22 -0.47,-0.22 -0.18,0 -0.32,0.06 -0.44,0.18 -0.12,0.11 -0.19,0.27 -0.2,0.47zm1.26 0.62l0.39 0.05c-0.06,0.23 -0.18,0.41 -0.35,0.54 -0.16,0.12 -0.38,0.19 -0.64,0.19 -0.33,0 -0.6,-0.1 -0.79,-0.31 -0.19,-0.2 -0.29,-0.49 -0.29,-0.85 0,-0.38 0.1,-0.68 0.29,-0.89 0.2,-0.21 0.45,-0.32 0.77,-0.32 0.3,0 0.55,0.11 0.74,0.31 0.19,0.21 0.28,0.5 0.28,0.87 0,0.03 0,0.06 0,0.1l-1.68 0c0.01,0.25 0.08,0.44 0.21,0.57 0.12,0.14 0.28,0.2 0.47,0.2 0.14,0 0.26,-0.03 0.36,-0.11 0.1,-0.07 0.18,-0.19 0.24,-0.35z"/>
   <polygon class="fil5" points="41.34,1.94 41.73,1.94 41.73,2.88 42.79,2.88 42.79,1.94 43.17,1.94 43.17,4.2 42.79,4.2 42.79,3.19 41.73,3.19 41.73,4.2 41.34,4.2 "/>
   <polygon class="fil5" points="43.54,1.94 45.38,1.94 45.38,2.25 44.65,2.25 44.65,4.2 44.27,4.2 44.27,2.25 43.54,2.25 "/>
   <path class="fil5" d="M19.06 6.81l0.38 0 0 0.97c0.12,0 0.21,-0.02 0.26,-0.07 0.05,-0.04 0.12,-0.18 0.21,-0.41 0.08,-0.18 0.14,-0.29 0.19,-0.35 0.04,-0.06 0.1,-0.09 0.16,-0.11 0.06,-0.02 0.16,-0.03 0.29,-0.03l0.08 0 0 0.31 -0.11 0c-0.1,0 -0.16,0.02 -0.19,0.05 -0.03,0.03 -0.08,0.12 -0.14,0.27 -0.06,0.15 -0.11,0.25 -0.16,0.31 -0.05,0.06 -0.12,0.11 -0.22,0.16 0.16,0.04 0.33,0.19 0.48,0.46l0.42 0.7 -0.42 0 -0.41 -0.7c-0.08,-0.14 -0.15,-0.24 -0.22,-0.28 -0.06,-0.05 -0.13,-0.07 -0.22,-0.07l0 1.05 -0.38 0 0 -2.26z"/>
   <path class="fil5" d="M21 9.94l-0.04 -0.36c0.08,0.02 0.15,0.03 0.22,0.03 0.08,0 0.15,-0.01 0.2,-0.04 0.05,-0.03 0.09,-0.07 0.13,-0.12 0.02,-0.04 0.06,-0.13 0.11,-0.29 0.01,-0.02 0.02,-0.05 0.04,-0.09l-0.86 -2.26 0.41 0 0.47 1.3c0.06,0.17 0.12,0.34 0.17,0.53 0.04,-0.18 0.09,-0.35 0.15,-0.52l0.49 -1.31 0.38 0 -0.86 2.29c-0.09,0.25 -0.16,0.42 -0.21,0.52 -0.07,0.12 -0.15,0.22 -0.24,0.27 -0.09,0.06 -0.19,0.09 -0.31,0.09 -0.08,0 -0.16,-0.01 -0.25,-0.04z"/>
   <path class="fil5" d="M23.29 6.81l1.78 0 0 2.26 -0.38 0 0 -1.95 -1.02 0 0 1.13c0,0.26 -0.01,0.43 -0.03,0.52 -0.01,0.08 -0.06,0.15 -0.14,0.22 -0.07,0.06 -0.18,0.09 -0.33,0.09 -0.09,0 -0.19,0 -0.31,-0.02l0 -0.32 0.17 0c0.08,0 0.14,0 0.17,-0.02l0.07 -0.08c0.01,-0.03 0.02,-0.15 0.02,-0.34l0 -1.49z"/>
   <path class="fil5" d="M26.02 8.75l0.4 0c0.24,0 0.42,-0.03 0.52,-0.09 0.1,-0.06 0.16,-0.15 0.16,-0.28 0,-0.1 -0.04,-0.18 -0.12,-0.26 -0.08,-0.08 -0.24,-0.11 -0.51,-0.11l-0.45 0 0 0.74zm-0.38 -1.94l0.38 0 0 0.88 0.48 0c0.32,0 0.57,0.06 0.74,0.18 0.17,0.13 0.25,0.29 0.25,0.51 0,0.19 -0.07,0.35 -0.21,0.48 -0.14,0.14 -0.37,0.21 -0.69,0.21l-0.95 0 0 -2.26z"/>
   <polygon class="fil5" points="27.37,6.81 29.2,6.81 29.2,7.12 28.48,7.12 28.48,9.07 28.09,9.07 28.09,7.12 27.37,7.12 "/>
   <path class="fil5" d="M29.6 9.94l-0.04 -0.36c0.08,0.02 0.16,0.03 0.22,0.03 0.08,0 0.15,-0.01 0.2,-0.04 0.05,-0.03 0.09,-0.07 0.13,-0.12 0.02,-0.04 0.06,-0.13 0.11,-0.29 0.01,-0.02 0.02,-0.05 0.04,-0.09l-0.86 -2.26 0.41 0 0.47 1.3c0.07,0.17 0.12,0.34 0.17,0.53 0.04,-0.18 0.09,-0.35 0.16,-0.52l0.48 -1.31 0.38 0 -0.86 2.29c-0.09,0.25 -0.16,0.42 -0.21,0.52 -0.07,0.12 -0.15,0.22 -0.24,0.27 -0.09,0.06 -0.19,0.09 -0.31,0.09 -0.08,0 -0.16,-0.01 -0.25,-0.04z"/>
   <path class="fil5" d="M32.1 7.95c0,0.29 0.05,0.5 0.17,0.64 0.12,0.14 0.26,0.21 0.43,0.21 0.17,0 0.32,-0.07 0.44,-0.21 0.12,-0.15 0.18,-0.37 0.18,-0.67 0,-0.29 -0.06,-0.51 -0.18,-0.65 -0.12,-0.14 -0.26,-0.22 -0.42,-0.22 -0.17,0 -0.31,0.08 -0.44,0.23 -0.12,0.16 -0.18,0.38 -0.18,0.67zm-0.35 1.98l0 -3.12 0.35 0 0 0.29c0.08,-0.12 0.17,-0.2 0.28,-0.26 0.1,-0.06 0.23,-0.09 0.37,-0.09 0.2,0 0.37,0.05 0.51,0.15 0.15,0.1 0.26,0.24 0.34,0.42 0.07,0.18 0.11,0.38 0.11,0.6 0,0.23 -0.04,0.44 -0.12,0.62 -0.09,0.19 -0.21,0.33 -0.37,0.43 -0.15,0.1 -0.32,0.15 -0.49,0.15 -0.13,0 -0.25,-0.03 -0.35,-0.08 -0.1,-0.06 -0.18,-0.13 -0.25,-0.21l0 1.1 -0.38 0z"/>
   <path class="fil5" d="M34.57 8.75l0.4 0c0.24,0 0.41,-0.03 0.52,-0.09 0.1,-0.06 0.15,-0.15 0.15,-0.28 0,-0.1 -0.04,-0.18 -0.11,-0.26 -0.08,-0.08 -0.25,-0.11 -0.51,-0.11l-0.45 0 0 0.74zm-0.39 -1.94l0.39 0 0 0.88 0.48 0c0.32,0 0.56,0.06 0.73,0.18 0.17,0.13 0.26,0.29 0.26,0.51 0,0.19 -0.07,0.35 -0.22,0.48 -0.14,0.14 -0.37,0.21 -0.68,0.21l-0.96 0 0 -2.26zm2.15 0l0.38 0 0 2.26 -0.38 0 0 -2.26z"/>
   <polygon class="fil5" points="19.06,11.68 20.36,11.68 20.36,11.99 19.45,11.99 19.45,13.94 19.06,13.94 "/>
   <path class="fil5" d="M20.8 12.8c0,0.29 0.07,0.51 0.19,0.65 0.13,0.15 0.29,0.22 0.48,0.22 0.19,0 0.35,-0.07 0.48,-0.22 0.12,-0.14 0.19,-0.36 0.19,-0.66 0,-0.28 -0.07,-0.49 -0.2,-0.63 -0.12,-0.15 -0.28,-0.22 -0.47,-0.22 -0.19,0 -0.35,0.07 -0.48,0.22 -0.12,0.14 -0.19,0.36 -0.19,0.64zm-0.39 0c0,-0.41 0.12,-0.72 0.35,-0.93 0.19,-0.16 0.43,-0.25 0.71,-0.25 0.31,0 0.57,0.11 0.76,0.31 0.2,0.2 0.3,0.48 0.3,0.84 0,0.29 -0.04,0.52 -0.13,0.69 -0.09,0.17 -0.22,0.3 -0.38,0.39 -0.17,0.09 -0.35,0.14 -0.55,0.14 -0.32,0 -0.57,-0.11 -0.77,-0.31 -0.19,-0.2 -0.29,-0.49 -0.29,-0.88z"/>
   <path class="fil5" d="M23.33 12.82c0,0.29 0.05,0.5 0.17,0.64 0.12,0.14 0.26,0.21 0.43,0.21 0.17,0 0.32,-0.07 0.44,-0.22 0.12,-0.14 0.18,-0.36 0.18,-0.66 0,-0.29 -0.06,-0.51 -0.18,-0.65 -0.12,-0.14 -0.26,-0.22 -0.42,-0.22 -0.17,0 -0.31,0.08 -0.44,0.23 -0.12,0.15 -0.18,0.38 -0.18,0.67zm-0.35 1.98l0 -3.12 0.35 0 0 0.29c0.08,-0.12 0.17,-0.2 0.28,-0.26 0.1,-0.06 0.22,-0.09 0.37,-0.09 0.2,0 0.37,0.05 0.51,0.15 0.15,0.1 0.26,0.24 0.34,0.42 0.07,0.18 0.11,0.38 0.11,0.6 0,0.23 -0.04,0.44 -0.12,0.62 -0.09,0.19 -0.21,0.33 -0.37,0.43 -0.15,0.1 -0.32,0.15 -0.5,0.15 -0.12,0 -0.24,-0.03 -0.34,-0.08 -0.1,-0.06 -0.18,-0.13 -0.25,-0.21l0 1.1 -0.38 0z"/>
   <path class="fil5" d="M25.65 12.8c0,0.29 0.07,0.51 0.19,0.65 0.13,0.15 0.29,0.22 0.48,0.22 0.19,0 0.35,-0.07 0.47,-0.22 0.13,-0.14 0.19,-0.36 0.19,-0.66 0,-0.28 -0.06,-0.49 -0.19,-0.63 -0.12,-0.15 -0.28,-0.22 -0.47,-0.22 -0.19,0 -0.35,0.07 -0.48,0.22 -0.12,0.14 -0.19,0.36 -0.19,0.64zm-0.39 0c0,-0.41 0.12,-0.72 0.35,-0.93 0.19,-0.16 0.43,-0.25 0.71,-0.25 0.31,0 0.56,0.11 0.76,0.31 0.2,0.2 0.3,0.48 0.3,0.84 0,0.29 -0.05,0.52 -0.13,0.69 -0.09,0.17 -0.22,0.3 -0.38,0.39 -0.17,0.09 -0.35,0.14 -0.55,0.14 -0.32,0 -0.57,-0.11 -0.77,-0.31 -0.19,-0.2 -0.29,-0.49 -0.29,-0.88z"/>
   <path class="fil5" d="M28.35 11.99c-0.03,0.74 -0.14,1.28 -0.34,1.63l1.22 0 0 -1.63 -0.88 0zm-0.32 -0.31l1.58 0 0 1.94 0.24 0 0 0.96 -0.31 0 0 -0.64 -1.78 0 0 0.64 -0.32 0 0 -0.96 0.21 0c0.26,-0.37 0.39,-1.01 0.38,-1.94z"/>
   <path class="fil5" d="M31.72 12.8c-0.14,0.06 -0.35,0.11 -0.63,0.15 -0.16,0.02 -0.27,0.04 -0.33,0.07 -0.07,0.03 -0.12,0.07 -0.15,0.13 -0.04,0.05 -0.06,0.11 -0.06,0.18 0,0.1 0.04,0.19 0.12,0.25 0.08,0.07 0.19,0.11 0.34,0.11 0.15,0 0.28,-0.04 0.39,-0.1 0.12,-0.07 0.2,-0.15 0.26,-0.27 0.04,-0.08 0.06,-0.21 0.06,-0.38l0 -0.14zm0.03 0.86c-0.14,0.12 -0.28,0.2 -0.41,0.25 -0.13,0.05 -0.27,0.08 -0.42,0.08 -0.25,0 -0.44,-0.06 -0.58,-0.19 -0.13,-0.12 -0.2,-0.27 -0.2,-0.46 0,-0.11 0.03,-0.21 0.08,-0.3 0.05,-0.1 0.12,-0.17 0.2,-0.22 0.08,-0.06 0.17,-0.1 0.27,-0.13 0.08,-0.02 0.19,-0.04 0.34,-0.06 0.31,-0.03 0.54,-0.08 0.69,-0.13 0,-0.05 0,-0.09 0,-0.1 0,-0.16 -0.04,-0.27 -0.11,-0.33 -0.1,-0.09 -0.24,-0.13 -0.44,-0.13 -0.18,0 -0.31,0.03 -0.39,0.1 -0.09,0.06 -0.15,0.17 -0.2,0.33l-0.37 -0.05c0.03,-0.16 0.09,-0.29 0.17,-0.39 0.08,-0.1 0.19,-0.17 0.34,-0.23 0.14,-0.05 0.32,-0.08 0.51,-0.08 0.19,0 0.35,0.03 0.47,0.07 0.12,0.05 0.21,0.1 0.27,0.17 0.05,0.07 0.09,0.16 0.12,0.26 0.01,0.07 0.01,0.19 0.01,0.36l0 0.51c0,0.35 0.01,0.58 0.03,0.67 0.02,0.1 0.05,0.19 0.1,0.28l-0.4 0c-0.04,-0.08 -0.07,-0.18 -0.08,-0.28z"/>
   <path class="fil5" d="M33.95 13.94l0 -3.12 0.62 0 0.74 2.2c0.06,0.21 0.11,0.36 0.14,0.47 0.04,-0.12 0.1,-0.28 0.17,-0.5l0.75 -2.17 0.55 0 0 3.12 -0.39 0 0 -2.62 -0.91 2.62 -0.37 0 -0.91 -2.66 0 2.66 -0.39 0z"/>
   <path class="fil5" d="M37.84 12.8c0,0.29 0.06,0.51 0.19,0.65 0.13,0.15 0.29,0.22 0.48,0.22 0.19,0 0.35,-0.07 0.47,-0.22 0.13,-0.14 0.19,-0.36 0.19,-0.66 0,-0.28 -0.06,-0.49 -0.19,-0.63 -0.13,-0.15 -0.28,-0.22 -0.47,-0.22 -0.19,0 -0.35,0.07 -0.48,0.22 -0.13,0.14 -0.19,0.36 -0.19,0.64zm-0.39 0c0,-0.41 0.11,-0.72 0.35,-0.93 0.19,-0.16 0.43,-0.25 0.71,-0.25 0.31,0 0.56,0.11 0.76,0.31 0.2,0.2 0.29,0.48 0.29,0.84 0,0.29 -0.04,0.52 -0.13,0.69 -0.08,0.17 -0.21,0.3 -0.38,0.39 -0.16,0.09 -0.35,0.14 -0.54,0.14 -0.32,0 -0.58,-0.11 -0.77,-0.31 -0.2,-0.2 -0.29,-0.49 -0.29,-0.88z"/>
   <path class="fil5" d="M41.49 13.11l0.37 0.05c-0.04,0.26 -0.14,0.46 -0.31,0.61 -0.17,0.14 -0.38,0.22 -0.63,0.22 -0.3,0 -0.55,-0.11 -0.74,-0.31 -0.19,-0.2 -0.28,-0.49 -0.28,-0.87 0,-0.24 0.04,-0.45 0.12,-0.64 0.08,-0.18 0.2,-0.32 0.37,-0.41 0.16,-0.09 0.34,-0.14 0.54,-0.14 0.24,0 0.44,0.07 0.6,0.19 0.16,0.12 0.26,0.3 0.3,0.53l-0.37 0.06c-0.04,-0.16 -0.1,-0.27 -0.19,-0.35 -0.09,-0.07 -0.2,-0.11 -0.33,-0.11 -0.19,0 -0.35,0.07 -0.47,0.21 -0.12,0.13 -0.18,0.35 -0.18,0.65 0,0.31 0.06,0.53 0.18,0.66 0.11,0.14 0.26,0.21 0.45,0.21 0.15,0 0.28,-0.04 0.38,-0.14 0.1,-0.09 0.16,-0.23 0.19,-0.42z"/>
   <path class="fil5" d="M42.19 11.68l0.38 0 0 0.97c0.13,0 0.21,-0.02 0.26,-0.07 0.05,-0.05 0.12,-0.18 0.22,-0.41 0.07,-0.18 0.13,-0.29 0.18,-0.35 0.05,-0.06 0.1,-0.1 0.16,-0.11 0.06,-0.03 0.16,-0.03 0.29,-0.03l0.08 0 0 0.31 -0.1 0c-0.1,0 -0.17,0.02 -0.2,0.04 -0.03,0.04 -0.07,0.13 -0.13,0.28 -0.06,0.15 -0.12,0.25 -0.16,0.31 -0.05,0.06 -0.13,0.11 -0.23,0.15 0.17,0.05 0.33,0.2 0.49,0.47l0.42 0.7 -0.42 0 -0.41 -0.7c-0.09,-0.15 -0.16,-0.24 -0.22,-0.28 -0.06,-0.05 -0.14,-0.07 -0.23,-0.07l0 1.05 -0.38 0 0 -2.26z"/>
   <path class="fil5" d="M44.49 13.62l0.5 0c0.22,0 0.37,-0.02 0.45,-0.08 0.08,-0.05 0.12,-0.13 0.12,-0.26 0,-0.07 -0.02,-0.14 -0.07,-0.2 -0.04,-0.06 -0.1,-0.1 -0.18,-0.11 -0.07,-0.02 -0.19,-0.03 -0.36,-0.03l-0.46 0 0 0.68zm0 -0.99l0.4 0c0.17,0 0.28,-0.01 0.34,-0.03 0.06,-0.02 0.12,-0.05 0.16,-0.1 0.05,-0.05 0.08,-0.12 0.08,-0.19 0,-0.12 -0.05,-0.2 -0.13,-0.25 -0.08,-0.05 -0.23,-0.07 -0.43,-0.07l-0.42 0 0 0.64zm-0.39 -0.95l0.89 0c0.21,0 0.37,0.01 0.48,0.05 0.11,0.04 0.2,0.1 0.27,0.2 0.08,0.09 0.12,0.21 0.12,0.35 0,0.1 -0.03,0.2 -0.07,0.28 -0.05,0.08 -0.11,0.14 -0.2,0.2 0.1,0.03 0.19,0.1 0.26,0.2 0.07,0.09 0.11,0.21 0.11,0.34 -0.02,0.22 -0.09,0.38 -0.23,0.48 -0.14,0.1 -0.34,0.16 -0.61,0.16l-1.02 0 0 -2.26z"/>
   <path class="fil5" d="M46.81 13.62l0.4 0c0.24,0 0.42,-0.03 0.52,-0.09 0.1,-0.06 0.15,-0.15 0.15,-0.28 0,-0.1 -0.03,-0.18 -0.11,-0.26 -0.08,-0.08 -0.25,-0.11 -0.51,-0.11l-0.45 0 0 0.74zm-0.39 -1.94l0.39 0 0 0.88 0.48 0c0.32,0 0.56,0.06 0.73,0.18 0.18,0.12 0.26,0.29 0.26,0.51 0,0.19 -0.07,0.35 -0.21,0.48 -0.15,0.14 -0.37,0.21 -0.69,0.21l-0.96 0 0 -2.26zm2.15 0l0.38 0 0 2.26 -0.38 0 0 -2.26z"/>
  </g>
 </g>
</svg>
