<?xml version="1.0" encoding="UTF-8"?>
<!DOCTYPE svg PUBLIC "-//W3C//DTD SVG 1.1//EN" "http://www.w3.org/Graphics/SVG/1.1/DTD/svg11.dtd">
<!-- Creator: CorelDRAW 2017 -->
<svg xmlns="http://www.w3.org/2000/svg" xml:space="preserve" width="239px" height="90px" version="1.1" style="shape-rendering:geometricPrecision; text-rendering:geometricPrecision; image-rendering:optimizeQuality; fill-rule:evenodd; clip-rule:evenodd"
viewBox="0 0 81.76 30.69"
 xmlns:xlink="http://www.w3.org/1999/xlink">
 <defs>
  <style type="text/css">
   <![CDATA[
    .fil2 {fill:#FEFEFE}
    .fil1 {fill:#F0843E}
    .fil3 {fill:#EC6A42}
    .fil0 {fill:#E96442}
    .fil4 {fill:#B2B1B3;fill-rule:nonzero}
   ]]>
  </style>
 </defs>
 <g id="Layer_x0020_1">
  <metadata id="CorelCorpID_0Corel-Layer"/>
  <polygon class="fil0" points="0,0 29.43,0 29.43,30.69 0,30.69 "/>
  <polygon class="fil1" points="0,30.69 9.81,30.69 9.81,20.46 0,20.46 "/>
  <polygon class="fil1" points="19.62,20.46 29.43,20.46 29.43,30.69 19.62,30.69 "/>
  <polygon class="fil1" points="9.81,10.23 19.62,10.23 19.62,20.46 9.81,20.46 "/>
  <polygon class="fil1" points="19.62,0 29.43,0 29.43,10.23 19.62,10.23 "/>
  <path class="fil2" d="M23.42 25.42l1.33 0c0.43,0 0.77,-0.35 0.77,-0.78 0,-0.42 -0.34,-0.77 -0.77,-0.77l-1.33 0 0 1.55zm0 -2.67l1.47 0c1.05,0 1.89,0.85 1.89,1.89 0,1.05 -0.84,1.9 -1.89,1.9l-1.47 0 0 1.54 -1.26 0 0 -5.33 0.28 0 0.98 0zm0 -7.42l1.33 0c0.43,0 0.77,-0.35 0.77,-0.78 0,-0.42 -0.34,-0.77 -0.77,-0.77l-1.33 0 0 1.55zm0 -2.67l1.47 0c1.05,0 1.89,0.85 1.89,1.89 0,1.05 -0.84,1.9 -1.89,1.9l-1.47 0 0 1.54 -1.26 0 0 -5.33 0.28 0 0.98 0zm-5.62 4.94l0.99 1 -0.69 0.69 -0.99 -0.99 0.69 -0.7zm-3.07 -3.96c-0.93,0 -1.68,0.76 -1.68,1.69 0,0.92 0.75,1.68 1.68,1.68 0.93,0 1.68,-0.76 1.68,-1.68 0,-0.93 -0.75,-1.69 -1.68,-1.69zm2.8 1.69c0,1.54 -1.25,2.8 -2.8,2.8 -1.55,0 -2.8,-1.26 -2.8,-2.8 0,-1.55 1.25,-2.81 2.8,-2.81 1.55,0 2.8,1.26 2.8,2.81zm-3.22 -5.19l0.98 0 0 1.4 -0.98 0 0 -1.4zm0.98 10.37l-0.98 0 0 -1.4 0.98 0 0 1.4zm-0.36 4.25l0.04 0 0.86 -2.01 1.42 0 0 0.15 -1.85 3.85c-0.51,1.19 -1.12,1.64 -2.53,1.1l0.17 -0.96c0.48,0.18 0.78,0.19 1.03,-0.36l0.18 -0.38 -1.76 -3.23 0 -0.17 1.46 0 0.98 2.01zm-2.48 -6.36l-0.99 0.99 -0.69 -0.7 0.99 -0.99 0.69 0.7zm-5.99 -13.55l-1.12 1.37 -1.12 -1.37 0 3.05 -1.26 0 0 -4.35 0 -0.98 0.7 0 1.68 2.1 1.68 -2.1 0.7 0 0 1.26 0 4.07 -1.26 0 0 -3.05zm-2.94 13.14l0 -4.21 0 -1.12 1.26 0 2.66 0 0 1.12 -2.66 0 0 4.21 -1.26 0zm2.52 10.09l-1.26 0 0 -4.21 -1.68 0 0 -1.12 1.68 0 1.26 0 1.68 0 0 1.12 -1.68 0 0 4.21zm4.91 -12.19l-1.41 0 0 -0.99 1.41 0 0 0.99zm0.81 -2.94l-0.99 -0.99 0.69 -0.7 0.99 0.99 -0.69 0.7zm2.97 -9.4c-0.93,0 -1.68,0.76 -1.68,1.68 0,0.93 0.75,1.69 1.68,1.69 0.93,0 1.68,-0.76 1.68,-1.69 0,-0.92 -0.75,-1.68 -1.68,-1.68zm0 4.49c-1.55,0 -2.8,-1.26 -2.8,-2.81 0,-1.54 1.25,-2.8 2.8,-2.8 1.55,0 2.8,1.26 2.8,2.8 0,1.55 -1.25,2.81 -2.8,2.81zm2.38 4.31l0.99 -0.99 0.69 0.7 -0.99 0.99 -0.69 -0.7zm1.4 2.55l1.41 0 0 0.99 -1.41 0 0 -0.99zm5.89 -11.35c-0.93,0 -1.68,0.76 -1.68,1.68 0,0.93 0.75,1.69 1.68,1.69 0.64,0 1.2,-0.36 1.48,-0.89l1.14 0.21c-0.41,1.05 -1.43,1.8 -2.62,1.8 -1.55,0 -2.8,-1.26 -2.8,-2.81 0,-1.54 1.25,-2.8 2.8,-2.8 1.14,0 2.13,0.69 2.56,1.67l-1.15 0.22c-0.3,-0.46 -0.82,-0.77 -1.41,-0.77z"/>
  <path class="fil3" d="M37.49 10.83l0 3.53 0.8 0 0 -2.83 1.64 0 0 2.83 0.79 0 0 -3.53 -3.23 0zm7.63 0.08c0,-0.02 0,-0.05 0,-0.08l-0.8 0 -1.01 2.62c0,0 -0.01,0 -0.02,0l-1.09 -2.62 -0.86 0c0,0.03 0,0.06 0,0.08l1.57 3.47 -0.17 0.43c-0.21,0.59 -0.5,0.9 -1.13,0.62l-0.09 0.58c1.17,0.54 1.64,-0.31 2.07,-1.35l1.53 -3.75zm2.24 3.44l0 -2.83 1.15 0 0 -0.69 -3.06 0 0 0.69 1.14 0 0 2.83 0.77 0zm3.4 -3.6c-0.96,0 -1.81,0.59 -1.83,1.77 -0.04,1.19 0.82,1.94 1.99,1.92 0.44,0 0.92,-0.12 1.33,-0.3l-0.1 -0.6c-0.42,0.19 -0.85,0.24 -1.29,0.22 -0.64,0 -1.15,-0.38 -1.15,-1.02l2.61 0c0.24,-1.17 -0.32,-1.99 -1.56,-1.99zm-0.01 0.61c0.51,0 0.95,0.28 0.93,0.81l-1.95 0c0.11,-0.55 0.5,-0.81 1.02,-0.81zm3.21 2.29l0 -2.82 -0.77 0 0 3.53c1.62,0 3.28,0 4.9,0 0,-1.18 0,-2.35 0,-3.53l-0.76 0 0 2.82 -1.3 0 0 -2.82 -0.77 0 0 2.82 -1.3 0zm6.79 -2.9c-0.96,0 -1.81,0.59 -1.83,1.77 -0.04,1.19 0.82,1.94 1.98,1.92 0.45,0 0.92,-0.12 1.33,-0.3l-0.1 -0.6c-0.42,0.19 -0.84,0.24 -1.28,0.22 -0.65,0 -1.15,-0.38 -1.15,-1.02l2.61 0c0.23,-1.17 -0.33,-1.99 -1.56,-1.99zm-0.01 0.61c0.5,0 0.94,0.28 0.92,0.81l-1.95 0c0.11,-0.55 0.5,-0.81 1.03,-0.81zm5.78 0.64c-0.19,-0.87 -0.95,-1.28 -1.72,-1.28 -0.91,0.01 -1.85,0.64 -1.85,1.86 0,1.22 0.94,1.83 1.86,1.83 0.78,0 1.55,-0.43 1.73,-1.33l-0.76 0c-0.16,0.43 -0.56,0.65 -0.95,0.65 -0.54,0 -1.09,-0.39 -1.09,-1.15 0,-0.75 0.56,-1.15 1.1,-1.15 0.41,0 0.78,0.19 0.94,0.57l0.74 0zm2.35 2.35l0 -2.83 1.14 0 0 -0.69 -3.05 0 0 0.69 1.13 0 0 2.83 0.78 0zm4.71 -2.6c0,-0.89 -0.88,-0.93 -1.53,-0.93l-1.35 0c0,1.19 0,2.36 0,3.54l1.55 0c0.7,0 1.52,-0.09 1.52,-1.01 0,-0.42 -0.24,-0.77 -0.67,-0.89 0.35,-0.13 0.48,-0.4 0.48,-0.71zm-2.11 2l0 -0.96 0.66 0c0.37,0 0.87,0.03 0.87,0.48 0,0.48 -0.49,0.48 -0.83,0.48l-0.7 0zm0 -1.5l0 -0.85 0.63 0c0.31,0 0.7,0.04 0.7,0.43 0,0.38 -0.4,0.42 -0.7,0.42l-0.63 0zm5.59 -0.03l0 2.14c0.26,0 0.51,0 0.77,0 0,-1.18 0,-2.36 0,-3.54 -0.08,0 -0.16,0 -0.25,0l-2.21 2.13 0 -2.12 -0.78 0 0 3.53 0.22 0 2.25 -2.14zm1.52 2.05l0 0.09 0.86 0 0.85 -1.14 0.67 0 0 1.14c0.27,0 0.53,0 0.8,0l0 -3.53c-0.44,0 -1.33,0 -1.77,0 -0.76,0 -1.24,0.54 -1.24,1.18 0,0.49 0.32,0.91 0.76,1.06l-0.93 1.2zm1.64 -1.69c-0.4,0 -0.68,-0.22 -0.68,-0.55 0,-0.35 0.28,-0.59 0.68,-0.59 0.25,0 0.49,0 0.74,0l0 1.14 -0.74 0z"/>
  <path class="fil3" d="M39.37 21.69l1.05 -1.16 0 1.97c0.25,0 0.51,0 0.77,0 0,-1.11 0,-2.48 0,-3.53l-0.25 0 -1.61 1.77 -1.6 -1.77 -0.24 0c0,1.05 0,2.42 0,3.53 0.24,0 0.5,0 0.76,0l0 -1.97 1.05 1.16 0.07 0zm6.22 -2.63c0,-0.03 0,-0.06 0,-0.09l-0.8 0 -1.01 2.62c0,0 -0.01,0 -0.02,0l-1.1 -2.62 -0.85 0c0,0.03 0,0.06 0,0.09l1.57 3.46 -0.17 0.43c-0.21,0.59 -0.5,0.9 -1.13,0.63l-0.09 0.57c1.16,0.54 1.64,-0.3 2.07,-1.35l1.53 -3.74zm0.59 0.69c0.28,-0.16 0.78,-0.25 1.11,-0.25 0.35,0 0.71,0.08 0.71,0.45 0,0.4 -0.37,0.43 -0.71,0.43 -0.16,0 -0.32,0 -0.48,0l0 0.55c0.17,0 0.34,0 0.52,0 0.39,0 0.88,0.02 0.88,0.49 0,0.38 -0.4,0.5 -0.82,0.5 -0.47,-0.01 -1.09,-0.18 -1.33,-0.37l-0.04 0.68c0.35,0.21 0.93,0.36 1.48,0.36 0.78,0 1.55,-0.29 1.55,-1.08 0,-0.48 -0.31,-0.8 -0.76,-0.91 0.36,-0.09 0.56,-0.38 0.56,-0.74 0,-0.74 -0.72,-0.96 -1.42,-0.96 -0.47,0 -0.97,0.1 -1.3,0.27l0.05 0.58zm5.29 -0.86c-0.96,0 -1.81,0.59 -1.83,1.77 -0.04,1.2 0.82,1.94 1.98,1.92 0.45,0 0.92,-0.12 1.33,-0.3l-0.1 -0.6c-0.42,0.19 -0.84,0.25 -1.28,0.22 -0.64,0 -1.15,-0.38 -1.15,-1.02l2.61 0c0.23,-1.17 -0.33,-1.99 -1.56,-1.99zm-0.01 0.61c0.5,0 0.94,0.28 0.92,0.82l-1.95 0c0.11,-0.56 0.5,-0.82 1.03,-0.82zm4.9 0.87l0 2.13c0.26,0 0.51,0 0.77,0 0,-1.18 0,-2.36 0,-3.54 -0.08,0 -0.16,0 -0.25,0l-2.21 2.13 0 -2.12 -0.78 0 0 3.54 0.22 0 2.25 -2.14z"/>
  <path class="fil3" d="M40.99 4.81c0,-1.24 -0.95,-1.86 -1.89,-1.84 -0.93,0.01 -1.83,0.62 -1.83,1.84 0,1.23 0.93,1.84 1.86,1.84 0.93,0 1.86,-0.61 1.86,-1.84zm-2.93 0c0,-0.75 0.51,-1.12 1.04,-1.14 0.54,-0.01 1.1,0.37 1.1,1.14 0,0.75 -0.53,1.13 -1.06,1.14 -0.54,0.01 -1.08,-0.38 -1.08,-1.14zm5.26 1.77l0 -2.83 1.15 0 0 -0.69 -3.06 0 0 0.69 1.14 0 0 2.83 0.77 0zm1.97 0.82l0 -0.81 2.52 0 0 0.81 0.68 0 0.03 -1.44 -0.48 0 0 -2.9 -2.49 0 -0.26 1.78c-0.09,0.62 -0.13,1.12 -0.65,1.12l-0.07 0c-0.01,0 -0.02,0 -0.02,0l0.03 1.44 0.71 0zm1.98 -1.44l-1.57 0c0.19,-0.14 0.24,-0.36 0.32,-0.9l0.17 -1.34 1.08 0 0 2.24zm3.49 0.63l-1.48 0 0 -3.53 0.77 0 0 1.09 0.71 0c0.81,0 1.56,0.32 1.56,1.22 0,0.89 -0.76,1.22 -1.56,1.22zm-0.71 -1.83l0 1.22 0.7 0c0.43,0 0.79,-0.19 0.79,-0.61 0,-0.42 -0.36,-0.61 -0.79,-0.61l-0.7 0zm2.92 1.83l0.75 0 0 -3.54 -0.75 0 0 3.54zm3.15 -1.38l0.42 0.66 0.51 0.72 0.77 0 0 -0.09 -1.26 -1.74 1.15 -1.62 0 -0.08 -0.8 0 -0.42 0.57 -0.38 0.58 -0.02 0 -0.39 -0.6 -0.4 -0.55 -0.76 0 0 0.08 1.11 1.57 -1.31 1.79 0 0.09 0.8 0 0.53 -0.71 0.43 -0.67 0.02 0z"/>
  <polygon class="fil4" points="38.64,27.32 37.77,26.29 37.6,26.29 37.6,28.47 38.06,28.47 38.06,27.29 38.61,27.97 38.67,27.97 39.22,27.29 39.22,28.47 39.69,28.47 39.69,26.29 39.52,26.29 "/>
  <path class="fil4" d="M40.86 27.38c0,-0.45 0.3,-0.69 0.65,-0.69 0.34,0 0.64,0.23 0.64,0.69 0,0.48 -0.31,0.7 -0.65,0.7 -0.35,0 -0.64,-0.22 -0.64,-0.7zm1.76 0c0,-0.72 -0.54,-1.11 -1.11,-1.11 -0.59,0 -1.13,0.38 -1.13,1.11 0,0.73 0.53,1.12 1.12,1.12 0.66,0 1.12,-0.46 1.12,-1.12z"/>
  <path class="fil4" d="M43.18 27.83c0,0.47 0.45,0.68 0.89,0.68 0.43,-0.01 0.88,-0.16 0.88,-0.67 0,-0.51 -0.4,-0.61 -0.86,-0.65 -0.23,-0.03 -0.42,-0.07 -0.42,-0.27 0,-0.16 0.19,-0.26 0.37,-0.26 0.19,0 0.38,0.07 0.4,0.25l0.44 0c0,-0.49 -0.43,-0.66 -0.84,-0.66 -0.43,0 -0.83,0.2 -0.83,0.68 0,0.45 0.4,0.59 0.8,0.62 0.21,0.02 0.48,0.04 0.48,0.29 0,0.22 -0.23,0.27 -0.42,0.27 -0.21,0 -0.43,-0.09 -0.44,-0.28l-0.45 0z"/>
  <path class="fil4" d="M45.51 27.38c0,0.72 0.54,1.11 1.11,1.11 0.42,0 0.81,-0.18 0.98,-0.61 0.07,-0.2 0.08,-0.4 0.06,-0.61l-1.02 0 0 0.39 0.6 0c-0.1,0.32 -0.32,0.41 -0.62,0.41 -0.39,0 -0.64,-0.28 -0.64,-0.69 0,-0.38 0.23,-0.69 0.64,-0.69 0.25,0 0.43,0.08 0.54,0.29l0.46 0c-0.13,-0.5 -0.56,-0.71 -1,-0.71 -0.57,0 -1.11,0.39 -1.11,1.11z"/>
  <path class="fil4" d="M48.7 27.38c0,-0.45 0.31,-0.69 0.65,-0.69 0.34,0 0.65,0.23 0.65,0.69 0,0.48 -0.31,0.7 -0.65,0.7 -0.35,0 -0.65,-0.22 -0.65,-0.7zm1.77 0c0,-0.72 -0.54,-1.11 -1.12,-1.11 -0.58,0 -1.12,0.38 -1.12,1.11 0,0.73 0.53,1.12 1.11,1.12 0.67,0 1.13,-0.46 1.13,-1.12z"/>
  <path class="fil4" d="M51.62 27.37l0 -0.67 0.47 0c0.2,0 0.32,0.15 0.32,0.33 0.01,0.19 -0.12,0.34 -0.32,0.34l-0.47 0zm0.86 0.31c0.25,-0.12 0.39,-0.37 0.39,-0.64 0,-0.38 -0.28,-0.74 -0.78,-0.74 -0.31,-0.01 -0.62,0 -0.93,0l0 2.16 0.47 0 0 -0.71 0.39 0 0.45 0.71 0.5 0 0 -0.06 -0.49 -0.72z"/>
  <polygon class="fil4" points="53.99,26.7 53.99,28.47 54.44,28.47 54.44,26.7 55.02,26.7 55.02,26.3 53.41,26.3 53.41,26.7 "/>
  <path class="fil4" d="M56.48 28.49c0.46,0 0.87,-0.26 0.87,-0.74l0 -1.45 -0.46 0 0 1.44c0,0.23 -0.19,0.35 -0.41,0.35 -0.21,0 -0.4,-0.12 -0.4,-0.35l0 -1.44 -0.47 0 0 1.45c0,0.48 0.41,0.74 0.87,0.74z"/>
  <path class="fil4" d="M65.14 28.49c0.46,0 0.87,-0.26 0.87,-0.74l0 -1.45 -0.46 0 0 1.44c0,0.23 -0.19,0.35 -0.41,0.35 -0.21,0 -0.4,-0.12 -0.4,-0.35l0 -1.44 -0.47 0 0 1.45c0,0.48 0.41,0.74 0.87,0.74z"/>
  <path class="fil4" d="M58.61 27.37l0 -0.67 0.47 0c0.2,0 0.32,0.15 0.32,0.33 0.01,0.19 -0.12,0.34 -0.32,0.34l-0.47 0zm0.86 0.31c0.25,-0.12 0.39,-0.37 0.39,-0.64 0,-0.38 -0.27,-0.74 -0.77,-0.74 -0.32,-0.01 -0.63,0 -0.94,0l0 2.16 0.47 0 0 -0.71 0.39 0 0.45 0.71 0.5 0 0 -0.06 -0.49 -0.72z"/>
  <path class="fil4" d="M60.84 28.51c0.15,0 0.26,-0.09 0.26,-0.23 0,-0.15 -0.11,-0.24 -0.26,-0.24 -0.15,0 -0.26,0.09 -0.26,0.24 0,0.14 0.11,0.23 0.26,0.23z"/>
  <path class="fil4" d="M62.32 27.37l0 -0.67 0.47 0c0.2,0 0.32,0.15 0.32,0.33 0,0.19 -0.13,0.34 -0.32,0.34l-0.47 0zm0.85 0.31c0.25,-0.12 0.39,-0.37 0.39,-0.64 0,-0.38 -0.27,-0.74 -0.77,-0.74 -0.31,-0.01 -0.62,0 -0.93,0l0 2.16 0.46 0 0 -0.71 0.39 0 0.45 0.71 0.5 0 0 -0.06 -0.49 -0.72z"/>
 </g>
</svg>
