<?xml version="1.0" encoding="utf-8"?><svg width="1920" height="241" fill="none" xmlns="http://www.w3.org/2000/svg" viewBox="0 0 1920 241"><path d="M0 132.58c1.35 16.27 10.49 29.46 21.88 37.95 34.37 25.6 85.82 27.03 124.32 29.59 69.1 4.59 136.01-4.9 201.65-31.38 26.85-10.84 69.57-25.72 86.03-57.08 19-36.2-57.27-46.31-70.87-46.31-46.95 0-114.72 40.94-111.63 107.57 3.52 76.3 111.54 71.24 152.16 60.96 36.45-9.22 69.83-36.68 99.46-62.6 16.36-14.31 31.41-31.37 49.23-43.18 19.58-12.97 41.63-20.58 63.15-27.2 82.45-25.31 177.86-32.02 261.08-8.06 26.7 7.69 58.28 23.5 75.83 50.35 15.17 23.2 2.21 45.53-4.29 51.81-8.75 8.46-13 15-39 20-16.39 3.15-38 0-52.5-10-14.38-9.91-19.22-23.27-9-39.85 18.53-30.06 56.33-52.46 85-61.65 96.61-30.99 169.34 73.72 263.5 96.62 21 7.88 104.88 16.03 133 14.88 98-4 201.24-50.48 252.85-92.28 29.15-23.61 27.36-86.74-1.62-110.71-18.46-15.28-52.27-13.53-71.61-1.65C1477 42 1473.5 64 1459.39 101.66c-8.31 32.47-16.43 72.25 7.59 98.46 13.54 14.77 41.53 19.67 59.02 22.38 44.5 4.06 50.45 4.06 80.09 4.06 45.91 0 218.19-30.83 313.91-102.05" stroke="url(#aa)" stroke-width="2" stroke-linecap="round" stroke-dasharray="6 6"/><defs><linearGradient id="aa" x1="0" y1="1" x2="58.43" y2="471.08" gradientUnits="userSpaceOnUse"><stop stop-color="#F4DBF9"/><stop offset="1" stop-color="#D8DBFE"/></linearGradient></defs></svg>