<?xml version="1.0" encoding="utf-8"?><svg width="41" height="41" fill="none" xmlns="http://www.w3.org/2000/svg" viewBox="0 0 41 41"><path d="M8.5 17.57a8.27 8.27 0 01-6-2.51A8.5 8.5 0 010 9c0-2.29.87-4.42 2.5-6.05a8.36 8.36 0 016-2.51A8.5 8.5 0 0117 9a8.4 8.4 0 01-2.49 6.05 8.5 8.5 0 01-6 2.51z" fill="#D988EE"/><path d="M8.72 40.16a8.59 8.59 0 01-6.01-2.51 8.5 8.5 0 01-2.5-6.06 8.5 8.5 0 013.69-7.04c.1-.1.27-.16.43-.27.27-.16.6-.33.92-.49.16-.05.33-.16.49-.22.32-.1.65-.22 1.03-.27l.21-.06c.06 0 .06 0 .11-.05l1.95-.16c.27 0 .54.05.81.1h1.03c3.25 0 6.5-1.41 8.83-3.81a12.61 12.61 0 003.52-9v-.22c0-.11 0-.22-.06-.33v-.28l-.05-.21c0-.17-.05-.33-.05-.5l.1-1.8v-.1a9.16 9.16 0 01.38-1.36c.06-.17.17-.34.22-.5.16-.33.32-.6.49-.93l.05-.05a7.71 7.71 0 011.2-1.53 8.36 8.36 0 016-2.51c2.28 0 4.44.87 6.01 2.51a8.64 8.64 0 01-1.19 13.1c-.1.1-.21.16-.38.21l-.05.06c-.33.16-.6.33-.92.49-.16.05-.33.16-.49.22-.32.1-.65.22-1.03.33-.05 0-.16.05-.21.05-.06 0-.11 0-.11.05l-1.9.11c-.21 0-.49-.05-.76-.05H29.4c-3.25 0-6.5 1.42-8.82 3.82a12.9 12.9 0 00-3.58 9v.22c0 .1 0 .22.06.27v.33c0 .05 0 .16.05.27 0 .17.05.28.05.44L17 33.28c0 .06 0 .11-.05.17l-.06.16c-.1.44-.21.77-.32 1.1-.06.16-.16.32-.22.48-.16.33-.32.6-.49.93-.1.17-.16.28-.27.44-.32.49-.65.87-.97 1.2a8.4 8.4 0 01-5.9 2.4z" fill="url(#ba)"/><path d="M31.5 39.57a8.27 8.27 0 01-6-2.51A8.5 8.5 0 0123 31c0-2.29.87-4.42 2.5-6.05a8.36 8.36 0 016-2.51A8.5 8.5 0 0140 31a8.4 8.4 0 01-2.49 6.05 8.5 8.5 0 01-6 2.51z" fill="#D988EE"/><defs><linearGradient id="ba" x1=".22" y1="0" x2="40.38" y2="39.78" gradientUnits="userSpaceOnUse"><stop stop-color="#D988EE"/><stop offset="1" stop-color="#6478FF"/></linearGradient></defs></svg>