<svg xmlns="http://www.w3.org/2000/svg" xmlns:xlink="http://www.w3.org/1999/xlink"><defs><style>.sprite-symbol-usage{display:none}.sprite-symbol-usage:target{display:inline}</style><symbol fill="none" viewBox="0 0 16 17" id="fb"><path fill="#fff" fill-rule="evenodd" d="M13 4V1h-3C8 1 7 2 7 4v3H4v3h3v7h3v-7h3V7h-3V5l1-1h2z" clip-rule="evenodd"/></symbol><symbol fill="none" viewBox="0 0 53 39" id="header-home"><path fill="#B7BBB2" fill-rule="evenodd" d="M28 1h-3L1 17v2h8a4187 4187 0 0 1 1 20h6l2-1V28c0-5 3-9 8-9l7 2 2 7v10l1 1h7l1-1V19h8l1-2L28 1z" clip-rule="evenodd"/><path fill="#B7BBB2" fill-rule="evenodd" d="M28 27a1 1 0 1 1-3 0 1 1 0 0 1 3 0z" clip-rule="evenodd"/><path fill="#B7BBB2" fill-rule="evenodd" d="M27 35h-1v-9h1v9z" clip-rule="evenodd"/><path fill="#B7BBB2" fill-rule="evenodd" d="M29 39h-5l-1-1-1-5 1-1h7l1 1-1 5-1 1zm-4-15v2l-2-2v-2l2 2zm5 0l-2 2v-2l2-2v2zm-3-2v2h-1v-4h1v2z" clip-rule="evenodd"/></symbol><symbol fill="none" viewBox="0 0 16 17" id="insta"><mask id="insta_a" width="16" height="17" x="0" y="0" maskUnits="userSpaceOnUse"><path fill="#fff" fill-rule="evenodd" d="M16 0H0v16h16V0z" clip-rule="evenodd"/></mask><g mask="url(#insta_a)"><path fill="#fff" fill-rule="evenodd" d="M14 11c0 2-1 3-3 3H5c-2 0-3-1-3-3V5c0-2 1-3 3-3h6c2 0 3 1 3 3v6zM11 0H5C2 0 0 2 0 5v6c0 3 2 5 5 5h6c3 0 5-2 5-5V5c0-3-2-5-5-5z" clip-rule="evenodd"/></g><path fill="#fff" fill-rule="evenodd" d="M8 11a3 3 0 1 1 0-6 3 3 0 0 1 0 6zm0-7a4 4 0 1 0 0 8 4 4 0 0 0 0-8zm4-1a1 1 0 1 0 0 2 1 1 0 0 0 0-2z" clip-rule="evenodd"/></symbol><symbol viewBox="0 0 1340 168" fill="none" id="main-logo"><path opacity=".196" fill-rule="evenodd" clip-rule="evenodd" d="M83.708 77.733v29.544h32.454c-6.939 10.072-19.249 16.563-32.454 16.563-20.591 0-39.616-16.787-39.616-39.84 0-23.053 18.577-39.84 39.616-39.84 11.415 0 20.815 4.477 27.977 11.191l31.111-30.887C127.576 9.468 106.761.068 83.708.068 37.378.068 0 37.67 0 84c0 46.33 37.378 83.932 83.708 83.932S167.64 130.33 167.64 84v-6.267H83.708zm256.272 90.199h-50.807l-25.963-44.54h-27.306v44.54h-44.092V.068h70.727c34.02 0 61.774 27.754 61.774 61.774 0 17.905-7.834 34.02-19.92 45.211l35.587 60.879zM235.904 37.222v48.12h27.306c13.429 0 24.173-10.519 24.173-23.948a24.072 24.072 0 0 0-24.173-24.172h-27.306zm125.786 130.71h104.3v-36.035h-60.207V101.01h53.268V63.856h-53.268V36.55h60.207V.069h-104.3v167.864zm135.858 0h104.299v-36.035H541.64V101.01h53.269V63.856H541.64V36.55h60.207V.069H497.548v167.864zm135.858 0h104.299v-36.035h-60.207V101.01h53.269V63.856h-53.269V36.55h60.207V.069H633.406v167.864zm277.311 0V.068h-44.093V79.3L787.169.068h-17.906v167.864h44.093V88.476l79.231 79.456h18.13zM1083.5 24.464C1068.28 9.244 1047.47.068 1024.42.068 978.086.068 940.484 37.67 940.484 84c0 46.33 37.602 83.932 83.936 83.932 23.27 0 44.31-9.624 59.53-24.844l-31.33-30.887c-6.94 7.162-16.79 11.191-28.2 11.191-22.83 0-39.396-16.563-39.396-39.392 0-22.83 16.566-39.392 39.396-39.392 11.41 0 21.26 4.029 28.2 10.967l30.88-31.11zm30.67 59.76c0-46.33 37.38-84.156 83.71-84.156 46.33 0 83.93 37.825 83.93 84.156 0 46.33-37.6 83.708-83.93 83.708-46.33 0-83.71-37.378-83.71-83.708zM1237.94 84c0-22.158-17.91-40.063-40.06-40.063-21.94 0-39.84 17.905-39.84 40.063 0 21.934 17.9 40.063 39.84 40.063 22.15 0 40.06-18.129 40.06-40.063zm66.7 65.803c0 10.071 7.61 18.129 17.68 18.129s17.68-8.058 17.68-18.129c0-10.072-7.61-17.682-17.68-17.682s-17.68 7.61-17.68 17.682z" fill="#7A797A"/></symbol><symbol viewBox="0 0 38 40" fill="none" id="menu-header"><path fill-rule="evenodd" clip-rule="evenodd" d="M4.5 9a4.5 4.5 0 1 0 0-9 4.5 4.5 0 0 0 0 9zm14 0a4.5 4.5 0 1 0 0-9 4.5 4.5 0 0 0 0 9zm15 0a4.5 4.5 0 1 0 0-9 4.5 4.5 0 0 0 0 9zm-29 15a4.5 4.5 0 1 0 0-9 4.5 4.5 0 0 0 0 9zm14 0a4.5 4.5 0 1 0 0-9 4.5 4.5 0 0 0 0 9zm15 0a4.5 4.5 0 1 0 0-9 4.5 4.5 0 0 0 0 9zm-29 16a4.5 4.5 0 1 0 0-9 4.5 4.5 0 0 0 0 9zm14 0a4.5 4.5 0 1 0 0-9 4.5 4.5 0 0 0 0 9zm15 0a4.5 4.5 0 1 0 0-9 4.5 4.5 0 0 0 0 9z" fill="#B7BBB2"/></symbol><symbol fill="none" viewBox="0 0 16 16" id="tw"><path fill="#fff" fill-rule="evenodd" d="M5 14c5 0 9-4 9-9l2-2-2 1 2-2-2 1h-1l-2-1C9 2 8 3 8 5v1S4 6 1 3c0 0-1 2 1 4L1 6S0 9 3 9H2s0 2 3 2c0 0-2 2-5 2l5 1z" clip-rule="evenodd"/></symbol></defs><use id="fb-usage" xlink:href="#fb" class="sprite-symbol-usage"/><use id="header-home-usage" xlink:href="#header-home" class="sprite-symbol-usage"/><use id="insta-usage" xlink:href="#insta" class="sprite-symbol-usage"/><use id="main-logo-usage" xlink:href="#main-logo" class="sprite-symbol-usage"/><use id="menu-header-usage" xlink:href="#menu-header" class="sprite-symbol-usage"/><use id="tw-usage" xlink:href="#tw" class="sprite-symbol-usage"/></svg>