<?xml version="1.0" encoding="utf-8"?><svg viewBox="0 0 1920 241" xmlns="http://www.w3.org/2000/svg" xmlns:xlink="http://www.w3.org/1999/xlink"><style>:root>svg{display:none}:root>svg:target{display:block}</style><svg fill="none" viewBox="0 0 1920 241" id="dotted-line" xmlns="http://www.w3.org/2000/svg"><path d="M0 132.58c1.35 16.27 10.49 29.46 21.88 37.95 34.37 25.6 85.82 27.03 124.32 29.59 69.1 4.59 136.01-4.9 201.65-31.38 26.85-10.84 69.57-25.72 86.03-57.08 19-36.2-57.27-46.31-70.87-46.31-46.95 0-114.72 40.94-111.63 107.57 3.52 76.3 111.54 71.24 152.16 60.96 36.45-9.22 69.83-36.68 99.46-62.6 16.36-14.31 31.41-31.37 49.23-43.18 19.58-12.97 41.63-20.58 63.15-27.2 82.45-25.31 177.86-32.02 261.08-8.06 26.7 7.69 58.28 23.5 75.83 50.35 15.17 23.2 2.21 45.53-4.29 51.81-8.75 8.46-13 15-39 20-16.39 3.15-38 0-52.5-10-14.38-9.91-19.22-23.27-9-39.85 18.53-30.06 56.33-52.46 85-61.65 96.61-30.99 169.34 73.72 263.5 96.62 21 7.88 104.88 16.03 133 14.88 98-4 201.24-50.48 252.85-92.28 29.15-23.61 27.36-86.74-1.62-110.71-18.46-15.28-52.27-13.53-71.61-1.65C1477 42 1473.5 64 1459.39 101.66c-8.31 32.47-16.43 72.25 7.59 98.46 13.54 14.77 41.53 19.67 59.02 22.38 44.5 4.06 50.45 4.06 80.09 4.06 45.91 0 218.19-30.83 313.91-102.05" stroke="url(#aa)" stroke-width="2" stroke-linecap="round" stroke-dasharray="6 6"/><defs><linearGradient id="aa" x1="0" y1="1" x2="58.43" y2="471.08" gradientUnits="userSpaceOnUse"><stop stop-color="#F4DBF9"/><stop offset="1" stop-color="#D8DBFE"/></linearGradient></defs></svg><svg fill="none" viewBox="0 0 41 41" id="logo" xmlns="http://www.w3.org/2000/svg"><path d="M8.5 17.57a8.27 8.27 0 01-6-2.51A8.5 8.5 0 010 9c0-2.29.87-4.42 2.5-6.05a8.36 8.36 0 016-2.51A8.5 8.5 0 0117 9a8.4 8.4 0 01-2.49 6.05 8.5 8.5 0 01-6 2.51z" fill="#D988EE"/><path d="M8.72 40.16a8.59 8.59 0 01-6.01-2.51 8.5 8.5 0 01-2.5-6.06 8.5 8.5 0 013.69-7.04c.1-.1.27-.16.43-.27.27-.16.6-.33.92-.49.16-.05.33-.16.49-.22.32-.1.65-.22 1.03-.27l.21-.06c.06 0 .06 0 .11-.05l1.95-.16c.27 0 .54.05.81.1h1.03c3.25 0 6.5-1.41 8.83-3.81a12.61 12.61 0 003.52-9v-.22c0-.11 0-.22-.06-.33v-.28l-.05-.21c0-.17-.05-.33-.05-.5l.1-1.8v-.1a9.16 9.16 0 01.38-1.36c.06-.17.17-.34.22-.5.16-.33.32-.6.49-.93l.05-.05a7.71 7.71 0 011.2-1.53 8.36 8.36 0 016-2.51c2.28 0 4.44.87 6.01 2.51a8.64 8.64 0 01-1.19 13.1c-.1.1-.21.16-.38.21l-.05.06c-.33.16-.6.33-.92.49-.16.05-.33.16-.49.22-.32.1-.65.22-1.03.33-.05 0-.16.05-.21.05-.06 0-.11 0-.11.05l-1.9.11c-.21 0-.49-.05-.76-.05H29.4c-3.25 0-6.5 1.42-8.82 3.82a12.9 12.9 0 00-3.58 9v.22c0 .1 0 .22.06.27v.33c0 .05 0 .16.05.27 0 .17.05.28.05.44L17 33.28c0 .06 0 .11-.05.17l-.06.16c-.1.44-.21.77-.32 1.1-.06.16-.16.32-.22.48-.16.33-.32.6-.49.93-.1.17-.16.28-.27.44-.32.49-.65.87-.97 1.2a8.4 8.4 0 01-5.9 2.4z" fill="url(#ba)"/><path d="M31.5 39.57a8.27 8.27 0 01-6-2.51A8.5 8.5 0 0123 31c0-2.29.87-4.42 2.5-6.05a8.36 8.36 0 016-2.51A8.5 8.5 0 0140 31a8.4 8.4 0 01-2.49 6.05 8.5 8.5 0 01-6 2.51z" fill="#D988EE"/><defs><linearGradient id="ba" x1=".22" y1="0" x2="40.38" y2="39.78" gradientUnits="userSpaceOnUse"><stop stop-color="#D988EE"/><stop offset="1" stop-color="#6478FF"/></linearGradient></defs></svg></svg>