<svg xmlns="http://www.w3.org/2000/svg" xmlns:xlink="http://www.w3.org/1999/xlink"><defs><style>.sprite-symbol-usage{display:none}.sprite-symbol-usage:target{display:inline}</style><symbol viewBox="0 0 8 13" fill="none" id="arrow"><path d="M6.49 12.88a.44.44 0 0 0 .462.09.42.42 0 0 0 .138-.69L1.82 7l5.27-5.28a.42.42 0 0 0 0-.6.43.43 0 0 0-.6 0L.91 6.7a.42.42 0 0 0 0 .6l5.58 5.58z" fill="#A3C0DC"/></symbol><symbol viewBox="0 0 12 7" fill="none" id="arrowcard"><path d="M10.952 1.176l-4.976 5.05L1 1.175" stroke="#637188" stroke-linecap="round" stroke-linejoin="round"/></symbol><symbol viewBox="0 0 14 11" fill="none" id="cart"><path d="M13.245 2.093a.474.474 0 0 0-.353-.155H3.449a6.074 6.074 0 0 0-.036-.209 37.688 37.688 0 0 1-.043-.241 1.49 1.49 0 0 0-.059-.217.505.505 0 0 0-.26-.327.464.464 0 0 0-.223-.054H.815a.475.475 0 0 0-.354.156.514.514 0 0 0-.15.368c0 .142.05.265.15.368.1.104.218.156.354.156h1.604L3.81 8.673c-.01.022-.064.126-.16.311a6.197 6.197 0 0 0-.233.487.928.928 0 0 0-.086.323c0 .142.05.265.15.369a.474.474 0 0 0 .353.155h8.051a.475.475 0 0 0 .354-.155c.1-.104.15-.227.15-.369a.513.513 0 0 0-.15-.368.475.475 0 0 0-.354-.155H4.652c.126-.262.188-.437.188-.524a.919.919 0 0 0-.02-.18 7.702 7.702 0 0 0-.046-.217 2.136 2.136 0 0 1-.036-.176l8.209-.998A.482.482 0 0 0 13.269 7a.528.528 0 0 0 .126-.348v-4.19a.514.514 0 0 0-.15-.369z" fill="#fff"/></symbol><symbol viewBox="0 0 16 16" fill="none" id="checkbox"><rect width="16" height="16" rx="2" fill="#F30C0C"/><path d="M4.364 7.273l2.909 2.909 4.363-4.364" stroke="#fff" stroke-width="1.5" stroke-linecap="round" stroke-linejoin="round"/></symbol><symbol viewBox="0 0 12 16" fill="none" id="geo"><path d="M6 0A5.801 5.801 0 0 0 .205 5.795c0 3.965 5.186 9.786 5.407 10.032.207.23.57.23.776 0 .221-.246 5.407-6.067 5.407-10.032C11.795 2.599 9.195 0 6 0zm0 8.71a2.919 2.919 0 0 1-2.915-2.915A2.919 2.919 0 0 1 6 2.879a2.919 2.919 0 0 1 2.915 2.916A2.919 2.919 0 0 1 6 8.71z" fill="#9CBEF5"/></symbol><symbol viewBox="0 0 19 16" fill="none" id="like"><path d="M17.01 1.488A5.14 5.14 0 0 0 13.372 0a5.143 5.143 0 0 0-3.638 1.488l-.478.472-.479-.472A5.142 5.142 0 0 0 5.141 0a5.142 5.142 0 0 0-3.637 1.488 5.042 5.042 0 0 0 0 7.184L8.69 15.77a.787.787 0 0 0 .417.215.805.805 0 0 0 .716-.215l7.186-7.098a5.042 5.042 0 0 0 0-7.184z" fill="#9CBEF5"/></symbol><symbol viewBox="0 0 16 17" fill="none" id="liketransp"><path d="M14.7 1.554C13.86.594 12.744.067 11.557.067c-1.187 0-2.304.528-3.143 1.487L8 2.027l-.414-.473C6.746.594 5.63.067 4.443.067 3.256.067 2.14.595 1.3 1.554-.433 3.535-.433 6.758 1.3 8.74l6.21 7.098a.654.654 0 0 0 .494.23.643.643 0 0 0 .485-.23L14.7 8.739c1.733-1.98 1.733-5.204 0-7.185zm-.971 6.075L8 14.177 2.27 7.629c-1.197-1.369-1.197-3.596 0-4.965C2.852 2 3.624 1.636 4.444 1.636c.82 0 1.592.365 2.172 1.028l.9 1.028a.645.645 0 0 0 .97 0l.9-1.028c.58-.663 1.351-1.028 2.172-1.028.82 0 1.592.365 2.172 1.028 1.198 1.37 1.198 3.596 0 4.965z" fill="#9CBEF5"/></symbol><symbol viewBox="0 0 16 14" fill="none" id="likewhite"><path d="M14.7 1.302A4.415 4.415 0 0 0 11.557 0a4.417 4.417 0 0 0-3.143 1.302L8 1.715l-.414-.413A4.416 4.416 0 0 0 4.443 0 4.416 4.416 0 0 0 1.3 1.302a4.45 4.45 0 0 0 0 6.286l6.21 6.21a.678.678 0 0 0 .494.202.684.684 0 0 0 .485-.201l6.211-6.21a4.45 4.45 0 0 0 0-6.287zm-.971 5.315L8 12.347l-5.73-5.73a3.075 3.075 0 0 1 0-4.344c.581-.58 1.353-.9 2.173-.9.82 0 1.592.32 2.172.9l.9.9a.707.707 0 0 0 .97 0l.9-.9c.58-.58 1.351-.9 2.172-.9.82 0 1.592.32 2.172.9a3.075 3.075 0 0 1 0 4.344z" fill="#fff"/></symbol></defs><use id="arrow-usage" xlink:href="#arrow" class="sprite-symbol-usage"/><use id="arrowcard-usage" xlink:href="#arrowcard" class="sprite-symbol-usage"/><use id="cart-usage" xlink:href="#cart" class="sprite-symbol-usage"/><use id="checkbox-usage" xlink:href="#checkbox" class="sprite-symbol-usage"/><use id="geo-usage" xlink:href="#geo" class="sprite-symbol-usage"/><use id="like-usage" xlink:href="#like" class="sprite-symbol-usage"/><use id="liketransp-usage" xlink:href="#liketransp" class="sprite-symbol-usage"/><use id="likewhite-usage" xlink:href="#likewhite" class="sprite-symbol-usage"/></svg>