<svg xmlns="http://www.w3.org/2000/svg" xmlns:xlink="http://www.w3.org/1999/xlink"><defs><style>.sprite-symbol-usage{display:none}.sprite-symbol-usage:target{display:inline}</style><symbol viewBox="0 0 8 13" fill="none" id="arrow"><path d="M6.49 12.88a.44.44 0 0 0 .462.09.42.42 0 0 0 .138-.69L1.82 7l5.27-5.28a.42.42 0 0 0 0-.6.43.43 0 0 0-.6 0L.91 6.7a.42.42 0 0 0 0 .6l5.58 5.58z" fill="#A3C0DC"/></symbol><symbol viewBox="0 0 12 7" fill="none" id="arrowcard"><path d="M10.952 1.176l-4.976 5.05L1 1.175" stroke="#637188" stroke-linecap="round" stroke-linejoin="round"/></symbol><symbol viewBox="0 0 14 7" fill="none" id="arrowfooter"><path d="M13 1L7 6 1 1" stroke="#A19D9E" stroke-width=".4" stroke-linecap="round" stroke-linejoin="round"/></symbol><symbol viewBox="0 0 14 11" fill="none" id="cart"><path d="M13.245 2.093a.474.474 0 0 0-.353-.155H3.449a6.074 6.074 0 0 0-.036-.209 37.688 37.688 0 0 1-.043-.241 1.49 1.49 0 0 0-.059-.217.505.505 0 0 0-.26-.327.464.464 0 0 0-.223-.054H.815a.475.475 0 0 0-.354.156.514.514 0 0 0-.15.368c0 .142.05.265.15.368.1.104.218.156.354.156h1.604L3.81 8.673c-.01.022-.064.126-.16.311a6.197 6.197 0 0 0-.233.487.928.928 0 0 0-.086.323c0 .142.05.265.15.369a.474.474 0 0 0 .353.155h8.051a.475.475 0 0 0 .354-.155c.1-.104.15-.227.15-.369a.513.513 0 0 0-.15-.368.475.475 0 0 0-.354-.155H4.652c.126-.262.188-.437.188-.524a.919.919 0 0 0-.02-.18 7.702 7.702 0 0 0-.046-.217 2.136 2.136 0 0 1-.036-.176l8.209-.998A.482.482 0 0 0 13.269 7a.528.528 0 0 0 .126-.348v-4.19a.514.514 0 0 0-.15-.369z" fill="#fff"/></symbol><symbol viewBox="0 0 16 16" fill="none" id="checkbox"><rect width="16" height="16" rx="2" fill="#F30C0C"/><path d="M4.364 7.273l2.909 2.909 4.363-4.364" stroke="#fff" stroke-width="1.5" stroke-linecap="round" stroke-linejoin="round"/></symbol><symbol viewBox="0 0 12 16" fill="none" id="geo"><path d="M6 0A5.801 5.801 0 0 0 .205 5.795c0 3.965 5.186 9.786 5.407 10.032.207.23.57.23.776 0 .221-.246 5.407-6.067 5.407-10.032C11.795 2.599 9.195 0 6 0zm0 8.71a2.919 2.919 0 0 1-2.915-2.915A2.919 2.919 0 0 1 6 2.879a2.919 2.919 0 0 1 2.915 2.916A2.919 2.919 0 0 1 6 8.71z" fill="#9CBEF5"/></symbol><symbol viewBox="0 0 16 16" fill="none" id="inst"><path fill-rule="evenodd" clip-rule="evenodd" d="M4 0a4 4 0 0 0-4 4v8a4 4 0 0 0 4 4h8a4 4 0 0 0 4-4V4a4 4 0 0 0-4-4H4zm6.26 6.234a.509.509 0 1 1-.002-1.018.509.509 0 0 1 .001 1.018zm-2.266.34c-.78 0-1.414.632-1.414 1.411 0 .78.633 1.412 1.414 1.412a1.413 1.413 0 0 0 0-2.822zM5.815 7.985c0 1.201.976 2.174 2.18 2.174a2.176 2.176 0 0 0 2.178-2.174c0-1.2-.975-2.174-2.179-2.174a2.176 2.176 0 0 0-2.179 2.174zm5.063-3.789c.227.089.39.195.56.365.171.171.277.334.366.561.066.172.146.43.168.906.023.515.028.67.028 1.972 0 1.303-.005 1.457-.028 1.972-.022.475-.102.734-.168.906-.089.227-.195.39-.365.56a1.525 1.525 0 0 1-.561.366c-.172.066-.43.146-.906.168-.515.023-.67.028-1.972.028-1.303 0-1.457-.005-1.972-.028-.475-.022-.734-.102-.906-.168a1.512 1.512 0 0 1-.56-.365 1.513 1.513 0 0 1-.366-.561c-.066-.172-.146-.43-.168-.906C4.005 9.457 4 9.302 4 8c0-1.303.005-1.457.028-1.972.022-.475.102-.734.168-.906.089-.227.195-.39.365-.56.171-.171.334-.277.561-.366.172-.066.43-.146.906-.168C6.543 4.005 6.698 4 8 4c1.303 0 1.457.005 1.972.028.475.022.734.102.906.168z" fill="#5968AB"/></symbol><symbol viewBox="0 0 19 16" fill="none" id="like"><path d="M17.01 1.488A5.14 5.14 0 0 0 13.372 0a5.143 5.143 0 0 0-3.638 1.488l-.478.472-.479-.472A5.142 5.142 0 0 0 5.141 0a5.142 5.142 0 0 0-3.637 1.488 5.042 5.042 0 0 0 0 7.184L8.69 15.77a.787.787 0 0 0 .417.215.805.805 0 0 0 .716-.215l7.186-7.098a5.042 5.042 0 0 0 0-7.184z" fill="#9CBEF5"/></symbol><symbol viewBox="0 0 16 17" fill="none" id="liketransp"><path d="M14.7 1.554C13.86.594 12.744.067 11.557.067c-1.187 0-2.304.528-3.143 1.487L8 2.027l-.414-.473C6.746.594 5.63.067 4.443.067 3.256.067 2.14.595 1.3 1.554-.433 3.535-.433 6.758 1.3 8.74l6.21 7.098a.654.654 0 0 0 .494.23.643.643 0 0 0 .485-.23L14.7 8.739c1.733-1.98 1.733-5.204 0-7.185zm-.971 6.075L8 14.177 2.27 7.629c-1.197-1.369-1.197-3.596 0-4.965C2.852 2 3.624 1.636 4.444 1.636c.82 0 1.592.365 2.172 1.028l.9 1.028a.645.645 0 0 0 .97 0l.9-1.028c.58-.663 1.351-1.028 2.172-1.028.82 0 1.592.365 2.172 1.028 1.198 1.37 1.198 3.596 0 4.965z" fill="#9CBEF5"/></symbol><symbol viewBox="0 0 16 14" fill="none" id="likewhite"><path d="M14.7 1.302A4.415 4.415 0 0 0 11.557 0a4.417 4.417 0 0 0-3.143 1.302L8 1.715l-.414-.413A4.416 4.416 0 0 0 4.443 0 4.416 4.416 0 0 0 1.3 1.302a4.45 4.45 0 0 0 0 6.286l6.21 6.21a.678.678 0 0 0 .494.202.684.684 0 0 0 .485-.201l6.211-6.21a4.45 4.45 0 0 0 0-6.287zm-.971 5.315L8 12.347l-5.73-5.73a3.075 3.075 0 0 1 0-4.344c.581-.58 1.353-.9 2.173-.9.82 0 1.592.32 2.172.9l.9.9a.707.707 0 0 0 .97 0l.9-.9c.58-.58 1.351-.9 2.172-.9.82 0 1.592.32 2.172.9a3.075 3.075 0 0 1 0 4.344z" fill="#fff"/></symbol><symbol viewBox="0 0 25 19" fill="none" id="mail"><path d="M2.967.006h19.066C23.669.006 25 1.284 25 2.856v13.289c0 1.57-1.331 2.85-2.967 2.85H2.967c-1.636 0-2.967-1.28-2.967-2.85V2.855C0 1.286 1.331.007 2.967.007zm0 16.472h19.066c.24 0 .451-.156.451-.334V4.614l-8.623 7.28a.982.982 0 0 1-.633.231h-1.456a.983.983 0 0 1-.633-.231l-8.623-7.28v11.532c0 .177.21.333.451.333zM12.5 9.626l8.387-7.104H4.113L12.5 9.626z" fill="#707070"/></symbol><symbol viewBox="0 0 16 16" fill="none" id="vk"><path fill-rule="evenodd" clip-rule="evenodd" d="M4 0a4 4 0 0 0-4 4v8a4 4 0 0 0 4 4h8a4 4 0 0 0 4-4V4a4 4 0 0 0-4-4H4zm4.687 11.966H7.85s-1.847.112-3.473-1.584c-1.773-1.85-3.339-5.52-3.339-5.52s-.09-.24.008-.357c.11-.13.41-.139.41-.139l2-.013s.189.032.324.13a.629.629 0 0 1 .174.236s.323.819.75 1.56c.837 1.446 1.226 1.762 1.51 1.608.413-.226.29-2.045.29-2.045s.007-.66-.209-.954c-.167-.228-.482-.294-.621-.313-.113-.015.072-.277.312-.394.36-.177.995-.187 1.746-.18.585.007.754.043.983.098.53.129.514.54.478 1.427-.01.266-.023.574-.023.93 0 .08-.002.165-.005.253-.012.454-.026.975.273 1.168.153.099.528.015 1.465-1.58.444-.755.778-1.644.778-1.644s.073-.158.185-.226c.116-.07.272-.048.272-.048l2.105-.013s.633-.075.735.21c.108.3-.236 1.002-1.096 2.15-.817 1.09-1.214 1.491-1.176 1.846.027.259.285.493.78.953 1.034.962 1.311 1.468 1.377 1.59l.012.021c.464.77-.514.83-.514.83l-1.87.027s-.401.08-.93-.285c-.277-.19-.547-.5-.804-.796-.394-.452-.758-.87-1.069-.771-.52.166-.504 1.29-.504 1.29s.003.24-.116.369c-.129.139-.381.166-.381.166z" fill="#5968AB"/></symbol><symbol viewBox="0 0 17 17" fill="none" id="wu"><path d="M17 8.281c0 4.574-3.736 8.281-8.345 8.281a8.36 8.36 0 0 1-4.035-1.03L0 17l1.506-4.443A8.194 8.194 0 0 1 .31 8.281C.309 3.708 4.045 0 8.655 0 13.265 0 17 3.708 17 8.281zM8.655 1.32c-3.87 0-7.017 3.123-7.017 6.962a6.89 6.89 0 0 0 1.337 4.082l-.877 2.586 2.696-.857a7.012 7.012 0 0 0 3.86 1.151c3.87 0 7.017-3.123 7.017-6.962 0-3.839-3.147-6.962-7.016-6.962zm4.214 8.87c-.052-.085-.188-.136-.392-.238-.205-.101-1.211-.592-1.398-.66-.188-.067-.324-.101-.46.102-.137.203-.529.66-.649.795-.119.136-.238.153-.443.051-.204-.101-.863-.316-1.645-1.007-.608-.538-1.018-1.202-1.138-1.405-.119-.203-.012-.313.09-.414.092-.091.205-.237.307-.356.103-.118.137-.203.204-.338.069-.136.035-.254-.017-.356-.05-.102-.46-1.1-.63-1.507-.17-.406-.341-.338-.46-.338-.12 0-.256-.017-.393-.017a.755.755 0 0 0-.546.254c-.187.203-.715.694-.715 1.693 0 .998.732 1.963.835 2.099.102.135 1.415 2.251 3.494 3.064 2.08.812 2.08.541 2.455.507.375-.034 1.21-.49 1.382-.964.17-.475.17-.881.119-.966z" fill="#fff"/></symbol></defs><use id="arrow-usage" xlink:href="#arrow" class="sprite-symbol-usage"/><use id="arrowcard-usage" xlink:href="#arrowcard" class="sprite-symbol-usage"/><use id="arrowfooter-usage" xlink:href="#arrowfooter" class="sprite-symbol-usage"/><use id="cart-usage" xlink:href="#cart" class="sprite-symbol-usage"/><use id="checkbox-usage" xlink:href="#checkbox" class="sprite-symbol-usage"/><use id="geo-usage" xlink:href="#geo" class="sprite-symbol-usage"/><use id="inst-usage" xlink:href="#inst" class="sprite-symbol-usage"/><use id="like-usage" xlink:href="#like" class="sprite-symbol-usage"/><use id="liketransp-usage" xlink:href="#liketransp" class="sprite-symbol-usage"/><use id="likewhite-usage" xlink:href="#likewhite" class="sprite-symbol-usage"/><use id="mail-usage" xlink:href="#mail" class="sprite-symbol-usage"/><use id="vk-usage" xlink:href="#vk" class="sprite-symbol-usage"/><use id="wu-usage" xlink:href="#wu" class="sprite-symbol-usage"/></svg>