<svg width="30" height="31" fill="none" xmlns="http://www.w3.org/2000/svg"><path d="M24 13.25c1.356-1.103 3.655-2.65 5-3.75M19 7.125C19.5 6 20.125 4.5 20.5 4M8.875 6.875C8.252 5.242 7.422 2.189 7 .5m-3.5 11c-1.393-.824-1.66-1.09-3-2" stroke="#000" stroke-linecap="round" stroke-linejoin="round"/><path d="M10.713 17.044c-2.355 0-6.761-.805-6.761-.805-2.662 0 .902 13.01 2.835 13.362 3.927.715 10.207.313 12.565 0 2.358-.313 5.103-13.764 2.747-13.362-2.356.402-2.977.805-5.89.805-2.748 0-2.355 2.212-1.178 2.815C18.723 21.749 18.566 9 13.854 9c-2.748 0-4.319 2.413-4.711 5.63" stroke="#000" stroke-linecap="square" stroke-linejoin="round"/></svg>