<svg width="22" height="23" fill="none" xmlns="http://www.w3.org/2000/svg"><path d="M21.988 11.715c0-.942-.075-1.63-.237-2.343H11.22v4.253h6.182c-.124 1.057-.797 2.649-2.293 3.718l-.021.143 3.33 2.636.23.023c2.12-2 3.341-4.94 3.341-8.43z" fill="#4285F4"/><path d="M11.22 22.921c3.028 0 5.57-1.019 7.428-2.776l-3.54-2.802c-.947.675-2.219 1.147-3.889 1.147-2.966 0-5.484-2-6.382-4.763l-.131.012-3.463 2.737-.045.129c1.844 3.744 5.634 6.316 10.021 6.316z" fill="#34A853"/><path d="M4.837 13.727a7.194 7.194 0 01-.373-2.267 7.6 7.6 0 01.36-2.266l-.005-.152L1.312 6.26l-.114.056A11.673 11.673 0 000 11.46c0 1.847.436 3.591 1.197 5.145l3.64-2.878z" fill="#FBBC05"/><path d="M11.22 4.431c2.106 0 3.527.93 4.337 1.707l3.166-3.158C16.778 1.133 14.248 0 11.219 0 6.832 0 3.042 2.572 1.198 6.316l3.627 2.878c.91-2.763 3.428-4.763 6.394-4.763z" fill="#EB4335"/></svg>