<svg width="224" height="150" fill="none" xmlns="http://www.w3.org/2000/svg"><path d="M4.965 54.075C4.577 39.352 2.175 36.032.599 36.19c-.203.081-.403.163-.599.244.179-.134.38-.222.599-.244 14.457-5.791 46.302-11.113 62.84 12.372 20.962 29.77-9.93 44.654-6.068 55.128 5.28 14.321-51.407-11.672-52.406-49.615z" fill="url(#paint0_linear)"/><path d="M141.619 99.64c-6.068-12.68-11.033-25.36 2.757-40.795 13.791-15.436 31.996-.551 42.477 9.371 10.481 9.923 15.445 18.193 6.619 31.423-8.826 13.231-6.067 18.192-17.1 33.077-11.033 14.884-47.994 18.192-61.233 17.089-13.239-1.102-18.205-22.602-3.861-25.91 14.343-3.307 36.408-11.576 30.341-24.256z" fill="url(#paint1_linear)"/><path d="M89.365 13.59c-7.06 20.728 5.517 32.525 12.689 35.833 15.997-19.294-9.93-47.961-12.689-47.961-2.758 0-30.34 32.525-15.996 59.538 1.734 3.267 4.661.551 3.86-2.205C67.3 24.615 19.437 21.85 17.902 24.22c-1.535 2.37 9.552 61.647 47.05 70.61 2.99-10.542 1.467-36.367-28.543-55.332" stroke="#000" stroke-width="2" stroke-linecap="round"/><path d="M72.264 82.5s36.96 62.846 39.167 63.397c2.207.551 67.3-41.346 67.3-43 0-1.654-25.375 4.41-28.133 4.41-2.759 0-52.958-11.576-56.268-13.23-3.31-1.654-23.72-17.641-23.72-19.295 0-1.654 32.546-21.5 33.65-22.051 1.103-.551 14.342-2.757 16.549-2.757 2.207 0 26.479 5.513 28.685 6.065 2.207.55 14.895 11.576 14.895 12.128 0 .551-16.55 3.307-17.101 3.307-.552 0-30.341-9.371-32.547-8.269-2.207 1.103-20.41 30.872-20.41 32.526 0 1.653 17.1 47.961 17.1 47.961s39.167-33.077 40.27-34.179c1.103-1.103-4.413-34.731-4.413-34.731" stroke="#000" stroke-width="2" stroke-linecap="round"/><path d="M181.49 91.872c4.413-7.35 18.756-20.398 40.822-13.782 5.516 28.115-23.169 47.961-48.545 43.551 4.045-8.453 16.88-26.241 35.857-29.77" stroke="#000" stroke-width="2"/><defs><linearGradient id="paint0_linear" x1="35.398" y1="31.231" x2="35.398" y2="107.681" gradientUnits="userSpaceOnUse"><stop stop-color="#94CFB7"/><stop offset="1" stop-color="#9AEB7E"/></linearGradient><linearGradient id="paint1_linear" x1="203.432" y1="43.112" x2="62.278" y2="85.722" gradientUnits="userSpaceOnUse"><stop stop-color="#F99"/><stop offset="1" stop-color="#FF94D4"/></linearGradient></defs></svg>