<svg width="443" height="289" fill="none" xmlns="http://www.w3.org/2000/svg"><path d="M194.026 105.426s-1.865-27.046 9.325-21.45c11.19 5.595 11.19 11.19 24.245 14.921 13.055 3.731 5.595 11.192 6.527 19.585.933 8.394 10.258 8.393 8.393 13.989-1.865 5.596-6.528 15.854 0 17.72 6.527 1.865 34.502 2.798 55.949 48.496 11.812 13.678 31.891 42.899 17.718 50.36-17.718 9.326-83.925 13.057-82.992 8.394.932-4.663 5.595-6.528 3.73-10.259-1.865-3.73-10.258-2.798-8.393-4.663 1.865-1.865 59.68-15.854 59.68-10.259 0 5.596-18.65-17.719-18.65-22.382s3.73 6.528-.933 19.585" stroke="#000" stroke-width="2" stroke-linecap="round" stroke-linejoin="round"/><path d="M249.042 129.674c8.206-5.222 15.853-23.315 17.718-32.641 1.865-9.326 4.662-17.72-4.663-20.517-9.325-2.798-6.527-13.99-16.785-17.72-10.257-3.73-15.852 6.528-27.974 2.798-12.123-3.73-19.583-10.259-31.705-2.798-12.123 7.46 6.527 20.517 2.797 33.574-3.73 13.057 6.528 14.922 7.46 22.382.933 7.461 7.46 26.113 15.853 28.911 8.392 2.798-2.798 10.259-13.055 13.057-10.258 2.798-20.515 9.326-32.638 34.506-5.594 7.15-15.665 21.264-11.189 20.518 5.595-.933-.932-31.709-7.459-35.439-6.528-3.731-85.79-2.798-90.452 0-4.663 2.797-6.528 9.326-2.798 21.45 3.73 12.124 5.595 55.023 13.988 55.023h119.359c1.865 0 7.46-8.393 13.987-10.258 6.528-1.865 5.595 3.73-16.785.932-22.38-2.797-7.46-17.719-2.797-16.787 4.662.933-4.663 16.787-13.988 16.787s-12.122-1.865-13.055-8.393c-.746-5.223-9.324-43.833-11.189-50.361-1.865-6.528-82.992-2.798-82.992-2.798m128.684 75.541c-2.798 5.596 4.662 4.663 13.987 1.866 9.325-2.798 10.257-3.731 13.987-1.866 3.73 1.866 11.19.933 12.123-.932m-17.718-14.922c6.714 0 10.258.622 11.19.933" stroke="#000" stroke-width="2" stroke-linecap="round" stroke-linejoin="round"/><path d="M105.439 208.013c-8.392-1.865-13.055 5.596-8.392 12.124 4.662 6.528 14.92 2.798 14.92-2.798 0-5.595-3.731-6.402-6.528-6.931m107.237-49.958c3.73 9.326 25.177 10.259 29.84 0M1 253.711c24.245-.933 36.367 0 49.422 0s-34.502 8.393-13.055 11.191c17.158 2.238 94.182.932 130.549 0m120.292-2.798c28.907 0 55.95 1.865 47.557-2.798-8.392-4.663-10.257-7.46 8.393-6.528 14.919.746 54.084.311 71.802 0m-275.086 23.316c30.772 0 109.102-6.529 100.709 0-8.392 6.528-57.814 6.528-35.434 10.258 17.903 2.984 118.115 1.243 165.983 0M239.477 45.876c-.5-18.5-3.5-42 4.999-43.001 8.499-1 191.482-5.5 193.481 4.5 2 10 8 141.004 0 142.004-6.399.8-118.321.333-173.483 0" stroke="#000" stroke-width="2" stroke-linecap="round" stroke-linejoin="round"/><path d="M363.63 82.457c-7.019-8.718-17.994-20.516-11.875-43.04 6.119-22.522 40.487-23.448 37.251-25.619-3.236-2.17 0 3.996.9 18.89.9 14.895 2.159 21.252 1.08 20.344-1.08-.908-.72-31.423.72-31.787 1.439-.363 16.377 3.451 16.197 5.268-.18 1.816-13.603 25.792-15.118 24.52-1.514-1.27 11.159-19.616 13.138-18.345 1.98 1.272 10.079 12.715 8.819 13.623-1.26.908-21.597 5.813-20.337 6.721 1.26.908 26.996-12.17 28.435-9.445 1.44 2.724 5.22 33.24-18.717 41.777-23.936 8.537-35.814-3.524-36.534-5.995-.899-3.087 25.376-25.61 22.317-24.52-2.448.871-16.977 18.769-23.936 27.608M267.211 22.56c50.995-1.5 70.493 6.501 48.995 9.001-21.498 2.5-83.492 8.5-48.995 9 34.497.5 66.493 7 52.495 9.5-13.999 2.5-65.994-1-56.995 5.5 8.999 6.5 56.995 2.5 56.995 10 0 6.001-34.997 5.501-52.495 4.501m3.263 36.816c30.497.5 78.492-5 73.992 0-4.499 5-85.491 9.5-76.492 13.5 8.999 4 159.484-3.5 156.485 4.5-3 8-158.485 4-153.985 10.5m-73.406 83.579c-8.552-19.726-3.393-12.799 3.245-.84s8.536 10.831 5.674 5.105m22.262 5.784c12.839-7.482 27.423-13.567 21.492-9.722-5.931 3.845-20.061 12.585-15.141 11.08m-17.378-16.68c-.346 11.175.178 15.89 1.642 9.044s4.493-35.346 4.704-29.164c.169 4.945-.347 8.789-.626 10.093" stroke="#000" stroke-width="2" stroke-linecap="round" stroke-linejoin="round"/></svg>