<svg width="20" height="18" xmlns="http://www.w3.org/2000/svg"><g fill="none" fill-rule="evenodd"><g fill="#828282"><path d="M10 6.2C8.495 6.2 7.273 7.455 7.273 9S8.495 11.8 10 11.8s2.727-1.255 2.727-2.8S11.504 6.2 10 6.2z"/><path d="M10 2C5.455 2 1.573 4.903 0 9c1.573 4.097 5.455 7 10 7 4.55 0 8.427-2.903 10-7-1.573-4.097-5.45-7-10-7zm0 11.667c-2.51 0-4.545-2.091-4.545-4.667 0-2.576 2.036-4.667 4.545-4.667 2.51 0 4.546 2.091 4.546 4.667 0 2.576-2.037 4.667-4.546 4.667z" fill-rule="nonzero"/></g><path d="M18 .5l-16 17" stroke="#828282" stroke-width="1.5"/></g></svg>