<svg width="283" height="378" fill="none" xmlns="http://www.w3.org/2000/svg"><path d="M138.798 141c-1.963-8.943-1.197-18.291 8-22.889 5.615-2.807 18 3.218 18 9.889 0 5.925-23.868 12.736-28.278 15-3.931 2.019-11.001 9.357-1.944 6.222 6.286-2.176 12.423-5.37 18.444-8.222 6.385-3.024 19.316-3.538 24.278-8.5 3.101-3.1-6.931-2.326-8.111-1.889-2.519.933-1.005 5.252-.278 6.889 1.556 3.5-1.139 8.25-2.111 5.5-.972-2.75 2.583-3 4.111 1 .625 1.406.778 6.032 0 7.5-2.504 4.729-17.031-4.451-19.889-5.75-2.313-1.052-5.703 2.597-7.472 3.972-2.47 1.921.999 9.354 2 11.556 1.854 4.078 3.151 8.406 6 11.889 1.768 2.16 8.194-1.917 9.75-2.917 4.571-2.938 11.277-11.054 11-17.139-.017-.387-3.639 2.25-4.528 2.361-5.123 1.96-12.821.598-16.194-4.944-1.801-2.619 4.547 9.614 5 10.972.139.418-9.147-5.518-9.778-5.889-9.356-5.504-26.452 4.761-26 5 9.565 5.064 1.916 14.889-6.389 14.889-4.067 0-6.609-.378-9.222 2.889-4.832 6.04-8.316 23.795-9.361 31.111-1.031 7.217-3.926 18.4-.028 25.222 6.19 10.832 35.49 4.616 42.278-3.444 3.065-3.64-1.105-21.971-.25-27.528 1.459-9.487-1.528-33.5-5.028-28.25-3.01 4.515 3.87 7.582 5.528 12.75 5.376 16.753 10.877 28.735 27.194 34.25.987.507 11.119 6.751 11.786 3.75C175.5 220 181.444 217 180 217c-7.516 0-12.453-5.049-16.591-10.778-1.094-1.515-3.348-6.233-5.083-6.666-.639-.16-5.528 1.215-5.528 1.944 0 .681 3.215 1.491 3.75 1.194 1.266-.703.75-3.488.75-4.694 0-3.88-1.468-6.938-1.972-10.722-.505-3.784-2.989-16.523 3.083-11.389 3.507 3.507 11.541 21.611 4.889 21.611-2.607 0-.765-2 .889-2 4.742 0 16.534 12.081 18.813 15.5" stroke="#000" stroke-width="2" stroke-linecap="round" stroke-linejoin="round"/><path d="M100.297 233c-1.748 3.643-3.513 8.39-1.999 13.5 4 13.5 27.347 18.5 42.75 18.5 4.808 0 1.464-2.5-1.361-2.5-6.686 0-30.198 23.987-25.778 31.5.584.993 11.998 4 14.166 4 10.833 0 42.223-16.346 42.223-27.278 0-15.489-22.811-39.222-38.5-39.222m-30.5 23c1.5 11 5.5 18.5 12.5 29.5m23.501 23c-2.131.884-4.8 1.936-6.167 3.889-.877 1.252 9.355 5.96 14.167 2.111 3.448-2.759.284-4.644-1.389-5.611-8.253-4.769-16.88-7.575-26.111-10.139-2.093-.581-11.109.288-8.223 4 2.803 3.603 6.498 5.556 10.695 7.444 2.255 1.015 6.568 3.306 9.028 3.306m4.662 4.321c-8.321-6.183-18.115 1.008-19.883 9.593-1.652 8.023 4.217 15.706 12.151 16.929 8.091 1.246 16.569-5.079 16.569-13.104 0-7.103-5.523-13.418-15.464-9.468-1.893.752 2.761 13.543 4.97 17.493" stroke="#000" stroke-width="2" stroke-linecap="round" stroke-linejoin="round"/><path d="M152.298 290.5c-1.586 10.314-7.198 32.732-4.972 42.75.437 1.965 17.039-.444 14.861 6.361-1.093 3.418-8.826 2.889-11.639 2.889-1.16 0-13.387.524-9.916-2 3.04-2.211 4.666-4.5 7.666-5m-31.5-24c-4.518-23.596-21.972-31.366-44.027-29.5-21.02 1.778-35.807 15.904-39.695 36.639C28.267 344.288 47.285 369.931 73.3 372c21.057 1.675 45.5-8.997 45.5-29.25 0-2.15-11.25-2.75-11.25-2.75s-35.222-3.579-34.778-14.5c.528-13 25.729-8.722 39.729-11m-10.701-46c-9-2-52.212-.964-50.5 1.5 1.389 2 50.5-.5 50.5 3 0 8-55-2.398-49.112 3 3.141 2.879 27.313-.196 26.313 7.5 0 40.386 10.483 46 1.798 46-8.684 0 15.259-35.758 28.001-48.5l-7-12.5z" stroke="#000" stroke-width="2" stroke-linecap="round" stroke-linejoin="round"/><path d="M170.298 262.5c3.488 0 28.473-4.5 28.473 1.528 0 4.576-31.473 29.472-45.473 38.472M210 264c.054 7.209.343 20.122 1.423 29.108 1.78 14.813 12.429 37.518 7.189 37.518-7.219 0-2.344-24.351-4.24-45.846 2.37-1.93 9.515-2.331 12.799-1.93 22.278 2.721 33.551 21.063 33.627 44.233.077 23.442-13.39 40.749-36.471 44.286-22.865 3.504-45.944-7.737-53.089-29.824-8.11-25.067 4.266-53.936 33.18-58.695" stroke="#000" stroke-width="2" stroke-linecap="round" stroke-linejoin="round"/><path d="M228.298 335.5l23 11.5m-33-9.5l1.5 24.5-1.5-24.5zm7-13.5l26-14.5-26 14.5zm-18.5 5h-28 28zm0 11l-16 19 16-19zm0-24l-21.5-15.5 21.5 15.5zm16.5-6.5l6.5-17-6.5 17zm-22 9l-22.5-9m49 17.5l25.5-5.5-25.5 5.5zm-6 11.5l6 24-6-24zm-16-7l-30.5 7 30.5-7zm-130.013 8.125l1.406 25.676m-8.097-33.372L48.555 345.37l20.539-13.441zM70.798 313l-13.89-19.594L70.797 313zm-9.574 10.178l-24.43-4.484 24.43 4.484zM84.29 307l.595-22.068L84.288 307zm11.604 15.4l17.987-2.777-17.987 2.777zm-27.782-4.302L49.298 301m38 38.5l10 20-10-20zm-17.34-4.035l-17.874 17.102 17.875-17.102z" stroke="#000" stroke-width="2"/><path d="M188.881 239.062c-.294 3.51-.005 9.108 1.643 12.254 6.49 12.389 46.317 13.715 58.141 5.472 1.564-1.09 5.27-15.148 3.249-15.435-2.785-.397-24.308 11.416-22.581 1.381.702-4.075 4.842-8.575 9.474-6.781 1.33.515 5.226 2.434 2.3 3.891-5.738 2.857-26.878 3.623-30.029-4.746-1.497-3.978 1.646-8.937 5.714-6.854 2.529 1.295 2.28 3.697-.255 4.509-7.085 2.268-36.493 1.473-35.513-9.818 2.564-10.595 21.542-12.751 15.889-3.04-5.266 9.047-13.593-2.707-9.975-11.126 2.553-5.942-.76-10.453 1.943-16.436 5.362-11.866 22.197-4.059 13.271 3.331-4.513 3.736-7.719-2.588-5.239-4.509 8.375-6.488 18.476 9.288 19.624 17.614.775 5.627-.895 11.98-8.306 11.126-9.052-.499-12.578-17.031-3.377-17.031 3.408 0 4.712 13.721 1.259 11.072-6.107-4.686 7.387-8.436 16.776-6.963 9.389 1.472 21.958 10.485 16.111 20.027-5.984 9.766-26.764-1.279-17.115-10.5 9.649-9.221 15.014 10.603 7.448 8.5-8.462-2.353 4.167-15.5 15.973-11.482 11.806 4.017 15.649 19.742 8.194 21.58-9.571 2.361-3.634-28.554 3.489-32.234 6.575-3.398 14.686-1.28 18.009 5.905 3.597 7.776 4.715 21.205-3.844 21.599-17.398.801-11.417-26.378-5.22-20.123 6.197 6.255-13.423.144-19.387-3.272-12.271-7.031-28.042-17.894-26.047-8.473 3.143 14.843 23.199-14.954 12-10-6.891 3.048 4.402 9.656 14.047 7.346 9.527-2.282 5.264-16.323 13.953-20.846 9.084-4.728 18.601 2.05 20.5 10 1.718 7.191-8.002 12.099-15.066 10.664-6.835-1.388-10.313-13.85-2.934-13.308 14.15 1.039-.597 10.629-6 11.144-10.332.984-17.681-2.498-21.588-11.144-2.592-5.735-3.084-13.571 0-16.116 7.347-6.063 16.162.074 13.253 8.76-3.869 11.549-34.193.748-26.78-8.76 1.6-2.051 4.434-1.573 5.797.64 6.452 10.472-20.138 20.676-25.53 10.472-1.763-3.336-.277-9.554 2.702-11.112 4.718-5.028 15.127 4.503 17.031 12.294.883 2.555.644 7.976-5.093 9.966-10.705 3.713-13.406-10.563-8.561-15.075M51 264.984c3.86-19.784-.507-47.316-11-64.222-4.616-7.436-16.965-20.051-8-22.222 24.79-6.006 27 62.743 27 75.944 0 5.149 5.94 4.053 5.5-2.484-1.057-15.653-2.556-25.21-3.556-40.016C59.999 198 54.499 188.016 43.999 192c-31.327 11.886 12.518 82.379 22.5 71.5 7.682-8.371-1.926-38.916 1.5-42 10-9 4.06 30.546 8 33.5 8 6 4-17.5 2-31-1.905-12.86-10.055-27.5-3-25.5 9.67 2.741 6.5 56.5 12 61 1.474 1.206 4.944 2.132 3-10.5-1.943-12.631-5.335-24.284-5-37.016.382-14.513 19.866-57.117 8.501-52.984-5.5 2-1.722 17.722 4.5 15.984 7.448-2.081 14.5-16.484 20.5-10.984 3.706 3.398-2.277 9.016-7.5 7.5-7.801-2.265-7.064-10.947-5-17.5 2.234-7.092 14.802-19.864 15.944-12.516C123.5 151.5 102.483 140.954 95 146c-11.37 7.668-9.278 23-14.778 23-8.77 0 14.778-34 8.777-45.961-3.746-7.467-12.499 18.445-13.777 31.945-1.271 13.419-8.723 34.016 0 34.516 8.324.477-4.34-26.307-7.445-32.516C46.365 114.16 57.5 206.268 66.5 204.5c5.091-1-17.073-55.503-26.944-51.016C23.716 160.684 43 180 47.5 173.5c6.218-8.981-47.122-5.909-41.5 4 5.914 10.423 20.823-10.746 22-17.5 3.823-21.93-32.242-7.966-19.193-3.5C22.93 161.334 36 153.412 35 140.206S4.837 112.927 8.306 134c3.47 21.074 21.816-4.657 12.693-1.572-15 5.072 34.58 14.123 28.89-5-.79-2.655-6.494-4.438-8.89-.428-4.169 6.977-2.167 17.565 6.5 17.5 4.266-.032 7.885-3.051 9.5-7 4-9.778-2.127-14.702-7.555-24.572C46.472 107.526 30.943 83 25.499 83c-11.092 0 3.714 29.255 7 28 5.777-2.206-22.945-32.428-27.5-27.5-6.166 6.67 14 29 16 24 2.796-6.993-18.728-13.934-19.5-7.294-.66 5.678 13.443 15.81 14 10.794.454-4.102-11.813-4.953-13-1C1 115 15.39 119.518 23 119c12.487-.851 20.482-6.019 26.89-17.461 3.238-5.784 8.611-28.039-3.667-31.555C42.258 68.849 35 75 41.5 79.428 52 86.581 70.116 59.54 62 59.54c-6.813 0 19.68 85.276 6.5 82.961-5.2-.913 1-32.5 5.5-40 6.222-10.37 5.748-22.388 0-21.5-12.222 1.889 3.407 24.818 7.61 25.428 7.39 1.071 11.91-51.146-6.055-46.89C71.5 60.5 69 74.5 84 80.317 115.244 90.57 98.5 54.5 91.5 63.5c-4.172 9.653 25.037 19.435 24 26-1.5 9.5-6.585 4.484-10 .5-6-7-9.965-5.084-9.5 7 .31 8.076 16.883 17.151 13.999 6.484-3.232-11.96-26.02 4.797-12.499 15.516 3.716 2.946 10 2 13.499-4.516 5.178-9.642 12.112-41.106 21.501-35.484 5.501 3.294-22.501 40.981-22.501 52.5 0 9.774 14.585-11.966 18.945-23 3.556-9 6.081-12.823 12.556-7.5 5.223 4.294-10.444 35.572-17 32.5-6.404-3 14.134-14.654 21.722-20.516 9.576-7.399 29.382-14.056 29.777-2.484.212 6.2-5.977 7.831-10.499 5-2.881-1.803-2.709-8.24-1.501-11.961 1.851-5.697 7.042-7.92 13.001-8.539 9.561-.992 18.236 15.775 13.5 23.5-2.82 4.601-12.501 8-12.501 1.262 0-6.725 10.748-1.873 16.223-5.778 10.104-7.207 4.367-33.667 16.778-33.667 6.5 0 6.691 9.788 5 13.183-5 10.039-23.319-1.972-30-8.5-5.615-5.486-2.504-19.535 4.999-15.794 5.076 2.53 2.083 8.434-3.499 9.794-7.403 1.803-15.324-3.421-16.389-11.072-.909-6.519 5.121-20.418 10.889-14.389 5.768 6.03-35.352 36.276-30 38.961 13.441 6.743 20-42.5 12.5-46-8.091-3.776-17 41-20.5 43-8.09 4.623-2.691-19.658 1-29.5 3-8 10.461-30.185 7-34.5-7.56-9.425-39 43.706-25.5 43.706 13.086 0 12.303-32.201-6-31.206-14 .762-18.5 25-5 20.5 14.912-4.97-1-30.5-17-30-4.74.148-16.89 22-5 18 11.889-4-16.022-18.19-17.945-35.5C74-3 95-.5 88.999 13.5c-5.87 13.696-28.741 25.62-20.944 32.984 8.38 7.913 18.64-4.312 6.945-10.984-16.371-9.34-12 14-19 11.984-3.086-.889-1.388-18.412-19.5-28.984-3.826-2.233-11.343-1.027-11.5 4.484-.3 10.483 19.5 4.016 27 36C54.828 71.045 39.5 42 28.5 38.5 25.09 37.415 16 41 26 55c3.929 5.501 5.499 8.5 9.5 9.5 9.113 2.278-2-21.5-26.5-13.294-5.808 1.945-7.732 11.544-2 15.556 13.985 9.79 14.594-7.778 7.5-7.778-7.703 0-11.373 14.545-4.056 18 9.574 4.52 13.03-2.425 15.555-10" stroke="#000" stroke-width="2" stroke-linecap="round" stroke-linejoin="round"/></svg>