<svg width="67" height="27" fill="none" xmlns="http://www.w3.org/2000/svg"><g clip-path="url(#clip0)"><path d="M54.872 21.024h-.891v.602c-.342-.483-.724-.713-1.353-.713-1.17 0-1.926.88-1.926 2.235 0 1.308.732 2.14 1.878 2.14.621 0 1.05-.214 1.377-.73v.508c0 .88-.342 1.268-1.138 1.268-.605 0-.915-.198-1.01-.642h-.956c.112.872.764 1.308 1.942 1.308 1.56 0 2.077-.761 2.077-2.18v-3.796zm-2.077.65c.724 0 1.154.523 1.154 1.403 0 .903-.446 1.466-1.154 1.466-.7 0-1.146-.547-1.146-1.419 0-.911.422-1.45 1.146-1.45zm5.085-.777c-1.345 0-2.204.896-2.204 2.275 0 1.402.86 2.282 2.204 2.282 1.33 0 2.165-.88 2.165-2.282 0-1.387-.836-2.275-2.165-2.275zm-.016.753c.757 0 1.218.579 1.218 1.514 0 .967-.453 1.553-1.21 1.553-.772 0-1.233-.578-1.233-1.545 0-.943.47-1.522 1.225-1.522zm3.972-2.258h-.955v5.935h.955v-5.935zm5.14 0h-.938v2.195c-.303-.444-.764-.674-1.377-.674-1.202 0-1.966.872-1.966 2.259 0 1.395.772 2.274 1.998 2.274.644 0 1.114-.245 1.384-.705v.594h.9v-5.943zm-2.14 2.282c.772 0 1.225.547 1.225 1.49 0 .95-.445 1.505-1.193 1.505s-1.21-.586-1.21-1.521c0-.92.454-1.474 1.178-1.474z" fill="#CBA659"/><path d="M35.239 8.701h-2.197l-3.23 3.194V5.65h-1.744v11.087h1.743V13.86l1.067-.998 2.459 3.875h2.18l-3.382-5.096 3.104-2.94zm1.727 2.473h1.695c.143-1.046.644-1.435 1.798-1.435 1.13 0 1.663.389 1.663 1.213 0 .293-.031.483-.11.578-.176.23-.534.31-1.776.468-1.615.206-3.62.404-3.62 2.536 0 1.482 1.05 2.401 2.73 2.401 1.066 0 2.1-.261 2.832-.967.128.698.629.967 1.313.967.343 0 .597-.032 1.162-.174v-1.244c-.223.031-.278.031-.406.031-.326 0-.421-.127-.421-.594v-4.081c0-1.728-1.409-2.433-3.319-2.433-1.974.015-3.334.76-3.541 2.734zm5.14 1.53v.95c0 .484.017 1.015-.358 1.387-.405.404-1.098.642-1.83.642-.923 0-1.456-.436-1.456-1.197 0-1.062.939-1.212 1.774-1.339.63-.103 1.29-.119 1.87-.444zm10.625-1.665c0-1.823-1.536-2.568-3.382-2.568-2.07 0-3.311.904-3.311 2.433 0 1.728 1.456 1.966 3.31 2.417 1.02.246 1.926.389 1.926 1.197 0 .713-.692 1.165-1.742 1.165-1.114 0-1.863-.452-1.958-1.514h-1.711c.095 1.839 1.345 2.806 3.637 2.806 2.164 0 3.525-1.03 3.525-2.647 0-1.775-1.727-2.132-3.135-2.457-1.297-.293-2.07-.357-2.07-1.165 0-.594.534-.935 1.441-.935.955 0 1.631.293 1.759 1.276l1.71-.008zm4.003-2.338h-1.68V19.71h1.775v-4.034c.645.888 1.536 1.26 2.634 1.26 2.181 0 3.59-1.648 3.59-4.192 0-2.6-1.44-4.28-3.685-4.28-1.05 0-2.07.405-2.634 1.308v-1.07zm2.268 1.197c1.377 0 2.244 1.11 2.244 2.853 0 1.712-.843 2.774-2.212 2.774-1.425 0-2.276-1.063-2.276-2.806.008-1.76.835-2.821 2.244-2.821zM67 5.603h-1.783v1.743H67V5.603zM67 8.7h-1.783v8.036H67V8.701z" fill="#1C1B17"/><path d="M5.093 21.35c1.234-5.096-.23-5.27-.23-7.743 0-.824.652-2.797.748-3.756.222-2.203-.327-1.617 1.289-3.25l.095-2.266c.812-.777 1.218-1.474 2.213-1.228.604 1.79-.542 1.228-.653 3.32.677.896 1.13.983 1.64 2.108.644 1.427.182 1.41 1.4 2.607 1.79.206 2.873.214 4.154-1.07.135-1.37-.66-1.252.151-2.512.557-.863 1.107-1.331 2.15-.982.341 1.347-1.195 1.624-.717 3.122 2.061.206 2.539-2.623 4.114-2.766 0 3.02-3.167 3.416-3.239 5.873-.047 1.537 1.321 5.769 2.706 6.672 1.218-1.862 2.53-3.89 2.682-6.141C24.654-2.021 4.25-4.818.374 8.63A10.55 10.55 0 000 10.714v1.784c.342 4.422 3.08 8.305 5.093 8.852z" fill="#EF4635"/><path d="M11.062 23.41c5.515.65 4.934-1.046 3.843-7.299-.43-2.464-.93-3.764-3.867-3.534-1.83 2.163-.908 6.38-.844 8.226.048 1.458-.199 1.553.868 2.607zm6.342-1.506c.923-.11 1.083-.3 1.83-.895.12-1.26-.747-3.289-2.1-3.693-.637 1.22-.454 3.392.27 4.588zm-9.088 1.047c0-1.538.191-4.716-.605-5.81-1.058.31-.732 1.213-.74 3.139-.008 1.41-.27 2.528 1.345 2.67z" fill="#EF4635"/></g><defs><clipPath id="clip0"><path fill="#fff" d="M0 0h67v27H0z"/></clipPath></defs></svg>