<svg xmlns="http://www.w3.org/2000/svg" width="156" height="60" fill="none"><path d="M121.918 4.577c3.376 2.388 1.318 11.199.659 14.41-1.4 7.411-3.706 14.658-6.423 21.657-.412 1.07 2.059 1.4 2.47.412 3.129-7.823 5.682-15.975 6.917-24.374.577-3.706 1.894-10.623-1.811-13.258-.906-.576-3.047.33-1.812 1.153z" fill="#000"/><path d="M134.132 38.174c-4.693 4.117-6.423-1.565-6.587-5.517-.247.247-.412.494-.659.658 3.129-.988 6.588-2.717 8.07-5.764.906-1.73.823-3.788-1.153-4.611-6.011-2.553-12.681 5.517-14.74 10.128-.494 1.07 2.059 1.4 2.471.412 1.07-2.47 2.635-4.694 4.693-6.423 1.318-1.07 3.706-3.047 5.6-2.8 2.141.247 1.07 2.553.247 3.623-1.565 2.142-4.035 3.294-6.506 4.035-.247.083-.658.33-.658.66.082 2.964.741 6.834 3.623 8.316 2.8 1.482 5.517-.165 7.658-1.976 1.07-.741-1.318-1.4-2.059-.741zm7.219-12.187c3.624-3.377 5.682.658 9.223 1.482 1.153.247 2.553.247 3.541-.494.988-.659 2.306-3.13 1.07-4.117-.494-.33-1.317-.248-1.811 0-1.153.658-2.141 2.387-2.965 3.376-1.482 1.729-2.882 3.54-4.364 5.27-1.4 1.647-2.8 3.211-4.282 4.693-.164.165-3.788 3.13-3.705 3.377.905.905 1.482.988 1.729.329 0-.082.082-.165.082-.247.165-.33.33-.577.577-.906.741-.906 1.647-1.318 2.882-1.153 2.305.247 2.717 2.47 4.529 3.376 2.305 1.153 4.858-.576 6.505-2.058.988-.824-1.482-1.483-2.141-.824-1.894 1.73-2.717 1.4-4.282-.164a7 7 0 00-2.059-1.4c-1.482-.659-3.211-.824-4.776-.33-1.152.33-4.94 2.8-3.54 4.447 3.129 3.87 15.645-15.563 17.786-16.716h-1.812c-.576-.412-.164.988-.741 1.564-1.399 1.483-3.787-1.07-4.94-1.893-3.129-2.224-5.929-.824-8.482 1.564-1.07.906 1.318 1.482 1.976.824zM34.221.377c-4.282-.823-9.14-.494-12.187 2.965-2.635 2.964-3.211 7.493-1.565 11.116 1.812 4.035 6.094 6.588 10.458 6.588 3.376 0 7.74-1.812 7.74-5.764.083-5.106-6.752-8.07-10.787-9.058-4.94-1.153-10.375-.659-15.069 1.235-10.375 4.2-16.633 16.387-10.21 26.515 7.905 12.516 24.703 10.293 34.996 2.47.906-.74-1.482-1.235-2.14-.74-9.8 7.41-26.104 8.645-31.704-4.612-4.446-10.54 3.377-21.08 13.752-23.468 5.517-1.318 12.187-.494 16.469 3.54 5.517 5.27-1.235 10.623-7 7.33-3.705-2.06-5.599-6.341-4.775-10.376C23.35 2.6 28.374.707 33.479 1.695c1.318.247 2.389-.988.742-1.318z" fill="#000"/><path d="M35.95 24.093c-.74 3.294-3.211 19.845 4.53 17.786 7.493-1.976 11.363-12.27 12.516-18.94.164-.905-2.388-.987-2.553 0-1.07 6.177-3.953 13.67-9.634 16.964-.989.576-1.07.906-1.73.33-.823-.824-1.07-3.047-1.235-4.036-.659-4.035-.247-8.152.659-12.104.165-.824-2.306-.988-2.553 0zm23.798 8.811c3.294-.248 7.41-1.07 9.552-3.87 1.153-1.483 1.317-3.46-.082-4.777-2.965-2.882-8.647-1.317-11.529.741-4.282 2.965-7.41 10.458-3.047 14.74 3.788 3.706 10.294 2.635 14.246-.164 1.235-.824-1.07-1.565-1.812-.989-3.046 2.141-7.905 3.377-10.622.083-2.717-3.212-.906-8.564 1.647-11.281 1.812-1.977 5.929-4.365 8.646-2.636 1.565.989 1.235 2.883.082 4.118-1.893 2.058-5.022 2.552-7.658 2.717-1.729.082-.576 1.4.577 1.318zm20.339-17.787c-1.812 5.435-10.046 27.586 1.647 27.01 1.482-.083 1.565-1.483 0-1.4-7.905.411-.412-21.575.823-25.198.33-1.07-2.223-1.235-2.47-.412z" fill="#000"/><path d="M73.252 24.587c4.118-.906 8.235-.494 12.434-.247 1.565.082 1.483-1.318 0-1.4-4.446-.33-8.728-.659-13.092.247-1.647.33-.577 1.647.658 1.4zm15.646-.906c-.741 4.282-3.706 16.469 2.553 18.033 8.81 2.141 14.081-12.104 14.739-18.28h-2.552c-.989 10.458-1.318 26.68-11.446 33.02-2.8 1.73-8.894 3.788-10.705-.247-1.482-3.211 2.223-6.011 4.694-7.164 4.858-2.306 16.386-3.294 18.198 3.54.247.824 2.717.66 2.47-.41-1.894-7.082-13.67-6.918-19.104-5.436-3.211.906-7.329 2.8-8.646 6.176-.988 2.635.412 5.023 2.8 6.176 6.093 2.882 13.669-1.564 17.21-6.505 5.681-8.152 6.258-19.68 7.164-29.15.082-.906-2.388-.988-2.553 0-.412 4.117-1.729 8.07-4.117 11.528-1.647 2.388-6.588 7.988-8.646 3.541-1.977-4.117-.247-10.705.494-14.904.164-.741-2.388-.906-2.553.082zm24.703 16.387c0 1.152-.905 2.058-2.47 2.058-1.565 0-2.388-.906-2.388-2.058 0-1.153.906-2.06 2.388-2.06 1.565 0 2.47.907 2.47 2.06z" fill="#000"/></svg>