<svg width="33" height="21" fill="none" xmlns="http://www.w3.org/2000/svg"><g clip-path="url(#clip0)"><path d="M12.6 10.5c0-3.35 1.527-6.332 3.9-8.255A9.979 9.979 0 0010.2 0C4.568 0 0 4.7 0 10.5 0 16.297 4.567 21 10.2 21a9.976 9.976 0 006.3-2.245c-2.373-1.924-3.9-4.904-3.9-8.256z" fill="#FE0000"/><path d="M22.8 0a9.976 9.976 0 00-6.301 2.245c2.374 1.924 3.9 4.904 3.9 8.254 0 3.352-1.526 6.332-3.9 8.254a9.976 9.976 0 006.3 2.246c5.633 0 10.2-4.702 10.2-10.5C33 4.698 28.433 0 22.8 0z" fill="#FE9A00"/><path d="M20.4 10.5c0-3.35-1.527-6.332-3.9-8.255-2.375 1.924-3.901 4.904-3.901 8.254 0 3.352 1.526 6.332 3.9 8.254 2.374-1.922 3.9-4.902 3.9-8.254z" fill="#FE4F00"/></g><defs><clipPath id="clip0"><path fill="#fff" d="M0 0h33v21H0z"/></clipPath></defs></svg>