<svg width="428" height="436" fill="none" xmlns="http://www.w3.org/2000/svg"><path d="M121.194 99.961c.753 10.522 2.969 22.578-.179 29.007-3.149 6.428-10.711 9.252-16.122 5.624-5.412-3.628-8.78-9.209-9.314-7.721-.534 1.488-.21 8.998-3.149 6.428-2.938-2.57-13.75-10.326-14.132-15.337-.382-5.011-1.323-7.534-2.193-13.056-.87-5.523 1.257-10.975 10.375-16.263 9.118-5.288 8.225-9.81 11.79-12.728 3.567-2.918 15.889 4.374 20.43 2.48 4.542-1.895 13.637-6.183 14.96 1.35 1.322 7.535-6.785 12.346-4.277 11.905 2.509-.441 1.034-1.476.371 5.51-.663 6.988-12.415-3.292-15.946-1.874-3.531 1.418-6.657 6.847-9.63 5.777-2.973-1.07-5.482-.629-4.448-2.106 1.034-1.476.359 6.011-.21 8.999-.57 2.988-1.662 6.964-.14 5.999 1.521-.965-2.393-4.558-4.437-2.605-2.044 1.953-1.128 5.476-.187 7.999m31.826 49.264c2.728 11.569 7.429 24.183 11.366 26.777 3.937 2.593 6.376 5.151 4.296 8.604-2.079 3.452 2.068-2.953-6.445-2.152-8.514.801-8.28-9.198-10.625-15.755-1.876-5.246-2.205-12.557-2.134-15.556m165.725-56.636c2.103-4.452 2.243-10.451-.671-14.021-2.915-3.57-7.339-6.675-11.382-4.769-4.042 1.906-8.525 1.301-10.511.754-1.986-.547-5.899-4.14-2.415-3.558 3.484.582-3.625 5.417-7.132 5.835-3.508.418-3.403-4.081-1.893-4.546 1.51-.465 2.045-1.953 1.081-3.476s-.394-4.51 2.661-6.94c3.055-2.43 10.476.746 14.518-1.16s6.945 2.163 15.482.363c8.537-1.8 5.677 13.638 9.556 18.731 3.878 5.093-2.22 9.452-3.289 12.428-1.069 2.976-9.119 5.288-9.723 9.775-.605 4.488-11.744 10.729-7.784 12.323 3.96 1.593 5.63 15.637 17.152 14.407 11.522-1.23 14.959 1.351 20.289 8.479 5.33 7.128 15.479 21.871 18.694 33.951 3.215 12.08-5.213 51.897-7.745 53.339-2.532 1.441-10.546 2.253-8.49-.2 2.056-2.452 1.116-4.975-.812-8.022-1.927-3.046 3.41-38.934-5.392-47.144-8.803-8.209-1.846-6.546-3.391-4.581-1.545 1.965 6.231 32.658 5.498 42.645-.733 9.987-.644 27.495-3.699 29.925-3.055 2.429-75.377-3.269-73.75-8.733 1.626-5.464 6.886-59.361 6.655-70.871-.23-11.509 2.571-24.448 2.966-19.938.394 4.511-30.079-17.211-39.833-27.444-9.754-10.232-17.8-29.428-15.697-33.88 2.103-4.453 3.683-7.917 2.708-8.94-.976-1.024-.894-4.523.117-5 1.01-.476 6.094 17.15 18.833 27.953 0 0 19.15 14.454 34.527 19.316 15.376 4.863 18.978.445 16.528-1.613-2.45-2.058-5.342-6.628-5.724-11.638-.263-3.008-.656-10.42-.125-16.009" stroke="#000" stroke-width="2" stroke-linecap="round" stroke-linejoin="round"/><path d="M268.945 149.444c-.117 4.999 2.204 12.556-3.5 21.426-5.704 8.869-2.025 22.461-8.576 24.808-6.551 2.347-11.022 1.242-10.059 2.765.964 1.523 1.604-4.464.199-8.498-1.404-4.035 5.728-9.87 9.329-14.287 3.602-4.417 10.55-23.762 9.598-25.785-.952-2.023-2.856-6.069-.846-6.522 2.009-.453 7.967 1.187 6.933 2.664-1.034 1.476-2.056 2.452-3.055 2.429m-26.835 100.409s-6.629 48.362-3.488 84.95c3.141 36.587 6.934 66.688 6.84 70.687-.093 3.999 7.386 4.675 10.383 4.745 2.997.07 6.094-46.875 7.409-60.349 1.315-13.474 9.684-50.792 6.629-48.363-3.055 2.43-.41 17.497 5.197 34.135 5.607 16.638 33.032 61.798 37.399 67.402 4.366 5.605 7.92 3.187 10.987.258 3.066-2.929-9.38-26.23-21.128-58.017-11.749-31.788 2.094-89.485 2.094-89.485" stroke="#000" stroke-width="2" stroke-linecap="round" stroke-linejoin="round"/><path d="M322.256 412.293c-2.162 6.952-13.824 14.181-16.774 12.111-2.949-2.07-1.369-5.534 2.209-8.952 3.577-3.417 7.69-8.322 9.723-9.775 2.032-1.453 8.189-8.311 11.533-1.731 3.344 6.581-2.708 8.94-4.74 10.393m-78.073 2.749c-5.251 5.038-18.952 5.719-20.533 2.479-1.582-3.239 1.475-5.506 6.258-6.765 4.783-1.259 10.752-3.561 13.234-3.849 2.481-.287 11.184-3.309 10.93 4.07-.253 7.379-6.69 6.514-9.171 6.801m-136.559-5.922c5.01 5.279 18.663 6.601 20.395 3.439 1.731-3.162-1.217-5.57-5.935-7.051-4.719-1.482-10.574-4.062-13.039-4.465-2.465-.403-11.017-3.83-11.11 3.553-.092 7.382 6.378 6.82 8.843 7.223M40.333 404.02c1.72 7.075 12.904 15.025 15.978 13.145 3.074-1.879 1.715-5.436-1.64-9.073-3.356-3.636-7.151-8.791-9.089-10.369-1.937-1.578-7.65-8.811-11.401-2.454-3.752 6.357 2.14 9.093 4.077 10.671m246.867-264.62c-5.103 25.89-7.853 79.346 7.313 93.207 15.166 13.86 17.397 3.909 17.339 6.409-.058 2.499-11.01.742-17.164-13.908-6.153-14.65-10.156-35.752-3.948-66.118 4.965-24.292 20.18-15.366 27.167-7.866" stroke="#000" stroke-width="2" stroke-linecap="round" stroke-linejoin="round"/><path d="M277.508 39.727c-3.267 6.122-.149 6.375-10.337 14.64-10.187 8.264-2.836 14.438 3.052 19.078 5.888 4.64 13.055-2.695 18.677-8.065 5.623-5.37.328-13.998-7.803-8.186-8.131 5.811 7.359 27.183 28.939 23.187 21.581-3.996 27.476 21.652 19.24 31.963-8.237 10.311-21.093 4.507-25.97-.609-4.877-5.116 6.379-16.356 10.129-5.765 3.749 10.592-23.336 14.959-26.138 27.898-2.801 12.939 18.978.445 21.581-3.995 2.602-4.441-17.387-4.41-11.093 4.241 6.294 8.651 21.288 8.502 24.979 21.594.212 5.173 3.317 16.284 14.039 19.336 13.403 3.816 32.462.762 23.067-3.46-9.395-4.222-19.048 2.554-17.413 18.098 1.635 15.545-8.985 42.306.98 43.54 9.965 1.234 8.4-17.31.316-13.498-8.085 3.812-5.15 27.89-12.688 29.714M277.508 39.727c3.355-6.286 5.08-11.516.26-11.122-9.512.777-12.237 10.465-.26 11.122zm0 0s11.084-3.865 16.901 3.774c5.818 7.639 10.044 19.242 5.166 14.126-1.473-8.204-3.802-29.6 3.817-34.924 7.619-5.323 6.66 35.67 17.659 35.428 10.999-.242.819-34.994 5.142-48.898 4.323-13.904 35.623 57.857 17.144 57.424-18.478-.434 3.54-44.434 15.026-44.165 11.487.27 16.552 61.411 3.754 53.108-12.798-8.303 9.063-24.296 26.114-26.898 17.05-2.6-8.209 51.827-20.995 43.024-12.786-8.803 44.995-.945 52.814-14.767 7.819-13.822-17.651-14.42-17.538 2.09.113 16.508-.96 40.993-11.389 38.247-10.429-2.745-13.098-16.813-15.26-9.861-2.161 6.952 20.629-6.019 39.177-8.585 18.549-2.566 7.293 8.674-.444 18.997-7.738 10.322-32.654 28.745-32.302 13.747.351-14.997 28.252 31.175 36.929 23.375 4.395-2.731 9.486-8.181-5.306-8.127-18.49.066-32.244 11.248-32.478 21.246-.234 9.998 20.939.491 13.114-5.194-7.826-5.686-19.126-15.455-24.901-3.585-5.774 11.869-23.796-8.061-18.662-13.943s4.549 19.114-7.936 18.821c-12.486-.293-18.268-9.432-4.05-19.102 14.218-9.671 41.643-28.535 41.467-21.036-.175 7.499-47.808 14.384-38.585 4.597 9.224-9.787 37.238-11.131 28.865-16.329-8.372-5.199-24.798 13.423-24.576 3.925.222-9.499 2.349-14.951 10.339-14.763 7.991.187-14.358 15.669-11.986-.281 2.372-15.95 7.6-25.832 14.893-17.158-2.923 3.933-10.8 8.85-18.919-2.944-10.15-14.744-1.023.976-2.002 21.461-.979 20.485-5.103 25.89-12.247 32.225-5.715 5.068-2.592 11.11-.316 13.497m-1.388 102.006c-2.091 3.952-8.248 10.81-8.678 7.799-.429-3.011 1.128-5.475.629-5.487-.5-.011-3.055 2.429-2.521.941.535-1.487 2.056-2.452 2.091-3.952m-196.538-78.637c-.152 6.499.043 19.508 7.811 29.194 7.769 9.686 14.086 81.361 10.985 85.79-3.102 4.429-62.58 5.035-68.573 4.894-5.993-.141-10.855-91.289-5.28-94.66 5.576-3.37-16.274 12.123-18.205 30.585-1.931 18.462-14.288 12.67-13.707 9.182.581-3.487 7.916-39.329 14.608-47.675 6.691-8.347 17.947-19.587 20.608-26.527 2.661-6.94 3.418-17.927 10.063-24.273 6.645-6.347 21.916 3.015 31.939 1.749 10.024-1.265 9.349 6.222 11.928 2.781 2.579-3.441-20.663 7.518-23.847 15.447-3.184 7.928 2.61 16.567 14.702 12.349 12.091-4.218 39.735-11.073 51.596-26.8 11.861-15.728 22.945-40.978 23.063-45.977.117-5-4.866-5.616-7.956-1.687-3.09 3.929-14.998 21.656-25.22 31.42-10.223 9.764-24.289 12.936-30.282 12.795" stroke="#000" stroke-width="2" stroke-linecap="round" stroke-linejoin="round"/><path d="M32.945 240.945c-.105 4.499.695 13.021 3.239 11.08 2.544-1.941 1.674-7.463 2.66-6.94.988.523 4.437 2.605 3.485.582a22.157 22.157 0 01-1.405-4.035M190.57 82.08c-1.939-2.546-2.903-4.069-3.472-1.081-.57 2.988.823 7.522-1.14 5.976-1.962-1.547-2.45-2.059-2.485-.559l-.105 4.5M126.4 283.152c.242 11.01-3.437 61.443-8.97 84.322-5.532 22.879-6.441 40.364-8.439 40.317-1.998-.047-7.55 2.324-7.433-2.675.117-4.999.129-69.523-.543-83.544-.537-11.217-.661-28.693-.655-36.029m-2.52.941c-1.593 3.964-8.674 50.315-14.413 60.685-5.74 10.369-33.715 52.729-37.188 51.647-3.472-1.081-8.408-3.698-7.35-6.174 1.057-2.476 26.859-37.385 27.627-48.871.615-9.189 5.157-42.395 7.35-57.849" stroke="#000" stroke-width="2" stroke-linecap="round" stroke-linejoin="round"/><path d="M30.83 245.897c-2.556 2.441-3.243 10.428-1.222 9.475 2.021-.953-17.015 1.102-22.556 2.973-5.54 1.87-1.958 40.969 1.015 42.039 2.973 1.07 68.48-.895 61.094-5.569" stroke="#000" stroke-width="2" stroke-linecap="round" stroke-linejoin="round"/><path d="M61.507 257.12c.117-4.998-27.92-2.655-26.945-1.632.975 1.023 8.49.199 8.549-2.3.058-2.499-1.583-3.538-1.916-3.546" stroke="#000" stroke-width="2" stroke-linecap="round" stroke-linejoin="round"/></svg>