<svg width="87" height="23" fill="none" xmlns="http://www.w3.org/2000/svg"><g clip-path="url(#clip0)"><path d="M82.727.471l-2.742 17.505c-.08.314.242.628.565.628h2.822c.483 0 .887-.314.967-.785L87.081.628C87.16.314 86.839 0 86.516 0h-3.144c-.403 0-.645.235-.645.471zm-8.306 12.01c-.322 1.806-1.774 3.062-3.628 3.062-.968 0-1.693-.314-2.177-.864s-.645-1.334-.484-2.276c.323-1.806 1.774-3.062 3.628-3.062.887 0 1.694.314 2.177.864.404.55.565 1.413.484 2.276zm4.515-6.28h-3.225c-.242 0-.483.236-.564.471l-.161.942-.242-.314c-.726-1.02-2.258-1.334-3.79-1.334-3.548 0-6.611 2.669-7.257 6.437-.322 1.884.162 3.69 1.21 4.945.967 1.178 2.419 1.649 4.112 1.649 2.903 0 4.515-1.806 4.515-1.806l-.161.864c-.08.314.242.628.564.628h2.903c.484 0 .887-.314.968-.785l1.774-10.99c-.081-.393-.323-.707-.645-.707zm-19.431.079c-.403 2.433-2.258 2.433-4.032 2.433h-1.048l.726-4.474c.08-.236.242-.471.564-.471h.484c1.21 0 2.338 0 2.983.706.323.393.404.942.323 1.806zM58.699 0h-6.773c-.484 0-.887.314-.968.785l-2.741 17.191c-.081.314.242.628.564.628h3.467c.323 0 .565-.235.645-.55l.806-4.866c.081-.471.484-.785.968-.785h2.177c4.435 0 7.015-2.12 7.74-6.359.323-1.884 0-3.297-.886-4.317C62.649.628 60.956 0 58.698 0z" fill="#2890C3"/><path d="M47.894 6.201h-3.226c-.322 0-.564.157-.806.393l-4.515 6.594-1.935-6.28c-.08-.393-.484-.628-.887-.628H33.3a.582.582 0 00-.565.706l3.548 10.44-3.387 4.71c-.242.393 0 .864.484.864h3.225c.323 0 .565-.157.807-.392L48.377 7.065c.242-.314 0-.864-.483-.864zm-21.771 6.28c-.322 1.806-1.774 3.062-3.628 3.062-.968 0-1.693-.314-2.177-.864s-.645-1.334-.484-2.276c.323-1.806 1.774-3.062 3.629-3.062.886 0 1.693.314 2.177.864.403.55.645 1.413.483 2.276zm4.516-6.28h-3.226c-.241 0-.483.236-.564.471l-.161.864-.242-.314c-.645-.942-2.258-1.335-3.79-1.335-3.547 0-6.611 2.67-7.256 6.437-.323 1.884.16 3.69 1.209 4.946.968 1.177 2.419 1.648 4.112 1.648 2.903 0 4.515-1.805 4.515-1.805l-.16.863c-.081.314.241.628.564.628h2.902c.484 0 .887-.314.968-.785l1.774-10.99c0-.314-.323-.628-.645-.628zm-19.432.079c-.404 2.433-2.258 2.433-4.032 2.433h-.968l.726-4.474c0-.314.242-.55.484-.55H7.9c1.21 0 2.338 0 2.983.707.322.47.484 1.02.322 1.884zM10.4 0H3.708c-.484 0-.887.314-.968.785L0 17.976c-.08.314.242.628.564.628h3.225c.484 0 .887-.314.968-.785l.726-4.631c.08-.471.483-.785.967-.785h2.177c4.435 0 7.015-2.12 7.74-6.359.323-1.884 0-3.297-.886-4.317C14.432.628 12.738 0 10.4 0z" fill="#28346A"/></g><defs><clipPath id="clip0"><path fill="#fff" d="M0 0h87v23H0z"/></clipPath></defs></svg>