<svg width="103" height="418" fill="none" xmlns="http://www.w3.org/2000/svg"><g clip-path="url(#clip0)"><path d="M63.191 189.917c.688 5.494.563 13.453 6.45 10.813 5.886-2.641 25.92-12.374 27.097-9.41 2.319 6.001-25.804 23.388-30.146 32.91-3.483 7.523 1.363 31.474-7.003 32.581-9.982 1.32-4.19-25.332-9.332-33.832-4.732-7.86-34.676-23.233-32.413-28.752 2.302-5.411 25.752 11.067 31.091 8.078 3.807-2.202 1.783-7.885 3.923-12.393 3.176-6.689 20.712-18.856 17.956-23.372-1.304-2.134-6.533 2.689-13.593 2.545-7.346-.102-13.61-3.61-14.508-1.719-1.07 2.254 4.346 8.299 9.535 10.318" stroke="#000" stroke-width="1.701" stroke-miterlimit="10"/></g><path d="M21.052 1C41.585 38.745 55.179 81.481 57 158M9 417c29.209-38.179 43.721-79.741 47.308-150" stroke="#000" stroke-width="1.7" stroke-dasharray="9 7"/><defs><clipPath id="clip0"><path fill="#fff" transform="rotate(115.395 -5.576 123.123)" d="M0 0h88.697v72.197H0z"/></clipPath></defs></svg>