<svg width="934" height="105" fill="none" xmlns="http://www.w3.org/2000/svg"><g clip-path="url(#clip0)"><path d="M457.228 40.875c5.495-.688 13.454-.563 10.813-6.45-2.64-5.886-12.374-25.92-9.41-27.097 6.001-2.319 23.389 25.804 32.91 30.146 7.524 3.482 31.474-1.363 32.581 7.003 1.32 9.981-25.332 4.19-33.831 9.331-7.86 4.733-23.234 34.677-28.752 32.414-5.412-2.302 11.066-25.752 8.077-31.091-2.202-3.808-7.885-1.783-12.393-3.923-6.689-3.176-18.856-20.713-23.372-17.956-2.133 1.303 2.69 6.533 2.546 13.593-.102 7.346-3.61 13.61-1.72 14.508 2.254 1.07 8.3-4.346 10.318-9.536" stroke="#000" stroke-width="1.701" stroke-miterlimit="10"/></g><path d="M1 83c84.562-20.444 248.568-33.98 420-35.792M933 95c-85.537-29.082-235.093-43.532-392.5-47.103" stroke="#000" stroke-width="1.7" stroke-dasharray="9 7"/><defs><clipPath id="clip0"><path fill="#fff" transform="rotate(25.395 222.346 995.182)" d="M0 0h88.697v72.197H0z"/></clipPath></defs></svg>