<svg width="48" height="37" fill="none" xmlns="http://www.w3.org/2000/svg"><path fill-rule="evenodd" clip-rule="evenodd" d="M42.905 9.534c-1.509 1.27-1.862 5.723-1.862 5.723H39.99s.082-3.652-1.735-5.463c-1.817-1.813-5.067-2.08-5.067-2.08l.105-1.111s3.765-.44 5.01-1.682C40.02 3.21 39.918.09 39.918.09L40.99 0s.19 3.526 1.671 4.988c1.454 1.435 5.286 1.603 5.286 1.603L48 7.765s-3.237.206-5.095 1.769zM34.88 23.746L34.266 37l-7.157-.035-.111-13.437 6.531-.073-5.099-8.933-14.923.16 1.724 3.085-2.533.373-1.94-3.405s.701-4.788 4.634-4.788c3.933 0 13.038.16 16.54.32 3.442.157 7.762 7.763 2.947 13.479zM8.943 11.936H8.32s.007-2.172-1.064-3.239C6.185 7.63 4.309 7.493 4.309 7.493l.062-.655s2.262-.238 2.997-.97c1.012-1.008.911-2.867.911-2.867l.634-.052S9.049 5 9.923 5.863c.858.845 3.093.968 3.093.968l.03.692s-1.909.121-3.004 1.042c-.89.747-1.1 3.37-1.1 3.37zm-4.34.723s.1 2.088.973 2.95c.858.845 3.13.932 3.13.932l.03.692s-1.909.121-3.004 1.042c-.89.748-1.098 3.37-1.098 3.37h-.622s.007-2.17-1.064-3.238C1.876 17.34 0 17.204 0 17.204l.062-.656s2.262-.237 2.997-.97c1.012-1.008.91-2.866.91-2.866l.633-.053zm6.749 7.023l4.472-.212 2.748-1.969 2.478 1.33 4.31-.904 1.078 1.436 1.67.107 1.616 2.34-19.988.426 1.616-2.554zm14.13 17.276l-16.49-.081L7.55 23.749l17.156-.194.776 13.403zm-8.802-9.893c-2.071 0-2.511 2.563-1.102 3.462l-.204 2.47 2.763.1-.386-2.555c1.34-.884 1.004-3.477-1.072-3.477z" fill="#fff"/></svg>