<svg width="61" height="27" fill="none" xmlns="http://www.w3.org/2000/svg"><path d="M26.712 22.467h-4.928l3.078-18.583h4.93l-3.08 18.583zM17.637 3.884l-4.696 12.781-.556-2.752-1.657-8.354s-.201-1.675-2.337-1.675H.62L.533 4.2s2.377.486 5.156 2.123l4.277 16.144H15.1l7.84-18.583h-5.302zm33.339 12.011l2.589-6.953 1.455 6.953h-4.044zm5.42 6.572h4.527L56.974 3.884h-3.962c-1.83 0-2.275 1.386-2.275 1.386l-7.344 17.197h5.136l1.03-2.76h6.263l.575 2.76h-.001zM43.777 8.354l.703-3.99s-2.17-.813-4.43-.813c-2.447 0-8.254 1.05-8.254 6.151 0 4.802 6.816 4.863 6.816 7.382 0 2.52-6.113 2.07-8.13.482l-.733 4.172s2.2 1.048 5.563 1.048c3.362 0 8.434-1.71 8.434-6.361 0-4.83-6.875-5.28-6.875-7.382 0-2.102 4.797-1.83 6.906-.69v.001z" fill="#005CA9"/><path d="M12.385 13.913L10.728 5.56s-.201-1.677-2.337-1.677H.62L.533 4.2s3.734.759 7.313 3.606c3.425 2.721 4.541 6.107 4.541 6.107h-.002z" fill="#F7A823"/></svg>