<svg width="88" height="108" fill="none" xmlns="http://www.w3.org/2000/svg"><path d="M16.861 19.632c.62.275 1.373.608 2.236.977M53.9 34.538c.497-1.988.745-7.453.215-12.67-7.44 9.47-26.54 2.364-35.02-1.26m0 0c0 11.462 1.69 29.295 11.923 33.758m9.47 0c-1.49 1.04-3.725 1.04-4.255 1.04-1.947 0-3.678-.369-5.215-1.04M13.88 68.076c-6.706-.746-11.176-.746-12.666-2.981-1.49-2.236 5.215-7.453 6.705-20.868C9.41 30.81 8.666 1 37.725 1 60.97 1 65.293 24.352 64.548 36.028m-33.53 18.338v8.493c-2.924 0-8.272.638-12.957 2.748m-14.61 35.261c.745-7.701 3.427-24.594 8.196-30.556 1.649-2.062 3.939-3.59 6.414-4.705m0 0c3.056 6.195 10.507 9.176 19.448 8.43M16.861 90.435c0 5.963.746 9.689 6.707 11.925m36.51-11.925c-.216 5.963-.746 10.434-8.942 11.925m12.667-17.887l-6.706-5.962c.993-1.74 3.427-5.366 5.216-5.963 2.235-.745 7.45 5.963 7.45 8.199v22.358m2.98-24.594c1.74 0 5.663-1.64 7.452-8.199 2.235-8.198-8.196-23.849-26.08-23.103-17.882.745-13.41 23.103-12.665 38.755-4.967 1.49-14.902 5.962-14.902 11.924 3.726 8.198 12.667 9.689 16.392 8.943 3.726-.745 2.98-9.688 4.47-14.905 1.491-.745 8.197-2.981 12.667-5.962" stroke="#000"/><path d="M48.156 44.226c.745-5.217 4.47-8.943 10.431-5.962m2.98 2.981c5.216-2.98 9.687-2.236 11.177 2.981m2.98 2.982c6.706-1.491 11.176 2.98 10.431 8.943m-2.98 4.472c5.216 2.98 4.47 8.198 1.49 11.179M26.548 33.047c2.98-2.236 4.47-1.49 5.216-.745m9.686 0c1.788-1.192 4.222-.497 5.216 0M30.274 44.227c3.725 2.98 8.94 4.471 12.666 0m4.255 47.698l-5.96-5.963c-.497.249-1.788.298-2.98-1.49-1.193-1.789-5.961-.745-8.197 0m11.177 1.49c-1.49-4.471-4.47-6.707-6.706-6.707" stroke="#000"/></svg>